<svg width="224" height="16" viewBox="0 0 224 16" fill="none" xmlns="http://www.w3.org/2000/svg">
<rect width="224" height="16" fill="#F6F6F6"/>
<path d="M4.4682 15.8092H0V0.19043H6.78033L12.1445 9.94639L17.6011 0.19043H24.289V15.8092H19.8439V4.67852L13.63 15.8092H10.63L4.4682 4.67852V15.8092Z" fill="#1D2E43"/>
<path d="M30.908 15.8092H25.8965L34.1103 0.19043H39.9716L48.0352 15.8092H42.9947L41.5381 13.2099H32.3705L30.908 15.8092ZM34.1103 9.45541H39.8907L36.9716 3.92761L34.1103 9.45541Z" fill="#1D2E43"/>
<path d="M61.7371 0.19043C64.1243 0.19043 65.7428 0.560105 66.6099 1.29368C67.4769 2.02725 67.9047 3.36732 67.9047 5.3139C67.9047 6.66552 67.7139 7.6648 67.3266 8.32328C66.9451 8.98177 66.2978 9.42076 65.396 9.64603C66.1937 9.84242 66.7891 10.189 67.1879 10.6857C67.5868 11.1825 67.7833 11.8236 67.7833 12.615V15.815H63.1822V13.4352C63.1822 12.8171 63.0434 12.3955 62.7602 12.1644C62.4827 11.9334 61.9278 11.8179 61.107 11.8179H54.2573V15.815H49.6504V0.19043H61.7371ZM61.5637 4.08357H54.2573V7.90162H61.5637C62.1764 7.90162 62.6041 7.75144 62.8527 7.45686C63.1012 7.16227 63.2226 6.62509 63.2226 5.8453C63.2226 5.22725 63.0897 4.78249 62.8296 4.50523C62.5637 4.2222 62.1417 4.08357 61.5637 4.08357Z" fill="#1D2E43"/>
<path d="M75.4978 5.98971H77.4284L83.4515 0.19043H89.5556L81.4168 7.90162L90.6249 15.8092H84.2376L77.4284 9.90018H75.4978V15.8092H70.9082V0.19043H75.4978V5.98971Z" fill="#1D2E43"/>
<path d="M91.8684 10.6166L96.406 10.6051V10.8881C96.406 11.4773 96.5447 11.87 96.8222 12.078C97.0996 12.2859 97.6777 12.3899 98.5621 12.3899H104.331C104.897 12.3899 105.302 12.2917 105.545 12.0895C105.787 11.8874 105.909 11.5581 105.909 11.096C105.909 10.6282 105.77 10.2931 105.487 10.091C105.209 9.88881 104.608 9.75018 103.683 9.68087L96.4696 9.51336C94.6661 9.45559 93.4407 9.10325 92.8048 8.44477C92.169 7.78628 91.8511 6.59061 91.8511 4.85776C91.8511 3.96246 91.9378 3.2231 92.1054 2.64549C92.2731 2.06209 92.5447 1.58267 92.9147 1.19567C93.354 0.762455 93.9262 0.456316 94.6314 0.271479C95.3366 0.0866411 96.4927 0 98.0881 0H105.1C106.839 0 108.088 0.329241 108.857 0.987725C109.62 1.64621 110.001 2.70903 110.001 4.18773C110.001 4.28592 110.001 4.38989 109.996 4.49964C109.99 4.60938 109.978 4.79422 109.961 5.0426H105.533V4.97906C105.533 4.45921 105.406 4.0722 105.152 3.81227C104.897 3.55235 104.522 3.42527 104.013 3.42527H98.7181C97.8337 3.42527 97.2499 3.51769 96.9725 3.69675C96.6892 3.88159 96.5505 4.19928 96.5505 4.64982C96.5505 5.10036 96.6777 5.41805 96.932 5.62022C97.1863 5.82238 97.6603 5.94946 98.3482 6.00144L105.909 6.12852C107.631 6.17473 108.845 6.57906 109.55 7.33574C110.256 8.09242 110.608 9.3805 110.608 11.2058C110.608 12.2917 110.481 13.1292 110.221 13.7242C109.961 14.3191 109.527 14.8274 108.915 15.2433C108.51 15.509 107.961 15.6996 107.267 15.8152C106.574 15.9307 105.568 15.9884 104.256 15.9884H98.1285C95.6141 15.9884 93.932 15.6939 93.0881 15.1105C92.2384 14.5271 91.8164 13.4354 91.8164 11.8412C91.8164 11.7487 91.8222 11.5986 91.8337 11.3848C91.8337 11.1884 91.8453 10.9227 91.8684 10.6166Z" fill="#1D2E43"/>
<path d="M132.962 5.82149V5.78106C132.962 5.05903 132.754 4.56806 132.337 4.30236C131.921 4.03665 130.979 3.9038 129.511 3.9038H126.834C125.262 3.9038 124.256 4.10019 123.817 4.49297C123.378 4.88575 123.152 5.71174 123.152 6.97672V9.14857C123.152 10.2749 123.401 11.0489 123.898 11.4648C124.395 11.8865 125.378 12.0944 126.846 12.0944H129.505C130.823 12.0944 131.736 11.9673 132.233 11.7247C132.73 11.4764 132.979 11.0489 132.979 10.4424C132.979 10.3558 132.967 10.2172 132.938 10.0208C132.938 9.99766 132.938 9.98033 132.938 9.96878H127.534V6.80921H137.719V11.9385C137.719 13.4056 137.193 14.4511 136.147 15.0691C135.1 15.6872 133.274 15.9991 130.673 15.9991H125.557C123.985 15.9991 122.829 15.9125 122.083 15.7392C121.337 15.5659 120.702 15.2655 120.181 14.8496C119.574 14.3529 119.135 13.7406 118.858 13.0186C118.58 12.2966 118.441 11.3782 118.441 10.2749V6.01788C118.441 3.7825 118.95 2.21716 119.973 1.3334C120.996 0.449648 122.846 0.00488281 125.534 0.00488281H130.667C132.326 0.00488281 133.545 0.0799739 134.337 0.235931C135.123 0.391887 135.748 0.646039 136.199 1.00994C136.673 1.38539 137.019 1.89369 137.245 2.53485C137.47 3.176 137.586 3.97889 137.586 4.94351C137.586 5.17456 137.586 5.35362 137.58 5.48069C137.574 5.60777 137.574 5.7233 137.563 5.82727H132.962V5.82149Z" fill="#1D2E43"/>
<path d="M152.657 0.19043C155.044 0.19043 156.669 0.560105 157.53 1.29368C158.391 2.02725 158.825 3.36732 158.825 5.3139C158.825 6.66552 158.634 7.6648 158.247 8.32328C157.865 8.98177 157.218 9.42076 156.316 9.64603C157.114 9.84242 157.709 10.189 158.102 10.6857C158.501 11.1825 158.697 11.8236 158.697 12.615V15.815H154.096V13.4352C154.096 12.8171 153.958 12.3955 153.68 12.1644C153.403 11.9334 152.848 11.8179 152.027 11.8179H145.177V15.815H140.57V0.19043H152.657ZM152.484 4.08357H145.177V7.90162H152.484C153.096 7.90162 153.524 7.75144 153.773 7.45686C154.015 7.16227 154.143 6.62509 154.143 5.8453C154.143 5.22725 154.01 4.78249 153.749 4.50523C153.484 4.2222 153.067 4.08357 152.484 4.08357Z" fill="#1D2E43"/>
<path d="M168.9 16C167.142 16 165.853 15.9191 165.038 15.7516C164.223 15.5899 163.559 15.3069 163.05 14.9083C162.472 14.4635 162.05 13.8744 161.796 13.1523C161.541 12.4303 161.414 11.4715 161.414 10.27V6.013C161.414 4.70758 161.541 3.66787 161.796 2.90541C162.05 2.14296 162.472 1.53646 163.05 1.0917C163.553 0.698917 164.229 0.42166 165.067 0.254151C165.905 0.0866418 167.177 0 168.882 0H174.287C175.998 0 177.275 0.0866418 178.125 0.254151C178.969 0.42166 179.639 0.704693 180.142 1.0917C180.703 1.53069 181.113 2.13141 181.368 2.89386C181.628 3.65632 181.755 4.63249 181.755 5.82238V10.1776C181.755 11.3791 181.628 12.3552 181.368 13.1119C181.108 13.8628 180.697 14.4635 180.142 14.9083C179.639 15.3069 178.969 15.5899 178.142 15.7516C177.316 15.9134 176.033 16 174.293 16H168.9ZM170.142 12.0953H173.061C174.686 12.0953 175.761 11.8816 176.298 11.4599C176.83 11.0383 177.096 10.2527 177.096 9.10325V6.89098C177.096 5.74152 176.83 4.96173 176.298 4.5343C175.767 4.11264 174.686 3.89892 173.061 3.89892H170.119C168.46 3.89892 167.374 4.11264 166.859 4.54007C166.345 4.96751 166.085 5.77617 166.085 6.97184V9.14368C166.085 10.27 166.356 11.044 166.9 11.4599C167.443 11.8874 168.524 12.0953 170.142 12.0953Z" fill="#1D2E43"/>
<path d="M184.496 0.19043H189.086V9.45541C189.086 10.5125 189.317 11.2171 189.779 11.581C190.242 11.9449 191.248 12.124 192.797 12.124H195.404C196.693 12.124 197.554 11.9334 197.993 11.5522C198.432 11.1709 198.652 10.472 198.652 9.46119V0.19043H203.253V10.9341C203.253 12.7709 202.779 14.0764 201.826 14.8446C200.872 15.6128 199.224 15.9998 196.878 15.9998H191.745C188.987 15.9998 187.091 15.6301 186.063 14.8966C185.028 14.163 184.513 12.8403 184.513 10.9283V0.19043H184.496Z" fill="#1D2E43"/>
<path d="M217.827 0.19043C218.85 0.19043 219.665 0.242416 220.277 0.340611C220.884 0.444583 221.405 0.606314 221.827 0.837361C222.59 1.24747 223.139 1.86552 223.486 2.67996C223.827 3.4944 224 4.62076 224 6.05325C224 8.19621 223.659 9.70379 222.971 10.5933C222.283 11.4771 221.121 11.9218 219.486 11.9218H210.896V15.815H206.289V0.19043H217.827ZM217.665 4.08357H210.896V8.04025H217.665C218.277 8.04025 218.705 7.88429 218.954 7.57238C219.202 7.26047 219.324 6.70596 219.324 5.90884C219.324 5.27346 219.191 4.81137 218.931 4.51679C218.665 4.22798 218.243 4.08357 217.665 4.08357Z" fill="#1D2E43"/>
</svg>
