<svg width="184" height="184" viewBox="0 0 184 184" fill="none" xmlns="http://www.w3.org/2000/svg">
<path d="M103.559 56.1026V108.41H91.8425V60.0082L97.7009 65.3087L75.4527 69.2144V60.0082L94.8414 56.1026H103.559Z" fill="#F6F6F6"/>
<path d="M48.5649 25.009C49.734 28.6158 50.2315 33.5659 49.8335 37.5209C49.3112 42.67 48.142 46.227 45.8038 49.9333L45.0079 51.1273L44.4357 49.9831C43.4656 48.0677 42.6199 44.4858 42.4458 41.5009C42.197 36.9737 43.0925 32.3719 45.0079 28.2178C45.9033 26.2527 47.5948 23.4668 47.8933 23.4668C47.9679 23.4668 48.2913 24.1633 48.5649 25.009Z" fill="#F6F6F6"/>
<path d="M126.095 24.3185C126.866 25.015 128.483 26.5075 129.677 27.6019C133.184 30.8108 135.572 34.6912 137.314 39.9646C138.358 43.0739 139.403 47.5265 139.154 47.7752C138.781 48.1484 134.826 45.437 132.637 43.2729C127.612 38.3478 125.125 32.7759 124.429 24.7911C124.354 23.821 124.354 23.0001 124.478 23.0001C124.578 23.0001 125.324 23.5971 126.095 24.3185Z" fill="#F6F6F6"/>
<path d="M66.8456 24.2934C66.5968 26.159 65.0795 30.5618 64.0347 32.4523C61.3483 37.3028 57.6668 41.1833 53.8362 43.1981C52.5924 43.8697 51.4731 44.3921 51.3238 44.3921C50.9756 44.3921 51.1248 43.5464 51.9457 40.6609C53.5128 35.1885 57.0698 29.6912 61.199 26.358C62.6915 25.164 66.2734 22.9999 66.7958 22.9999C66.9202 22.9999 66.9202 23.5969 66.8456 24.2934Z" fill="#F6F6F6"/>
<path d="M143.758 29.1133C145.151 31.2774 146.022 33.3171 146.768 36.0533C147.365 38.292 147.44 38.9387 147.44 43.1177C147.465 46.7742 147.365 48.1175 146.992 49.7094C146.42 52.2466 145.126 55.8037 144.803 55.8037C144.48 55.8037 142.042 50.58 141.395 48.5403C140.102 44.2868 139.778 39.7099 140.5 35.5061C140.972 32.7201 142.365 27.6954 142.639 27.6954C142.763 27.6954 143.261 28.3422 143.758 29.1133Z" fill="#F6F6F6"/>
<path d="M39.0127 37.9687C40.4554 41.2521 40.7539 43.068 40.7539 48.7145C40.729 53.5899 40.7042 54.1123 40.0574 56.5002C38.8883 60.9279 36.376 66.8232 35.8785 66.3257C35.779 66.2262 35.2815 64.9327 34.784 63.4651C32.1224 55.5053 32.7692 46.2519 36.4755 39.3119C37.0476 38.2423 37.6943 37.1976 37.9431 36.9737C38.3659 36.6006 38.4157 36.6503 39.0127 37.9687Z" fill="#F6F6F6"/>
<path d="M154.133 42.5205C155.999 46.2268 156.596 52.4703 155.551 57.5696C154.581 62.3455 152.939 65.9524 149.755 70.3552C149.482 70.7283 149.158 70.1064 148.611 67.9921C146.746 61.0769 147.865 53.0673 151.87 44.9831C153.412 41.824 153.636 41.5753 154.133 42.5205Z" fill="#F6F6F6"/>
<path d="M63.3279 44.2979C62.8553 45.5914 60.8902 48.651 59.4226 50.4171C56.5372 53.8995 52.5572 56.8099 48.2539 58.6008C46.1645 59.4714 41.5875 60.6903 41.3388 60.4415C41.0901 60.1928 42.7567 57.2576 44.4481 54.994C48.7017 49.2977 55.9402 44.7706 62.0345 44.0243C63.4026 43.8502 63.5021 43.8751 63.3279 44.2979Z" fill="#F6F6F6"/>
<path d="M127.118 45.3563C134.606 46.8487 141.819 53.7141 145.376 62.7685C145.899 64.062 146.272 65.1564 146.222 65.2062C146.172 65.2559 145.65 65.0321 145.053 64.7336C144.481 64.4351 142.964 63.7883 141.745 63.2909C135.775 60.878 130.352 55.3559 126.074 47.2716C124.78 44.8588 124.755 44.9085 127.118 45.3563Z" fill="#F6F6F6"/>
<path d="M25.4806 51.1519C27.769 53.316 29.2864 55.2811 30.4057 57.4949C32.4703 61.6241 33.5897 66.0518 33.8384 70.9521C33.9628 73.6385 33.6643 77.5438 33.3161 77.8921C33.0176 78.1657 28.6645 73.5888 27.3213 71.5988C23.8637 66.4498 22.3713 60.2062 22.9682 53.4155C23.2419 50.3559 23.3662 49.5848 23.6647 49.5848C23.7642 49.5848 24.5851 50.3061 25.4806 51.1519Z" fill="#F6F6F6"/>
<path d="M164.006 59.0372C164.006 64.2857 161.518 71.6983 158.26 76.1011C156.145 78.9866 152.066 82.8421 151.519 82.5188C151.046 82.2203 151.494 76.8225 152.19 74.0614C153.608 68.6387 156.891 63.5395 161.269 59.9326C164.304 57.4452 164.006 57.5447 164.006 59.0372Z" fill="#F6F6F6"/>
<path d="M49.498 60.6654C49.498 61.7351 48.6274 65.715 47.8563 68.1029C46.2146 73.2022 43.2794 78.0777 40.1203 80.9631C38.4289 82.5302 35.8917 84.2714 35.5932 84.0973C35.3942 83.9729 35.3942 83.3013 35.6927 79.7194C35.9414 76.4359 37.608 72.0083 39.797 68.7746C41.4884 66.2871 44.1749 63.6504 46.7867 61.9092C48.1051 61.0386 49.2493 60.3172 49.3239 60.3172C49.4234 60.3172 49.498 60.4664 49.498 60.6654Z" fill="#F6F6F6"/>
<path d="M139.804 64.2113C144.306 67.1217 147.39 71.7732 148.734 77.6934C149.256 80.0067 149.38 81.2504 149.405 84.2105C149.43 86.2253 149.356 87.9417 149.256 88.0412C149.032 88.2899 144.53 83.514 143.162 81.5738C140.276 77.5192 138.635 72.2707 138.212 65.9277C138.038 63.1666 138.087 63.1168 139.804 64.2113Z" fill="#F6F6F6"/>
<path d="M24.8332 72.8177C31.1265 77.8175 34.7333 83.8123 36.0019 91.3493C36.3999 93.6875 36.5491 97.0953 36.2506 97.0953C35.8526 97.0953 32.7682 94.384 30.7782 92.2945C25.654 86.9465 22.9178 80.8522 22.5447 74.0117C22.4452 72.3451 22.495 71.2258 22.6193 71.2258C22.7437 71.2258 23.7387 71.9471 24.8332 72.8177Z" fill="#F6F6F6"/>
<path d="M164.404 76.7478C164.33 77.0712 164.031 78.4393 163.733 79.8074C162.514 85.6281 160.648 89.1851 156.569 93.4635C154.106 96.0008 149.281 99.6573 149.007 99.135C148.833 98.8365 149.554 95.0804 150.226 92.8666C152.216 86.2748 156.469 80.5785 161.643 77.4941C164.106 76.0513 164.653 75.9021 164.404 76.7478Z" fill="#F6F6F6"/>
<path d="M41.9879 84.7941C46.5151 93.9977 48.0822 102.704 46.5151 110.092C45.9927 112.604 45.6693 113.549 45.4455 113.3C44.9231 112.728 43.0077 109.47 42.0376 107.455C40.4954 104.321 39.4258 101.137 38.9034 98.1269C38.3562 94.9181 38.5303 89.3711 39.3014 86.5851C39.7492 84.8936 40.6447 82.7047 40.8685 82.7047C40.9183 82.7047 41.4158 83.6499 41.9879 84.7941Z" fill="#F6F6F6"/>
<path d="M144.929 87.8171C147.492 94.3591 146.82 102.294 143.089 109.234C141.82 111.597 139.855 114.358 139.631 114.085C139.532 113.985 139.258 113.09 139.059 112.144C137.144 103.538 138.512 94.9561 142.74 88.9862C144.332 86.7724 144.482 86.6978 144.929 87.8171Z" fill="#F6F6F6"/>
<path d="M18.6169 88.8121C19.1641 89.0111 20.5571 89.434 21.7262 89.7822C27.4473 91.424 32.7207 95.5283 36.9992 101.647C38.5165 103.836 40.6309 107.443 40.6309 107.866C40.6309 108.264 37.5713 107.767 35.2828 107.02C28.3428 104.707 21.5272 98.1401 18.0199 90.3046C17.6219 89.3842 17.3482 88.6131 17.4477 88.5634C17.5472 88.5136 18.0696 88.638 18.6169 88.8121Z" fill="#F6F6F6"/>
<path d="M166.494 94.1106C165.947 95.1056 163.808 98.4139 162.489 100.28C160.151 103.613 155.649 106.921 150.873 108.836C148.286 109.881 144.903 110.901 144.679 110.677C144.455 110.453 145.823 107.767 147.266 105.578C151.495 99.2348 158.634 94.5583 165.375 93.7375C166.793 93.5385 166.793 93.5385 166.494 94.1106Z" fill="#F6F6F6"/>
<path d="M29.8818 106.796C37.6675 109.533 44.2095 114.234 48.0651 119.831C48.9357 121.074 50.8262 124.955 50.8262 125.452C50.8262 125.626 50.6272 125.676 50.2541 125.577C43.0156 123.537 37.2198 120.378 33.613 116.522C31.4737 114.259 28.0908 109.06 27.1953 106.647C26.8719 105.851 27.2699 105.851 29.8818 106.796Z" fill="#F6F6F6"/>
<path d="M50.9529 109.085C56.1517 112.667 59.5595 117.443 61.6241 123.96C62.6937 127.343 63.7882 133.164 63.3404 133.164C62.9673 133.164 60.1814 131.373 58.6392 130.154C53.2911 125.9 49.7092 119.756 48.7142 113.09C48.3162 110.478 48.2167 107.543 48.5152 107.543C48.6396 107.543 49.7092 108.239 50.9529 109.085Z" fill="#F6F6F6"/>
<path d="M135.898 108.264C135.898 108.961 135.028 113.015 134.381 115.254C131.943 123.761 127.317 130.502 121.67 133.76L120.402 134.507L120.551 132.89C121.272 125.029 125.103 116.672 130.053 112.07C132.242 110.055 135.898 107.667 135.898 108.264Z" fill="#F6F6F6"/>
<path d="M154.431 112.169C152.316 117.269 147.391 121.97 141.172 124.88C138.063 126.323 131.347 128.462 130.999 128.089C130.949 128.039 131.422 127.044 132.068 125.9C136.844 117.468 144.705 111.945 152.764 111.349L154.854 111.199L154.431 112.169Z" fill="#F6F6F6"/>
<path d="M67.5676 125C74.4578 126.791 81.3481 131.044 85.4027 136.019C87.2185 138.258 89.9796 143.133 89.507 143.308C89.3577 143.357 87.8653 142.934 86.1738 142.387C77.5672 139.576 71.0003 134.85 67.4184 128.806C66.5477 127.338 65.5279 125 65.6274 124.701C65.6771 124.602 66.5477 124.726 67.5676 125Z" fill="#F6F6F6"/>
<path d="M116.893 127.041C114.282 131.593 110.625 135.872 107.043 138.558C104.829 140.249 100.799 142.264 98.4862 142.886C96.9191 143.309 95.0037 143.483 94.755 143.21C94.5062 142.961 96.5957 139.304 98.2623 137.066C102.217 131.742 107.64 127.887 113.162 126.494C114.505 126.146 116.048 125.872 116.595 125.872H117.59L116.893 127.041Z" fill="#F6F6F6"/>
<path d="M44.1606 126.074C48.0161 126.696 50.9513 127.741 54.1353 129.631C56.0257 130.751 59.5331 133.736 59.2843 133.984C58.8863 134.407 54.2845 134.706 50.1056 134.581C43.7377 134.407 39.9816 133.462 35.6783 130.925C33.9869 129.955 30.6537 127.293 30.5044 126.796C30.2308 125.975 40.3548 125.452 44.1606 126.074Z" fill="#F6F6F6"/>
<path d="M146.372 128.412C149.183 128.81 153.635 130.452 153.162 130.925C152.789 131.298 147.541 133.835 145.526 134.656C141.571 136.198 136.895 137.143 133.089 137.143C129.631 137.143 124.805 136.223 123.86 135.377C123.736 135.278 124.606 134.556 125.8 133.785C129.482 131.372 133.611 129.656 137.765 128.81C140.078 128.338 144.382 128.139 146.372 128.412Z" fill="#F6F6F6"/>
<path d="M63.3916 136.149C66.9238 136.646 71.053 138.213 72.844 139.731C73.5902 140.377 73.5902 140.377 73.0927 140.775C72.247 141.472 69.1874 142.84 67.6203 143.238C63.7399 144.208 58.8147 144.183 53.8149 143.213C51.1533 142.691 44.6113 140.825 44.6113 140.601C44.6113 140.303 47.6958 138.636 49.7852 137.84C50.8051 137.442 52.6209 136.895 53.7901 136.621C56.2526 136.074 61.2027 135.825 63.3916 136.149Z" fill="#F6F6F6"/>
<path d="M123.462 138.412C125.999 138.661 129.581 139.532 132.293 140.601C134.706 141.522 138.039 143.387 137.939 143.735C137.889 143.86 137.168 144.183 136.322 144.432C129.457 146.372 121.323 146.447 115.502 144.556C113.587 143.934 110.726 142.566 109.582 141.696L108.761 141.074L109.333 140.651C110.776 139.557 113.612 138.761 117.393 138.387C120.154 138.114 120.502 138.114 123.462 138.412Z" fill="#F6F6F6"/>
<path d="M80.679 143.636C83.3157 143.984 86.9723 144.83 89.7334 145.75C92.3203 146.596 92.3452 146.596 93.5392 146.198C94.1859 145.974 94.9073 145.7 95.1311 145.576C96.0266 145.103 99.5837 144.357 102.071 144.108C106.424 143.661 111.324 144.407 115.329 146.123C117.095 146.869 120.652 149.083 121.672 150.078C122.419 150.775 122.244 150.949 120.08 151.745C118.712 152.267 117.767 152.416 115.454 152.516C110.728 152.69 107.544 151.894 100.206 148.611C96.1261 146.795 93.8649 145.924 93.8649 146.795C93.8649 147.068 95.8028 148.785 97.5937 150.302C101.499 153.635 104.807 156.77 104.807 157.143C104.807 157.59 102.942 158.561 102.469 158.386C102.245 158.287 101.101 156.919 99.9071 155.327C97.345 151.894 94.8326 149.208 93.5392 148.561L92.5939 148.063L91.4497 148.636C89.9821 149.357 88.7135 150.849 87.221 153.511C85.7783 156.073 84.062 158.038 82.669 158.66C81.674 159.108 81.674 159.108 81.0521 158.536C80.7039 158.212 80.4303 157.839 80.4303 157.69C80.4303 157.541 80.9029 157.068 81.475 156.67C82.0222 156.247 83.9873 154.232 85.8032 152.168C87.619 150.103 89.3602 148.238 89.6836 148.039C90.1562 147.715 90.6514 147.118 90.3778 146.795C89.9051 146.223 87.9921 146.272 87.1961 146.471C86.823 146.546 85.0072 147.218 83.1665 147.964C77.7189 150.153 73.2664 151.048 67.9183 151.073C64.7344 151.073 60.7047 150.451 59.3366 149.73C58.7396 149.407 58.7396 149.407 59.9336 148.362C63.7643 145.004 69.0128 143.337 75.6295 143.387C77.5199 143.412 79.7835 143.511 80.679 143.636Z" fill="#F6F6F6"/>
</svg>
