<svg xmlns="http://www.w3.org/2000/svg" width="1440" height="108" viewBox="0 0 1440 108" fill="none">
  <path d="M13.3901 105.716H-16V0.288086H28.5985L63.9199 66.1413L99.8116 0.288086H143.802V105.716H114.564V30.5829L73.6532 105.716H53.9204L13.3901 30.5829V105.716Z" fill="#F6F6F6"/>
  <path d="M187.263 105.716H154.299L208.326 0.288086H246.88L299.919 105.716H266.765L257.183 88.1703H196.882L187.263 105.716ZM208.326 62.7882H246.347L227.147 25.4753L208.326 62.7882Z" fill="#F6F6F6"/>
  <path d="M390.028 0.288086C405.693 0.288086 416.376 2.78341 422.042 7.73507C427.707 12.6867 430.558 21.7323 430.558 34.8327C430.558 43.9563 429.304 50.7015 426.756 55.1463C424.247 59.5911 419.988 62.5542 414.057 64.0748C419.304 65.4005 423.22 67.7398 425.806 71.0929C428.429 74.446 429.722 78.7739 429.722 84.1154V105.716H399.495V89.6519C399.495 85.48 398.583 82.6338 396.72 81.0742C394.895 79.5147 391.245 78.7349 385.846 78.7349H340.791V105.716H310.488V0.288086H390.028ZM388.887 26.567H340.829V52.339H388.887C392.918 52.339 395.731 51.3253 397.366 49.3368C399.001 47.3484 399.799 43.7223 399.799 38.4588C399.799 34.2869 398.925 31.2847 397.214 29.4132C395.465 27.5027 392.689 26.567 388.887 26.567Z" fill="#F6F6F6"/>
  <path d="M493.17 39.4335L532.787 0.288086H572.938L519.404 52.339L579.933 105.716H537.92L493.132 65.8684H480.433V105.716H450.244V0.288086H480.433V39.4335H493.17Z" fill="#F6F6F6"/>
  <path d="M588.111 71.6626L617.957 71.5846V73.4951C617.957 77.472 618.869 80.1233 620.694 81.527C622.519 82.9306 626.322 83.6324 632.139 83.6324H670.084C673.81 83.6324 676.471 82.9696 678.068 81.6049C679.665 80.2793 680.463 78.0179 680.463 74.8988C680.463 71.7406 679.551 69.4792 677.688 68.1146C675.863 66.75 671.909 65.8142 665.825 65.3463L618.375 64.2156C606.513 63.8257 598.49 61.4474 594.27 57.0026C590.088 52.5578 587.997 44.487 587.997 32.7901C587.997 26.7468 588.567 21.7561 589.669 17.8572C590.772 13.9582 592.559 10.6831 594.992 8.07082C597.882 5.14661 601.646 3.08016 606.285 1.8325C610.923 0.623829 618.527 0 629.021 0H675.14C686.585 0 694.797 2.2224 699.816 6.66719C704.835 11.112 707.344 18.2861 707.344 28.2674C707.344 28.9302 707.344 29.632 707.306 30.3728C707.268 31.1136 707.192 32.3612 707.078 34.0378H677.954V33.6089C677.954 30.0999 677.117 27.4876 675.445 25.733C673.772 23.9785 671.3 23.1208 667.954 23.1208H633.127C627.31 23.1208 623.508 23.7446 621.645 24.9533C619.782 26.1619 618.869 28.3453 618.869 31.3865C618.869 34.4277 619.706 36.5721 621.379 37.9367C623.052 39.2624 626.169 40.1591 630.694 40.51L680.387 41.3678C691.717 41.6797 699.702 44.409 704.34 49.5166C708.979 54.6242 711.298 63.3189 711.298 75.6396C711.298 82.9696 710.462 88.623 708.751 92.639C707.04 96.6549 704.188 100.086 700.158 102.893C697.497 104.687 693.885 105.973 689.322 106.753C684.76 107.533 678.144 107.923 669.513 107.923H629.249C612.71 107.923 601.684 105.934 596.095 101.996C590.506 98.0585 587.73 90.6895 587.73 79.9284C587.73 79.3046 587.768 78.2908 587.844 76.8482C587.92 75.4056 587.997 73.7291 588.111 71.6626Z" fill="#F6F6F6"/>
  <path d="M858.372 39.0275C858.372 34.1538 857.003 30.8397 854.266 29.0462C851.528 27.2527 845.331 26.3559 835.673 26.3559H818.07C807.728 26.3559 801.112 27.6816 798.223 30.3329C795.333 32.9842 793.85 38.5597 793.85 47.0983V61.7584C793.85 69.3613 795.485 74.5859 798.755 77.3932C802.025 80.2004 808.489 81.643 818.146 81.643H835.635C844.304 81.643 850.311 80.7852 853.581 79.1477C856.851 77.4711 858.486 74.5859 858.486 70.492C858.486 69.9072 858.41 68.9714 858.22 67.6458C858.22 67.4898 858.22 67.3729 858.22 67.2949H822.67V45.9677H889.663V80.5903C889.663 90.4936 886.203 97.5507 879.321 101.723C872.44 105.894 860.425 108 843.354 108H809.743C799.44 108 791.797 107.415 786.893 106.245C781.988 105.076 777.806 103.048 774.384 100.241C770.392 96.8879 767.502 92.755 765.677 87.8813C763.852 83.0077 762.939 76.8083 762.939 69.3613V40.6261C762.939 25.5372 766.285 14.971 773.015 9.00564C779.745 3.04025 791.911 0.0380657 809.591 0.0380657H843.354C854.266 0.0380657 862.288 0.544927 867.459 1.59764C872.63 2.65036 876.736 4.3659 879.702 6.82223C882.819 9.35655 885.101 12.7876 886.583 17.1154C888.066 21.4433 888.827 26.8628 888.827 33.3741C888.827 34.9336 888.827 36.1423 888.789 37.0001C888.75 37.8578 888.751 38.6376 888.674 39.3394H858.372V39.0275Z" fill="#F6F6F6"/>
  <path d="M987.906 0.288086C1003.57 0.288086 1014.25 2.78341 1019.92 7.73507C1025.58 12.6867 1028.44 21.7323 1028.44 34.8327C1028.44 43.9563 1027.18 50.7015 1024.63 55.1463C1022.12 59.5911 1017.87 62.5542 1011.94 64.0748C1017.18 65.4005 1021.1 67.7398 1023.68 71.0929C1026.31 74.446 1027.6 78.7739 1027.6 84.1154V105.716H997.373V89.6519C997.373 85.48 996.461 82.6338 994.636 81.0742C992.811 79.5147 989.161 78.7349 983.762 78.7349H938.707V105.716H908.404V0.288086H987.906ZM986.765 26.567H938.707V52.339H986.765C990.796 52.339 993.609 51.3253 995.244 49.3368C996.841 47.3484 997.677 43.7223 997.677 38.4588C997.677 34.2869 996.803 31.2847 995.092 29.4132C993.343 27.5027 990.567 26.567 986.765 26.567Z" fill="#F6F6F6"/>
  <path d="M1094.7 107.961C1083.14 107.961 1074.67 107.415 1069.3 106.284C1063.94 105.193 1059.57 103.282 1056.23 100.592C1052.42 97.5898 1049.65 93.6129 1047.97 88.7392C1046.3 83.8655 1045.47 77.3933 1045.47 69.3225V40.5872C1045.47 31.7756 1046.3 24.7575 1047.97 19.6499C1049.65 14.5033 1052.42 10.4094 1056.23 7.4072C1059.53 4.75592 1063.98 2.88442 1069.49 1.75373C1075.01 0.623033 1083.37 0.0381962 1094.59 0.0381962H1130.14C1141.39 0.0381962 1149.79 0.623033 1155.35 1.75373C1160.9 2.88442 1165.31 4.79491 1168.61 7.4072C1172.3 10.3704 1174.96 14.4253 1176.68 19.5719C1178.39 24.7185 1179.22 31.3077 1179.22 39.3396V68.7376C1179.22 76.8475 1178.39 83.4367 1176.68 88.5053C1174.96 93.5739 1172.26 97.6288 1168.61 100.631C1165.31 103.321 1160.9 105.232 1155.46 106.323C1150.02 107.415 1141.58 108 1130.14 108H1094.7V107.961ZM1102.88 81.6431H1122.08C1132.76 81.6431 1139.83 80.2005 1143.33 77.3543C1146.83 74.5081 1148.58 69.2055 1148.58 61.4466V46.5136C1148.58 38.7547 1146.83 33.4911 1143.33 30.6059C1139.83 27.7597 1132.72 26.3171 1122.08 26.3171H1102.72C1091.81 26.3171 1084.66 27.7597 1081.28 30.6449C1077.9 33.5301 1076.19 38.9887 1076.19 47.0595V61.7195C1076.19 69.3225 1077.97 74.5471 1081.55 77.3543C1085.12 80.2395 1092.23 81.6431 1102.88 81.6431Z" fill="#F6F6F6"/>
  <path d="M1197.25 0.288086H1227.44V62.7882C1227.44 69.9232 1228.96 74.68 1232 77.1363C1235.04 79.5536 1241.66 80.7623 1251.85 80.7623H1269C1277.48 80.7623 1283.14 79.4757 1285.99 76.9024C1288.88 74.3291 1290.33 69.6113 1290.33 62.7882V0.288086H1320.55V72.7695C1320.55 85.1681 1317.44 93.9797 1311.16 99.1653C1304.89 104.351 1294.05 106.963 1278.62 106.963H1244.85C1226.72 106.963 1214.29 104.468 1207.48 99.5162C1200.67 94.5646 1197.29 85.636 1197.29 72.7695V0.288086H1197.25Z" fill="#F6F6F6"/>
  <path d="M1416.39 0.288086C1423.12 0.288086 1428.48 0.638992 1432.51 1.30181C1436.51 2.00362 1439.93 3.09532 1442.7 4.6549C1447.72 7.42315 1451.33 11.595 1453.62 17.0925C1455.86 22.5901 1457 30.193 1457 39.8624C1457 54.2885 1454.76 64.5037 1450.23 70.4691C1445.71 76.4345 1438.07 79.4367 1427.31 79.4367H1370.81V105.716H1340.5V0.288086H1416.39ZM1415.33 26.567H1370.81V53.2747H1415.33C1419.36 53.2747 1422.17 52.222 1423.81 50.1166C1425.44 48.0112 1426.24 44.2682 1426.24 38.8876C1426.24 34.5988 1425.37 31.4797 1423.66 29.4912C1421.91 27.5417 1419.13 26.567 1415.33 26.567Z" fill="#F6F6F6"/>
</svg>