<svg width="140" height="40" viewBox="0 0 140 40" fill="none" xmlns="http://www.w3.org/2000/svg">
<g clip-path="url(#clip0_18958_100538)">
<path d="M47.503 39.9963L0.330811 40.0003L6.94271 26.3884L6.9468 7.79224L30.5548 0L45.1348 7.7919L47.503 39.9959V39.9963Z" fill="#C0C0C0"/>
<path d="M47.503 39.9963L0.330811 40.0003L6.94271 26.3884L6.9468 7.79224L30.5548 0L45.1348 7.7919L47.503 39.9959V39.9963Z" fill="#C0C0C0"/>
<path d="M55.0115 12.2222H55.1799C55.4751 12.2222 55.7027 12.1457 55.8622 11.9918C56.0218 11.8383 56.1456 11.5263 56.2343 11.057C56.323 10.5873 56.3671 9.9036 56.3671 9.00545V6.68359H60.5233V13.011H59.7256V7.41046H57.1203V9.15608C57.1203 10.1842 57.0508 10.9801 56.9119 11.5446C56.773 12.1086 56.5694 12.4943 56.3005 12.7013C56.0316 12.9082 55.6609 13.0114 55.1884 13.0114H55.011V12.2226L55.0115 12.2222Z" fill="black"/>
<path d="M64.1047 10.0068H64.3529L65.939 6.68359H66.7719L63.7499 13.011H62.9259L63.8297 11.1147L61.49 6.68359H62.3497L64.1042 10.0068H64.1047Z" fill="black"/>
<path d="M67.4883 6.68359H68.286V8.49162C68.286 8.65726 68.2902 8.78255 68.2991 8.86843C68.308 8.9543 68.339 9.06317 68.392 9.19643C68.4451 9.32923 68.5248 9.43012 68.6314 9.49769C68.7379 9.56573 68.8955 9.62627 69.1053 9.67929C69.3151 9.73232 69.5736 9.75907 69.8805 9.75907C70.3887 9.75907 70.8936 9.69994 71.3957 9.58169V6.68406H72.1934V13.0114H71.3957V10.3175C70.8819 10.4296 70.3441 10.4859 69.7829 10.4859C69.3573 10.4859 68.9955 10.4446 68.6975 10.3621C68.3991 10.2795 68.1734 10.1819 68.0195 10.0697C67.8655 9.95756 67.7478 9.80271 67.6652 9.60468C67.5826 9.40666 67.5324 9.23257 67.5145 9.08194C67.4967 8.93131 67.4878 8.73469 67.4878 8.49256V6.68453L67.4883 6.68359Z" fill="black"/>
<path d="M77.0774 12.2841V6.68359H77.8573V12.2841H80.3476V6.68359H81.1275V13.011H73.8076V6.68359H74.5875V12.2841H77.0778H77.0774Z" fill="black"/>
<path d="M82.7402 6.68359H83.5201V12.0448H83.7149L86.6571 6.68359H87.9067V13.011H87.1268V7.64978H86.9316L83.9894 13.011H82.7397V6.68359H82.7402Z" fill="black"/>
<path d="M89.5207 6.68367H90.3006V12.0449H90.4954L93.4376 6.68367H94.6872V13.0111H93.9073V7.64986H93.7121L90.7699 13.0111H89.5203V6.68367H89.5207ZM93.0035 5H93.6506C93.6389 5.43124 93.4911 5.76816 93.2076 6.0103C92.9242 6.25243 92.5549 6.3735 92.0997 6.3735C91.6446 6.3735 91.2931 6.25243 91.0097 6.0103C90.7262 5.76816 90.5784 5.43124 90.5667 5H91.2138C91.2194 5.24823 91.3025 5.44297 91.462 5.58469C91.6216 5.7264 91.8342 5.79726 92.1002 5.79726C92.3663 5.79726 92.5817 5.7264 92.7473 5.58469C92.9125 5.44297 92.9984 5.24776 93.0045 5H93.0035Z" fill="black"/>
<path d="M55.7021 16.979H60.771V23.3064H59.9733V17.7059H56.4994V23.3064H55.7017V16.979H55.7021Z" fill="black"/>
<path d="M62.3843 16.979H65.0604C65.7455 16.979 66.2743 17.1447 66.6465 17.4755C67.0186 17.8063 67.2049 18.2699 67.2049 18.8668C67.2049 19.4637 67.0186 19.9376 66.6465 20.2713C66.2743 20.6049 65.7455 20.772 65.0604 20.772H63.1815V23.3064H62.3838V16.979H62.3843ZM63.182 20.0629H64.9276C65.9083 20.0629 66.3987 19.6673 66.3987 18.8752C66.3987 18.0832 65.9083 17.6876 64.9276 17.6876H63.182V20.0625V20.0629Z" fill="black"/>
<path d="M71.1035 16.8635C72.0307 16.8635 72.7548 17.1737 73.2747 17.7941C73.7946 18.4144 74.0546 19.1971 74.0546 20.1427C74.0546 21.0882 73.7946 21.8709 73.2747 22.4913C72.7548 23.1116 72.0312 23.4218 71.1035 23.4218C70.1758 23.4218 69.4447 23.113 68.928 22.4959C68.4109 21.8789 68.1528 21.0943 68.1528 20.1431C68.1528 19.192 68.4114 18.4078 68.928 17.7903C69.4452 17.1732 70.1701 16.8645 71.1035 16.8645V16.8635ZM69.4996 21.9591C69.86 22.4495 70.3944 22.6944 71.1035 22.6944C71.8125 22.6944 72.347 22.4495 72.7074 21.9591C73.0678 21.4688 73.248 20.8634 73.248 20.1427C73.248 19.4219 73.0678 18.8166 72.7074 18.3262C72.347 17.8358 71.8125 17.5909 71.1035 17.5909C70.3944 17.5909 69.86 17.8363 69.4996 18.3262C69.1392 18.8166 68.959 19.4224 68.959 20.1427C68.959 20.863 69.1392 21.4692 69.4996 21.9591Z" fill="black"/>
<path d="M76.1468 22.5795H79.8952V23.3064H75.3491V16.979H79.7535V17.7059H76.1468V19.6645H79.0534V20.3914H76.1468V22.5805V22.5795Z" fill="black"/>
<path d="M81.1252 23.3064V16.979H81.923V19.6819H83.837L85.1045 16.979H85.9463L84.5283 20.054L86.0261 23.3064H85.1843L83.837 20.4088H81.923V23.3064H81.1252Z" fill="black"/>
<path d="M91.443 16.979V17.688H89.3694V23.3064H88.5717V17.688H86.4802V16.979H91.443Z" fill="black"/>
<path d="M92.4175 16.979H93.1974V22.3402H93.3921L96.3343 16.979H97.5839V23.3064H96.804V17.9452H96.6088L93.6666 23.3064H92.417V16.979H92.4175Z" fill="black"/>
<path d="M99.1946 16.979H101.871C102.556 16.979 103.085 17.1447 103.457 17.4755C103.829 17.8063 104.015 18.2699 104.015 18.8668C104.015 19.4637 103.829 19.9376 103.457 20.2713C103.085 20.6049 102.556 20.772 101.871 20.772H99.9918V23.3064H99.1941V16.979H99.1946ZM99.9923 20.0629H101.738C102.719 20.0629 103.209 19.6673 103.209 18.8752C103.209 18.0832 102.719 17.6876 101.738 17.6876H99.9923V20.0625V20.0629Z" fill="black"/>
<path d="M107.917 16.8635C108.844 16.8635 109.568 17.1737 110.088 17.7941C110.608 18.4144 110.868 19.1971 110.868 20.1427C110.868 21.0882 110.608 21.8709 110.088 22.4913C109.568 23.1116 108.844 23.4218 107.917 23.4218C106.989 23.4218 106.258 23.113 105.741 22.4959C105.224 21.8789 104.966 21.0943 104.966 20.1431C104.966 19.192 105.225 18.4078 105.741 17.7903C106.258 17.1732 106.983 16.8645 107.917 16.8645V16.8635ZM106.313 21.9591C106.673 22.4495 107.208 22.6944 107.917 22.6944C108.626 22.6944 109.16 22.4495 109.521 21.9591C109.881 21.4688 110.061 20.8634 110.061 20.1427C110.061 19.4219 109.881 18.8166 109.521 18.3262C109.16 17.8358 108.626 17.5909 107.917 17.5909C107.208 17.5909 106.673 17.8363 106.313 18.3262C105.952 18.8166 105.772 19.4224 105.772 20.1427C105.772 20.863 105.952 21.4692 106.313 21.9591Z" fill="black"/>
<path d="M116.246 19.8676V20.0623C116.512 20.1862 116.726 20.3814 116.889 20.647C117.051 20.9131 117.132 21.2054 117.132 21.5245C117.132 22.0562 116.949 22.486 116.583 22.814C116.216 23.142 115.684 23.3058 114.988 23.3058H112.161V16.9784H114.917C115.561 16.9784 116.058 17.1304 116.41 17.435C116.761 17.7395 116.937 18.122 116.937 18.5828C116.937 19.1914 116.707 19.6198 116.246 19.8676ZM112.959 17.6874V19.6635H114.899C115.721 19.6635 116.131 19.3265 116.131 18.6532C116.131 18.3223 116.013 18.0788 115.777 17.9221C115.54 17.7658 115.242 17.6874 114.882 17.6874H112.959H112.959ZM112.959 22.5967H114.935C115.342 22.5967 115.676 22.5095 115.936 22.3354C116.196 22.1613 116.326 21.8703 116.326 21.4626C116.326 21.0787 116.197 20.7995 115.941 20.6249C115.684 20.4509 115.351 20.3636 114.944 20.3636H112.959V22.5967Z" fill="black"/>
<path d="M125.818 24.8573V23.3064H118.374V16.979H119.154V22.5795H121.644V16.979H122.424V22.5795H124.914V16.979H125.694V22.5795H126.607V24.8568H125.818L125.818 24.8573Z" fill="black"/>
<path d="M127.65 16.979H128.43V22.3402H128.625L131.567 16.979H132.817V23.3064H132.037V17.9452H131.842L128.9 23.3064H127.65V16.979H127.65Z" fill="black"/>
<path d="M134.43 23.3064V16.979H135.228V19.6819H137.142L138.409 16.979H139.251L137.833 20.054L139.331 23.3064H138.489L137.142 20.4088H135.228V23.3064H134.43Z" fill="black"/>
<path d="M61.4796 30.7477H59.8401V33.6012H59.0513V30.7477H57.4028L56.2329 33.6012H55.3911L56.7205 30.3934L55.4709 27.2738H56.3127L57.4028 30.0208H59.0513V27.2738H59.8401V30.0208H61.4796L62.5786 27.2738H63.4205L62.1619 30.3934L63.5002 33.6012H62.6584L61.4796 30.7477Z" fill="black"/>
<path d="M64.7925 27.2738H65.5724V32.635H65.7671L68.7093 27.2738H69.9589V33.6012H69.179V28.24H68.9838L66.0416 33.6012H64.792V27.2738H64.7925Z" fill="black"/>
<path d="M70.8828 32.8124H71.0513C71.3464 32.8124 71.574 32.7359 71.7335 32.582C71.8931 32.4285 72.017 32.1165 72.1057 31.6472C72.1944 31.1775 72.2385 30.4938 72.2385 29.5957V27.2738H76.3946V33.6012H75.5969V28.0007H72.9916V29.7463C72.9916 30.7744 72.9222 31.5703 72.7833 32.1348C72.6444 32.6988 72.4407 33.0845 72.1718 33.2915C71.9029 33.4984 71.5322 33.6017 71.0597 33.6017H70.8823V32.8128L70.8828 32.8124Z" fill="black"/>
<path d="M80.6319 33.6012H78.0088V27.2738H78.8065V29.6933H80.6319C81.3287 29.6933 81.8693 29.8659 82.2536 30.2118C82.6375 30.5576 82.8299 31.0344 82.8299 31.643C82.8299 32.2516 82.6394 32.7448 82.2583 33.0874C81.8773 33.4299 81.3353 33.6012 80.6324 33.6012H80.6319ZM78.8065 32.8921H80.4902C81.5122 32.8921 82.0232 32.4755 82.0232 31.6425C82.0232 30.8096 81.5122 30.4018 80.4902 30.4018H78.8065V32.8921Z" fill="black"/>
<path d="M86.0007 27.2738H88.8012V33.6012H88.0034V30.9513H86.1602C85.9828 30.9513 85.8116 30.9424 85.6464 30.9246L84.698 33.6007H83.874L84.8843 30.7383C84.2405 30.4548 83.9186 29.9143 83.9186 29.1165C83.9186 28.5318 84.0988 28.0781 84.4592 27.7562C84.8196 27.4343 85.3334 27.2733 86.0011 27.2733L86.0007 27.2738ZM86.1161 30.2427H88.0039V27.9828H86.1161C85.6257 27.9828 85.2714 28.079 85.0528 28.2709C84.8341 28.4629 84.7248 28.7449 84.7248 29.1175C84.7248 29.8678 85.1884 30.2427 86.1161 30.2427Z" fill="black"/>
<path d="M96.9645 30.163V30.3577C97.2305 30.4816 97.4445 30.6768 97.6069 30.9424C97.7692 31.2085 97.8504 31.5008 97.8504 31.8199C97.8504 32.3516 97.6674 32.7814 97.3009 33.1094C96.9344 33.4374 96.4028 33.6012 95.7059 33.6012H92.8792V27.2738H95.6351C96.2789 27.2738 96.7768 27.4258 97.1282 27.7304C97.4797 28.0349 97.6557 28.4174 97.6557 28.8782C97.6557 29.4868 97.4253 29.9152 96.9645 30.163ZM93.6769 27.9828V29.9589H95.6177C96.4389 29.9589 96.8495 29.6219 96.8495 28.9486C96.8495 28.6177 96.7312 28.3742 96.4952 28.2175C96.2587 28.0612 95.9603 27.9828 95.6003 27.9828H93.6773H93.6769ZM93.6769 32.8921H95.6529C96.0607 32.8921 96.3943 32.8049 96.6543 32.6308C96.9142 32.4567 97.0442 32.1657 97.0442 31.758C97.0442 31.3741 96.9157 31.0949 96.659 30.9204C96.4018 30.7463 96.0696 30.659 95.6618 30.659H93.6769V32.8921Z" fill="black"/>
<path d="M101.553 27.2738H104.229C104.914 27.2738 105.443 27.4395 105.815 27.7703C106.187 28.1011 106.373 28.5647 106.373 29.1616C106.373 29.7585 106.187 30.2324 105.815 30.5661C105.443 30.8997 104.914 31.0668 104.229 31.0668H102.35V33.6012H101.552V27.2738H101.553ZM102.35 30.3577H104.096C105.077 30.3577 105.567 29.9621 105.567 29.17C105.567 28.378 105.077 27.9824 104.096 27.9824H102.35V30.3573V30.3577Z" fill="black"/>
<path d="M110.271 27.1589C111.199 27.1589 111.923 27.4691 112.443 28.0895C112.963 28.7098 113.223 29.4925 113.223 30.4381C113.223 31.3836 112.963 32.1663 112.443 32.7867C111.923 33.407 111.199 33.7172 110.271 33.7172C109.344 33.7172 108.613 33.4084 108.096 32.7914C107.579 32.1743 107.321 31.3897 107.321 30.4385C107.321 29.4874 107.579 28.7032 108.096 28.0857C108.613 27.4686 109.338 27.1599 110.271 27.1599V27.1589ZM108.668 32.2545C109.028 32.7449 109.562 32.9899 110.271 32.9899C110.98 32.9899 111.515 32.7449 111.875 32.2545C112.236 31.7642 112.416 31.1588 112.416 30.4381C112.416 29.7173 112.236 29.112 111.875 28.6216C111.515 28.1312 110.98 27.8863 110.271 27.8863C109.562 27.8863 109.028 28.1317 108.668 28.6216C108.307 29.112 108.127 29.7178 108.127 30.4381C108.127 31.1584 108.307 31.7646 108.668 32.2545Z" fill="black"/>
<path d="M118.788 31.8025H119.63C119.494 32.3872 119.211 32.8527 118.78 33.1981C118.348 33.5439 117.796 33.7166 117.122 33.7166C116.201 33.7166 115.483 33.4125 114.969 32.8039C114.455 32.1953 114.198 31.407 114.198 30.438C114.198 29.469 114.458 28.6806 114.978 28.072C115.498 27.4634 116.215 27.1593 117.131 27.1593C117.769 27.1593 118.301 27.3174 118.726 27.6332C119.152 27.9495 119.429 28.3822 119.559 28.9317H118.717C118.469 28.2348 117.94 27.8862 117.131 27.8862C116.434 27.8862 115.905 28.1316 115.545 28.6215C115.185 29.1119 115.004 29.7177 115.004 30.438C115.004 31.1583 115.183 31.7716 115.541 32.2591C115.898 32.7467 116.425 32.9902 117.123 32.9902C117.56 32.9902 117.92 32.8856 118.204 32.6758C118.487 32.4661 118.682 32.1751 118.788 31.803V31.8025Z" fill="black"/>
<path d="M125.153 31.8025H125.995C125.859 32.3872 125.576 32.8527 125.145 33.1981C124.713 33.5439 124.161 33.7166 123.487 33.7166C122.566 33.7166 121.848 33.4125 121.334 32.8039C120.82 32.1953 120.563 31.407 120.563 30.438C120.563 29.469 120.823 28.6806 121.343 28.072C121.863 27.4634 122.58 27.1593 123.496 27.1593C124.134 27.1593 124.666 27.3174 125.091 27.6332C125.517 27.9495 125.794 28.3822 125.924 28.9317H125.082C124.834 28.2348 124.305 27.8862 123.496 27.8862C122.799 27.8862 122.27 28.1316 121.91 28.6215C121.55 29.1119 121.369 29.7177 121.369 30.438C121.369 31.1583 121.548 31.7716 121.906 32.2591C122.263 32.7467 122.79 32.9902 123.488 32.9902C123.925 32.9902 124.285 32.8856 124.569 32.6758C124.852 32.4661 125.047 32.1751 125.153 31.803V31.8025Z" fill="black"/>
<path d="M127.244 27.2738H128.024V32.635H128.218L131.16 27.2738H132.41V33.6012H131.63V28.24H131.435L128.493 33.6012H127.243V27.2738H127.244Z" fill="black"/>
<path d="M134.022 27.2738H134.802V32.635H134.997L137.939 27.2738H139.189V33.6012H138.409V28.24H138.214L135.271 33.6012H134.022V27.2738H134.022Z" fill="black"/>
<path d="M15.294 20.9503H13.749C13.7919 20.1707 14.0565 19.5737 14.5429 19.1588C15.0294 18.7441 15.6801 18.5366 16.4954 18.5366C17.2679 18.5366 17.8955 18.7496 18.3782 19.1751C18.8608 19.6006 19.1024 20.1925 19.1024 20.9507C19.1024 21.8303 18.6374 22.6314 17.7077 23.3539L16.1308 24.5767V24.8557H19.3064V26.1965H13.7599V24.5873L16.3345 22.6668C16.7063 22.4021 17.0012 22.1358 17.2196 21.8674C17.4376 21.5994 17.5468 21.3041 17.5468 20.9823C17.5468 20.632 17.4485 20.3656 17.2519 20.183C17.055 20.0006 16.7886 19.9095 16.4526 19.9095C15.7515 19.9095 15.3654 20.2564 15.294 20.95V20.9503Z" fill="black"/>
<path d="M21.0706 19.5074C21.6105 18.8601 22.3204 18.5366 23.2003 18.5366C24.0803 18.5366 24.7899 18.8604 25.3301 19.5074C25.8699 20.1547 26.14 21.1327 26.14 22.4416C26.14 23.7505 25.8699 24.7179 25.3301 25.3649C24.7899 26.0122 24.0803 26.3357 23.2003 26.3357C22.3204 26.3357 21.6108 26.0122 21.0706 25.3649C20.5305 24.7175 20.2607 23.7433 20.2607 22.4416C20.2607 21.1398 20.5305 20.1547 21.0706 19.5074ZM23.2003 24.9628C24.13 24.9628 24.595 24.1226 24.595 22.4416C24.595 20.7605 24.13 19.9098 23.2003 19.9098C22.2707 19.9098 21.8163 20.7537 21.8163 22.4416C21.8163 24.1294 22.2775 24.9628 23.2003 24.9628Z" fill="black"/>
<path d="M28.7364 20.9503H27.1914C27.2343 20.1707 27.4989 19.5737 27.9853 19.1588C28.4717 18.7441 29.1225 18.5366 29.9378 18.5366C30.7103 18.5366 31.3379 18.7496 31.8206 19.1751C32.3032 19.6006 32.5447 20.1925 32.5447 20.9507C32.5447 21.8303 32.0798 22.6314 31.1501 23.3539L29.5732 24.5767V24.8557H32.7488V26.1965H27.2023V24.5873L29.7769 22.6668C30.1487 22.4021 30.4436 22.1358 30.662 21.8674C30.88 21.5994 30.9892 21.3041 30.9892 20.9823C30.9892 20.632 30.8909 20.3656 30.6943 20.183C30.4974 20.0006 30.231 19.9095 29.8949 19.9095C29.1939 19.9095 28.8078 20.2564 28.7364 20.95V20.9503Z" fill="black"/>
<path d="M36.9647 21.0793C37.6582 21.0793 38.2324 21.3137 38.6865 21.7821C39.1406 22.2505 39.3679 22.8604 39.3679 23.6111C39.3679 24.4193 39.1066 25.0754 38.5848 25.5795C38.0627 26.0836 37.3977 26.336 36.5895 26.336C35.7384 26.336 35.0608 26.1109 34.5564 25.6602C34.0523 25.2095 33.7785 24.6268 33.7356 23.9114H35.2806C35.3663 24.6125 35.7847 24.9628 36.5357 24.9628C36.9361 24.9628 37.2507 24.8431 37.4797 24.6033C37.7086 24.3638 37.8229 24.04 37.8229 23.6325C37.8229 23.2032 37.7065 22.8726 37.4742 22.6403C37.2419 22.408 36.9324 22.2916 36.5463 22.2916C36.0313 22.2916 35.6343 22.4777 35.3554 22.8495H33.9179L34.2506 18.687H38.8852V19.985H35.452L35.334 21.5191H35.6129C36.0061 21.2259 36.4568 21.0793 36.9647 21.0793Z" fill="black"/>
</g>
<defs>
<clipPath id="clip0_18958_100538">
<rect width="140" height="40.0003" fill="white"/>
</clipPath>
</defs>
</svg>
