<svg width="61" height="40" viewBox="0 0 61 40" fill="none" xmlns="http://www.w3.org/2000/svg">
<path d="M38.7505 0.154101C38.2231 0.369165 36.4002 1.02972 35.1815 1.44961L34.1215 1.81317L33.8706 2.13065C33.5634 2.50957 33.1179 3.21621 33.1588 3.25205C33.2305 3.32374 36.6255 1.64419 37.6905 1.00924C38.4279 0.568867 39.237 0.0516897 39.237 0.0158456C39.237 -0.0251191 39.0987 0.0107242 38.7505 0.154101Z" fill="#F26522"/>
<path d="M41.5053 0.466446C40.7986 1.424 40.2456 1.95142 39.1344 2.74511C38.1769 3.42614 36.1747 4.5885 33.3226 6.11443C32.703 6.44215 32.1756 6.73914 32.1551 6.77499C32.109 6.83643 32.15 8.4699 32.2012 8.71057C32.2216 8.7925 32.2626 8.85395 32.3036 8.85395C32.4521 8.85395 35.0175 7.29729 36.4154 6.3551C38.4892 4.9623 40.2251 3.51831 41.0546 2.50444C41.5923 1.849 42.002 1.02971 42.002 0.620063C42.002 0.399878 41.9098 0.0465594 41.8586 0.0465594C41.8381 0.0465594 41.6794 0.23602 41.5053 0.466446Z" fill="#F26522"/>
<path d="M44.6443 0.338456C44.6648 0.420386 44.716 0.574003 44.7569 0.686655C44.8747 1.01949 44.8952 1.81318 44.7928 2.26891C44.5624 3.32375 44.0554 4.09695 42.7497 5.39758C41.3005 6.83646 39.5391 8.15757 36.0263 10.4516C33.3022 12.2233 33.251 12.254 32.9898 12.254L32.7594 12.2592L32.5956 11.7829C32.5034 11.5218 32.3959 11.1531 32.3549 10.9637C32.191 10.2161 32.022 9.50429 31.9964 9.4838C31.9657 9.45308 30.9416 10.0983 29.0572 11.3272C28.4325 11.7369 27.772 12.1465 27.5876 12.2387C27.4033 12.336 27.2548 12.4435 27.2548 12.4793C27.2548 12.5203 27.1216 12.6893 26.9578 12.8634C26.5481 13.2986 26.374 13.5393 26.1795 13.9182C25.8722 14.5173 25.821 14.9116 25.9286 15.7668C26.0105 16.4273 26.5379 18.4756 26.7427 18.9262C26.8912 19.2488 27.4545 19.812 27.9973 20.1756C28.5247 20.5289 28.5964 20.6364 28.4837 20.9078C28.3096 21.3431 28.2738 21.5684 28.3557 21.8347C28.5093 22.3723 29.3337 23.4323 30.4347 24.4974C31.3973 25.4293 31.9145 25.7775 32.7338 26.054C33.1281 26.1872 33.2049 26.2384 33.3124 26.4483C33.4968 26.8017 33.6606 26.9297 34.4185 27.2932C35.3965 27.7643 35.289 27.7234 35.9495 27.9282C36.5128 28.1023 36.8252 28.1484 38.1207 28.2406C38.6122 28.2713 38.7863 28.3532 38.6942 28.5017C38.6481 28.5785 38.6634 28.599 38.8222 28.6553C38.9246 28.6912 39.1909 28.7219 39.4213 28.7219C39.8002 28.7219 39.9282 28.6912 40.978 28.3378C42.1352 27.9487 43.231 27.5134 43.231 27.4469C43.231 27.3803 42.6268 26.689 42.5346 26.6532C42.4783 26.6327 41.8741 26.9041 40.7629 27.452L39.0782 28.2815L38.3511 28.1689C37.4857 28.0357 36.4616 27.7899 36.2824 27.6722C36.1236 27.5646 36.1441 27.411 36.3285 27.2728L36.4718 27.1652L37.327 27.3291C37.8032 27.4213 38.2333 27.4929 38.2896 27.4929C38.346 27.4878 38.1719 27.411 37.9005 27.3188C37.0402 27.0219 36.9481 26.9348 37.2399 26.7249C37.4908 26.5456 40.7834 24.7278 40.9165 24.692C41.0189 24.6664 41.1008 24.7227 41.3671 24.9889C41.5515 25.1682 41.8741 25.5164 42.0942 25.7673C42.3093 26.0131 42.5192 26.2128 42.5653 26.2128C42.765 26.2128 45.228 24.7944 46.5031 23.9495C48.2799 22.7615 49.4679 21.8142 50.7788 20.5289C52.489 18.8545 53.5541 17.3798 54.3734 15.5671C55.2183 13.6929 55.546 11.6191 55.2951 9.80128C55.1671 8.86934 54.8957 7.80425 54.655 7.26659C54.5782 7.09249 54.5731 7.17442 54.5731 8.64915L54.568 10.2109L54.4041 10.81C53.6104 13.739 51.7773 16.33 48.5564 19.09C46.9742 20.447 45.1 21.7783 42.6933 23.2531C41.3569 24.0724 40.8192 24.3694 40.6861 24.3694C40.512 24.3694 39.1857 22.9049 39.1857 22.7103C39.1857 22.6949 39.9436 22.1777 40.8653 21.5582C43.1337 20.0425 44.6238 18.9262 46.1241 17.6102C49.3962 14.7427 51.4188 11.9212 52.0691 9.30458C52.2279 8.64915 52.2791 7.61991 52.1972 6.71869C52.0999 5.65361 51.68 4.47589 51.0501 3.51834C50.3589 2.45325 49.217 1.31649 48.0751 0.548399L47.7627 0.338456L48.0188 0.614966C48.9609 1.62884 49.7034 2.93459 49.9082 3.94847C50.1233 4.99819 49.9083 6.24247 49.2989 7.49702C48.1519 9.85761 44.6136 13.1655 39.0833 17.0572C37.1324 18.4244 36.4155 18.8954 36.2977 18.8801C36.1748 18.8647 35.6423 18.0915 35.0227 17.0264C34.5516 16.2174 34.4799 16.0535 34.5567 15.9357C34.5823 15.8897 35.1507 15.48 35.8113 15.0294C37.8032 13.6673 39.7593 12.2336 40.7475 11.4194C42.0738 10.3185 43.825 8.64403 44.5009 7.81961C45.2895 6.86206 46.0627 5.5 46.3341 4.5783C46.5184 3.9587 46.5594 3.09333 46.4314 2.53007C46.2675 1.77734 45.6991 0.906841 45.0744 0.435747C44.7006 0.159236 44.5982 0.133633 44.6443 0.338456ZM33.4251 13.3601C33.5429 13.6264 33.8399 14.2613 34.0805 14.7734C34.3263 15.2854 34.526 15.7207 34.526 15.7514C34.526 15.8077 34.3724 15.9255 33.1947 16.7448C32.0528 17.5385 31.044 18.2963 30.1991 18.9927C29.2877 19.7403 29.3645 19.7147 28.9804 19.4382C28.5401 19.1208 27.7668 18.4653 27.2957 18.0096C26.7734 17.5078 26.7734 17.4668 27.2753 16.9752C28.1048 16.1559 29.006 15.4749 30.9262 14.205C31.597 13.7646 32.3293 13.2782 32.5546 13.1245C33.123 12.7456 33.1537 12.7559 33.4251 13.3601ZM37.4499 20.3599C37.6854 20.575 38.7761 21.9422 38.7761 22.0241C38.7761 22.1214 38.4791 22.3518 37.7981 22.782C36.6255 23.5193 35.0432 24.5895 34.3519 25.1016C33.9884 25.3781 33.6709 25.5983 33.6453 25.5983C33.4609 25.5983 31.3052 24.5998 31.2642 24.4923C31.2028 24.3233 31.8479 23.7037 32.7901 23.0329C33.6504 22.4235 37.0914 20.1705 37.1682 20.1705C37.2092 20.1705 37.3372 20.2575 37.4499 20.3599Z" fill="#F26522"/>
<path d="M34.9612 0.533019C34.9356 0.54326 34.5669 0.661033 34.1419 0.794168C32.5392 1.29599 31.1873 1.97702 30.4295 2.65294L30.199 2.86288L30.5831 2.70415C30.793 2.6171 31.0849 2.50444 31.2232 2.45324C31.3665 2.40203 31.9298 2.19721 32.4777 1.99751C33.0256 1.7978 33.6094 1.60322 33.7732 1.5725C33.9524 1.53665 34.0907 1.47521 34.1214 1.424C34.147 1.37792 34.3826 1.15773 34.654 0.942665C34.9202 0.727601 35.1404 0.543261 35.1404 0.527899C35.1404 0.502296 35.038 0.507416 34.9612 0.533019Z" fill="#F26522"/>
<path d="M30.8597 5.03914C29.0265 5.95573 28.2328 6.45753 27.5313 7.13857C26.9834 7.67623 26.6813 8.27534 26.3638 9.44284C26.287 9.72447 26.1692 10.1495 26.0976 10.3901C25.9798 10.7947 25.9747 10.8408 26.0464 11.0661C26.1436 11.3989 26.3433 11.7266 26.5635 11.9212C26.7632 12.0953 27.1473 12.3052 27.1882 12.2643C27.2292 12.2284 26.9988 11.532 26.7428 10.9278C26.625 10.6462 26.4816 10.2468 26.4253 10.0368L26.3229 9.66302L26.5738 9.40699C27.1524 8.813 27.8386 8.37775 30.0967 7.17442C30.9416 6.7238 31.6944 6.29879 31.766 6.23223C31.8787 6.13494 31.9299 5.9762 32.0938 5.29516C32.2013 4.84455 32.2986 4.44516 32.3088 4.40931C32.3242 4.37859 32.3139 4.34787 32.2832 4.34787C32.2576 4.34787 31.6175 4.66022 30.8597 5.03914Z" fill="#F26522"/>
<path d="M4.14743 11.3168C4.11159 11.3629 3.97333 11.6906 3.84019 12.0439C2.3245 16.1353 1.18773 19.1103 1.03411 19.4227C0.834411 19.8067 0.65007 19.9706 0.312112 20.0576C0.0663235 20.1191 0.0304794 20.1498 0.0151176 20.2676L-0.000244141 20.4007H1.3055C2.57029 20.4007 2.61637 20.3956 2.61637 20.3034C2.61637 20.1703 2.54981 20.1345 2.18112 20.0576C1.8278 19.986 1.69467 19.8579 1.69467 19.607C1.69467 19.3817 1.89949 18.6956 2.21697 17.8302C2.47812 17.1287 2.48324 17.1236 2.66246 17.0877C2.89801 17.0365 5.82698 17.0365 6.0062 17.0877C6.16494 17.1287 6.31344 17.4769 6.69236 18.7007C6.92279 19.4432 6.95863 19.6685 6.86646 19.8323C6.80501 19.9552 6.45681 20.0935 6.22639 20.0935C6.06253 20.0935 6.04717 20.1037 6.04717 20.2471V20.4007H12.3967V20.2778C12.3967 20.1345 12.3557 20.1191 11.9205 20.0679C11.6747 20.0423 11.5825 20.0013 11.4187 19.8528L11.219 19.6736V16.4732L12.4889 16.4374C14.3988 16.3862 14.9314 16.2991 15.4332 15.9509C15.7916 15.7051 16.1859 15.2341 16.3856 14.8193C16.5444 14.4813 16.57 14.3789 16.5853 13.9437C16.6212 13.1449 16.4061 12.5867 15.8787 12.0849C15.5305 11.7521 15.0645 11.5063 14.5934 11.409C13.9073 11.2656 10.9066 11.1837 9.5138 11.2707C9.03247 11.2963 8.9659 11.3117 8.9659 11.3936C8.9659 11.5216 9.03247 11.5524 9.44211 11.5933C9.78519 11.6343 9.82104 11.6496 9.97977 11.834L10.1436 12.0286L10.1334 15.8178C10.118 19.8067 10.118 19.817 9.88248 19.9399C9.7135 20.032 9.17584 20.0986 8.87373 20.0628C8.53065 20.0218 8.32583 19.8323 8.0954 19.351C7.94178 19.0284 7.2505 17.2157 6.78965 15.9202C6.66676 15.5823 6.24687 14.4301 5.84746 13.365C5.44806 12.2948 5.12546 11.3936 5.12546 11.3578C5.12546 11.2656 4.99745 11.2349 4.5878 11.2349C4.31129 11.2349 4.19864 11.2554 4.14743 11.3168ZM14.107 11.921C14.6037 12.0593 15.0645 12.4792 15.2693 12.9759C15.3205 13.0988 15.341 13.3599 15.341 13.8208C15.341 14.4096 15.3257 14.5172 15.2233 14.7527C15.0799 15.0651 14.5473 15.6027 14.2606 15.7205C14.025 15.8178 13.1033 15.8895 12.0587 15.8946H11.2804L11.2446 14.2151C11.2087 12.7045 11.2292 11.962 11.306 11.8289C11.3214 11.8084 11.8898 11.7981 12.5708 11.8135C13.4976 11.8289 13.8817 11.8596 14.107 11.921ZM4.42394 12.4331C4.45978 12.4741 4.60316 12.8223 4.7363 13.2165C4.87455 13.6057 5.14594 14.3738 5.34053 14.9217C5.54023 15.4696 5.73481 16.0278 5.77065 16.166C5.82698 16.3862 5.82698 16.4118 5.73993 16.4579C5.60168 16.5296 2.90825 16.5244 2.83656 16.4528C2.75975 16.3759 2.81096 16.2121 3.42031 14.512C3.68658 13.7696 3.94773 13.022 4.00405 12.8479C4.10646 12.556 4.22424 12.3614 4.31129 12.3614C4.33177 12.3614 4.38298 12.3921 4.42394 12.4331Z" fill="#F26522"/>
<path d="M16.6212 11.5677L16.9796 11.5984C17.1793 11.6138 17.3944 11.6548 17.4558 11.6906C17.7221 11.834 17.7221 11.8084 17.7221 15.91V19.7146L17.5787 19.8528C17.42 20.0064 17.1742 20.0935 16.9182 20.0935C16.6775 20.0935 16.5956 20.1396 16.5956 20.2778V20.4007H19.924V20.2727C19.924 20.1242 19.9035 20.114 19.4887 20.0679C19.2276 20.0372 19.161 20.0064 18.9869 19.8323L18.7821 19.6326L18.8077 17.8456C18.823 16.4323 18.8435 16.038 18.8998 15.9714C18.9613 15.8997 19.0586 15.8895 19.5399 15.9048C19.924 15.9151 20.139 15.9407 20.1953 15.9868C20.2414 16.0277 21.03 17.0365 21.9466 18.2296L23.6159 20.4007H25.5617L25.5464 20.2625C25.531 20.1396 25.4951 20.1191 25.1982 20.0423C24.7731 19.9348 24.6093 19.8477 24.343 19.5712C24.0307 19.2435 21.6137 16.2991 21.5472 16.1609C21.4652 15.9817 21.5574 15.9356 22.1207 15.8895C23.7951 15.7461 24.8039 14.7681 24.7271 13.365C24.6707 12.3409 23.9795 11.6496 22.7403 11.3834C22.2948 11.2861 22.0285 11.2758 19.4221 11.2502L16.5905 11.2195L16.6212 11.5677ZM22.1309 11.8698C22.7454 12.003 23.0834 12.2436 23.3445 12.7403C23.4725 12.981 23.4828 13.0527 23.4828 13.5903C23.4828 14.1485 23.4725 14.1946 23.3291 14.4506C23.2472 14.6042 23.068 14.8295 22.9297 14.9473C22.5662 15.2801 22.2333 15.3826 21.4089 15.4389C20.4565 15.4952 19.0893 15.4952 18.9306 15.4338L18.7974 15.3826V13.6262C18.7974 12.6584 18.8128 11.8493 18.8333 11.834C18.8486 11.8135 19.5245 11.7981 20.3285 11.7981C21.3884 11.7981 21.8851 11.8186 22.1309 11.8698Z" fill="#F26522"/>
<path d="M55.1876 18.4909C53.9689 20.7849 51.9565 22.8997 49.2477 24.7227C47.9573 25.5932 46.9281 26.1821 45.2281 27.0167C44.4548 27.4008 43.8097 27.7182 43.7994 27.7285C43.7687 27.7541 43.8404 27.9743 43.9121 28.0767C43.9837 28.174 44.0042 28.1688 44.6187 27.9282C47.6347 26.7504 50.0414 25.2347 52.0128 23.2684C53.1496 22.1368 53.9433 21.1178 54.5834 19.9656C55.0596 19.1105 55.5665 17.9942 55.5051 17.9379C55.4948 17.9276 55.3514 18.1734 55.1876 18.4909Z" fill="#F26522"/>
<path d="M0.155582 35.8392C0.45835 34.8912 1.301 34.1454 2.32016 33.9235C2.54046 33.8755 2.70271 33.8655 3.13031 33.8735C3.63357 33.8828 3.68312 33.8896 3.97286 33.9878C4.40586 34.1345 4.73993 34.3435 5.09695 34.6909C5.26293 34.8524 5.39871 35 5.39871 35.0189C5.39871 35.0531 4.60765 35.6448 4.56186 35.6448C4.54861 35.6448 4.45804 35.5639 4.36062 35.4651C3.98922 35.0881 3.66144 34.9542 3.1141 34.9559C2.53193 34.9577 2.11403 35.1279 1.77127 35.5029C1.59042 35.7008 1.43908 35.9877 1.36309 36.2767C1.29397 36.5395 1.29403 37.1526 1.36322 37.4108C1.58759 38.2484 2.24666 38.7543 3.1141 38.7546C3.82522 38.7548 4.35505 38.3985 4.41665 37.8785L4.43558 37.7187H3.75052H3.06549V37.1998V36.681L4.38603 36.6895L5.70657 36.6979L5.70086 37.0813C5.68858 37.9082 5.4515 38.5515 4.96882 39.0675C4.60127 39.4604 4.2346 39.6743 3.71675 39.7977C3.34483 39.8864 2.57283 39.8698 2.17433 39.7645C1.38979 39.5572 0.663964 38.9687 0.312718 38.2552C-0.0393064 37.5401 -0.0982198 36.634 0.155582 35.8392Z" fill="black"/>
<path d="M14.7316 39.7277V36.86V33.9922H15.3473H15.963V36.3091V38.626H16.9352H17.9074V39.1769V39.7277H16.3195H14.7316Z" fill="black"/>
<path fill-rule="evenodd" clip-rule="evenodd" d="M19.2684 36.8615V39.7366L20.5079 39.718C21.1897 39.7077 21.8568 39.6828 21.9905 39.6627C23.1464 39.4885 23.9757 38.7156 24.2151 37.5891C24.2951 37.2128 24.2951 36.5071 24.2151 36.1309C24.026 35.2408 23.4637 34.5503 22.6657 34.228C22.1976 34.0389 21.9906 34.0165 20.5727 34.0009L19.2684 33.9865V36.8615ZM20.5322 36.8611V38.6685L21.075 38.6485C21.8855 38.6187 22.2887 38.4941 22.573 38.1856C22.8595 37.8748 22.9728 37.4957 22.974 36.8438C22.9752 36.1842 22.8445 35.7807 22.5312 35.4766C22.2297 35.1841 21.9159 35.0936 21.1236 35.0707L20.5322 35.0536V36.8611Z" fill="black"/>
<path fill-rule="evenodd" clip-rule="evenodd" d="M30.3054 34.2919C29.5093 36.356 28.2551 39.6846 28.2664 39.7034C28.2744 39.7168 28.5764 39.7277 28.9375 39.7277H29.594L29.7961 39.1121L29.9981 38.4964H31.0796H32.1611L32.2962 38.8447C32.3706 39.0363 32.4687 39.2951 32.5144 39.4199C32.5601 39.5447 32.6115 39.665 32.6287 39.6872C32.652 39.7174 32.8375 39.7277 33.3565 39.7277H34.053L34.0341 39.6554C34.0237 39.6156 33.5298 38.3251 32.9366 36.7877L31.858 33.9924L31.1395 33.9923L30.421 33.9922L30.3054 34.2919ZM31.0862 35.1587C31.0768 35.1855 31.0444 35.324 31.0142 35.4666C30.984 35.6092 30.8228 36.1259 30.656 36.6149C30.4891 37.1039 30.3574 37.5089 30.3633 37.5148C30.3692 37.5207 30.7101 37.5216 31.1209 37.5168L31.8678 37.508L31.5615 36.6331C31.3931 36.1519 31.2211 35.6124 31.1793 35.4342C31.1375 35.2559 31.0956 35.132 31.0862 35.1587Z" fill="black"/>
<path d="M36.0436 39.5583C35.9649 39.2808 34.5963 34.0379 34.5963 34.0141C34.5963 34.002 34.8807 33.9922 35.2283 33.9922C35.5758 33.9922 35.8602 34 35.8602 34.0096C35.8602 34.0192 36.036 34.7657 36.2508 35.6685C36.6132 37.1913 36.7176 37.7026 36.7418 38.0751C36.7501 38.2026 36.7625 38.1701 36.8405 37.8159C36.8895 37.5931 37.1361 36.6416 37.3885 35.7015L37.8475 33.9922H38.4681H39.0887L39.5521 35.6963C39.8071 36.6336 40.0476 37.5592 40.0868 37.7533C40.1639 38.1356 40.2025 38.2251 40.2025 38.0214C40.2025 37.7854 40.2985 37.329 40.6988 35.661L41.0954 34.0084L41.7184 33.9996C42.061 33.9947 42.3413 33.9988 42.3413 34.0085C42.3413 34.0255 40.8984 39.5531 40.863 39.6717C40.8473 39.7244 40.7963 39.7284 40.2421 39.7204L39.6383 39.7115L39.1242 37.8807C38.8415 36.8737 38.5767 35.89 38.5359 35.6947L38.4618 35.3395L38.4377 35.5322C38.4119 35.7388 38.2835 36.2169 37.681 38.3506L37.2966 39.7115L36.6943 39.7204L36.092 39.7292L36.0436 39.5583Z" fill="black"/>
<path fill-rule="evenodd" clip-rule="evenodd" d="M43.9847 36.7867C43.4003 38.3241 42.9137 39.615 42.9033 39.6555L42.8843 39.7291L43.558 39.7203L44.2317 39.7115L44.4315 39.1121L44.6313 38.5126H45.714H46.7966L47.0283 39.1121L47.2599 39.7115L47.9498 39.7203C48.3292 39.7251 48.6501 39.7178 48.6627 39.7041C48.6754 39.6904 48.1926 38.4032 47.59 36.8438L46.4943 34.0084L45.7707 34L45.0472 33.9916L43.9847 36.7867ZM45.6836 35.3097C45.6615 35.4316 45.4983 35.9695 45.321 36.5049C45.1437 37.0404 44.9986 37.4888 44.9986 37.5013C44.9986 37.5139 45.334 37.5242 45.7439 37.5242C46.1539 37.5242 46.4892 37.5133 46.4891 37.4999C46.489 37.4866 46.3562 37.0965 46.194 36.6331C46.0318 36.1697 45.8596 35.6325 45.8114 35.4393L45.7238 35.088L45.6836 35.3097Z" fill="black"/>
<path fill-rule="evenodd" clip-rule="evenodd" d="M49.8595 36.8607V39.7291L50.4833 39.7204L51.1071 39.7115L51.1233 38.4377L51.1395 37.1639L51.8581 38.4377L52.5767 39.7115L53.2921 39.7203C53.6855 39.7251 54.0074 39.717 54.0074 39.7024C54.0074 39.6878 53.6647 39.1106 53.2459 38.4198C52.827 37.729 52.4843 37.1525 52.4843 37.1386C52.4843 37.1247 52.5636 37.0956 52.6604 37.0739C52.7572 37.0522 52.9217 36.9794 53.026 36.912C53.5795 36.5543 53.821 35.9036 53.6681 35.1821C53.5413 34.5838 53.1124 34.1995 52.4097 34.0545C52.1507 34.0011 51.9641 33.993 50.9856 33.9926L49.8595 33.9922V36.8607ZM51.1233 35.6772V36.3901L51.423 36.3895C51.7601 36.3889 52.1137 36.3249 52.241 36.2415C52.3832 36.1483 52.4622 35.952 52.4625 35.6907C52.4631 35.1684 52.1612 34.9643 51.388 34.9643H51.1233V35.6772Z" fill="black"/>
<path fill-rule="evenodd" clip-rule="evenodd" d="M55.3036 36.8615V39.7366L56.5432 39.718C57.8868 39.6977 58.1185 39.6761 58.5587 39.5296C59.41 39.2462 60.0081 38.5814 60.2351 37.6661C60.3373 37.2539 60.3376 36.4671 60.2357 36.0563C60.0207 35.1898 59.4762 34.5412 58.7009 34.228C58.2328 34.0389 58.0259 34.0165 56.608 34.0009L55.3036 33.9865V36.8615ZM56.5675 36.8611V38.6685L57.1103 38.6485C57.9207 38.6187 58.3239 38.4941 58.6083 38.1856C58.8959 37.8736 59.0098 37.4926 59.0097 36.8438C59.0095 36.1923 58.885 35.7963 58.5865 35.4978C58.2749 35.1862 57.9669 35.094 57.1589 35.0707L56.5675 35.0536V36.8611Z" fill="black"/>
<path fill-rule="evenodd" clip-rule="evenodd" d="M9.32199 33.9439C9.45446 33.9134 9.57744 33.8829 9.59526 33.8761C9.61309 33.8694 9.8537 33.8689 10.13 33.8751C10.5586 33.8847 10.6741 33.8989 10.9173 33.972C11.9621 34.2857 12.7515 35.0792 13.0168 36.0823C13.1198 36.4715 13.1357 37.0645 13.0538 37.4598C12.826 38.5601 12.0377 39.4052 10.9173 39.7501C10.6535 39.8313 10.5899 39.8379 10.0651 39.8379C9.53858 39.8379 9.47737 39.8315 9.20895 39.7489C8.68129 39.5866 8.22343 39.3163 7.85935 38.9522C6.67683 37.7698 6.71137 35.8192 7.93485 34.6861C8.3223 34.3274 8.8252 34.0583 9.32199 33.9439ZM9.72489 34.9974C9.06494 35.1299 8.53945 35.6435 8.35765 36.3339C8.28697 36.6023 8.28762 37.119 8.35898 37.3946C8.47772 37.8531 8.74341 38.2355 9.10594 38.4698C9.38459 38.6499 9.66085 38.7278 10.0327 38.7312C10.5545 38.7361 10.9167 38.5913 11.2721 38.2359C11.9988 37.5092 11.9972 36.2235 11.2685 35.483C10.8622 35.0702 10.278 34.8864 9.72489 34.9974Z" fill="black"/>
<path d="M0.0443696 25.4588C0.0825475 24.8637 0.420973 24.4661 0.998599 24.3377C1.58336 24.2077 2.15488 24.353 2.47089 24.712C2.66118 24.9282 2.73732 25.1523 2.73732 25.4963C2.73732 26.1021 2.45298 26.5856 1.46916 27.6527L1.04284 28.1151L1.82534 28.1336L2.60784 28.1521V28.4111V28.67L1.30379 28.6798C0.586553 28.6851 -0.000244141 28.6752 -0.000244141 28.6579C-0.000244141 28.6405 0.278875 28.2949 0.619998 27.8898C1.65002 26.6667 1.86877 26.3734 2.07342 25.9408C2.19047 25.6933 2.21958 25.3897 2.14097 25.2364C1.99318 24.9482 1.65879 24.781 1.29599 24.8139C0.863786 24.8531 0.619663 25.0894 0.569351 25.5174L0.544491 25.729H0.285754H0.027021L0.0443696 25.4588Z" fill="black"/>
<path fill-rule="evenodd" clip-rule="evenodd" d="M7.48259 24.3432C7.11576 24.442 6.82835 24.6955 6.62099 25.1031C6.39496 25.5474 6.29374 26.2569 6.35985 26.9339C6.48608 28.2265 7.10647 28.8879 8.06913 28.7563C8.64217 28.6779 9.04836 28.2423 9.2535 27.4862C9.35926 27.0963 9.37147 26.0849 9.27551 25.6614C9.04474 24.643 8.32746 24.1157 7.48259 24.3432ZM7.49965 24.844C7.08798 25.0613 6.89054 25.7082 6.92764 26.7183C6.95424 27.4435 7.08124 27.8487 7.36754 28.1221C7.77699 28.5131 8.38961 28.3138 8.6129 27.717C8.73361 27.3944 8.7785 27.0761 8.7785 26.5429C8.7785 26.0088 8.73362 25.6914 8.61224 25.367C8.53004 25.1473 8.33419 24.9047 8.17083 24.8202C8.02078 24.7427 7.66801 24.7551 7.49965 24.844Z" fill="black"/>
<path d="M13.2066 24.6562C13.3719 24.491 13.5897 24.3773 13.8455 24.3228C14.0931 24.27 14.6033 24.307 14.8373 24.3946C15.544 24.6591 15.7773 25.4817 15.3722 26.281C15.2338 26.5542 14.7818 27.1315 14.2981 27.6527L13.869 28.1151L14.6476 28.1251L15.4263 28.1351V28.4118V28.6885H14.1315C13.2595 28.6885 12.8367 28.6759 12.8367 28.6501C12.8367 28.6289 13.1474 28.2439 13.5271 27.7945C14.6666 26.4461 14.977 25.9806 15.0111 25.5687C15.045 25.16 14.7625 24.8628 14.2942 24.8144C13.7738 24.7607 13.3916 25.091 13.3916 25.5946V25.729H13.1279H12.8642L12.8812 25.4423C12.9019 25.0926 12.9949 24.8679 13.2066 24.6562Z" fill="black"/>
<path d="M19.6436 25.5596C19.7669 25.0526 19.8847 24.575 19.9053 24.4983L19.9428 24.359L20.8938 24.3688L21.8448 24.3787V24.6192V24.8596L21.0794 24.8696C20.3908 24.8786 20.3122 24.8861 20.2954 24.9436C20.2343 25.1541 20.0824 25.8472 20.0947 25.8595C20.1029 25.8676 20.1919 25.8486 20.2928 25.8172C20.5933 25.7237 21.0671 25.7651 21.3629 25.9108C21.7991 26.1255 22.0313 26.501 22.0719 27.0572C22.1328 27.8908 21.7163 28.526 20.9784 28.7247C20.7531 28.7854 20.1455 28.7773 19.9259 28.7107C19.6955 28.6409 19.3824 28.4332 19.2544 28.2653L19.1546 28.1345L19.3475 27.9119L19.5404 27.6892L19.6427 27.8282C19.892 28.1666 20.1168 28.2816 20.5288 28.2816C21.1219 28.2816 21.4938 27.8758 21.4929 27.2299C21.4922 26.6645 21.1498 26.2942 20.5642 26.2253C20.3158 26.1961 19.9639 26.2792 19.6964 26.4302C19.5917 26.4893 19.4884 26.5243 19.4637 26.509C19.4308 26.4886 19.4772 26.2437 19.6436 25.5596Z" fill="black"/>
</svg>
