<svg width="160" height="40" viewBox="0 0 160 40" fill="none" xmlns="http://www.w3.org/2000/svg">
<g clip-path="url(#clip0_20419_9676)">
<path d="M45.159 8.9812L48.6473 0.118652H49.6171L53.0921 8.9812H52.0416L48.7684 0.388033H49.3209L46.1959 8.9812H45.159ZM58.2624 8.9812V8.50978L64.2157 0.118652H64.8218V0.617002L58.8685 8.9812H58.2624ZM57.8045 8.9812V0.118652H58.8013L58.7203 8.9812H57.8045ZM64.2831 8.9812L64.3639 0.118652H65.2797V8.9812H64.2831ZM70.6732 8.9812L74.1886 0.118652H75.1584L78.7007 8.9812H77.677L74.4176 0.670879H74.7812L71.6294 8.9812H70.6732ZM69.9595 11.3383L69.9191 8.21349H70.8753L70.6868 11.3383H69.9595ZM70.1749 8.9812L69.9191 8.21349H79.4415L79.0375 8.9812H70.1749ZM78.6738 11.3383L78.4852 8.21349H79.4415L79.4011 11.3383H78.6738ZM89.7611 8.9812H84.1715V0.118652H89.3436V0.913318H85.1413V8.18653H89.7611V8.9812ZM84.5083 4.87318V4.10547H88.8317V4.87318H84.5083ZM96.7529 5.84294C96.6091 5.84294 96.3937 5.83396 96.1064 5.81601C95.828 5.79806 95.5542 5.76214 95.2849 5.70825V4.96747C95.599 5.00339 95.8863 5.03033 96.1468 5.04827C96.4161 5.06625 96.6542 5.07521 96.8608 5.07521C97.4174 5.07521 97.8798 4.98992 98.2478 4.81931C98.625 4.63971 98.9079 4.3928 99.0965 4.07851C99.285 3.75525 99.3793 3.37365 99.3793 2.93365C99.3793 2.26021 99.1548 1.74839 98.706 1.3982C98.2658 1.04801 97.6776 0.872912 96.9415 0.872912H95.6485V8.9812H94.6652V0.118652H97.103C97.7586 0.118652 98.3288 0.221914 98.8136 0.428438C99.3074 0.625983 99.6935 0.917809 99.9719 1.30392C100.25 1.69003 100.389 2.16144 100.389 2.71815C100.389 3.14917 100.304 3.55322 100.134 3.93035C99.9631 4.3075 99.7161 4.63971 99.3929 4.92707C99.0785 5.21441 98.6969 5.43889 98.2478 5.60051C97.8079 5.76214 97.3096 5.84294 96.7529 5.84294ZM105.211 8.9812V0.118652H106.168V8.22695H107.892C108.538 8.22695 109.023 8.04735 109.346 7.68818C109.679 7.32004 109.845 6.83516 109.845 6.23356C109.845 5.64091 109.683 5.17398 109.36 4.83278C109.037 4.48259 108.511 4.30749 107.784 4.30749H105.831V3.55322H107.946C108.87 3.55322 109.58 3.77323 110.074 4.2132C110.568 4.6532 110.815 5.28174 110.815 6.09886C110.815 6.66455 110.693 7.1674 110.451 7.60738C110.209 8.03839 109.858 8.37512 109.4 8.61754C108.942 8.86 108.39 8.9812 107.744 8.9812H105.211ZM112.646 8.9812V0.118652H113.656L113.684 8.9812H112.646ZM5.91487 24.3495V15.4869H6.91157V24.3495H5.91487ZM-0.253906 24.3495V15.4869H0.742794V24.3495H-0.253906ZM0.0828173 16.2816V15.4869H6.58831V16.2816H0.0828173ZM14.6293 21.2112C14.4856 21.2112 14.2701 21.2022 13.9827 21.1843C13.7044 21.1663 13.4305 21.1304 13.1611 21.0765V20.3358C13.4754 20.3717 13.7627 20.3986 14.0232 20.4166C14.2925 20.4345 14.5305 20.4435 14.737 20.4435C15.2937 20.4435 15.7562 20.3582 16.1243 20.1876C16.5014 20.008 16.7843 19.7611 16.9728 19.4468C17.1614 19.1235 17.2557 18.7419 17.2557 18.3019C17.2557 17.6285 17.0312 17.1167 16.5823 16.7665C16.1423 16.4163 15.5541 16.2412 14.8178 16.2412H13.5248V24.3495H12.5416V15.4869H14.9794C15.6349 15.4869 16.2051 15.5902 16.69 15.7967C17.1839 15.9943 17.57 16.2861 17.8483 16.6722C18.1267 17.0583 18.2659 17.5297 18.2659 18.0864C18.2659 18.5175 18.1806 18.9215 18.01 19.2986C17.8394 19.6758 17.5924 20.008 17.2692 20.2954C16.9549 20.5827 16.5733 20.8072 16.1243 20.9688C15.6843 21.1304 15.186 21.2112 14.6293 21.2112ZM26.8725 24.4707C26.0106 24.4707 25.2384 24.2777 24.556 23.8916C23.8825 23.5054 23.3527 22.9712 22.9666 22.2888C22.5805 21.6063 22.3875 20.8296 22.3875 19.9586C22.3875 19.2762 22.5042 18.6521 22.7376 18.0864C22.9801 17.5208 23.3123 17.0359 23.7344 16.6318C24.1654 16.2277 24.6592 15.9179 25.216 15.7025C25.7817 15.4779 26.3878 15.3657 27.0343 15.3657C27.8962 15.3657 28.6639 15.5588 29.3375 15.9449C30.0108 16.331 30.5406 16.8653 30.9266 17.5477C31.3129 18.2211 31.506 18.9978 31.506 19.8778C31.506 20.5602 31.3848 21.1843 31.1423 21.75C30.9089 22.3157 30.581 22.8006 30.159 23.2046C29.737 23.6087 29.2432 23.923 28.6774 24.1475C28.1208 24.3629 27.5191 24.4707 26.8725 24.4707ZM27.0476 23.7434C27.7212 23.7434 28.3138 23.5863 28.8256 23.272C29.3375 22.9577 29.7326 22.5222 30.0108 21.9655C30.2981 21.3998 30.4419 20.7533 30.4419 20.026C30.4419 19.2358 30.2848 18.5489 29.9704 17.9652C29.6563 17.3726 29.2252 16.9146 28.6774 16.5914C28.1387 16.2592 27.5282 16.093 26.8457 16.093C26.1901 16.093 25.6065 16.2502 25.0947 16.5645C24.5919 16.8787 24.1968 17.3142 23.9095 17.8709C23.6221 18.4276 23.4784 19.0742 23.4784 19.8105C23.4784 20.5917 23.6356 21.2786 23.9499 21.8712C24.2641 22.4638 24.6906 22.9263 25.2294 23.2585C25.7772 23.5818 26.3834 23.7434 27.0476 23.7434ZM42.0254 24.3495H36.4358V15.4869H41.6079V16.2816H37.4056V23.5548H42.0254V24.3495ZM36.7726 20.2415V19.4738H41.096V20.2415H36.7726ZM52.2766 24.3495L47.7778 19.797L51.9802 15.4869H53.1924L48.5726 19.9721L48.6536 19.4872L53.61 24.3495H52.2766ZM46.9295 24.3495V15.4869H47.8992V24.3495H46.9295ZM60.159 24.3495V15.4869H61.1826V24.3495H60.159ZM56.8053 16.2816V15.4869H64.5366V16.2816H56.8053ZM69.519 24.3495V23.8781L75.4723 15.4869H76.0784V15.9853L70.1252 24.3495H69.519ZM69.0611 24.3495V15.4869H70.0577L69.9769 24.3495H69.0611ZM75.5397 24.3495L75.6205 15.4869H76.5363V24.3495H75.5397ZM84.2598 21.2112C84.1163 21.2112 83.9009 21.2022 83.6133 21.1843C83.3351 21.1663 83.0611 21.1304 82.7917 21.0765V20.3358C83.1061 20.3717 83.3935 20.3986 83.6539 20.4166C83.9233 20.4345 84.1611 20.4435 84.3676 20.4435C84.9243 20.4435 85.3869 20.3582 85.755 20.1876C86.1321 20.008 86.415 19.7611 86.6036 19.4468C86.7922 19.1235 86.8865 18.7419 86.8865 18.3019C86.8865 17.6285 86.6619 17.1167 86.2129 16.7665C85.7729 16.4163 85.1848 16.2412 84.4484 16.2412H83.1554V24.3495H82.1723V15.4869H84.6102C85.2655 15.4869 85.8357 15.5902 86.3207 15.7967C86.8146 15.9943 87.2006 16.2861 87.4791 16.6722C87.7573 17.0583 87.8966 17.5297 87.8966 18.0864C87.8966 18.5175 87.8112 18.9215 87.6406 19.2986C87.47 19.6758 87.223 20.008 86.8998 20.2954C86.5856 20.5827 86.204 20.8072 85.755 20.9688C85.315 21.1304 84.8167 21.2112 84.2598 21.2112ZM96.5034 24.4707C95.6412 24.4707 94.8691 24.2777 94.1867 23.8916C93.5131 23.5054 92.9835 22.9712 92.5972 22.2888C92.2112 21.6063 92.0182 20.8296 92.0182 19.9586C92.0182 19.2762 92.1349 18.6521 92.3683 18.0864C92.6108 17.5208 92.9429 17.0359 93.3651 16.6318C93.796 16.2277 94.2898 15.9179 94.8467 15.7025C95.4122 15.4779 96.0184 15.3657 96.6649 15.3657C97.5268 15.3657 98.2947 15.5588 98.968 15.9449C99.6416 16.331 100.171 16.8653 100.557 17.5477C100.944 18.2211 101.137 18.9978 101.137 19.8778C101.137 20.5602 101.015 21.1843 100.773 21.75C100.54 22.3157 100.212 22.8006 99.7896 23.2046C99.3676 23.6087 98.8737 23.923 98.3082 24.1475C97.7513 24.3629 97.1499 24.4707 96.5034 24.4707ZM96.6784 23.7434C97.3518 23.7434 97.9444 23.5863 98.4562 23.272C98.968 22.9577 99.3632 22.5222 99.6416 21.9655C99.9289 21.3998 100.072 20.7533 100.072 20.026C100.072 19.2358 99.9154 18.5489 99.6013 17.9652C99.2869 17.3726 98.8558 16.9146 98.3082 16.5914C97.7693 16.2592 97.1588 16.093 96.4763 16.093C95.8209 16.093 95.2372 16.2502 94.7253 16.5645C94.2226 16.8787 93.8275 17.3142 93.5402 17.8709C93.2529 18.4276 93.1091 19.0742 93.1091 19.8105C93.1091 20.5917 93.2661 21.2786 93.5805 21.8712C93.8947 22.4638 94.3213 22.9263 94.86 23.2585C95.4078 23.5818 96.0139 23.7434 96.6784 23.7434ZM108.531 20.0125L108.679 19.4468C109.299 19.4468 109.842 19.5456 110.309 19.7431C110.776 19.9407 111.14 20.219 111.4 20.5782C111.66 20.9284 111.791 21.3504 111.791 21.8443C111.791 22.3381 111.66 22.7736 111.4 23.1508C111.14 23.5189 110.767 23.8107 110.282 24.0262C109.806 24.2418 109.241 24.3495 108.585 24.3495H106.066V15.4869H108.531C109.088 15.4869 109.564 15.5722 109.959 15.7429C110.354 15.9134 110.659 16.1604 110.875 16.4836C111.099 16.7979 111.212 17.175 111.212 17.615C111.212 17.9473 111.144 18.2615 111.009 18.5579C110.875 18.8452 110.686 19.1011 110.444 19.3256C110.201 19.5411 109.919 19.7117 109.595 19.8374C109.272 19.9541 108.917 20.0125 108.531 20.0125ZM106.686 19.3795H108.626C109.119 19.3795 109.519 19.2358 109.824 18.9484C110.138 18.6521 110.296 18.266 110.296 17.7901C110.296 17.3322 110.143 16.955 109.838 16.6587C109.541 16.3624 109.052 16.2143 108.37 16.2143H107.009V23.6222H108.733C109.398 23.6222 109.909 23.4605 110.269 23.1373C110.628 22.814 110.808 22.383 110.808 21.8443C110.808 21.2965 110.61 20.8655 110.215 20.5513C109.829 20.237 109.245 20.0798 108.464 20.0798H106.686V19.3795ZM122.66 24.3495L119.495 16.0392H119.873L116.721 24.3495H115.711L119.361 15.4869H120.209L123.725 24.3495H122.66ZM117.313 21.3055L117.596 20.5109H121.583L122.014 21.3055H117.313ZM134.845 24.3495V15.4869H135.842V24.3495H134.845ZM128.461 24.3495V15.4869H129.458V24.3495H128.461ZM128.798 20.2549V19.4468H135.519V20.2549H128.798ZM141.925 24.3495V23.8781L147.878 15.4869H148.484V15.9853L142.531 24.3495H141.925ZM141.467 24.3495V15.4869H142.464L142.383 24.3495H141.467ZM147.946 24.3495L148.026 15.4869H148.942V24.3495H147.946ZM159.131 24.3495V16.2277H157.474C156.81 16.2277 156.293 16.3759 155.925 16.6722C155.566 16.9596 155.386 17.3771 155.386 17.9248C155.386 18.4995 155.588 18.9664 155.992 19.3256C156.396 19.6847 156.98 19.8643 157.743 19.8643C157.887 19.8643 158.049 19.8599 158.228 19.8509C158.417 19.8329 158.614 19.815 158.821 19.797C159.028 19.779 159.225 19.7566 159.414 19.7296V20.2954C159.09 20.3762 158.754 20.4435 158.403 20.4974C158.062 20.5513 157.743 20.5782 157.447 20.5782C156.998 20.5782 156.59 20.5198 156.221 20.4031C155.853 20.2864 155.535 20.1202 155.265 19.9047C154.996 19.6892 154.785 19.4244 154.632 19.1101C154.488 18.7958 154.417 18.4456 154.417 18.0595C154.417 17.5297 154.547 17.0763 154.807 16.6992C155.077 16.313 155.454 16.0167 155.939 15.8102C156.424 15.5947 156.985 15.4869 157.622 15.4869H160.087V24.3495H159.131ZM154.753 24.3495H153.541L156.747 20.0125L157.474 20.2819L154.753 24.3495ZM64.1969 39.2193C64.8434 38.582 65.4269 37.9894 65.9478 37.4416C66.4777 36.8849 66.922 36.364 67.2812 35.8792C67.6493 35.3942 67.9322 34.9319 68.1296 34.4919C68.3273 34.052 68.426 33.6297 68.426 33.2257C68.426 32.723 68.2823 32.3187 67.9949 32.0134C67.7168 31.7082 67.3305 31.5555 66.8366 31.5555C66.4685 31.5555 66.1138 31.6722 65.7725 31.9059C65.4404 32.1304 65.1711 32.5209 64.9645 33.0775L64.2641 32.7678C64.5694 32.0314 64.9645 31.5151 65.4493 31.219C65.9432 30.9226 66.4685 30.7743 67.0252 30.7743C67.5282 30.7743 67.9501 30.8778 68.2914 31.0843C68.6415 31.2818 68.9019 31.5555 69.0726 31.9059C69.252 32.2471 69.3419 32.6331 69.3419 33.0642C69.3419 33.6657 69.1713 34.2989 68.83 34.9634C68.4888 35.6187 68.0041 36.3056 67.3755 37.024C66.747 37.7333 66.0062 38.4877 65.1531 39.2868L65.261 38.9096H69.7191V39.7179H64.3584L64.1969 39.2193ZM76.5218 39.7987C75.9292 39.7987 75.4173 39.6145 74.9865 39.2464C74.5554 38.8781 74.2186 38.3618 73.9761 37.6974C73.7427 37.0329 73.626 36.2517 73.626 35.3538C73.626 34.438 73.7518 33.6388 74.0032 32.9564C74.2545 32.2651 74.6046 31.7308 75.0537 31.3536C75.5116 30.9674 76.037 30.7743 76.6296 30.7743C77.2133 30.7743 77.7205 30.9585 78.1516 31.3266C78.5827 31.6949 78.9148 32.2111 79.1482 32.8756C79.3907 33.5401 79.5118 34.3169 79.5118 35.2056C79.5118 36.1306 79.3862 36.9386 79.1349 37.6302C78.8833 38.3126 78.5332 38.8469 78.0841 39.2329C77.6353 39.6101 77.1143 39.7987 76.5218 39.7987ZM76.616 39.0175C77.0112 39.0175 77.348 38.8648 77.6262 38.5596C77.9046 38.2543 78.12 37.832 78.2727 37.2934C78.4253 36.7456 78.5016 36.1082 78.5016 35.3807C78.5016 34.6086 78.4209 33.9397 78.2594 33.3739C78.0976 32.7993 77.8643 32.3547 77.559 32.0405C77.2626 31.7173 76.9169 31.5555 76.5218 31.5555C76.1446 31.5555 75.8125 31.7082 75.5252 32.0134C75.2378 32.3187 75.0177 32.741 74.8651 33.2796C74.7125 33.8183 74.6361 34.4515 74.6361 35.1788C74.6361 35.9508 74.7169 36.6245 74.8786 37.1991C75.0493 37.7737 75.2826 38.2227 75.5791 38.546C75.8844 38.8601 76.23 39.0175 76.616 39.0175ZM83.5925 39.2193C84.239 38.582 84.8227 37.9894 85.3437 37.4416C85.8732 36.8849 86.3179 36.364 86.6771 35.8792C87.0451 35.3942 87.328 34.9319 87.5254 34.4919C87.7231 34.052 87.8219 33.6297 87.8219 33.2257C87.8219 32.723 87.6781 32.3187 87.3908 32.0134C87.1126 31.7082 86.7263 31.5555 86.2324 31.5555C85.8644 31.5555 85.5096 31.6722 85.1684 31.9059C84.8363 32.1304 84.5669 32.5209 84.3604 33.0775L83.6599 32.7678C83.9652 32.0314 84.3604 31.5151 84.8451 31.219C85.339 30.9226 85.8644 30.7743 86.421 30.7743C86.924 30.7743 87.346 30.8778 87.6872 31.0843C88.0373 31.2818 88.2978 31.5555 88.4684 31.9059C88.6478 32.2471 88.7377 32.6331 88.7377 33.0642C88.7377 33.6657 88.5671 34.2989 88.2259 34.9634C87.8846 35.6187 87.3999 36.3056 86.7714 37.024C86.1428 37.7333 85.402 38.4877 84.5489 39.2868L84.6565 38.9096H89.1149V39.7179H83.7542L83.5925 39.2193ZM93.5066 35.1384L93.8569 30.8957L98.0457 30.8147V31.6634H94.0723L94.6381 31.2594L94.3417 34.7341L93.5066 35.1384ZM93.4933 38.2228C93.7447 38.4741 94.032 38.6627 94.3552 38.7885C94.6785 38.9141 95.0197 38.9771 95.3789 38.9771C95.9983 38.9771 96.4878 38.7929 96.847 38.4249C97.215 38.0566 97.3992 37.5762 97.3992 36.9837C97.3992 36.3371 97.197 35.8342 96.793 35.475C96.389 35.116 95.8233 34.9363 95.096 34.9363C94.9613 34.9363 94.7952 34.9454 94.5977 34.9634C94.4 34.9811 94.2026 35.0037 94.0051 35.0306C93.8074 35.0574 93.6412 35.0933 93.5066 35.1384L93.7491 34.4109C93.9468 34.3572 94.1981 34.3169 94.5034 34.2898C94.8087 34.2538 95.1049 34.2359 95.3924 34.2359C96.3171 34.2359 97.0355 34.4739 97.5474 34.9498C98.0592 35.4166 98.315 36.0678 98.315 36.9029C98.315 37.4775 98.1939 37.9847 97.9514 38.4249C97.718 38.8557 97.3856 39.1925 96.9548 39.435C96.5326 39.6773 96.0343 39.7987 95.4596 39.7987C94.9837 39.7987 94.5438 39.7132 94.1398 39.5426C93.7447 39.372 93.3855 39.1297 93.0622 38.8153L93.4933 38.2228Z" fill="url(#paint0_linear_20419_9676)"/>
</g>
<defs>
<linearGradient id="paint0_linear_20419_9676" x1="-9.2312" y1="1.82977" x2="169.513" y2="39.9917" gradientUnits="userSpaceOnUse">
<stop stop-color="#ECEDEE"/>
<stop offset="0.212443" stop-color="#2C2C30"/>
<stop offset="0.373179" stop-color="#A7A7A7"/>
<stop offset="0.49" stop-color="#ECEDEE"/>
<stop offset="0.692072" stop-color="#2C2C30"/>
<stop offset="1" stop-color="#ECEDEE"/>
</linearGradient>
<clipPath id="clip0_20419_9676">
<rect width="160" height="40" fill="white"/>
</clipPath>
</defs>
</svg>
