<svg width="159" height="159" viewBox="0 0 159 159" fill="none" xmlns="http://www.w3.org/2000/svg">
<circle cx="56.5" cy="78.5" r="56.5" fill="#BADDFE"/>
<g clip-path="url(#clip0_6378_20162)">
<path d="M33.0651 157.013L30.3897 158.338H27.7144C27.4915 158.117 27.0456 157.278 27.0456 155.688C27.0456 154.098 27.4915 152.817 27.7144 152.376L31.7274 145.751L33.0651 140.451L34.4027 137.138L25.7079 131.838L22.3638 129.188L23.7014 127.863L34.4027 115.938L30.3897 116.601L23.7014 117.263L20.3573 116.601L16.3443 117.263L13.6689 116.601V113.951L17.0131 113.288L19.0196 112.626L23.7014 108.651L27.0456 105.338V104.676L23.7014 98.7133L18.3508 92.0883L17.6819 88.7758C17.9049 88.1133 18.4845 86.5233 19.0196 85.4633C19.5547 84.4033 26.3767 82.8133 29.7209 82.1508L39.0845 78.8383L37.078 77.5133L35.0715 75.5258V72.8758L32.3962 71.5508L27.7144 68.9008L27.0456 65.5883L30.3897 59.6258L31.7274 58.9633L33.0651 59.6258L35.0715 62.2758L36.4092 64.9258H37.078L38.4157 62.2758L39.0845 60.9508V60.2883L39.7534 58.3008V56.9758V54.3258L40.4222 50.3508L41.091 47.7008L43.0975 44.3883L44.4352 43.0633L47.1105 41.0758L50.4547 39.0883L53.13 36.4383L57.143 35.7758H59.8183V34.4508H58.4806L55.8053 33.1258L53.7988 30.4758V27.1633L55.1365 23.1883L59.8183 20.5383L62.4936 17.8883L66.5066 17.2258L71.8573 19.2133L73.8638 21.2008C74.9339 22.2608 75.2014 25.1758 75.2014 26.5008L74.5326 29.8133V32.4633V35.7758L73.1949 39.0883L73.8638 40.4133L75.2014 38.4258L77.8767 35.1133L79.2144 32.4633L79.8832 14.5758L90.5845 11.9258L89.2469 15.2383L90.5845 19.2133L89.9157 23.8508L88.578 31.8008L86.5715 40.4133L85.9027 45.0508L84.565 48.3633L87.9092 53.6633L94.5975 61.6133L102.623 69.5633L107.974 76.8508L109.312 79.5008L111.318 84.8008L111.987 87.4508L113.325 90.1008L113.994 94.0758L114.662 100.038L115.331 106.663V113.288V116.601V117.926L113.325 118.588L108.643 117.926L103.961 119.251L99.9482 122.563L101.286 131.838L100.617 135.813L98.6105 137.801L94.5975 138.463L73.8638 137.801L63.1625 138.463L55.1365 139.126H48.4482L42.4287 138.463L41.091 137.801L39.7534 139.126V141.113L39.0845 143.101C38.8616 143.542 38.1482 145.221 37.078 148.401C36.543 151.581 34.1798 155.467 33.0651 157.013Z" fill="#F6F6F6" stroke="#1D2E43" stroke-width="0.4"/>
<path d="M34.2975 138.361C33.7898 139.102 33.2473 139.789 32.879 140.614C32.5057 141.448 32.1921 142.317 31.9532 143.2C31.7242 144.049 31.57 144.923 31.2016 145.728C30.8234 146.562 30.3256 147.353 29.808 148.104C28.2103 150.415 26.2393 152.776 26.4433 155.736C26.518 156.82 26.6773 158.165 27.7972 158.681C29.0216 159.24 30.8134 159.054 31.8935 158.268C33.1975 157.316 34.3224 156.241 35.1436 154.847C35.9699 153.444 36.3083 151.942 36.7712 150.405C37.0748 149.389 37.4183 148.393 37.687 147.367C37.9807 146.263 38.2744 145.267 38.9115 144.305C39.9268 142.773 40.2752 140.565 39.8422 138.793C39.7775 138.518 39.4142 138.616 39.3843 138.852C39.2748 139.666 39.3694 140.486 39.2798 141.301C39.1852 142.16 38.8716 142.906 38.5481 143.696C38.2445 144.442 38.0504 145.227 37.7418 145.978C37.4232 146.754 37.1346 147.529 36.8857 148.324C36.6617 149.046 36.5074 149.787 36.2685 150.509C36.0097 151.299 35.6264 152.025 35.293 152.781C34.7056 154.116 34.0536 155.48 33.0781 156.585C32.0727 157.724 30.5148 158.455 28.9519 158.278C28.1555 158.185 27.608 157.905 27.3791 157.149C27.2098 156.6 27.1402 156.011 27.1352 155.436C27.1203 154.16 27.6628 152.914 28.2501 151.794C28.8971 150.562 29.7732 149.458 30.5446 148.305C31.0175 147.603 31.565 146.921 31.9582 146.175C32.3514 145.438 32.4509 144.653 32.6102 143.848C32.7844 142.979 33.0134 142.12 33.302 141.281C33.6305 140.324 33.9143 139.318 34.3473 138.405C34.3771 138.356 34.3224 138.322 34.2975 138.361Z" fill="#1D2E43" stroke="#1D2E43" stroke-width="0.4"/>
<path d="M88.8543 15.2409C91.1289 17.4692 90.5814 21.0178 89.8647 23.7811C89.3819 25.6511 89.0384 27.5653 88.6353 29.455C88.2321 31.3495 87.824 33.2392 87.4109 35.1337C85.7584 42.7021 83.8421 50.2116 82.0254 57.7407C81.1345 61.4415 80.2535 65.157 79.1734 68.8135C78.1382 72.3278 76.64 75.7341 74.8233 78.9293C73.9423 80.4802 72.9917 81.992 71.9514 83.4448C71.0206 84.7405 69.9555 86.0706 68.5519 86.8952C65.5456 88.672 61.947 87.8621 58.7914 86.8854C55.3223 85.8105 51.5196 84.6767 48.8418 82.1343C46.5324 79.9403 45.1786 76.1611 47.0003 73.28C47.279 72.8431 46.5921 72.4603 46.3034 72.8775C44.5614 75.3954 45.089 78.7084 46.6867 81.1576C48.4984 83.9307 51.6739 85.4571 54.715 86.5664C56.4023 87.1799 58.1145 87.7443 59.8466 88.2204C61.529 88.6867 63.276 89.0499 65.033 89.0057C66.6954 88.9665 68.4424 88.5984 69.8361 87.6805C71.3143 86.7087 72.3944 85.3393 73.3948 83.9111C75.5649 80.814 77.3866 77.4323 78.6807 73.8837C80.0644 70.0946 81.1146 66.1779 82.1399 62.2857C84.2553 54.2706 86.0222 46.2016 87.6946 38.0884C88.5357 34.0146 89.3371 29.9311 90.0787 25.8376C90.3823 24.1787 90.5864 22.5295 90.6959 20.846C90.7904 19.4767 90.7158 18.0386 90.1583 16.7624C89.8796 16.1293 89.4814 15.5747 88.9787 15.0937C88.904 15.0151 88.7647 15.1526 88.8543 15.2409Z" fill="#1D2E43" stroke="#1D2E43" stroke-width="0.4"/>
<path d="M47.6866 54.983C44.9541 57.1574 44.8147 61.3735 45.3672 64.5098C45.7007 66.4092 46.4274 68.1811 47.2387 69.9284C48.035 71.6561 48.911 73.4966 50.1305 74.974C50.2947 75.1703 50.6381 74.9593 50.5585 74.7286C49.9762 73.0402 48.9658 71.4941 48.2142 69.8744C47.4378 68.2007 46.8504 66.4191 46.4871 64.6129C46.1586 62.9637 46.1138 61.2704 46.3776 59.6114C46.6314 58.0163 47.1988 56.5438 47.7911 55.0518C47.821 54.9781 47.7314 54.9487 47.6866 54.983Z" fill="#1D2E43" stroke="#1D2E43" stroke-width="0.4"/>
<path d="M45.7008 65.1112C45.656 65.4646 45.7655 65.8573 45.8202 66.2106C45.8899 66.6426 45.9546 67.0745 46.0044 67.5113C46.094 68.2819 46.1288 69.0574 46.1338 69.8329C46.1388 70.5789 46.1487 71.3299 46.079 72.071C46.0442 72.444 45.9745 72.8121 45.9048 73.1802C45.8352 73.5435 45.7008 73.8968 45.661 74.26C45.646 74.4073 45.8451 74.5202 45.9695 74.4318C46.5519 74.0244 46.7759 73.195 46.8605 72.5324C46.965 71.6685 46.9302 70.7851 46.9053 69.9163C46.8804 69.0574 46.8256 68.1935 46.6863 67.3395C46.5718 66.6278 46.3827 65.5775 45.8302 65.0572C45.7804 65.0082 45.7107 65.0474 45.7008 65.1112Z" fill="#1D2E43" stroke="#1D2E43" stroke-width="0.4"/>
<path d="M59.9012 34.8932C59.4732 38.9915 58.9257 43.4137 60.5632 47.3354C60.9066 48.1599 61.3347 48.9354 61.8872 49.6422C62.3451 50.2312 62.9224 50.8987 63.7337 50.9478C65.3613 51.0459 67.0387 49.5293 68.059 48.4348C69.3033 47.0998 70.3286 45.2248 70.6572 43.4334C70.6771 43.3205 70.5128 43.2714 70.478 43.3843C70.1544 44.4003 69.816 45.3475 69.2287 46.2556C68.7011 47.0752 68.0341 47.8311 67.3174 48.4937C66.5857 49.171 65.6848 49.8729 64.7292 50.2115C63.3654 50.7024 62.579 49.4999 61.9817 48.4888C59.523 44.3365 60.5881 39.443 60.2895 34.8932C60.2696 34.6477 59.9261 34.6527 59.9012 34.8932Z" fill="#1D2E43" stroke="#1D2E43" stroke-width="0.4"/>
<path d="M44.5561 70.0315C44.4267 69.8892 44.2475 69.8155 44.0982 69.6879C43.9489 69.5554 43.8145 69.3983 43.6901 69.2413C43.4064 68.8928 43.1426 68.5247 42.8638 68.1713C42.2865 67.44 41.6792 66.6939 40.9376 66.1197C40.2308 65.5749 39.4195 65.1331 38.5386 64.9417C38.1105 64.8485 37.6626 64.7994 37.2246 64.8288C36.8513 64.8534 36.3137 64.9565 36.0698 65.2608C35.9554 65.4031 35.9852 65.6191 36.1793 65.673C36.5327 65.7712 36.9857 65.673 37.3589 65.673C37.792 65.673 38.215 65.7614 38.6232 65.8939C39.4693 66.1639 40.196 66.6694 40.858 67.2437C41.5001 67.8032 42.0675 68.4462 42.6199 69.0891C43.0082 69.5407 43.6652 70.5468 44.3769 70.4634C44.5959 70.434 44.7154 70.2033 44.5561 70.0315Z" fill="#1D2E43" stroke="#1D2E43" stroke-width="0.4"/>
<path d="M37.5778 68.9059C37.4435 69.117 37.4235 69.3869 37.314 69.6176C37.1896 69.8777 37.0204 70.1084 36.8312 70.3244C36.4878 70.7121 36.1095 71.0753 35.7611 71.4581C34.9996 72.2925 34.4372 73.176 34.6562 74.3441C34.7955 75.0706 35.1937 75.7135 35.6118 76.3172C36.01 76.8866 36.438 77.4461 36.9557 77.9173C37.9312 78.8008 39.3547 79.5223 40.6439 78.894C40.9674 78.737 40.7832 78.2952 40.4746 78.2707C39.1457 78.1823 38.0955 77.7406 37.1996 76.7541C36.7466 76.2583 36.3485 75.6988 36 75.1245C35.6666 74.5748 35.3779 73.9809 35.4924 73.3233C35.6516 72.4054 36.3285 71.7477 36.881 71.0311C37.2444 70.555 37.9561 69.544 37.6674 68.9108C37.6525 68.8666 37.5978 68.8715 37.5778 68.9059Z" fill="#1D2E43" stroke="#1D2E43" stroke-width="0.4"/>
<path d="M64.0323 56.9427C64.2712 61.2275 61.3446 64.3491 59.0949 67.6916C58.0098 69.3014 57.2134 71.0291 56.6411 72.8746C56.0687 74.7152 55.6904 76.6097 55.1927 78.4699C54.9189 79.5006 54.6103 80.5264 54.2171 81.5228C53.8538 82.4455 53.0624 84.4873 51.6837 83.7854C51.2955 83.5891 50.957 84.1634 51.3402 84.3597C53.2615 85.3462 54.3664 82.9903 54.904 81.5964C55.6904 79.5644 56.1384 77.4245 56.6659 75.314C57.2134 73.1347 57.8555 70.9653 59.0103 69.0168C60.1152 67.1517 61.5437 65.4976 62.6686 63.6423C63.8532 61.6889 64.7491 59.2054 64.097 56.9329C64.0921 56.8936 64.0323 56.8985 64.0323 56.9427Z" fill="#1D2E43"/>
<path d="M84.4188 14.903C84.0206 14.3533 83.1446 14.157 82.5125 14.0196C81.8456 13.8723 81.104 13.8085 80.4569 14.0637C78.68 14.7656 78.8841 17.0234 78.8244 18.5645C78.6949 21.7941 78.7298 25.0237 78.7248 28.2581C78.7248 29.1907 78.7248 30.1282 78.7198 31.0607C78.7149 32.1699 78.675 33.4068 78.894 34.4964C78.9488 34.7615 79.3619 34.7467 79.4216 34.4964C79.6307 33.6228 79.6257 32.6509 79.6804 31.7528C79.7252 30.9773 79.7153 30.1969 79.7252 29.4214C79.7402 28.0864 79.7302 26.7513 79.7302 25.4212C79.7252 24.042 79.7402 22.6628 79.7402 21.2836C79.7402 20.4493 79.7203 19.6198 79.7153 18.7854C79.7103 17.8528 79.5859 16.8074 79.7999 15.8896C80.0338 14.8932 80.865 14.4269 81.8555 14.4662C82.3284 14.4858 82.8012 14.6036 83.2492 14.746C83.6324 14.8638 83.9659 15.0355 84.374 15.0012C84.4039 14.9963 84.4487 14.9472 84.4188 14.903Z" fill="#1D2E43" stroke="#1D2E43" stroke-width="0.4"/>
<path d="M72.8767 39.2989C73.7477 40.359 75.0219 41.4879 75.0816 42.9603C75.1115 43.726 74.6237 44.3935 74.2404 45.0218C73.8671 45.6304 73.4988 46.239 73.1205 46.8476C72.5133 47.8243 71.8712 48.7962 71.0699 49.6305C70.6667 50.0526 70.2188 50.4453 69.7211 50.7594C69.2184 51.0735 68.6659 51.2355 68.1333 51.4858C67.8596 51.6134 67.9939 52.0601 68.2876 52.0454C69.517 51.9816 70.6966 51.0392 71.5129 50.1999C72.4984 49.1937 73.2599 47.9961 73.9965 46.8034C74.7581 45.5715 76.0771 44.0843 75.7585 42.5382C75.4798 41.1983 74.3698 39.6179 73.1454 38.9602C72.9165 38.8277 72.7224 39.1074 72.8767 39.2989Z" fill="#1D2E43"/>
<path d="M70.5722 41.4486C70.5622 41.5075 70.5174 41.5369 70.4925 41.5909C70.4676 41.6449 70.4627 41.7136 70.4527 41.7725C70.4278 41.91 70.4328 42.0523 70.4278 42.1946C70.4179 42.4548 70.393 42.7149 70.3681 42.975C70.3432 43.2352 70.2934 43.4904 70.2536 43.7505C70.2188 43.9959 70.0943 44.3002 70.2138 44.5309C70.2536 44.6046 70.3581 44.6242 70.4278 44.5849C70.6618 44.4573 70.7165 44.1088 70.7862 43.8732C70.8658 43.5984 70.8957 43.3088 70.9206 43.029C70.9455 42.7493 70.9405 42.4695 70.9206 42.1897C70.9106 42.0621 70.9056 41.9198 70.8758 41.7971C70.8559 41.7333 70.831 41.6597 70.8011 41.6008C70.7713 41.5369 70.6966 41.5026 70.6717 41.4388C70.6618 41.3946 70.5821 41.4044 70.5722 41.4486Z" fill="#1D2E43" stroke="#1D2E43" stroke-width="0.4"/>
<path d="M85.016 49.2028C90.1625 59.9173 100.874 66.612 107.085 76.61C110.554 82.1906 112.545 88.4926 113.655 94.9174C114.263 98.4366 114.661 101.975 114.885 105.534C114.999 107.34 115.084 109.151 115.144 110.957C115.203 112.739 115.363 114.56 115.278 116.337C115.248 116.985 114.93 117.308 114.287 117.451C113.795 117.559 113.282 117.593 112.779 117.608C111.774 117.642 110.773 117.549 109.773 117.52C108.28 117.475 106.817 117.662 105.418 118.197C103.064 119.1 100.694 121.014 100.59 123.684C100.58 123.905 100.928 123.949 100.978 123.738C101.61 121.107 103.671 119.37 106.244 118.609C107.712 118.177 109.181 118.177 110.699 118.241C111.545 118.275 112.391 118.324 113.237 118.256C113.909 118.202 114.706 118.133 115.273 117.745C115.761 117.412 115.87 116.891 115.875 116.337C115.88 115.389 115.806 114.437 115.781 113.49C115.731 111.679 115.671 109.873 115.592 108.061C115.432 104.454 115.178 100.837 114.725 97.2537C113.904 90.7651 112.207 84.2667 109.216 78.4113C106.473 73.0466 102.446 68.536 98.3104 64.1776C93.7163 59.3431 88.9829 54.6263 85.4441 48.9525C85.2699 48.6923 84.8816 48.9279 85.016 49.2028Z" fill="#1D2E43" stroke="#1D2E43" stroke-width="0.4"/>
<path d="M67.0232 87.939C66.9535 89.2152 66.8639 90.4864 66.5553 91.7281C66.2467 92.9748 65.7888 94.1871 65.2612 95.3602C64.221 97.6768 62.9169 99.8953 61.6079 102.075C60.279 104.288 58.8605 106.458 57.3722 108.568C55.9637 110.566 54.4307 112.465 52.9873 114.438C51.4294 116.563 50.0108 118.821 49.528 121.437C49.4633 121.796 49.981 121.948 50.0905 121.589C51.5588 116.838 55.1723 113.167 58.0193 109.201C61.0355 105 63.9124 100.509 65.9581 95.7578C66.9884 93.3626 67.8743 90.5158 67.292 87.8998C67.2522 87.7525 67.0282 87.7967 67.0232 87.939Z" fill="#1D2E43" stroke="#1D2E43" stroke-width="0.4"/>
<path d="M54.2065 113.492C54.0274 114.424 53.7835 115.342 53.5744 116.27C53.3654 117.202 53.1364 118.135 52.8826 119.053C52.3749 120.889 51.7478 122.705 50.9813 124.452C49.4283 127.981 47.3628 131.235 44.7447 134.091C44.0081 134.896 43.2316 135.667 42.4203 136.398C42.0371 136.742 41.6488 137.081 41.2556 137.409C40.8176 137.773 40.31 138.097 39.9367 138.528C39.6977 138.808 39.9914 139.181 40.3249 139.024C41.171 138.636 41.9176 137.866 42.6045 137.252C43.3511 136.595 44.0678 135.903 44.7596 135.181C46.1135 133.768 47.3478 132.241 48.4578 130.631C50.6976 127.377 52.5192 123.838 53.5645 120.025C53.8532 118.974 54.097 117.919 54.2464 116.839C54.4056 115.72 54.4355 114.64 54.4255 113.512C54.4206 113.404 54.2314 113.369 54.2065 113.492Z" fill="#1D2E43" stroke="#1D2E43" stroke-width="0.4"/>
<path d="M46.2735 91.1932C46.2287 91.2864 46.1491 91.3601 46.1093 91.4533C46.0694 91.5515 46.0545 91.6644 46.0396 91.7674C46.0047 92.003 46.0147 92.2288 46.0744 92.4595C46.1939 92.9258 46.4228 93.3479 46.7215 93.7258C47.0201 94.1086 47.3685 94.4473 47.692 94.8105C47.8513 94.9872 48.0106 95.1688 48.145 95.3651C48.2843 95.5664 48.3839 95.8363 48.6079 95.959C48.8468 96.0866 49.0658 95.9197 49.1006 95.6792C49.1305 95.4535 48.9612 95.2277 48.8368 95.051C48.7024 94.8645 48.5581 94.6878 48.4088 94.5209C48.1002 94.1822 47.7617 93.8681 47.4531 93.5295C47.1595 93.2104 46.8857 92.857 46.6916 92.4693C46.597 92.2828 46.5273 92.0766 46.4676 91.8754C46.4378 91.7674 46.4178 91.6644 46.4079 91.5515C46.3979 91.4386 46.3581 91.3208 46.3731 91.2079C46.378 91.1686 46.2934 91.149 46.2735 91.1932Z" fill="#1D2E43" stroke="#1D2E43" stroke-width="0.4"/>
<path d="M47.1343 93.355C46.8804 95.4263 46.542 97.4436 45.9646 99.4559C45.4121 101.39 44.7551 103.289 44.1778 105.213C42.9882 109.199 42.4108 113.326 42.6099 117.484C42.7244 119.795 42.9434 122.24 43.7497 124.419C43.8244 124.62 44.1877 124.61 44.1628 124.365C43.9339 122.298 43.5257 120.262 43.4113 118.176C43.3018 116.095 43.3665 113.999 43.6004 111.923C44.0633 107.795 45.5216 103.957 46.6017 99.9713C47.1791 97.8411 47.7266 95.5735 47.5474 93.355C47.5325 93.0851 47.1641 93.0949 47.1343 93.355Z" fill="#1D2E43" stroke="#1D2E43" stroke-width="0.4"/>
<path d="M43.2522 114.548C42.4309 116.354 41.9332 118.298 41.3111 120.178C40.6789 122.082 40.007 123.977 39.3351 125.871C38.6582 127.761 37.9713 129.646 37.2546 131.525C36.5279 133.43 35.7464 135.329 35.1044 137.263C35.0546 137.405 35.1392 137.558 35.2587 137.631C36.8016 138.637 38.8921 140.198 40.7337 138.996C40.8233 138.937 40.7685 138.789 40.659 138.819C38.8025 139.295 37.0057 138.299 35.6618 137.116C35.6768 137.248 35.6967 137.381 35.7116 137.513C36.6125 135.732 37.3442 133.842 38.0708 131.987C38.8174 130.082 39.5143 128.154 40.1812 126.22C40.8482 124.286 41.4604 122.332 42.0576 120.379C42.63 118.494 43.292 116.585 43.5558 114.632C43.5757 114.474 43.3169 114.411 43.2522 114.548Z" fill="#1D2E43" stroke="#1D2E43" stroke-width="0.4"/>
<path d="M46.2183 92.4062C45.6957 91.8565 44.3817 92.1264 43.7147 92.2148C42.7939 92.3375 41.888 92.5534 40.9872 92.7792C39.056 93.2651 37.1795 93.9621 35.2185 94.3204C31.2466 95.0517 27.434 94.3842 23.7856 92.7645C23.5716 92.6663 23.3924 92.951 23.5965 93.0835C26.7869 95.1204 30.9878 95.9597 34.7506 95.6014C36.7963 95.4051 38.7324 94.7915 40.6537 94.0897C41.6292 93.7363 42.6097 93.4074 43.6251 93.1817C44.1228 93.0688 44.6255 93.005 45.1332 92.9215C45.5165 92.8626 45.9296 92.8675 46.2233 92.5927C46.273 92.5436 46.2681 92.4602 46.2183 92.4062Z" fill="#1D2E43" stroke="#1D2E43" stroke-width="0.4"/>
<path d="M45.4669 76.7864C37.2643 78.4404 29.1613 80.6197 21.4565 83.8885C20.9936 84.0848 20.5307 84.2861 20.0678 84.4922C19.6248 84.6885 18.9977 84.8554 18.6443 85.1843C18.1615 85.6407 17.823 86.4358 17.5792 87.0346C17.1163 88.1586 17.0018 89.3611 17.2108 90.5538C17.6389 93.0128 19.4058 95.0889 21.0035 96.9246C22.8451 99.0449 25.0949 101.165 26.0405 103.865C26.3541 104.753 27.7975 104.37 27.479 103.472C26.6528 101.121 24.9754 99.1922 23.3429 97.3418C21.775 95.5601 19.9583 93.7539 19.0475 91.5305C18.6542 90.5783 18.4701 89.5329 18.6791 88.5169C18.7986 87.9377 19.0126 87.3929 19.3013 86.8776C19.4705 86.5782 19.6049 86.3131 19.8687 86.1904C20.3266 85.9794 20.7895 85.7732 21.2524 85.572C24.9406 83.9572 28.7532 82.6075 32.6155 81.4541C36.9756 80.1534 41.4054 79.108 45.8701 78.2049C46.8008 78.0183 46.4026 76.5999 45.4669 76.7864Z" fill="#1D2E43" stroke="#1D2E43" stroke-width="0.4"/>
<path d="M50.4636 83.7657C49.9559 83.7756 49.498 84.1142 49.1347 84.4431C48.7465 84.7915 48.4279 85.2186 48.2039 85.6848C47.98 86.1511 47.8456 86.6763 47.8356 87.1916C47.8257 87.6628 47.9302 88.242 48.184 88.6494C48.2637 88.7721 48.4279 88.6886 48.408 88.5561C48.3333 88.0898 48.2786 87.6677 48.3284 87.1916C48.3732 86.7401 48.5075 86.3082 48.6967 85.8959C48.8858 85.4836 49.1496 85.1008 49.4781 84.7817C49.8016 84.4676 50.2098 84.2713 50.5582 83.9866C50.6428 83.913 50.5681 83.7608 50.4636 83.7657Z" fill="#1D2E43" stroke="#1D2E43" stroke-width="0.4"/>
<path d="M83.3636 11.6095C84.3541 10.0389 82.3582 8.95913 81.4324 8.04621C80.6062 7.23145 80.6211 6.16638 80.9048 5.12094C81.1487 4.21784 81.4125 3.27547 81.8854 2.45581C82.9853 0.55635 85.036 0.428738 87.0169 0.777218C87.9178 0.934279 89.3065 1.03735 89.6201 2.05334C89.7694 2.53925 89.7793 3.07915 89.844 3.57978C89.9137 4.12459 89.9784 4.6743 90.0133 5.22401C90.0979 6.49032 89.9784 7.69773 89.6798 8.92968C89.4011 10.0684 89.0925 11.1825 89.2219 12.3654C89.2468 12.601 89.6101 12.6157 89.6051 12.3654C89.5802 11.0844 89.9685 9.87696 90.2621 8.64501C90.5309 7.52104 90.6255 6.38234 90.5906 5.22892C90.5608 4.13931 90.5757 2.84355 90.2074 1.80302C89.9038 0.944095 89.1273 0.600524 88.2812 0.409105C86.4495 -0.00318051 84.1998 -0.386017 82.5772 0.821391C81.0691 1.94536 80.432 4.20312 80.1334 5.95533C79.9442 7.0793 80.2528 7.96277 81.1537 8.68918C81.9998 9.37141 83.6423 10.2205 83.1894 11.5457C83.1595 11.639 83.3089 11.693 83.3636 11.6095Z" fill="#1D2E43" stroke="#1D2E43" stroke-width="0.4"/>
<path d="M36.2834 65.3233C36.1789 65.7651 36.1092 66.2264 36.0743 66.678C36.0295 67.1835 35.9997 67.7381 35.7458 68.1946C35.502 68.6412 35.059 68.9995 34.6907 69.3529C34.2925 69.7309 33.8843 70.0941 33.4215 70.3885C33.2174 70.5162 33.0083 70.634 32.7844 70.7321C32.6052 70.8106 32.421 70.8695 32.2966 71.0315C32.0278 71.38 32.2418 71.7825 32.5405 72.0279C32.9685 72.3813 33.516 72.6414 34.0088 72.8966C34.402 73.0979 34.9793 73.515 35.4373 73.3874C35.5567 73.3531 35.5965 73.2304 35.5468 73.1273C35.3526 72.7248 34.7106 72.553 34.3323 72.3469C33.8843 72.1064 33.3518 71.8757 32.9586 71.5518C32.8391 71.4536 32.7744 71.4389 32.8839 71.3456C32.9536 71.2867 33.1278 71.2377 33.2074 71.1984C33.4015 71.1002 33.5907 70.9873 33.7699 70.8646C34.1531 70.6045 34.5115 70.3002 34.845 69.9812C35.4472 69.4069 36.1789 68.7934 36.3979 67.9639C36.6268 67.1001 36.363 66.2215 36.4028 65.3479C36.4078 65.2693 36.2983 65.2497 36.2834 65.3233Z" fill="#1D2E43" stroke="#1D2E43" stroke-width="0.4"/>
<path d="M36.8162 65.1427C36.7913 65.0592 36.8162 64.9071 36.8012 64.8089C36.7614 64.593 36.6818 64.377 36.6121 64.166C36.4628 63.7193 36.2836 63.2776 36.0745 62.8555C35.6863 62.0554 35.1836 61.3094 34.6112 60.6272C34.0139 59.9204 33.3271 59.2922 32.5705 58.7523C31.8239 58.2173 31.2665 58.0455 30.5298 58.6835C29.0615 59.9548 28.091 61.707 27.419 63.4935C26.762 65.2458 26.2494 67.1109 27.3145 68.8091C28.4991 70.7036 30.6941 71.4742 32.7846 71.9552C33.2126 72.0534 33.3968 71.4055 32.9687 71.3024C30.8384 70.792 28.31 69.9085 27.5833 67.6213C27.2498 66.5611 27.5634 65.4764 27.8969 64.4555C28.2353 63.4101 28.6733 62.3941 29.2457 61.4468C29.5394 60.9609 29.8629 60.4996 30.2262 60.0676C30.5398 59.6946 31.0923 58.8259 31.6597 58.9878C32.0479 59.0958 32.5357 59.5719 32.8393 59.8222C33.2325 60.1511 33.6058 60.5045 33.9492 60.8873C34.661 61.6726 35.2433 62.5708 35.6863 63.5279C35.8108 63.7929 35.9203 64.0629 36.0198 64.3377C36.0994 64.5537 36.1343 64.8776 36.2537 65.0642C36.3782 65.2556 36.5026 65.3292 36.7315 65.2948C36.7963 65.2801 36.8361 65.1967 36.8162 65.1427Z" fill="#1D2E43" stroke="#1D2E43" stroke-width="0.4"/>
<path d="M33.2422 59.8698C33.1029 60.1741 33.3716 60.4637 33.5658 60.6944C33.8196 60.9938 34.1133 61.2539 34.3422 61.568C34.8449 62.2454 35.1933 63.2024 34.7056 63.973C34.2924 64.6258 33.5658 65.0577 32.9237 65.4553C32.5006 65.7203 32.0726 65.9854 31.6495 66.2504C31.2414 66.5056 30.8432 66.751 30.5495 67.1339C30.4201 67.3008 30.6341 67.4873 30.7984 67.4529C31.3459 67.3498 31.8088 67.021 32.2717 66.7412C32.7395 66.4566 33.2124 66.1768 33.6802 65.8872C34.392 65.4406 35.1236 64.9105 35.482 64.1301C35.8802 63.2564 35.6015 62.2944 35.1137 61.5091C34.8897 61.1459 34.5861 60.8416 34.2875 60.5373C34.0585 60.3066 33.7151 59.7864 33.3517 59.8011C33.3119 59.8109 33.2621 59.8305 33.2422 59.8698Z" fill="#1D2E43" stroke="#1D2E43" stroke-width="0.4"/>
<path d="M86.077 78.1139C89.0086 85.3388 92.0149 92.5489 94.5682 99.916C97.1066 107.224 99.207 114.719 100.277 122.386C100.551 124.339 100.755 126.307 100.874 128.275C100.989 130.087 101.203 132.04 100.869 133.836C100.566 135.471 99.5654 136.717 97.9577 137.243C96.5442 137.704 94.9963 137.665 93.5329 137.547C91.6963 137.4 89.8746 137.149 88.028 137.046C85.9525 136.933 83.877 136.909 81.7965 136.953C77.6554 137.036 73.5242 137.375 69.3981 137.733C61.2453 138.435 53.0327 139.176 44.86 138.357C43.77 138.249 42.6849 138.106 41.6049 137.93C41.2614 137.876 41.1071 138.386 41.4605 138.45C49.7925 140.03 58.239 139.446 66.6307 138.725C75.1319 137.994 83.6231 137.198 92.1443 138.131C94.8071 138.421 98.2962 138.754 100.307 136.595C101.437 135.382 101.686 133.728 101.696 132.138C101.711 130.209 101.566 128.27 101.397 126.346C100.695 118.43 98.8288 110.65 96.3351 103.101C93.8166 95.4839 90.7307 88.0726 87.4407 80.7545C87.0326 79.8514 86.6294 78.9483 86.2213 78.0452C86.1864 77.9716 86.0421 78.0305 86.077 78.1139Z" fill="#1D2E43" stroke="#1D2E43" stroke-width="0.4"/>
<path d="M41.3054 92.839C41.2407 98.3754 40.295 103.794 38.0353 108.884C35.7906 113.934 32.4508 118.303 28.2799 121.949C26.0301 123.917 23.6908 125.925 22.4415 128.693C22.3867 128.816 22.3718 128.993 22.4913 129.091C24.6863 130.917 26.8812 132.742 29.0762 134.568C30.7735 135.982 32.4906 137.866 34.7653 138.293C35.1784 138.372 35.3526 137.749 34.9395 137.67C33.8295 137.459 32.9286 136.914 32.0676 136.208C31.092 135.412 30.1364 134.598 29.1708 133.793C27.1002 132.07 25.0347 130.347 22.9641 128.624C22.979 128.757 22.999 128.889 23.0139 129.022C24.1736 126.46 26.3586 124.624 28.4541 122.808C30.5495 120.992 32.4906 119.058 34.1779 116.864C37.5177 112.531 39.9267 107.426 41.0566 102.096C41.6986 99.0674 42.0172 95.9262 41.7384 92.839C41.7136 92.569 41.3104 92.5592 41.3054 92.839Z" fill="#1D2E43" stroke="#1D2E43" stroke-width="0.4"/>
<path d="M62.8527 105.049C62.8328 106.114 63.1663 107.228 63.3355 108.278C63.5296 109.471 63.669 110.668 63.7984 111.866C64.0373 114.085 64.1518 116.318 64.1518 118.551C64.1518 120.784 64.0274 123.017 63.7685 125.236C63.4998 127.582 62.9971 129.884 62.6337 132.215C62.584 132.539 63.0319 132.677 63.1414 132.353C63.883 130.134 64.2314 127.783 64.5052 125.467C64.7789 123.174 64.9133 120.863 64.9083 118.551C64.9034 116.239 64.7441 113.927 64.4355 111.635C64.2862 110.541 64.0921 109.451 63.8731 108.367C63.6491 107.272 63.4848 106.016 62.9473 105.019C62.9224 104.975 62.8527 105 62.8527 105.049Z" fill="#1D2E43" stroke="#1D2E43" stroke-width="0.4"/>
<path d="M32.0875 95.1799C31.8586 95.921 32.3314 96.883 32.5355 97.5947C32.7794 98.434 32.9834 99.2684 33.0979 100.132C33.2124 101.011 33.2174 101.914 33.1925 102.802C33.1776 103.244 33.1925 103.686 33.1726 104.123C33.1577 104.54 33.078 104.937 33.1875 105.35C33.2622 105.624 33.6006 105.683 33.7997 105.512C34.1481 105.207 34.2875 104.79 34.4517 104.378C34.6359 103.902 34.7902 103.45 34.8698 102.945C35.0192 101.948 35.0291 100.967 34.8997 99.9703C34.7753 99.0034 34.5463 98.0561 34.178 97.1481C33.8694 96.3971 33.3169 95.1848 32.426 94.9885C32.2816 94.9541 32.1373 95.0326 32.0875 95.1799Z" fill="#1D2E43" stroke="#1D2E43" stroke-width="0.4"/>
<path d="M26.3644 103.507C26.3595 103.522 26.3545 103.532 26.3545 103.546C26.3545 103.561 26.3595 103.576 26.3644 103.586C26.3644 103.586 26.3644 103.59 26.3694 103.59C26.3744 103.595 26.3794 103.6 26.3844 103.61C26.3893 103.615 26.3943 103.62 26.4043 103.625C26.4043 103.625 26.4092 103.625 26.4092 103.63C26.4142 103.63 26.4192 103.635 26.4242 103.635C26.4292 103.635 26.4341 103.64 26.4391 103.64C26.464 103.644 26.4889 103.64 26.5088 103.63C26.5237 103.62 26.5436 103.605 26.5486 103.59C26.5536 103.576 26.5586 103.561 26.5586 103.546C26.5586 103.532 26.5536 103.517 26.5486 103.502C26.5436 103.492 26.5337 103.482 26.5187 103.478C26.5088 103.473 26.4939 103.473 26.4789 103.473C26.469 103.478 26.459 103.482 26.454 103.487C26.4441 103.497 26.4391 103.512 26.4391 103.527C26.4391 103.522 26.4391 103.517 26.4391 103.512V103.517C26.4391 103.512 26.4441 103.507 26.4441 103.502C26.4441 103.502 26.4441 103.507 26.4391 103.507C26.4441 103.502 26.4441 103.497 26.4491 103.492L26.4441 103.497C26.4491 103.492 26.454 103.492 26.459 103.487C26.459 103.487 26.454 103.487 26.454 103.492C26.459 103.492 26.464 103.487 26.469 103.487C26.464 103.487 26.464 103.487 26.459 103.487C26.464 103.487 26.469 103.487 26.4789 103.487C26.4739 103.487 26.469 103.487 26.464 103.487C26.469 103.487 26.4789 103.487 26.4839 103.492H26.4789C26.464 103.487 26.4491 103.487 26.4341 103.492C26.4292 103.492 26.4292 103.492 26.4242 103.492C26.4292 103.492 26.4391 103.492 26.4441 103.487C26.4391 103.487 26.4341 103.487 26.4341 103.487C26.4391 103.487 26.4441 103.487 26.454 103.487C26.4491 103.487 26.4491 103.487 26.4441 103.487C26.4491 103.487 26.454 103.492 26.459 103.492C26.459 103.492 26.454 103.492 26.454 103.487C26.459 103.492 26.464 103.492 26.469 103.497C26.469 103.497 26.464 103.497 26.464 103.492C26.469 103.497 26.469 103.502 26.4739 103.507C26.4739 103.507 26.4739 103.502 26.469 103.502C26.469 103.507 26.4739 103.512 26.4739 103.517V103.512C26.4739 103.507 26.469 103.502 26.469 103.497C26.464 103.492 26.464 103.487 26.459 103.487C26.454 103.482 26.4491 103.482 26.4491 103.478C26.4441 103.473 26.4341 103.473 26.4292 103.473C26.4242 103.473 26.4192 103.473 26.4142 103.473C26.4092 103.473 26.4043 103.473 26.3993 103.478C26.3844 103.487 26.3744 103.497 26.3644 103.507Z" fill="#1D2E43"/>
<path d="M26.454 103.487C26.459 103.482 26.469 103.478 26.4789 103.473C26.4939 103.473 26.5088 103.473 26.5187 103.478C26.5337 103.482 26.5436 103.492 26.5486 103.502C26.5536 103.517 26.5586 103.532 26.5586 103.546C26.5586 103.561 26.5536 103.576 26.5486 103.59C26.5436 103.605 26.5237 103.62 26.5088 103.63C26.4889 103.64 26.464 103.644 26.4391 103.64C26.4341 103.64 26.4292 103.635 26.4242 103.635C26.4192 103.635 26.4142 103.63 26.4092 103.63C26.4092 103.625 26.4043 103.625 26.4043 103.625C26.3943 103.62 26.3893 103.615 26.3844 103.61C26.3794 103.6 26.3744 103.595 26.3694 103.59C26.3644 103.59 26.3644 103.586 26.3644 103.586C26.3595 103.576 26.3545 103.561 26.3545 103.546C26.3545 103.532 26.3595 103.522 26.3644 103.507C26.3744 103.497 26.3844 103.487 26.3993 103.478C26.4043 103.473 26.4092 103.473 26.4142 103.473C26.4192 103.473 26.4242 103.473 26.4292 103.473C26.4341 103.473 26.4441 103.473 26.4491 103.478C26.4491 103.482 26.454 103.482 26.459 103.487M26.454 103.487C26.4441 103.497 26.4391 103.512 26.4391 103.527C26.4391 103.522 26.4391 103.517 26.4391 103.512V103.517C26.4391 103.512 26.4441 103.507 26.4441 103.502C26.4441 103.502 26.4441 103.507 26.4391 103.507C26.4441 103.502 26.4441 103.497 26.4491 103.492L26.4441 103.497C26.4491 103.492 26.454 103.492 26.459 103.487M26.454 103.487C26.4441 103.487 26.4391 103.487 26.4341 103.487C26.4341 103.487 26.4391 103.487 26.4441 103.487M26.454 103.487C26.4491 103.487 26.4491 103.487 26.4441 103.487M26.454 103.487C26.454 103.492 26.459 103.492 26.459 103.492C26.454 103.492 26.4491 103.487 26.4441 103.487M26.454 103.487C26.459 103.492 26.464 103.492 26.469 103.497M26.459 103.487C26.459 103.487 26.454 103.487 26.454 103.492C26.459 103.492 26.464 103.487 26.469 103.487C26.464 103.487 26.464 103.487 26.459 103.487ZM26.459 103.487C26.464 103.487 26.469 103.487 26.4789 103.487C26.4739 103.487 26.469 103.487 26.464 103.487C26.469 103.487 26.4789 103.487 26.4839 103.492H26.4789C26.464 103.487 26.4491 103.487 26.4341 103.492C26.4292 103.492 26.4292 103.492 26.4242 103.492C26.4292 103.492 26.4391 103.492 26.4441 103.487M26.459 103.487C26.464 103.487 26.464 103.492 26.469 103.497M26.469 103.497C26.469 103.497 26.464 103.497 26.464 103.492C26.469 103.497 26.469 103.502 26.4739 103.507C26.4739 103.507 26.4739 103.502 26.469 103.502C26.469 103.507 26.4739 103.512 26.4739 103.517V103.512C26.4739 103.507 26.469 103.502 26.469 103.497Z" stroke="#1D2E43" stroke-width="0.4"/>
<path d="M26.434 102.512C25.8516 102.63 26.21 103.606 26.2996 103.94C26.4738 104.573 26.653 105.226 27.0163 105.781C27.6833 106.797 28.843 107.135 30.0077 107.209C30.6149 107.248 31.2271 107.224 31.8343 107.219C32.4565 107.219 33.1135 107.204 33.5913 106.757C33.9746 106.399 34.1289 105.874 34.1737 105.368C34.2234 104.789 34.2334 104.048 34.0194 103.498C33.9796 103.4 33.8551 103.4 33.8153 103.498C33.6262 103.974 33.5615 104.495 33.3574 104.971C33.228 105.275 33.1036 105.678 32.7551 105.791C32.3221 105.928 31.7696 105.805 31.3267 105.776C30.8488 105.741 30.371 105.712 29.8982 105.658C29.0919 105.565 28.4747 105.305 28.0914 104.578C27.8575 104.136 27.6186 103.705 27.3349 103.287C27.1507 103.022 26.8371 102.428 26.434 102.512Z" fill="#1D2E43" stroke="#1D2E43" stroke-width="0.4"/>
<path d="M63.0215 50.1769C62.5337 49.7156 61.8717 49.4456 61.3143 49.0628C60.7419 48.6652 60.2093 48.2087 59.6967 47.7376C58.6266 46.7657 57.6361 45.7105 56.556 44.7485C54.7891 43.173 51.29 40.66 49.1946 43.0993C49.0801 43.2319 49.2294 43.4576 49.3937 43.3546C52.1212 41.5778 55.1474 44.346 56.999 46.1277C57.9248 47.021 58.8207 47.9486 59.8211 48.7634C60.6523 49.4407 61.7722 50.4125 62.8971 50.4665C63.0464 50.4812 63.126 50.28 63.0215 50.1769Z" fill="#1D2E43"/>
<path d="M50.1202 43.6331C49.3238 43.6772 48.6718 43.7999 47.9302 44.1141C47.1587 44.438 46.4519 44.865 45.8049 45.3951C44.5406 46.4307 43.5004 47.7755 42.7936 49.2333C41.0864 52.7573 40.8923 56.8507 41.0217 60.6889C41.0565 61.7736 41.1262 62.8583 41.1411 63.943C41.1511 64.5271 41.1411 65.1112 41.1113 65.6953C41.0814 66.245 40.942 66.8241 41.1212 67.3591C41.181 67.5309 41.4049 67.5604 41.5045 67.4082C41.9574 66.7407 41.8728 65.6953 41.8927 64.9247C41.9176 63.9872 41.8828 63.0498 41.8429 62.1172C41.7633 60.2619 41.7334 58.4165 41.8828 56.5661C42.1714 53.0764 43.0375 49.4443 45.546 46.8234C46.8053 45.508 48.4229 44.5165 50.1699 43.9668C50.3392 43.9079 50.3193 43.6232 50.1202 43.6331Z" fill="#1D2E43" stroke="#1D2E43" stroke-width="0.4"/>
<path d="M59.6224 35.531C58.9654 35.3543 58.2038 35.3984 57.5319 35.4181C56.855 35.4377 56.1781 35.5015 55.5061 35.6095C54.217 35.8107 52.9578 36.1788 51.9225 36.9887C51.4098 37.3862 50.9669 37.8476 50.5239 38.3139C50.2352 38.6182 49.5234 39.1188 49.5234 39.59C49.5234 40.0023 49.9863 40.2133 50.3248 40.3115C51.0415 40.5127 51.7682 40.6845 52.4849 40.8907C52.5347 40.9054 52.5546 40.8318 52.5048 40.8121C51.9324 40.5913 51.3551 40.3851 50.7926 40.1397C50.5836 40.0465 50.2601 39.9728 50.1705 39.752C50.1008 39.5704 50.1655 39.5704 50.2999 39.4379C50.4144 39.325 50.5338 39.2219 50.6483 39.1139C51.3999 38.4121 52.1315 37.6022 53.0424 37.1016C53.9433 36.6058 55.0433 36.3752 56.0487 36.1788C56.631 36.0659 57.2183 35.9923 57.8106 35.9481C58.393 35.9089 59.0002 35.9678 59.5776 35.8942C59.7717 35.8696 59.8463 35.5899 59.6224 35.531Z" fill="#1D2E43" stroke="#1D2E43" stroke-width="0.4"/>
<path d="M49.757 39.2081C48.3186 40.4204 46.477 40.926 45.0136 42.0941C43.4607 43.331 42.2612 45.0881 41.4051 46.8452C40.5241 48.6563 40.0413 50.5951 39.8323 52.5878C39.6033 54.8112 39.668 57.0591 39.2997 59.2629C38.9364 61.4372 38.145 63.5477 36.5622 65.1527C36.4079 65.3097 36.6418 65.5306 36.8011 65.3883C39.7825 62.7379 39.9219 58.4481 40.1707 54.7817C40.3201 52.5731 40.5888 50.3987 41.4151 48.3275C42.2015 46.3495 43.391 44.4108 44.9738 42.9531C46.472 41.5739 48.8959 41.1518 50.0805 39.4535C50.2149 39.2523 49.9212 39.0707 49.757 39.2081Z" fill="#1D2E43" stroke="#1D2E43" stroke-width="0.4"/>
<path d="M60.0605 29.2073C59.7171 29.1974 59.3338 29.5116 59.1099 29.7472C58.8709 29.9975 58.6967 30.3116 58.5773 30.6306C58.2786 31.4159 58.3384 32.3338 58.5673 33.124C58.7565 33.7718 59.1049 34.4246 59.6822 34.8173C59.946 34.994 60.2944 35.1265 60.618 35.1118C60.7972 35.1069 60.9564 35.0382 61.0809 34.9155C61.1306 34.8664 61.265 34.6062 61.3247 34.6111C61.5487 34.6259 61.5885 34.3314 61.4293 34.2234C61.2252 34.086 61.0261 34.1792 60.8768 34.3461C60.7623 34.4786 60.7175 34.5915 60.5184 34.5719C60.399 34.5572 60.2646 34.5032 60.1601 34.4443C59.6325 34.1645 59.294 33.6442 59.1049 33.0994C58.866 32.4221 58.7863 31.6466 59.0501 30.9693C59.1596 30.6895 59.3289 30.4441 59.5379 30.2232C59.6374 30.1153 59.742 30.0122 59.8664 29.9288C59.9958 29.8404 60.1501 29.7864 60.2596 29.6686C60.4139 29.4919 60.3044 29.2171 60.0605 29.2073Z" fill="#1D2E43" stroke="#1D2E43" stroke-width="0.4"/>
<path d="M75.0019 28.6226C75.8878 25.4569 75.6639 21.55 72.996 19.2284C71.6721 18.075 69.8554 17.4909 68.173 17.0737C66.4459 16.6467 64.5894 16.4749 62.8971 17.1326C62.2252 17.3927 61.5931 17.7609 61.0655 18.2517C60.4632 18.8112 60.2392 19.5033 59.7764 20.1462C59.3035 20.799 58.2931 20.9021 57.5913 21.2113C56.9592 21.4911 56.3769 21.8543 55.8493 22.296C53.714 24.0728 52.614 27.0766 53.3805 29.7613C54.2217 32.7209 57.2778 35.2683 60.4881 34.9296C60.7071 34.9051 60.7021 34.6253 60.4881 34.5959C57.8302 34.2425 55.3117 32.6719 54.3113 30.1343C53.3457 27.695 54.1769 24.8777 56.0683 23.1009C56.5013 22.6936 56.9841 22.3451 57.5117 22.0702C58.1139 21.7561 58.7709 21.6383 59.3981 21.3831C60.0053 21.1377 60.3935 20.7647 60.7121 20.2002C61.0804 19.5425 61.4736 18.983 62.1107 18.556C63.3799 17.7069 64.9776 17.54 66.4658 17.7216C67.312 17.8247 68.1332 18.0406 68.9495 18.2811C69.7708 18.5216 70.602 18.7474 71.3685 19.1253C74.9869 20.9021 75.191 25.1133 74.8078 28.5981C74.7978 28.711 74.977 28.7306 75.0019 28.6226Z" fill="#1D2E43" stroke="#1D2E43" stroke-width="0.4"/>
<path d="M67.4962 31.0399C67.3469 30.9908 67.1826 30.9368 67.0284 30.9417C66.8641 30.9466 66.6949 30.9761 66.5356 31.0104C66.2171 31.0841 65.9085 31.2117 65.6397 31.3982C65.3659 31.5896 65.127 31.8154 64.9279 32.0804C64.7438 32.3258 64.5248 32.6645 64.5098 32.9786C64.5049 33.1553 64.7488 33.2093 64.8383 33.067C64.913 32.9442 64.9478 32.8019 65.0125 32.6743C65.0773 32.5467 65.1519 32.424 65.2415 32.3062C65.4157 32.0755 65.6347 31.8743 65.8736 31.7123C66.1125 31.5552 66.3713 31.4129 66.6451 31.3246C66.7845 31.2804 66.9238 31.2509 67.0682 31.2264C67.2125 31.2018 67.3519 31.1528 67.5012 31.1282C67.541 31.1233 67.5311 31.0546 67.4962 31.0399Z" fill="#1D2E43" stroke="#1D2E43" stroke-width="0.4"/>
<path d="M70.7418 30.3982C70.8463 30.3245 70.906 30.192 70.9807 30.0889C71.0653 29.9761 71.1648 29.873 71.2544 29.765C71.4336 29.554 71.6327 29.3576 71.8517 29.1858C72.2997 28.8325 72.8024 28.6361 73.3449 28.484C73.6187 28.4054 73.5042 28.0177 73.2304 28.0668C73.1458 28.0815 73.0911 28.1208 73.0463 28.1944C73.0064 28.2631 73.0164 28.3564 73.0761 28.4153C73.1408 28.4742 73.2006 28.4987 73.2901 28.4889C73.2702 28.3465 73.2503 28.2091 73.2304 28.0668C72.6381 28.1846 72.0657 28.5134 71.6128 28.8963C71.3839 29.0877 71.1748 29.3036 70.9956 29.5441C70.906 29.6619 70.8363 29.7945 70.7716 29.927C70.7169 30.0448 70.6173 30.2018 70.6223 30.3344C70.6173 30.3834 70.687 30.4325 70.7418 30.3982Z" fill="#1D2E43"/>
<path d="M73.2304 28.0668C73.5042 28.0177 73.6187 28.4054 73.3449 28.484C72.8024 28.6361 72.2997 28.8325 71.8517 29.1858C71.6327 29.3576 71.4336 29.554 71.2544 29.765C71.1648 29.873 71.0653 29.9761 70.9807 30.0889C70.906 30.192 70.8463 30.3245 70.7418 30.3982C70.687 30.4325 70.6173 30.3834 70.6223 30.3344C70.6173 30.2018 70.7169 30.0448 70.7716 29.927C70.8363 29.7945 70.906 29.6619 70.9956 29.5441C71.1748 29.3036 71.3839 29.0877 71.6128 28.8963C72.0657 28.5134 72.6381 28.1846 73.2304 28.0668ZM73.2304 28.0668C73.1458 28.0815 73.0911 28.1208 73.0463 28.1944C73.0064 28.2631 73.0164 28.3564 73.0761 28.4153C73.1408 28.4742 73.2006 28.4987 73.2901 28.4889C73.2702 28.3465 73.2503 28.2091 73.2304 28.0668Z" stroke="#1D2E43" stroke-width="0.4"/>
<path d="M72.6878 28.5646C72.6679 28.653 72.7077 28.7266 72.7276 28.8101C72.7525 28.9082 72.7724 29.0064 72.7923 29.1094C72.8272 29.3107 72.8421 29.5168 72.8421 29.723C72.8421 29.9242 72.8371 30.1303 72.8123 30.3267C72.7973 30.469 72.7874 30.6948 72.6729 30.8028C72.4589 31.004 72.0358 30.7635 71.8367 30.6506C71.6774 30.5623 71.5182 30.469 71.3688 30.361C71.2245 30.258 71.0851 30.1353 70.9259 30.0567C70.8612 30.0224 70.7566 30.0813 70.7865 30.1598C70.901 30.469 71.1897 30.685 71.4535 30.8666C71.7173 31.0482 72.0507 31.2003 72.3743 31.2249C72.7028 31.2543 72.9914 31.0825 73.086 30.7635C73.1856 30.4297 73.1855 30.0371 73.1457 29.6935C73.1208 29.4874 73.081 29.2861 73.0263 29.0849C72.9964 28.9818 72.9616 28.8788 72.9267 28.7757C72.8969 28.6923 72.872 28.5892 72.8023 28.5303C72.7575 28.5107 72.6978 28.5156 72.6878 28.5646Z" fill="#1D2E43" stroke="#1D2E43" stroke-width="0.4"/>
<path d="M64.8438 32.5072C64.8786 32.6299 64.9184 32.7526 64.9831 32.8655C65.0428 32.9734 65.1374 33.0716 65.222 33.16C65.4112 33.3465 65.6351 33.4839 65.884 33.5772C66.0184 33.6311 66.1627 33.6655 66.3071 33.6459C66.4763 33.6213 66.6007 33.5183 66.6903 33.3808C66.8396 33.1403 66.9392 32.8557 66.9989 32.5808C67.0338 32.4237 67.0586 32.2667 67.0686 32.1096C67.0835 31.9378 67.0537 31.7857 67.0039 31.6237C66.984 31.555 66.8745 31.5501 66.8596 31.6237C66.8297 31.7759 66.7899 31.9182 66.765 32.0703C66.7401 32.2225 66.6953 32.3747 66.6455 32.5219C66.6007 32.6544 66.541 32.782 66.4713 32.9047C66.4265 32.9833 66.3568 33.1501 66.2772 33.1894C66.2374 33.209 66.1578 33.1796 66.1179 33.1698C66.0582 33.1551 65.9985 33.1354 65.9388 33.1158C65.8342 33.0765 65.7247 33.0127 65.6252 32.9489C65.5207 32.8802 65.4311 32.7918 65.3514 32.6937C65.2668 32.5955 65.1822 32.5072 65.1075 32.3992C65.0229 32.2618 64.799 32.3452 64.8438 32.5072Z" fill="#1D2E43" stroke="#1D2E43" stroke-width="0.4"/>
<path d="M68.547 38.0741C68.6614 38.1821 68.8804 38.2115 69.0298 38.241C69.2089 38.2753 69.3931 38.2901 69.5773 38.2802C69.9506 38.2655 70.3089 38.1821 70.6424 38.0152C70.9659 37.8532 71.2695 37.6225 71.5035 37.3477C71.7374 37.0728 72.0012 36.6605 71.9315 36.2875C71.9066 36.155 71.7075 36.1059 71.6179 36.2041C71.5084 36.3268 71.4537 36.4888 71.3691 36.6262C71.2894 36.7538 71.2098 36.8814 71.1202 36.9992C70.9311 37.2446 70.6922 37.4459 70.4234 37.598C70.1546 37.7551 69.861 37.8778 69.5524 37.9416C69.3981 37.9759 69.2388 37.9907 69.0845 37.9907C68.9252 37.9907 68.751 37.9318 68.5967 37.9465C68.537 37.9612 68.4972 38.0299 68.547 38.0741Z" fill="#1D2E43" stroke="#1D2E43" stroke-width="0.4"/>
<path d="M78.6949 30.9944C78.5306 32.8399 77.9234 34.4841 76.8881 36.0253C76.3705 36.7959 75.7782 37.5026 75.2008 38.2241C74.7031 38.8475 74.2252 39.4757 74.0013 40.2463C73.9266 40.5015 74.3348 40.6144 74.4044 40.3543C74.6633 39.407 75.3501 38.6462 75.9524 37.8855C76.5098 37.1787 77.0872 36.4817 77.5998 35.7406C78.5406 34.3761 79.3568 32.6386 78.9039 30.96C78.8691 30.8472 78.7048 30.8815 78.6949 30.9944Z" fill="#1D2E43" stroke="#1D2E43" stroke-width="0.4"/>
<path d="M81.6767 14.1986C81.8708 13.5655 81.9754 12.9323 81.9654 12.2746C81.9604 11.9556 81.9306 11.6464 81.8609 11.3372C81.8261 11.1801 81.7813 11.028 81.7365 10.8709C81.6917 10.7236 81.6668 10.5568 81.5722 10.4341C81.5374 10.385 81.4727 10.4046 81.4627 10.4635C81.4428 10.6157 81.4926 10.7825 81.5075 10.9347C81.5224 11.0721 81.5274 11.2096 81.5324 11.3421C81.5423 11.6513 81.5523 11.9654 81.5473 12.2746C81.5374 12.8882 81.4627 13.5066 81.3233 14.1054C81.2686 14.3262 81.607 14.4195 81.6767 14.1986Z" fill="#1D2E43" stroke="#1D2E43" stroke-width="0.4"/>
<path d="M81.975 9.78641C81.6117 9.86003 81.1338 10.3558 81.1488 10.7484C81.1687 11.254 82.1293 11.3619 82.4628 11.4356C84.0207 11.7889 85.6084 12.0393 87.2012 12.1767C88.0025 12.2454 88.8038 12.2896 89.6102 12.3043C90.1875 12.3141 90.7997 12.4319 91.0785 11.8331C91.4319 11.0674 90.959 9.73733 90.0034 9.66862C89.8242 9.65389 89.7893 9.89439 89.9188 9.97783C90.2821 10.2232 90.6355 10.3754 90.7749 10.8368C90.8346 11.0282 90.8644 11.2883 90.7848 11.4797C90.6355 11.8331 90.3468 11.784 90.078 11.784C89.1174 11.7889 88.1618 11.7448 87.2061 11.6613C86.2405 11.5828 85.2849 11.4601 84.3293 11.2981C83.8714 11.2196 83.4184 11.1312 82.9605 11.038C82.5374 10.9496 81.8705 10.9104 81.5569 10.5864C81.5768 10.665 81.5967 10.7386 81.6166 10.8171C81.7013 10.4686 81.9103 10.3116 82.1243 10.0416C82.2139 9.91893 82.1293 9.75696 81.975 9.78641Z" fill="#1D2E43" stroke="#1D2E43" stroke-width="0.4"/>
<path d="M90.8949 11.5642C90.7505 11.6722 90.6112 11.7753 90.4967 11.9176C90.3772 12.0649 90.2628 12.2121 90.1582 12.3741C89.9542 12.698 89.77 13.0318 89.6057 13.3754C89.2822 14.0576 89.0433 14.8331 88.9637 15.5791C88.9288 15.8883 89.4216 15.9374 89.5012 15.6527C89.5958 15.3092 89.6754 14.9558 89.7849 14.6171C89.8944 14.2735 90.0288 13.9398 90.1632 13.606C90.427 12.9483 90.8252 12.3594 91.0641 11.6919C91.0989 11.6084 90.9745 11.5053 90.8949 11.5642Z" fill="#1D2E43" stroke="#1D2E43" stroke-width="0.4"/>
<path d="M82.7969 12.6784C82.7521 12.7569 82.7222 12.8502 82.6924 12.9385C82.6575 13.0465 82.6924 13.1741 82.7322 13.2772C82.8168 13.4833 82.9761 13.6404 83.1901 13.7189C83.5286 13.8465 83.9666 13.7287 84.2005 13.4588C84.4693 13.1496 84.4892 12.7128 84.2503 12.3741C84.0113 12.0403 83.6132 11.844 83.2 11.9373C82.986 11.9863 82.782 12.1091 82.6326 12.2759C82.553 12.3643 82.4684 12.4723 82.4335 12.5802C82.3987 12.6833 82.4037 12.806 82.4186 12.914C82.4335 13.022 82.5729 13.0514 82.6127 12.9385C82.6376 12.8747 82.6675 12.8109 82.7073 12.752C82.7521 12.6833 82.7869 12.6097 82.8367 12.5459C82.9163 12.4379 83.0258 12.3496 83.1503 12.2956C83.4041 12.1778 83.6978 12.2465 83.8819 12.4526C83.9616 12.541 84.0213 12.6686 84.0362 12.7717C84.0561 12.9091 84.0263 13.0072 83.9566 13.1103C83.9516 13.1152 83.9267 13.1496 83.9466 13.125C83.9367 13.1349 83.9267 13.1447 83.9218 13.1545C83.8969 13.179 83.872 13.2036 83.8471 13.2232C83.872 13.2036 83.8172 13.2428 83.8073 13.2527C83.7724 13.2772 83.7376 13.2968 83.7028 13.3116C83.6978 13.3116 83.6679 13.3263 83.6978 13.3165C83.6828 13.3214 83.6679 13.3263 83.648 13.3312C83.6181 13.341 83.5883 13.3459 83.5584 13.3557C83.4987 13.3704 83.5783 13.3557 83.5435 13.3606C83.5285 13.3606 83.5086 13.3655 83.4937 13.3655C83.4589 13.3655 83.429 13.3655 83.3942 13.3606C83.434 13.3655 83.3892 13.3606 83.3792 13.3557C83.3593 13.3508 83.3394 13.3459 83.3245 13.341C83.3145 13.3361 83.2797 13.3214 83.3095 13.3361C83.2896 13.3263 83.2747 13.3165 83.2548 13.3066C83.205 13.2772 83.1453 13.2183 83.1105 13.1692C83.0557 13.0956 83.0408 13.0171 83.001 12.9385C82.986 12.9091 82.9661 12.8845 82.9562 12.8551C82.9462 12.8158 82.9512 12.7667 82.9562 12.7226C82.9661 12.6391 82.8367 12.6097 82.7969 12.6784Z" fill="#1D2E43" stroke="#1D2E43" stroke-width="0.4"/>
<path d="M62.8526 50.5703C62.9571 50.9728 63.1264 51.3458 63.3205 51.7139C63.4997 52.0575 63.6838 52.3912 63.9377 52.6857C64.3707 53.1913 64.968 53.5348 65.61 53.6919C65.9286 53.7704 66.267 53.8097 66.5955 53.79C66.9191 53.7753 67.3123 53.7361 67.586 53.5446C67.8797 53.3434 67.9444 52.9753 68.0041 52.6514C68.0788 52.2342 68.1335 51.8121 68.1634 51.39C68.1982 50.8991 68.2032 50.4034 68.1733 49.9126C68.1584 49.6819 68.1385 49.4512 68.1136 49.2205C68.0838 48.985 68.0838 48.715 67.9543 48.5089C67.8548 48.3469 67.5761 48.3616 67.5263 48.5629C67.4715 48.7935 67.5412 49.0291 67.5711 49.2647C67.601 49.5101 67.6209 49.7555 67.6358 50.0009C67.6607 50.4623 67.6557 50.9237 67.6258 51.385C67.596 51.8415 67.5462 52.3078 67.4467 52.7593C67.3919 52.9949 67.3272 53.1127 67.0783 53.1667C66.9091 53.206 66.7349 53.2158 66.5607 53.2207C65.8539 53.2207 65.1521 52.9508 64.6245 52.4894C63.9626 51.9151 63.7187 51.0415 63.1463 50.3936C63.0218 50.2709 62.8128 50.4132 62.8526 50.5703Z" fill="#1D2E43" stroke="#1D2E43" stroke-width="0.4"/>
<path d="M65.8489 49.8392C65.7942 49.9472 65.8141 50.1141 65.8439 50.227C65.8788 50.3644 65.9534 50.492 65.9933 50.6295C66.0679 50.8896 66.0878 51.1448 66.0928 51.4148C66.0978 51.5473 66.0928 51.6847 66.0779 51.8172C66.0629 51.9399 66.0779 52.0676 66.058 52.1952C66.0331 52.3817 65.7792 52.8381 66.1177 52.8627C66.1824 52.8676 66.2471 52.8234 66.2819 52.7694C66.4313 52.5387 66.5607 52.2835 66.6552 52.0283C66.7498 51.778 66.7598 51.454 66.7249 51.189C66.6951 50.9141 66.6353 50.6442 66.5308 50.389C66.4761 50.2564 66.4263 50.0994 66.3317 49.9865C66.2521 49.8883 66.1028 49.7656 65.9733 49.7656C65.9335 49.7656 65.8738 49.7951 65.8489 49.8392Z" fill="#1D2E43" stroke="#1D2E43" stroke-width="0.4"/>
<path d="M65.8988 53.2722C65.7893 54.298 65.8789 55.3581 65.9237 56.3888C65.9685 57.4294 65.9934 58.4699 65.9984 59.5104C66.0083 61.5915 65.9834 63.6775 65.8839 65.7585C65.8341 66.7991 65.7545 67.8347 65.6599 68.8752C65.5852 69.6752 65.5056 70.4507 65.9486 71.1624C66.8694 72.6398 68.5268 73.4202 69.5969 74.765C69.6467 74.8288 69.7811 74.8141 69.8159 74.7356C70.1843 73.8766 70.6471 73.111 71.1449 72.3257C71.5729 71.6483 72.1204 70.8287 72.215 70.0188C72.3195 69.1108 72.0507 68.2077 71.8765 67.3242C71.6575 66.215 71.4186 65.1107 71.1847 64.0112C70.7318 61.8811 70.2938 59.7509 69.8209 57.6257C69.368 55.5888 68.93 53.547 68.0142 51.6525C67.8648 51.3432 67.4119 51.6132 67.5513 51.9175C68.3775 53.7433 68.7956 55.7115 69.2236 57.6601C69.6666 59.6675 70.1395 61.6651 70.5924 63.6677C71.0354 65.6064 71.4833 67.5402 72.0109 69.4495C72.2847 70.436 71.4385 71.6042 70.9209 72.4091C70.453 73.1306 69.9453 73.8177 69.572 74.5981C69.6467 74.5883 69.7164 74.5785 69.791 74.5687C68.711 73.2778 66.9391 72.3306 66.1974 70.7894C65.7943 69.9501 66.1128 68.8016 66.1974 67.9132C66.292 66.9169 66.3717 65.9156 66.4364 64.9143C66.5658 62.956 66.6006 60.9927 66.5359 59.0294C66.4762 57.1496 66.521 55.0784 65.9784 53.2623C65.9635 53.2133 65.9038 53.228 65.8988 53.2722Z" fill="#1D2E43" stroke="#1D2E43" stroke-width="0.4"/>
<path d="M54.1224 114.992C54.2916 115.134 53.6893 115.552 53.5948 115.625C53.3409 115.831 53.0921 116.038 52.8332 116.234C52.3305 116.622 51.7631 116.946 51.3102 117.387C51.2604 117.436 51.3102 117.525 51.3799 117.505C52.0966 117.265 52.7088 116.73 53.2762 116.253C53.5699 116.008 53.8436 115.743 54.1074 115.468C54.2318 115.341 54.426 115.026 54.1622 114.928C54.1273 114.914 54.0925 114.968 54.1224 114.992Z" fill="#1D2E43" stroke="#1D2E43" stroke-width="0.4"/>
<path d="M54.1973 116.385C54.1923 116.385 54.1873 116.38 54.1823 116.38C54.1376 116.361 54.0928 116.361 54.0529 116.395C53.5005 116.876 52.933 117.342 52.3457 117.784C51.7733 118.216 51.1661 118.609 50.6186 119.075C50.4792 119.193 50.6584 119.399 50.8077 119.32C51.4548 118.977 52.0172 118.501 52.5747 118.03C53.1371 117.554 53.6747 117.058 54.2023 116.542C54.2271 116.518 54.2421 116.474 54.2271 116.439C54.2222 116.425 54.2172 116.395 54.1973 116.385Z" fill="#1D2E43" stroke="#1D2E43" stroke-width="0.4"/>
<path d="M53.4305 118.352C52.9427 119.035 52.3952 119.678 51.793 120.262C51.1957 120.846 50.5536 121.376 49.9414 121.94C49.7672 122.102 49.9912 122.387 50.1953 122.264C50.9319 121.822 51.5839 121.209 52.1414 120.561C52.6989 119.908 53.2016 119.206 53.6346 118.47C53.7092 118.338 53.5151 118.235 53.4305 118.352Z" fill="#1D2E43" stroke="#1D2E43" stroke-width="0.4"/>
<path d="M50.4141 38.7313C49.8815 38.8883 49.5182 39.7963 50.0956 40.1301C50.1802 40.1792 50.2897 40.2086 50.3842 40.2135C50.3743 40.2135 50.5634 40.2086 50.5087 40.1988C50.658 40.2282 50.8471 40.3804 50.9716 40.4589C51.2602 40.6405 51.5539 40.8074 51.8874 40.9105C52.4548 41.0921 53.0969 41.151 53.6792 40.9988C54.2416 40.8467 54.6697 40.5473 54.9982 40.0712C55.0579 39.9828 54.9385 39.8601 54.8489 39.9239C54.157 40.3853 53.1566 40.5522 52.3453 40.346C52.0964 40.2822 51.8575 40.189 51.6136 40.1006C51.3697 40.0123 51.0761 39.919 50.877 39.7472C50.8023 39.6834 50.7824 39.6049 50.7526 39.5362C50.7625 39.5558 50.7625 39.6 50.7526 39.6196C50.7526 39.6245 50.7974 39.492 50.7725 39.546C50.8621 39.33 50.9367 39.0846 50.7725 38.8785C50.6928 38.7656 50.5634 38.6871 50.4141 38.7313Z" fill="#1D2E43"/>
<path d="M72.668 24.1396C73.4445 26.1029 73.8327 28.1349 74.1214 30.216C74.425 32.3755 74.8232 34.6137 74.1363 36.7438C73.549 38.5746 72.23 40.2826 70.4382 41.1121C68.303 42.0986 66.2573 40.7194 64.6845 39.3795C63.9379 38.7463 63.1913 38.0445 62.6438 37.2297C62.0565 36.3512 61.6782 35.3842 61.3845 34.3732C61.3248 34.1719 61.0262 34.2554 61.071 34.4566C61.4691 36.3217 62.4646 38.0887 63.7985 39.4678C65.2121 40.9256 67.208 42.4716 69.388 42.1821C71.4934 41.9023 73.0314 40.1059 74.0268 38.393C75.2015 36.3659 75.3657 34.0983 75.0621 31.8258C74.7087 29.1901 74.3852 26.3287 72.9219 24.0366C72.8472 23.909 72.6083 23.9875 72.668 24.1396Z" fill="#1D2E43" stroke="#1D2E43" stroke-width="0.4"/>
<path d="M63.1959 29.2999C62.9122 28.9956 62.4891 28.8042 62.1357 28.598C62.0163 28.5293 61.862 28.6177 61.862 28.7551C61.8869 30.365 63.1013 31.6706 63.619 33.143C63.7384 33.4866 63.8927 33.9234 63.8579 34.2866C63.828 34.5811 63.4895 34.5713 63.2656 34.4878C63.0267 34.3946 62.8525 34.2032 62.7081 34.0019C62.1507 33.2363 61.7276 32.3577 61.3394 31.4988C61.1154 30.9981 60.9063 30.4926 60.7222 29.9772C60.5928 29.614 60.4683 29.2017 60.0254 29.1625C59.8163 29.1429 59.7715 29.4324 59.9258 29.5257C60.1199 29.6484 60.1896 29.8447 60.2643 30.046C60.3688 30.3208 60.4733 30.5908 60.5878 30.8607C60.7869 31.3319 60.9959 31.7982 61.2299 32.2595C61.4688 32.7356 61.7276 33.197 61.9864 33.6584C62.2104 34.0559 62.4344 34.4878 62.8126 34.7676C63.1411 35.013 63.609 35.1259 63.9922 34.9296C64.3904 34.7234 64.3904 34.3308 64.3407 33.9381C64.2262 33.0694 63.833 32.2792 63.4199 31.5135C62.9321 30.6055 62.4592 29.7122 62.2303 28.706C62.1407 28.7747 62.0511 28.8435 61.9615 28.9073C62.3497 29.0741 62.7629 29.2999 63.1859 29.349C63.2058 29.3539 63.2108 29.3195 63.1959 29.2999Z" fill="#1D2E43" stroke="#1D2E43" stroke-width="0.4"/>
<path d="M55.8097 86.5271C56.5513 86.4927 56.9744 85.7369 57.2531 85.143C57.6911 84.2203 57.9748 83.2534 58.159 82.2521C58.5273 80.2103 58.6368 78.144 59.1047 76.1169C59.5775 74.0751 60.2694 72.0922 61.0757 70.1535C61.4988 69.1326 61.9567 68.1215 62.4245 67.1202C62.8675 66.1778 63.4698 65.1962 63.7087 64.1802C63.7385 64.0526 63.5594 63.9201 63.4648 64.0379C62.8576 64.7987 62.4743 65.7754 62.0562 66.649C61.6332 67.5325 61.22 68.4209 60.8318 69.3191C60.0255 71.1596 59.2988 73.0395 58.7613 74.9782C58.2237 76.9169 57.9898 78.89 57.6862 80.8729C57.5368 81.8447 57.3477 82.8165 57.064 83.7589C56.9147 84.2546 56.7405 84.7602 56.4866 85.2215C56.2726 85.6093 55.969 85.8743 55.6753 86.1982C55.5708 86.321 55.6355 86.5369 55.8097 86.5271Z" fill="#1D2E43"/>
<path d="M47.4773 70.4387C47.328 70.6939 47.333 71.0031 47.2982 71.2927C47.2583 71.6559 47.2285 72.024 47.1986 72.3872C47.1389 73.0645 47.0792 73.7419 47.0194 74.4192C46.9597 75.0965 46.9 75.7739 46.8402 76.4512C46.8104 76.8144 46.7656 77.1825 46.7507 77.5457C46.7357 77.8746 46.6909 78.223 46.8154 78.5322C46.8701 78.6746 47.0692 78.7237 47.1588 78.5764C47.4773 78.0316 47.4126 77.2169 47.4525 76.6082C47.4972 75.9309 47.542 75.2536 47.5819 74.5763C47.6217 73.8989 47.6715 73.2216 47.7113 72.5443C47.7362 72.1811 47.766 71.813 47.781 71.4498C47.7959 71.1307 47.8556 70.7724 47.7411 70.473C47.7013 70.3601 47.542 70.3209 47.4773 70.4387Z" fill="#1D2E43"/>
<path d="M48.1697 71.4124C47.9556 73.1303 47.9158 74.8776 47.8611 76.6102C47.8362 77.474 47.8013 78.3428 47.8013 79.2066C47.8013 79.9772 47.6719 80.9245 47.9706 81.6509C48.0402 81.8178 48.2493 81.8227 48.319 81.6509C48.6126 80.9196 48.4782 79.9821 48.4882 79.2066C48.4982 78.3428 48.4832 77.474 48.4882 76.6102C48.4982 74.8825 48.5629 73.145 48.4982 71.4124C48.4882 71.2014 48.1945 71.2112 48.1697 71.4124Z" fill="#1D2E43"/>
<path d="M49.2946 73.417C49.1204 73.7458 49.1353 74.1188 49.1154 74.482C49.0905 74.9434 49.0706 75.3999 49.0458 75.8612C49.0059 76.7152 48.9761 77.5693 48.9512 78.4233C48.9263 79.2773 48.9163 80.1313 48.9213 80.9854C48.9313 81.8541 48.8566 82.7768 49.1602 83.6063C49.2349 83.8075 49.5186 83.8223 49.5883 83.6063C49.8471 82.767 49.7475 81.8492 49.7376 80.9854C49.7276 80.1313 49.7177 79.2773 49.7028 78.4233C49.6878 77.5693 49.6828 76.7152 49.6828 75.8612C49.6828 75.3999 49.6878 74.9434 49.6878 74.482C49.6878 74.1139 49.7276 73.7556 49.5733 73.417C49.5286 73.3041 49.3494 73.3139 49.2946 73.417Z" fill="#1D2E43"/>
<path d="M50.3094 74.6713C50.1899 76.2959 50.2845 77.9499 50.3691 79.5794C50.4089 80.3794 50.4686 81.1795 50.5433 81.9795C50.613 82.7157 50.6578 83.5403 50.9813 84.2127C51.0659 84.3845 51.3546 84.3403 51.3994 84.1587C51.5636 83.4323 51.4243 82.6176 51.3446 81.8863C51.255 81.0568 51.1654 80.2224 51.0808 79.3929C50.9116 77.8125 50.8071 76.2124 50.5632 74.6369C50.5383 74.4897 50.3193 74.5387 50.3094 74.6713Z" fill="#1D2E43" stroke="#1D2E43" stroke-width="0.4"/>
<path d="M77.7497 34.9997C77.899 35.3138 78.0484 35.6231 78.1977 35.9372C78.2674 36.0893 78.3619 36.2268 78.4416 36.3691C78.5312 36.5163 78.6058 36.6783 78.7203 36.8108C78.775 36.8746 78.8746 36.8059 78.8547 36.7323C78.8099 36.5654 78.7203 36.4084 78.6456 36.2513C78.576 36.0991 78.5113 35.947 78.4316 35.7998C78.2624 35.5004 78.0882 35.201 77.919 34.9016C77.8592 34.7887 77.7 34.8868 77.7497 34.9997Z" fill="#1D2E43" stroke="#1D2E43" stroke-width="0.4"/>
<path d="M77.2618 35.5825C77.3265 35.8181 77.4858 36.039 77.6102 36.25C77.7496 36.4758 77.884 36.6967 78.0233 36.9224C78.1577 37.1433 78.2822 37.3838 78.4365 37.5948C78.5908 37.8059 78.75 38.0219 78.9093 38.2329C78.9641 38.3016 79.0736 38.2427 79.0288 38.1642C78.9043 37.9335 78.7899 37.693 78.6604 37.4672C78.531 37.2365 78.3767 37.0206 78.2374 36.7997C78.093 36.5789 77.9537 36.358 77.8093 36.1371C77.6749 35.931 77.5455 35.6905 77.3614 35.5285C77.3166 35.4892 77.2469 35.5236 77.2618 35.5825Z" fill="#1D2E43" stroke="#1D2E43" stroke-width="0.4"/>
<path d="M76.6891 36.7972C76.6841 36.8021 76.6841 36.8021 76.6791 36.807C76.6443 36.8365 76.6343 36.8905 76.6443 36.9347C76.6741 37.077 76.7737 37.2046 76.8484 37.3273C76.933 37.4696 77.0176 37.612 77.1022 37.7543C77.2664 38.0292 77.4307 38.304 77.6198 38.5593C77.809 38.8096 77.9981 39.055 78.1922 39.3004C78.3963 39.5556 78.6402 39.7863 78.8691 40.017C78.9836 40.1299 79.1927 39.9826 79.0981 39.8403C78.9239 39.5851 78.7646 39.32 78.5854 39.0697C78.4013 38.8096 78.2072 38.5543 78.018 38.2942C77.8388 38.039 77.6348 37.7985 77.4456 37.5531C77.3511 37.4304 77.2565 37.3028 77.1619 37.1801C77.0723 37.0574 76.9877 36.9003 76.8683 36.807C76.8334 36.7776 76.7836 36.753 76.7388 36.7727C76.7239 36.7825 76.704 36.7874 76.6891 36.7972Z" fill="#1D2E43" stroke="#1D2E43" stroke-width="0.4"/>
<path d="M75.8486 37.7764C75.8337 37.9531 75.9979 38.1396 76.0925 38.2819C76.212 38.4684 76.3364 38.65 76.4608 38.8316C76.7196 39.2243 77.0183 39.5924 77.302 39.9654C77.5757 40.3237 77.8495 40.682 78.1332 41.0354C78.4268 41.4035 78.7404 41.7471 79.0739 42.0858C79.1884 42.2036 79.3875 42.0514 79.3029 41.9091C79.0639 41.5164 78.8151 41.1434 78.5413 40.7753C78.2626 40.4023 77.9739 40.0391 77.6852 39.6758C77.4015 39.3225 77.1228 38.9494 76.8192 38.6108C76.6699 38.4488 76.5255 38.2819 76.3762 38.12C76.2567 37.9874 76.1025 37.7617 75.9183 37.7273C75.8735 37.7224 75.8486 37.742 75.8486 37.7764Z" fill="#1D2E43" stroke="#1D2E43" stroke-width="0.4"/>
<path d="M75.0068 39.114C75.1412 39.4723 75.3652 39.7864 75.5941 40.0956C75.833 40.4097 76.0719 40.7288 76.3108 41.0429C76.5497 41.357 76.7887 41.676 77.0276 41.9902C77.2665 42.3092 77.5353 42.589 77.804 42.8785C77.9683 43.0503 78.257 42.8295 78.1325 42.6282C77.9235 42.2896 77.7194 41.9607 77.4755 41.6466C77.2316 41.3325 76.9878 41.0183 76.7439 40.7091C76.5 40.395 76.2561 40.0809 76.0122 39.7717C75.7783 39.4723 75.5294 39.1778 75.2208 38.952C75.1213 38.8784 74.962 39.0011 75.0068 39.114Z" fill="#1D2E43" stroke="#1D2E43" stroke-width="0.4"/>
<path d="M74.0814 40.8347C74.4447 41.3893 74.818 41.939 75.2461 42.4446C75.4601 42.6998 75.6741 42.955 75.913 43.1906C76.142 43.4213 76.3759 43.6765 76.6397 43.8728C76.7044 43.9219 76.799 43.8237 76.7492 43.7648C76.5551 43.5096 76.3162 43.2838 76.1072 43.0433C75.8882 42.793 75.6542 42.5525 75.4352 42.3022C74.9972 41.8016 74.5493 41.3157 74.1262 40.8003C74.1063 40.7709 74.0665 40.8052 74.0814 40.8347Z" fill="#1D2E43" stroke="#1D2E43" stroke-width="0.4"/>
<path d="M42.0027 93.7036C40.6787 98.6805 39.5538 103.741 37.5679 108.512C36.5575 110.931 35.3182 113.272 33.81 115.427C32.2123 117.714 30.3309 119.781 28.4545 121.847C27.3545 123.059 26.2495 124.272 25.1496 125.484C24.0446 126.701 22.7306 127.864 22.0189 129.347C21.9591 129.474 22.0885 129.636 22.2279 129.553C23.5071 128.772 24.4279 127.55 25.4283 126.451C26.4188 125.361 27.4093 124.267 28.4047 123.177C30.2911 121.101 32.2074 119.035 33.8847 116.787C37.0503 112.551 39.0262 107.623 40.405 102.573C41.1963 99.6719 41.7588 96.7319 42.2067 93.7625C42.2217 93.63 42.0375 93.5711 42.0027 93.7036Z" fill="#1D2E43" stroke="#1D2E43" stroke-width="0.4"/>
<path d="M22.2329 129.332C23.3727 131.476 25.5378 133.194 27.5885 134.446C28.7083 135.128 29.9129 135.619 31.0726 136.223C31.6649 136.532 32.2273 136.89 32.7698 137.283C33.3372 137.695 33.8648 138.23 34.6114 138.098C34.4472 138.078 34.2879 138.053 34.1236 138.034C34.258 138.098 34.3924 138.156 34.5268 138.22C34.9449 138.412 35.5471 137.985 35.2286 137.528C35.0793 137.312 35.0594 137.101 34.9001 136.875C34.7209 136.62 34.4372 136.38 34.1983 136.179C33.6607 135.722 33.0684 135.31 32.4662 134.947C31.3364 134.264 30.0871 133.803 28.9273 133.16C27.8871 132.581 26.9016 131.903 25.9808 131.153C25.0003 130.353 24.1541 129.42 23.2134 128.581C22.6858 128.109 21.8944 128.698 22.2329 129.332Z" fill="#1D2E43" stroke="#1D2E43" stroke-width="0.4"/>
<path d="M115.408 114.29C115.343 114.776 115.218 115.242 115.184 115.733C115.149 116.258 115.303 116.999 114.84 117.353C114.148 117.878 112.994 117.726 112.202 117.588C110.296 117.259 108.514 116.719 106.553 116.984C104.791 117.225 102.969 118.035 101.79 119.389C100.829 120.494 99.9034 122.428 100.57 123.88C100.655 124.062 100.909 124.018 101.003 123.88C101.481 123.183 101.77 122.369 102.282 121.682C102.74 121.063 103.338 120.469 103.975 120.032C105.458 119.011 107.29 118.722 109.057 118.923C110.908 119.134 112.829 119.669 114.641 118.957C115.428 118.648 116.06 118.187 116 117.294C115.965 116.778 115.95 116.253 115.895 115.738C115.841 115.237 115.666 114.781 115.537 114.295C115.517 114.236 115.418 114.226 115.408 114.29Z" fill="#1D2E43" stroke="#1D2E43" stroke-width="0.4"/>
<path d="M100.819 130.449C100.789 131.048 100.59 131.652 100.495 132.245C100.401 132.859 100.281 133.463 100.132 134.066C99.8932 135.038 99.5846 136.054 98.9326 136.839C98.2308 137.679 97.2652 137.875 96.205 137.851C95.0254 137.826 93.8408 137.669 92.6612 137.581C90.0979 137.389 87.5296 137.257 84.9564 137.217C83.6374 137.193 82.3582 137.355 81.0392 137.394C79.7153 137.433 78.4311 137.576 77.1221 137.747C76.9031 137.777 76.8932 138.071 77.1221 138.091C78.2271 138.199 79.3221 138.297 80.427 138.376C80.9546 138.415 81.4872 138.41 82.0198 138.454C82.6369 138.503 83.2392 138.66 83.8564 138.685C86.0613 138.763 88.2613 138.881 90.4612 139.019C91.5612 139.087 92.6612 139.166 93.7612 139.254C94.7716 139.338 95.8019 139.49 96.8172 139.431C98.6539 139.328 100.097 138.381 100.849 136.717C101.267 135.794 101.506 134.812 101.605 133.811C101.66 133.252 101.675 132.653 101.6 132.098C101.521 131.504 101.287 130.979 101.128 130.41C101.078 130.233 100.824 130.277 100.819 130.449Z" fill="#1D2E43" stroke="#1D2E43" stroke-width="0.4"/>
<path d="M101.093 135.208C101.372 134.875 101.357 134.536 101.362 134.109C101.372 133.49 101.357 132.872 101.347 132.254C101.327 131.056 101.283 129.858 101.253 128.661C101.193 126.226 101.029 123.797 100.7 121.382C100.058 116.631 99.0577 111.983 97.7836 107.355C97.0618 104.729 96.2705 102.186 95.0112 99.7567C94.9117 99.5702 94.6429 99.7076 94.6827 99.8941C95.1506 102.221 95.8275 104.464 96.4596 106.751C97.0917 109.033 97.5894 111.34 98.0772 113.652C99.0577 118.305 99.655 123.016 100.232 127.728C100.397 129.078 100.511 130.428 100.581 131.787C100.616 132.445 100.645 133.103 100.67 133.76C100.69 134.276 100.631 134.796 100.979 135.208C101.009 135.238 101.069 135.238 101.093 135.208Z" fill="#1D2E43" stroke="#1D2E43" stroke-width="0.4"/>
<path d="M67.3271 88.3423C67.0932 89.2601 66.8493 90.1779 66.6104 91.0958C66.3715 92.043 66.1575 93.0345 65.7444 93.9278C64.943 95.6604 64.2363 97.496 63.1014 99.0519C61.8919 100.716 60.6377 102.35 59.463 104.039C58.2336 105.801 57.4124 107.788 56.2328 109.58C55.5857 110.557 54.9088 111.519 54.2767 112.5C53.9631 112.986 53.7989 113.521 53.5052 114.012C53.1717 114.567 52.7487 115.067 52.4749 115.651C52.4152 115.779 52.5745 115.926 52.684 115.813C53.0075 115.484 53.2613 115.102 53.5351 114.729C53.8984 114.233 54.3414 113.85 54.7396 113.389C55.4364 112.579 56.0088 111.646 56.6359 110.787C57.3079 109.874 58.0047 109.02 58.7363 108.161C59.4431 107.332 60.2246 106.571 60.8567 105.678C62.0612 103.98 63.3304 102.252 64.2163 100.367C65.0475 98.5954 66.1475 96.7696 66.5557 94.8456C67.0186 92.6664 67.6109 90.6099 67.5063 88.3619C67.5063 88.2687 67.357 88.2392 67.3271 88.3423Z" fill="#1D2E43" stroke="#1D2E43" stroke-width="0.4"/>
<path d="M45.7206 101.035C45.0984 102.728 44.5758 104.446 43.9088 106.119C43.5754 106.964 43.1921 107.729 42.9582 108.618C42.7392 109.457 42.565 110.296 42.4405 111.155C42.3161 112.009 42.3062 112.858 42.2713 113.717C42.2365 114.601 42.4555 115.45 42.5152 116.323C42.6297 118.027 42.5252 119.906 43.0826 121.541C43.1025 121.595 43.1822 121.585 43.1871 121.526C43.2966 119.798 42.9333 118.061 43.0975 116.323C43.1772 115.489 43.4708 114.669 43.5754 113.835C43.6849 112.956 43.8889 112.093 44.0382 111.219C44.1776 110.409 44.317 109.594 44.4812 108.789C44.6505 107.94 44.6803 107.091 44.8197 106.247C45.1034 104.51 45.5563 102.806 45.9047 101.084C45.9197 100.971 45.7604 100.927 45.7206 101.035Z" fill="#1D2E43" stroke="#1D2E43" stroke-width="0.4"/>
<path d="M27.9665 153.495C28.9371 153.858 29.8778 154.241 30.7787 154.756C31.2267 155.011 31.6796 155.266 32.1325 155.522C32.5407 155.752 33.0981 155.958 33.3072 156.4C33.4515 156.7 33.9244 156.489 33.8397 156.179C33.7054 155.669 33.2076 155.423 32.7846 155.178C32.242 154.864 31.7045 154.53 31.147 154.241C30.1914 153.745 29.0715 153.229 27.9715 153.465C27.9466 153.465 27.9516 153.49 27.9665 153.495Z" fill="#1D2E43" stroke="#1D2E43" stroke-width="0.4"/>
<path d="M28.0114 153.746C27.6381 154.213 27.429 154.757 27.4589 155.351C27.4887 155.965 27.6928 156.573 28.0661 157.064C28.4991 157.629 29.0964 157.982 29.8281 157.967C30.5448 157.953 31.2267 157.629 31.7792 157.197C32.3316 156.765 32.909 156.176 32.8642 155.43C32.8493 155.15 32.4411 155.15 32.4212 155.43C32.3715 156.122 31.6348 156.554 31.0973 156.878C30.5199 157.226 29.7634 157.472 29.1263 157.118C28.5887 156.819 28.2403 156.264 28.096 155.685C28.0213 155.386 28.0313 155.101 28.0362 154.797C28.0412 154.458 28.0761 154.173 28.1905 153.849C28.2304 153.751 28.081 153.658 28.0114 153.746Z" fill="#1D2E43" stroke="#1D2E43" stroke-width="0.4"/>
<path d="M28.6138 153.267C29.3554 152.742 30.1269 152.202 30.7192 151.51C31.3115 150.818 31.65 149.979 31.869 149.11C32.1328 148.055 32.5061 147.112 32.9988 146.145C33.2377 145.679 33.4965 145.218 33.7803 144.776C34.0689 144.319 34.4771 144.005 34.6463 143.485C34.7259 143.249 34.4273 143.141 34.268 143.269C33.8698 143.573 33.7554 143.995 33.5214 144.422C33.2825 144.859 33.0386 145.291 32.8296 145.743C32.4115 146.626 32.1129 147.564 31.7943 148.482C31.4708 149.404 31.2568 150.366 30.6694 151.176C30.0921 151.971 29.3355 152.599 28.574 153.218C28.5392 153.238 28.579 153.292 28.6138 153.267Z" fill="#1D2E43" stroke="#1D2E43" stroke-width="0.4"/>
<path d="M33.4919 155.725C33.4272 155.273 33.1435 154.896 33.0589 154.439C32.9543 153.87 33.029 153.295 33.1933 152.746C33.5118 151.686 34.1489 150.679 34.6416 149.683C35.1145 148.726 35.6919 147.813 36.1249 146.836C36.4584 146.076 36.8167 145.02 36.543 144.191C36.5131 144.098 36.3688 144.088 36.3389 144.191C36.1995 144.731 36.1946 145.29 36.0403 145.83C35.886 146.38 35.7018 146.915 35.4828 147.445C34.9851 148.638 34.2186 149.698 33.6114 150.832C33.1286 151.735 32.6308 152.677 32.5412 153.708C32.4865 154.39 32.596 155.578 33.3824 155.828C33.4571 155.853 33.5018 155.789 33.4919 155.725Z" fill="#1D2E43" stroke="#1D2E43" stroke-width="0.4"/>
<path d="M28.8723 151.638C29.0216 151.986 29.4596 152.168 29.7831 152.33C30.1664 152.521 30.5596 152.703 30.9528 152.875C31.336 153.037 31.7392 153.179 32.1374 153.297C32.3464 153.356 32.5406 153.38 32.7546 153.415C32.9437 153.439 33.1229 153.503 33.312 153.474C33.3767 153.464 33.3917 153.371 33.3519 153.331C33.2175 153.204 33.0283 153.15 32.8691 153.056C32.6899 152.953 32.5157 152.855 32.3216 152.767C31.9532 152.605 31.5799 152.438 31.2066 152.281C30.8333 152.129 30.465 151.962 30.1017 151.79C29.7782 151.638 29.365 151.368 28.9917 151.437C28.9121 151.447 28.8424 151.559 28.8723 151.638Z" fill="#1D2E43" stroke="#1D2E43" stroke-width="0.4"/>
<path d="M29.3155 150.352C29.5743 150.715 30.0123 150.842 30.4105 151.009C30.8286 151.181 31.2517 151.333 31.6748 151.495C32.4562 151.795 33.377 152.173 34.1385 151.638C34.2729 151.544 34.248 151.274 34.0439 151.294C33.2426 151.368 32.4612 151.098 31.7146 150.842C31.3114 150.705 30.9132 150.563 30.5101 150.435C30.1268 150.317 29.7486 150.17 29.3504 150.273C29.3155 150.283 29.2956 150.327 29.3155 150.352Z" fill="#1D2E43" stroke="#1D2E43" stroke-width="0.4"/>
<path d="M30.4052 148.696C30.5296 148.843 30.7636 148.902 30.9428 148.976C31.117 149.049 31.2912 149.118 31.4654 149.182C31.8685 149.334 32.2816 149.432 32.7047 149.516C33.1228 149.599 33.5558 149.683 33.9839 149.697C34.183 149.707 34.387 149.712 34.5861 149.697C34.7902 149.683 35.0092 149.673 35.1585 149.526C35.2382 149.452 35.2382 149.314 35.1585 149.241C35.0142 149.103 34.8201 149.094 34.626 149.069C34.4119 149.04 34.1979 149.03 33.9839 149.005C33.5857 148.966 33.1875 148.951 32.7893 148.902C32.3911 148.853 31.993 148.784 31.5948 148.725C31.3957 148.696 31.1966 148.662 30.9975 148.627C30.8133 148.593 30.6242 148.514 30.4401 148.554C30.3753 148.578 30.3704 148.657 30.4052 148.696Z" fill="#1D2E43" stroke="#1D2E43" stroke-width="0.4"/>
<path d="M31.7597 146.458C31.7597 146.463 31.7547 146.473 31.7547 146.478C31.7398 146.522 31.7547 146.591 31.7945 146.62C32.4366 147.155 33.1434 147.597 33.9596 147.837C34.3528 147.95 34.751 148.034 35.1542 148.092C35.5822 148.151 36.065 148.181 36.4234 147.896C36.5478 147.793 36.4831 147.621 36.3786 147.543C36.08 147.317 35.637 147.307 35.2687 147.278C34.9004 147.243 34.532 147.18 34.1687 147.091C33.4271 146.91 32.6755 146.708 31.9787 146.389C31.914 146.36 31.8493 146.365 31.7995 146.414C31.7746 146.429 31.7647 146.438 31.7597 146.458Z" fill="#1D2E43" stroke="#1D2E43" stroke-width="0.4"/>
<path d="M32.874 144.787C33.1179 145.106 33.5957 145.224 33.964 145.337C34.3772 145.464 34.7903 145.582 35.2034 145.71C35.6165 145.837 36.0346 145.95 36.4477 146.073C36.8758 146.196 37.2988 146.323 37.7518 146.23C37.9011 146.2 37.916 146.019 37.8364 145.921C37.5427 145.567 37.0997 145.41 36.6767 145.268C36.2685 145.126 35.8554 144.993 35.4373 144.885C35.0192 144.777 34.5962 144.679 34.1681 144.6C33.7849 144.532 33.2772 144.409 32.9188 144.61C32.8641 144.645 32.8292 144.733 32.874 144.787Z" fill="#1D2E43" stroke="#1D2E43" stroke-width="0.4"/>
<path d="M32.5906 105.609C31.7495 107.15 31.5753 109.187 32.292 110.812C32.4762 111.229 32.7001 111.592 32.9739 111.946C33.2875 112.358 33.4268 113.04 33.4816 113.536C33.596 114.557 33.2775 115.47 33.1431 116.456C33.1083 116.736 33.5413 116.824 33.6657 116.594C34.0988 115.804 34.0689 114.763 33.9494 113.899C33.835 113.05 33.5911 112.162 33.2875 111.367C32.939 110.449 32.6504 109.624 32.6354 108.633C32.6205 107.641 32.7848 106.66 32.8644 105.678C32.8743 105.541 32.6553 105.492 32.5906 105.609Z" fill="#1D2E43" stroke="#1D2E43" stroke-width="0.4"/>
<path d="M33.277 116.148C31.0472 116.418 28.8124 116.585 26.5726 116.727C25.5473 116.791 24.512 116.87 23.4817 116.855C22.4166 116.84 21.4062 116.536 20.346 116.467C19.261 116.393 18.1709 116.565 17.0859 116.555C16.5832 116.55 16.0805 116.521 15.5827 116.467C15.085 116.413 14.3932 116.393 13.9552 116.104C13.3927 115.731 13.6018 114.877 14.0099 114.46C14.3733 114.087 14.9656 113.9 15.4583 113.763C16.5633 113.453 17.7031 113.237 18.8429 113.085C18.9573 113.071 18.9623 112.889 18.8429 112.899C17.9071 112.992 16.9814 113.13 16.0655 113.336C15.2791 113.512 14.4081 113.669 13.7511 114.165C12.5516 115.068 12.8602 116.56 14.2986 116.973C15.1945 117.228 16.1651 117.326 17.0909 117.355C18.1809 117.39 19.2659 117.203 20.351 117.282C21.3216 117.351 22.2772 117.566 23.2527 117.557C24.2781 117.552 25.3133 117.459 26.3337 117.39C28.683 117.228 31.0123 116.948 33.3467 116.634C33.6204 116.6 33.5607 116.114 33.277 116.148Z" fill="#1D2E43" stroke="#1D2E43" stroke-width="0.4"/>
<path d="M13.7371 114.377C17.052 114.912 20.4216 115.275 23.7813 115.422C27.141 115.574 30.4807 115.427 33.7707 114.715C34.0743 114.652 33.9449 114.2 33.6413 114.259C30.3662 114.922 26.9916 115.084 23.6568 114.956C20.347 114.828 17.0719 114.372 13.772 114.082C13.6077 114.072 13.5679 114.352 13.7371 114.377Z" fill="#1D2E43" stroke="#1D2E43" stroke-width="0.4"/>
<path d="M16.7283 113.434C16.7582 113.454 16.783 113.483 16.8129 113.503C16.8428 113.523 16.8826 113.533 16.9174 113.547C16.9871 113.582 17.0468 113.621 17.1016 113.675C17.1962 113.763 17.2957 113.915 17.3405 114.018C17.3704 114.092 17.3853 114.156 17.3853 114.21C17.3903 114.298 17.3654 114.382 17.3604 114.47C17.3455 114.652 17.3156 114.907 17.4201 115.064C17.4649 115.133 17.5695 115.118 17.5894 115.044C17.6192 114.936 17.6391 114.838 17.6839 114.735C17.7387 114.617 17.7885 114.514 17.8034 114.387C17.8283 114.18 17.7835 113.974 17.6939 113.788C17.6043 113.611 17.455 113.474 17.2808 113.38C17.1962 113.336 17.1066 113.297 17.012 113.277C16.9025 113.253 16.8278 113.267 16.7333 113.317C16.6735 113.341 16.6885 113.405 16.7283 113.434Z" fill="#1D2E43" stroke="#1D2E43" stroke-width="0.4"/>
<path d="M19.0524 114.316C20.1175 113.874 21.1279 113.266 22.1433 112.716C23.1636 112.162 24.184 111.607 25.1794 111.003C26.8219 110.007 28.2952 108.662 28.7282 106.738C28.773 106.537 28.4744 106.453 28.4147 106.655C28.126 107.563 27.6979 108.441 27.0658 109.168C26.4088 109.919 25.5278 110.434 24.6568 110.91C23.7261 111.416 22.7953 111.921 21.8745 112.441C20.9089 112.991 19.8886 113.506 18.9877 114.149C18.9031 114.203 18.9479 114.355 19.0524 114.316Z" fill="#1D2E43" stroke="#1D2E43" stroke-width="0.4"/>
<path d="M18.4997 113.162C18.8432 113.073 19.1119 112.818 19.3907 112.607C19.6346 112.426 19.8784 112.244 20.1174 112.053C20.6848 111.606 21.2522 111.159 21.8196 110.713C22.7006 110.016 23.492 109.235 24.2535 108.416C25.2888 107.297 26.3091 106.163 27.4091 105.117C27.429 105.098 27.424 105.068 27.3991 105.054C27.0905 104.852 26.5331 105.603 26.3738 105.775C25.7019 106.497 25.01 107.213 24.3232 107.925C23.5417 108.74 22.7055 109.54 21.8246 110.251C21.2671 110.703 20.6897 111.135 20.1223 111.572C19.8038 111.817 19.4852 112.067 19.1717 112.327C18.9029 112.548 18.5844 112.745 18.4201 113.059C18.3952 113.113 18.44 113.177 18.4997 113.162Z" fill="#1D2E43" stroke="#1D2E43" stroke-width="0.4"/>
<path d="M24.5621 107.888C24.7462 108.005 24.9304 108.123 25.1195 108.231C25.3186 108.344 25.5227 108.432 25.7317 108.521C25.9358 108.604 26.1399 108.688 26.3539 108.737C26.5381 108.781 26.8765 108.894 26.9711 108.648C27.0706 108.388 26.7123 108.295 26.5331 108.236C26.324 108.162 26.115 108.108 25.901 108.045C25.4829 107.917 25.0648 107.804 24.6517 107.667C24.5223 107.623 24.4526 107.814 24.5621 107.888Z" fill="#1D2E43" stroke="#1D2E43" stroke-width="0.4"/>
<path d="M23.0437 109.229C23.2478 109.485 23.4867 109.71 23.7505 109.907C23.8749 110 24.0143 110.079 24.1536 110.152C24.2283 110.191 24.3129 110.241 24.3975 110.26C24.502 110.285 24.5916 110.29 24.6762 110.221C24.7111 110.196 24.7111 110.147 24.7061 110.108C24.6763 109.946 24.4622 109.887 24.3328 109.823C24.1935 109.76 24.0591 109.681 23.9297 109.607C23.6659 109.46 23.427 109.279 23.208 109.067C23.0984 108.959 22.9491 109.117 23.0437 109.229Z" fill="#1D2E43" stroke="#1D2E43" stroke-width="0.4"/>
<path d="M20.9881 110.646C20.9582 110.72 21.013 110.794 21.0478 110.857C21.0727 110.902 21.0976 110.941 21.1275 110.985C21.1922 111.078 21.2569 111.176 21.3365 111.255C21.4112 111.333 21.5157 111.402 21.6053 111.466C21.6451 111.495 21.6899 111.52 21.7347 111.54C21.7695 111.554 21.8044 111.574 21.8392 111.584C21.8741 111.594 21.9139 111.594 21.9487 111.598C22.0731 111.608 22.1627 111.446 22.0931 111.348C22.0781 111.324 22.0632 111.299 22.0433 111.279C22.0234 111.255 21.9985 111.235 21.9786 111.216C21.9338 111.176 21.884 111.137 21.8342 111.103C21.8143 111.088 21.8691 111.132 21.8392 111.108C21.8293 111.098 21.8193 111.093 21.8093 111.083C21.7894 111.068 21.7745 111.054 21.7546 111.039C21.7148 111.005 21.6799 110.97 21.6401 110.941C21.6202 110.926 21.6003 110.911 21.5804 110.897C21.5605 110.882 21.6152 110.926 21.5854 110.902C21.5655 110.887 21.5455 110.872 21.5256 110.852C21.4908 110.823 21.451 110.789 21.4161 110.759C21.3813 110.725 21.3465 110.69 21.3116 110.656C21.2569 110.602 21.2121 110.538 21.1275 110.543C21.0578 110.543 21.013 110.582 20.9881 110.646Z" fill="#1D2E43" stroke="#1D2E43" stroke-width="0.4"/>
<path d="M19.3608 112.292C19.4056 112.366 19.4454 112.439 19.4902 112.513C19.54 112.601 19.5848 112.69 19.6495 112.768C19.7042 112.832 19.754 112.896 19.8088 112.959C19.8635 113.023 19.9133 113.117 19.9929 113.156C20.0676 113.195 20.1572 113.146 20.1622 113.063C20.1671 112.979 20.1174 112.891 20.0875 112.812C20.0576 112.734 20.0278 112.65 19.9979 112.572C19.9631 112.478 19.9083 112.4 19.8635 112.317C19.8187 112.238 19.7739 112.164 19.7291 112.086C19.6744 111.993 19.535 111.953 19.4405 112.012C19.3409 112.066 19.3061 112.189 19.3608 112.292Z" fill="#1D2E43" stroke="#1D2E43" stroke-width="0.4"/>
<path d="M62.0711 28.8667C63.0815 29.6029 64.2909 30.0594 65.5552 29.8042C66.685 29.5784 67.7253 28.8913 68.6162 28.1992C70.3931 26.82 71.6673 24.95 72.0256 22.7315C71.9012 22.7659 71.7768 22.7953 71.6523 22.8297C72.16 23.4383 72.6379 24.0616 73.1654 24.6506C73.2202 24.7144 73.3446 24.6457 73.3098 24.5672C72.9813 23.7868 72.5284 23.1536 71.9659 22.5205C71.8614 22.4027 71.6175 22.4567 71.5926 22.6186C71.299 24.5819 70.0746 26.3047 68.5565 27.5513C67.7452 28.2139 66.7846 28.8471 65.7692 29.1563C64.5099 29.5391 63.3403 29.0189 62.1208 28.7489C62.0462 28.7342 62.0163 28.8225 62.0711 28.8667Z" fill="#1D2E43" stroke="#1D2E43" stroke-width="0.4"/>
<path d="M70.2933 32.7135C70.4078 32.7527 70.5472 32.6496 70.6467 32.6153C70.7612 32.576 70.8806 32.5662 71.0001 32.5809C71.2291 32.6153 71.4082 32.7478 71.5078 32.949C71.6024 33.1356 71.6223 33.3662 71.5327 33.5577C71.4281 33.7834 71.2042 33.9356 70.9702 34.0141C70.801 34.073 70.6168 34.1025 70.4377 34.1221C70.2485 34.1417 70.0445 34.1123 69.8653 34.1712C69.8006 34.1908 69.7807 34.2841 69.8454 34.3184C70.0246 34.4117 70.2585 34.4215 70.4526 34.4313C70.6616 34.446 70.8657 34.4264 71.0648 34.3675C71.3983 34.2644 71.7268 34.0485 71.8811 33.7294C72.0304 33.4251 72.0254 33.0619 71.8612 32.7625C71.6969 32.4582 71.3933 32.2668 71.0499 32.2325C70.8607 32.2128 70.6616 32.2423 70.4874 32.3208C70.3929 32.3601 70.3232 32.4042 70.2635 32.4877C70.2187 32.5515 70.1788 32.6693 70.2933 32.7135Z" fill="#1D2E43" stroke="#1D2E43" stroke-width="0.4"/>
<path d="M28.8927 61.6847C29.1017 61.6798 29.1615 61.4835 29.1814 61.3166C29.2013 61.0908 29.2909 60.8847 29.4452 60.7129C29.7737 60.3448 30.2714 60.2123 30.7492 60.3301C31.247 60.4528 31.68 60.7914 31.9786 61.189C32.1379 61.405 32.2723 61.6356 32.3818 61.8761C32.4365 61.9989 32.5012 62.1166 32.561 62.2344C32.6207 62.3571 32.6605 62.4995 32.77 62.5829C32.8696 62.6615 33.0388 62.6467 33.0736 62.5044C33.1333 62.2394 32.9641 61.8811 32.8496 61.6406C32.7153 61.3608 32.556 61.0908 32.3668 60.8454C32.0035 60.3841 31.5157 60.0209 30.9334 59.8932C30.4008 59.7755 29.8434 59.8638 29.4054 60.2025C29.2013 60.3595 29.037 60.5608 28.9325 60.7964C28.8827 60.9092 28.8479 61.0221 28.833 61.1448C28.818 61.2528 28.8429 61.3313 28.7782 61.4001C28.6787 61.508 28.7434 61.6896 28.8927 61.6847Z" fill="#1D2E43" stroke="#1D2E43" stroke-width="0.4"/>
<path d="M27.7024 63.6558C27.7821 63.5969 27.8269 63.5135 27.8816 63.435C27.9563 63.3319 28.0409 63.2337 28.1355 63.1405C28.3047 62.9687 28.4988 62.8116 28.7128 62.6938C29.0413 62.5122 29.4545 62.4484 29.7133 62.7576C29.9671 63.0619 30.0567 63.4546 30.1513 63.8276C30.2259 64.1172 30.3006 64.397 30.3952 64.6816C30.4449 64.824 30.4848 64.9663 30.5445 65.1037C30.6042 65.2412 30.6938 65.354 30.7734 65.4767C30.858 65.6191 31.0721 65.5553 31.0771 65.3933C31.087 65.2215 31.1119 65.0596 31.087 64.8878C31.0621 64.7209 31.0273 64.554 30.9974 64.3871C30.9427 64.0681 30.8531 63.754 30.7685 63.4399C30.639 62.9687 30.4499 62.4631 30.0219 62.1785C29.5341 61.8545 28.9368 61.987 28.4938 62.3159C28.2699 62.4828 28.0907 62.6889 27.9364 62.9196C27.8617 63.0374 27.792 63.1601 27.7373 63.2828C27.6925 63.3859 27.6278 63.4988 27.6377 63.6116C27.6377 63.646 27.6726 63.6755 27.7024 63.6558Z" fill="#1D2E43" stroke="#1D2E43" stroke-width="0.4"/>
</g>
<defs>
<clipPath id="clip0_6378_20162">
<rect width="103" height="159" fill="white" transform="translate(13)"/>
</clipPath>
</defs>
</svg>
