<svg width="159" height="159" viewBox="0 0 159 159" fill="none" xmlns="http://www.w3.org/2000/svg">
<circle cx="68.5" cy="78.5" r="56.5" fill="#BADDFE"/>
<g clip-path="url(#clip0_9381_6966)">
<path d="M12.4536 108.494L12.0088 67.6873L30.6891 61.9211L64.9362 40.6308L77.8344 43.2921V41.0743L77.3896 38.8566L78.724 37.9695L80.9478 36.6389L83.6164 36.1953L85.8402 37.9695L87.1745 41.0743L89.3984 45.9534L103.186 47.284L104.965 49.0582L108.523 46.8405L112.971 42.8485L116.084 37.0824L117.863 32.6469L118.308 27.3243L119.198 24.2195L120.532 22.8889L122.756 22.4453L124.09 23.3324L124.535 25.9937L124.09 31.3163L121.866 37.526L120.087 42.8485L116.084 51.7195L112.971 57.0421L109.413 61.034L107.189 63.2518L118.753 63.6953L133.43 62.3647L138.768 61.9211L142.326 62.8082L144.55 64.1389L145.884 66.3566L145.439 68.1308L144.105 69.905L138.768 72.1227L133.43 73.0098L124.98 74.3405L120.087 76.5582L116.084 80.1066L112.526 84.0985L108.523 88.0905L104.52 90.7518L80.9478 104.502V122.244L72.0524 111.155L71.6077 105.389L49.3693 120.47L34.692 129.34L29.7995 131.115H26.6862L24.9071 129.34L25.3519 126.236L28.4652 123.131L33.8024 117.365L37.8053 111.599L39.1396 108.494L37.8053 106.72L35.5815 107.163L29.7995 109.824L17.346 118.252L7.56116 124.018L3.11349 124.905L1.33442 124.018L0.889648 121.357L2.66872 117.365L6.67163 112.929L12.4536 108.494Z" fill="#F6F6F6"/>
<path d="M39.0989 60.555C37.4251 61.7427 35.832 63.0674 34.3198 64.4379C32.7499 65.854 31.0529 67.1673 29.5292 68.6291C26.3778 71.6326 23.411 74.7618 21.2639 78.5647C19.2553 82.1164 18.3664 86.2962 20.1557 90.122C20.9522 91.8351 22.0835 93.6509 23.4687 94.9642C24.854 96.2776 26.701 96.9628 28.4672 97.6252C33.327 99.441 38.464 100.423 43.6586 100.652C44.8246 100.709 44.813 98.9271 43.6586 98.8585C38.5563 98.5388 33.5233 97.4196 28.7788 95.5124C27.6014 95.0442 26.3431 94.5417 25.3619 93.7308C24.4961 92.9999 23.8728 92.0178 23.284 91.0699C21.8411 88.763 21.1254 86.4676 21.7487 83.7381C22.3028 81.3399 23.6073 79.1928 25.0041 77.1943C26.3893 75.2072 27.7976 73.1629 29.3445 71.3129C30.8567 69.5085 32.3343 67.5899 34.0312 65.9568C35.7974 64.2551 37.6098 62.5878 39.2605 60.772C39.3529 60.6578 39.2259 60.4636 39.0989 60.555Z" fill="#1D2E43"/>
<path d="M38.6371 60.5997C37.4365 62.5868 36.6631 64.848 35.9705 67.0636C35.8897 67.3262 36.0167 67.6688 36.2706 67.8059C40.5995 70.0328 46.1982 70.3983 51.0004 70.01C53.5977 69.8044 55.7448 68.3883 57.8804 67.0407C60.2122 65.5675 62.6018 64.0258 64.6796 62.2214C64.4026 62.0158 64.1371 61.7988 63.86 61.5933C62.3016 64.8023 61.7475 67.9658 61.3089 71.4718C61.1126 73.0364 61.1126 74.6466 62.013 76.0285C62.8557 77.3304 64.241 78.2554 65.5108 79.1119C66.5382 79.8086 67.4848 78.1641 66.4804 77.4674C65.4069 76.7251 64.3333 75.96 63.5714 74.8864C62.6364 73.5617 62.5671 72.02 62.6941 70.4554C62.925 67.6917 63.1674 64.4712 64.7604 62.1072C65.0606 61.6618 64.4834 61.1479 64.0447 61.3991C61.8399 62.6553 59.8082 64.2313 57.6726 65.6018C55.5486 66.9608 53.3437 68.5254 50.7349 68.6967C46.2213 68.9936 40.992 68.7423 36.9286 66.6524C37.0325 66.9037 37.1364 67.1435 37.2287 67.3948C37.8983 65.2135 38.7525 63.0893 39.3528 60.8966C39.5029 60.4627 38.8795 60.2 38.6371 60.5997Z" fill="#1D2E43"/>
<path d="M29.8755 75.699C29.2637 76.9895 28.8019 79.3078 30.5219 80.0045C31.33 80.3357 32.1727 80.1758 32.9692 79.856C33.7311 79.5477 34.5045 79.1365 35.1163 78.5769C35.7859 77.9488 36.0975 77.1722 36.1668 76.2815C36.2361 75.4706 36.3053 74.4542 35.7859 73.7804C35.3357 73.1866 34.6315 72.844 33.8812 72.8211C33.0038 72.7983 32.2073 73.2665 31.5609 73.8147C30.8336 74.4314 30.1525 75.2194 29.7254 76.0645C29.5176 76.487 29.4022 76.9438 29.3329 77.4006C29.2983 77.6405 29.2637 77.8917 29.2868 78.143C29.2983 78.3714 29.4022 78.5769 29.5061 78.7825C29.5985 78.9652 29.8755 78.9081 29.9217 78.7254C30.0833 78.0859 30.141 77.4349 30.395 76.8182C30.6605 76.1901 30.9721 75.5734 31.4224 75.0481C32.1727 74.1687 33.6272 73.2094 34.7931 73.8946C35.4165 74.2601 35.3588 74.8996 35.3241 75.5391C35.2895 76.2358 35.2087 76.9667 34.8393 77.5605C34.5045 78.0973 33.962 78.4741 33.431 78.7939C32.8307 79.1479 32.1611 79.5591 31.457 79.639C29.3791 79.8674 29.6562 77.0238 30.0833 75.7904C30.141 75.6648 29.9332 75.5734 29.8755 75.699Z" fill="#1D2E43"/>
<path d="M30.7872 75.6518C30.9257 75.5833 31.0873 75.5034 31.2374 75.4919C31.3066 75.4919 31.3759 75.5148 31.4451 75.5148C31.526 75.5148 31.6068 75.4919 31.676 75.4805C31.9531 75.4463 32.2301 75.4577 32.5072 75.5376C32.9458 75.6633 33.3614 75.983 33.5807 76.3713C33.8578 76.8624 33.7885 77.4562 33.6038 77.9701C33.4999 78.2556 33.3383 78.5183 33.1652 78.781C33.0843 78.8952 32.992 79.0094 32.9458 79.1464C32.8881 79.2949 32.8419 79.4434 32.7958 79.5804C32.7611 79.6832 32.8881 79.7631 32.9689 79.7174C33.1305 79.6261 33.3383 79.5461 33.4768 79.4091C33.6038 79.2835 33.7193 79.1236 33.8231 78.9865C34.0425 78.6896 34.2387 78.3699 34.3657 78.0272C34.6427 77.3192 34.6427 76.5198 34.2387 75.8574C33.8809 75.275 33.2921 74.8753 32.5995 74.7725C32.2301 74.7154 31.8492 74.7268 31.4913 74.8296C31.3066 74.8867 31.2027 74.978 31.0527 75.0922C30.9026 75.2064 30.741 75.2978 30.5909 75.4234C30.4639 75.5376 30.6371 75.7318 30.7872 75.6518Z" fill="#1D2E43"/>
<path d="M32.9221 75.4821C32.5527 75.5277 32.218 75.8132 31.9986 76.0988C31.7331 76.4414 31.687 76.9324 31.7447 77.3436C31.7908 77.7433 31.9178 78.1772 32.2064 78.4742C32.4835 78.7483 32.8644 78.8853 33.2454 78.8396C33.6263 78.7939 34.1458 78.5199 33.9841 78.063C33.9495 77.9603 33.8456 77.9146 33.7417 77.9717C33.6725 78.0059 33.5917 78.0174 33.5224 78.0859C33.4531 78.143 33.4531 78.1544 33.3723 78.2001C33.407 78.1887 33.3146 78.2229 33.3146 78.2115C33.28 78.2229 33.2454 78.2343 33.2107 78.2343C33.2454 78.2343 33.153 78.2343 33.1415 78.2343C33.1299 78.2343 33.026 78.2229 33.0722 78.2343C32.9337 78.2115 32.8529 78.1658 32.7374 78.0516C32.622 77.9374 32.5296 77.8004 32.4719 77.6519C32.3334 77.3207 32.2872 76.9096 32.4027 76.567C32.4488 76.4185 32.5181 76.2815 32.6104 76.1559C32.7259 76.0074 32.8875 75.916 33.026 75.8018C33.1645 75.6876 33.0722 75.4592 32.9221 75.4821Z" fill="#1D2E43"/>
<path d="M42.1579 76.9534C41.6038 77.7186 41.2344 78.5408 41.1189 79.4659C41.015 80.2881 41.0266 81.2703 41.5922 81.9326C42.7697 83.3031 44.9053 82.2867 46.0365 81.3959C46.7061 80.8706 47.1101 80.1511 47.3525 79.3402C47.5949 78.5751 47.9297 77.5815 47.6411 76.7935C47.3641 76.0512 46.5445 75.583 45.8057 75.4002C45.0207 75.2061 44.1895 75.2975 43.4738 75.6629C42.7004 76.0398 42.1348 76.7593 41.7885 77.5244C41.5922 77.947 41.4306 78.3809 41.396 78.8492C41.3613 79.2946 41.3383 79.74 41.3844 80.1853C41.4191 80.5051 41.8231 80.5622 41.9385 80.2653C42.1694 79.6943 42.3887 79.0776 42.5503 78.4723C42.7004 77.9127 42.9197 77.3417 43.3238 76.9077C44.1318 76.0284 45.621 75.8342 46.5906 76.5765C47.2486 77.079 47.0062 77.867 46.8446 78.5522C46.683 79.2146 46.4752 79.8998 46.025 80.4252C45.5979 80.9277 44.963 81.3045 44.3742 81.6015C43.7855 81.8984 43.0583 82.0811 42.4464 81.7385C41.7423 81.3388 41.7885 80.3909 41.8462 79.6943C41.9039 78.8377 42.1117 77.9241 42.458 77.1361C42.5503 76.9191 42.2964 76.7707 42.1579 76.9534Z" fill="#1D2E43"/>
<path d="M34.5157 80.8248C34.4118 80.9275 34.4002 81.0417 34.3887 81.1674C34.3771 81.3615 34.4695 81.5214 34.5618 81.6813C34.7004 81.9325 34.8389 82.1723 34.9774 82.4236C35.0698 82.5835 35.1852 82.7319 35.3468 82.8233C35.5661 82.9603 35.8432 82.9603 36.0741 82.869C36.328 82.7662 36.5473 82.5949 36.7898 82.4921C36.732 82.515 36.6743 82.5378 36.6166 82.5606C36.7898 82.4921 36.9975 82.4464 37.1592 82.3437C37.4708 82.1495 37.6094 81.7841 37.4593 81.4415C37.3092 81.0988 36.9629 80.9504 36.5935 81.0189C36.4204 81.0532 36.2472 81.1674 36.1087 81.2587C35.9702 81.3501 35.8316 81.4529 35.7047 81.5671C35.6123 81.6356 35.5084 81.7155 35.4392 81.8069C35.4969 81.7155 35.6354 81.7155 35.7277 81.7155C35.797 81.7041 35.8663 81.7155 35.9355 81.7612C35.924 81.7612 35.9124 81.7498 35.9124 81.7498C35.9471 81.7726 36.0163 81.8412 35.9471 81.7726C35.924 81.7498 35.9009 81.727 35.8894 81.7041C35.7047 81.4986 35.52 81.3044 35.3353 81.0988C35.2083 80.9504 35.0928 80.8362 34.8966 80.7791C34.7696 80.7448 34.608 80.7334 34.5157 80.8248Z" fill="#1D2E43"/>
<path d="M23.0759 94.9753C19.6475 99.5548 15.8611 104.02 11.6708 107.949C8.01143 111.375 3.69409 114.378 1.17757 118.809C0.254071 120.42 -0.704055 122.784 0.727362 124.405C2.19341 126.073 4.79074 125.582 6.59155 124.862C9.17734 123.823 11.6015 122.27 14.0141 120.911C16.6692 119.415 19.2896 117.884 21.8985 116.32C24.5882 114.709 27.2432 113.054 29.8867 111.363C31.0873 110.598 32.2532 109.799 33.4653 109.045C34.4118 108.451 36.6859 106.967 37.8403 107.675C39.341 108.588 36.0164 113.545 35.3584 114.527C33.9039 116.685 32.08 118.524 30.233 120.351C28.0166 122.544 21.5983 127.34 24.8075 130.949C26.2389 132.571 28.5592 132 30.3485 131.417C33.0381 130.538 35.6701 129.419 38.1866 128.128C44.1201 125.102 49.6957 121.368 55.2136 117.656C61.0547 113.739 66.7919 109.673 72.5175 105.585C73.6488 104.774 72.4483 103.198 71.3401 104.066C62.2552 111.249 52.6393 117.964 42.6656 123.903C40.3568 125.285 37.9904 126.564 35.5662 127.74C34.2964 128.357 33.015 128.951 31.6991 129.476C30.487 129.956 29.171 130.595 27.8435 130.652C26.0658 130.721 25.1307 129.407 25.6386 127.751C26.0542 126.404 27.2778 125.307 28.2244 124.314C29.8174 122.647 31.4797 121.048 33.0612 119.369C34.5965 117.736 36.1318 116.046 37.4016 114.196C38.4868 112.62 39.7104 110.495 39.8835 108.554C40.0682 106.441 38.3136 105.63 36.432 105.893C34.0655 106.213 32.08 107.846 30.1522 109.114C25.3039 112.3 20.3632 115.36 15.3417 118.295C12.8829 119.734 10.4125 121.139 7.90753 122.498C6.7878 123.103 5.61034 123.743 4.32899 123.948C2.52818 124.234 1.17757 123.252 1.70858 121.379C2.45891 118.684 4.83691 116.343 6.82243 114.481C8.84257 112.585 11.0012 110.861 13.0214 108.965C17.3041 104.945 20.9057 100.491 23.757 95.3864C24.0687 94.9182 23.3876 94.5527 23.0759 94.9753Z" fill="#1D2E43"/>
<path d="M2.87414 124.189C3.05883 124.018 3.08192 123.744 3.16273 123.504C3.19736 123.413 3.23199 123.321 3.26662 123.218C3.28971 123.173 3.25508 123.23 3.28971 123.161C3.3128 123.104 3.33588 123.058 3.37051 123.001C3.55521 122.636 3.71682 122.259 3.93615 121.916C4.16703 121.562 4.43253 121.311 4.70958 120.98C4.952 120.683 5.24059 120.398 5.54073 120.158C5.72543 120.009 5.52918 119.724 5.3214 119.781C4.89428 119.907 4.45562 120.078 4.07468 120.306C3.68219 120.546 3.34743 120.934 3.07038 121.288C2.7587 121.677 2.48165 122.088 2.32004 122.567C2.25078 122.773 2.19306 122.99 2.14688 123.196C2.08916 123.492 1.99682 123.812 2.14688 124.098C2.29695 124.36 2.66635 124.383 2.87414 124.189Z" fill="#1D2E43"/>
<path d="M7.0762 120.74C6.92613 120.798 6.78761 120.935 6.67217 121.037C6.5221 121.163 6.38358 121.3 6.24505 121.426C5.92183 121.723 5.67941 122.02 5.47163 122.408C5.27538 122.773 5.10223 123.173 4.97525 123.561C4.83672 123.95 4.66357 124.429 4.68666 124.852C4.70974 125.503 5.69096 125.674 5.86411 125.012C5.92183 124.806 5.91029 124.589 5.93338 124.384C5.94492 124.224 5.97955 124.075 6.01418 123.892C6.08344 123.527 6.18734 123.162 6.32586 122.808C6.38358 122.636 6.47593 122.476 6.53365 122.305C6.59136 122.134 6.626 121.962 6.68371 121.803C6.74143 121.62 6.82224 121.449 6.91459 121.277C6.99539 121.129 7.11083 120.98 7.15701 120.809C7.15701 120.763 7.12237 120.718 7.0762 120.74Z" fill="#1D2E43"/>
<path d="M29.9672 125.595C29.7248 125.617 29.5285 125.743 29.3092 125.846C29.0668 125.971 28.8359 126.086 28.5935 126.211C28.1548 126.44 27.7277 126.668 27.3814 127.011C27.0697 127.308 26.8389 127.662 26.5964 128.027C26.481 128.198 26.3887 128.381 26.2848 128.564C26.227 128.667 26.1347 128.747 26.0654 128.838C25.9731 128.975 26.1693 128.792 26.0539 128.849C26.0077 128.872 25.9731 128.907 25.9269 128.929C25.4421 129.238 25.4652 129.957 26.0077 130.186C26.5272 130.403 27.139 129.911 26.9658 129.352C26.9543 129.306 26.9428 129.272 26.9312 129.226C26.9197 129.203 26.9081 129.112 26.9197 129.181C26.9197 129.089 26.9312 128.975 26.9543 128.884C26.9889 128.701 27.0697 128.518 27.139 128.347C27.2891 127.981 27.5084 127.65 27.7854 127.365C28.1087 127.034 28.5012 126.794 28.8821 126.554C29.1014 126.417 29.3092 126.291 29.5285 126.154C29.7248 126.029 29.9095 125.937 30.048 125.743C30.1057 125.686 30.0365 125.583 29.9672 125.595Z" fill="#1D2E43"/>
<path d="M31.3061 126.76C30.9483 127 30.602 127.262 30.2903 127.548C29.9555 127.856 29.69 128.244 29.4476 128.621C28.9628 129.386 28.628 130.243 28.374 131.111C28.2817 131.431 28.5126 131.75 28.8358 131.796C29.1821 131.842 29.4476 131.59 29.4591 131.259C29.5053 130.471 29.7477 129.706 30.094 129.009C30.2787 128.644 30.4981 128.313 30.7059 127.959C30.9136 127.593 31.1561 127.251 31.4331 126.931C31.5139 126.84 31.41 126.691 31.3061 126.76Z" fill="#1D2E43"/>
<path d="M33.3378 84.9618C33.1646 85.9325 32.876 86.9375 33.003 87.9311C33.1185 88.8447 33.5109 89.724 34.3652 90.1809C35.1848 90.6262 36.2353 90.8204 37.1241 90.4778C37.9553 90.1466 38.5671 89.4043 38.9365 88.6163C39.1443 88.1595 39.2943 87.7141 39.352 87.2116C39.4098 86.7091 39.4213 86.2066 39.4329 85.7155C39.4329 85.43 38.9942 85.3615 38.9249 85.647C38.821 86.0924 38.7056 86.5378 38.5555 86.9718C38.417 87.3943 38.2785 87.8283 38.0938 88.228C37.7013 89.0617 37.0433 89.8154 36.039 89.7469C35.0809 89.6898 34.2267 89.1416 33.9611 88.2166C33.8111 87.7141 33.8342 87.2002 33.788 86.6977C33.7534 86.1381 33.7187 85.5671 33.6841 85.0075C33.6726 84.8247 33.3724 84.7562 33.3378 84.9618Z" fill="#1D2E43"/>
<path d="M34.8508 89.8826C35.0008 89.1403 35.428 88.4779 36.1206 88.1353C36.2937 88.0553 36.4438 87.964 36.6169 87.9069C36.7093 87.8726 36.8132 87.8498 36.9171 87.8269C36.9633 87.8155 37.021 87.8041 37.0672 87.7927C37.1364 87.7812 37.1018 87.7812 37.1364 87.7812C37.552 87.7356 37.956 87.7698 38.3139 87.8612C38.6025 87.9297 38.9026 87.7698 38.9834 87.4843C39.0642 87.1874 38.8795 86.9247 38.6025 86.8219C38.0715 86.6392 37.5404 86.6278 36.9979 86.742C36.5015 86.8448 35.959 87.0618 35.5896 87.4044C35.2663 87.7013 34.9893 88.101 34.793 88.4893C34.5853 88.9119 34.4698 89.3572 34.4583 89.8255C34.4467 90.0539 34.8046 90.111 34.8508 89.8826Z" fill="#1D2E43"/>
<path d="M35.4508 82.8467C35.3007 83.2579 35.1391 83.6461 34.8852 84.0116C34.7697 84.1715 34.6312 84.3085 34.4581 84.3999C34.3773 84.4456 34.3426 84.457 34.2734 84.457C34.1464 84.457 34.0079 84.457 33.8809 84.457C33.8578 84.457 33.7193 84.4456 33.8232 84.457C33.777 84.4456 33.7308 84.4341 33.6846 84.4227C33.6385 84.4113 33.5923 84.3999 33.5461 84.377C33.523 84.3656 33.3845 84.3085 33.4999 84.3656C33.4076 84.3199 33.3268 84.2743 33.246 84.2172C33.2113 84.1943 33.0959 84.103 33.2113 84.1943C33.1767 84.1601 33.1305 84.1258 33.0959 84.103C32.9574 83.9773 32.8189 83.8403 32.6803 83.7147C32.6457 83.6804 32.6572 83.6918 32.7034 83.7489C32.6919 83.7261 32.6688 83.7147 32.6572 83.6918C32.6342 83.6461 32.5995 83.6119 32.5764 83.5662C32.5303 83.4977 32.4725 83.4406 32.4148 83.3721C32.4033 83.3492 32.2994 83.235 32.3687 83.3264C32.057 82.9152 31.4567 83.0637 31.4105 83.5776C31.3759 83.9088 31.4682 84.1943 31.6414 84.4684C31.803 84.7311 32.0108 84.9709 32.2878 85.1308C32.8073 85.4277 33.396 85.5419 33.9848 85.4391C34.1579 85.4049 34.3311 85.3592 34.4696 85.245C34.562 85.165 34.6543 85.1194 34.7582 85.0508C34.9891 84.8909 35.1853 84.6854 35.3238 84.4341C35.5893 83.9773 35.6009 83.3949 35.624 82.881C35.6471 82.7554 35.4854 82.7439 35.4508 82.8467Z" fill="#1D2E43"/>
<path d="M35.7282 82.6973C35.4165 82.7887 35.3588 83.1427 35.3126 83.4168C35.2549 83.748 35.2664 84.0678 35.3588 84.399C35.5204 84.97 35.9129 85.5182 36.4554 85.8037C36.9865 86.0777 37.6214 86.1577 38.187 85.9521C38.5333 85.8265 38.845 85.6209 39.1567 85.4382C39.4914 85.2326 39.8147 85.0271 40.1379 84.8101C40.4842 84.5817 40.1841 84.0678 39.8147 84.2505C39.5261 84.3875 39.2375 84.5246 38.9604 84.6731C38.6949 84.8101 38.4294 84.97 38.1524 85.0956C37.7714 85.2669 37.3559 85.2669 36.9865 85.0842C36.6055 84.89 36.3054 84.5931 36.1669 84.182C36.0976 83.9764 36.0514 83.7366 36.0399 83.5196C36.0168 83.2798 36.1091 82.9943 35.9591 82.7887C35.8898 82.7202 35.809 82.6745 35.7282 82.6973Z" fill="#1D2E43"/>
<path d="M41.5576 85.3016C43.52 86.4322 45.4016 87.6884 47.1678 89.1045C48.022 89.7897 48.8416 90.5092 49.6843 91.2173C50.5039 91.9139 51.3005 92.7133 52.247 93.2501C52.4548 93.3757 52.7088 93.1244 52.5818 92.9189C52.0277 91.9824 51.1735 91.2401 50.3654 90.532C49.5112 89.7897 48.5877 89.1273 47.6526 88.4878C45.7595 87.2087 43.7624 86.0667 41.6961 85.0846C41.546 85.0275 41.4191 85.2216 41.5576 85.3016Z" fill="#1D2E43"/>
<path d="M42.8618 84.1026C44.755 84.5594 46.5789 85.2903 48.2758 86.2496C49.9612 87.1975 51.5196 88.3737 53.2396 89.2417C53.3666 89.3102 53.5166 89.1389 53.4012 89.0361C51.9582 87.6771 50.1805 86.5579 48.4259 85.6329C46.6828 84.7193 44.8589 83.9998 42.8849 83.7942C42.7117 83.7714 42.6771 84.0683 42.8618 84.1026Z" fill="#1D2E43"/>
<path d="M29.1709 81.4189C28.2705 80.962 27.3239 80.5852 26.3196 80.4367C25.3615 80.2882 24.4033 80.2083 23.4337 80.1512C21.3904 80.0142 19.3126 80.0027 17.3386 80.608C16.9115 80.7451 17.0846 81.396 17.5233 81.2818C19.428 80.8022 21.3904 81.042 23.3182 81.1333C25.1999 81.2247 27.1738 81.3275 28.9977 81.7957C29.2286 81.8414 29.3787 81.5331 29.1709 81.4189Z" fill="#1D2E43"/>
<path d="M29.1243 82.9823C26.9079 82.3885 24.6338 82.6283 22.4405 83.245C21.3669 83.5419 20.3164 83.953 19.3121 84.4327C18.4463 84.8438 17.1881 85.4034 16.6917 86.2599C16.6224 86.3856 16.7379 86.4883 16.8649 86.4769C17.3381 86.4084 17.8345 86.1115 18.2732 85.9173C18.7118 85.7118 19.139 85.4719 19.5892 85.2778C20.605 84.821 21.6555 84.467 22.7291 84.1929C24.8069 83.6675 26.9771 83.4962 29.1127 83.2678C29.2512 83.2564 29.2974 83.028 29.1243 82.9823Z" fill="#1D2E43"/>
<path d="M42.1344 78.7806C41.8228 79.5001 41.6381 80.2539 41.742 81.0419C41.7766 81.3388 41.8459 81.6357 42.0075 81.8984C42.0998 82.0468 42.2153 82.1725 42.4 82.2067C42.5154 82.2296 42.6539 82.2067 42.7694 82.1839C42.8271 82.1725 42.8271 82.1039 42.804 82.0697C42.7347 81.9897 42.7347 81.9098 42.7116 81.8184C42.6655 81.6928 42.5847 81.6015 42.5269 81.4758C42.4346 81.2817 42.4 81.0647 42.3769 80.8591C42.3538 80.5394 42.3538 80.2082 42.3422 79.8884C42.3307 79.5458 42.3538 79.1918 42.3884 78.8492C42.4 78.7121 42.1922 78.655 42.1344 78.7806Z" fill="#1D2E43"/>
<path d="M42.2849 79.7061C42.6543 78.8381 43.4855 78.5069 44.3512 78.3014C44.7899 78.1986 45.3094 78.1301 45.7365 78.3242C45.9096 78.4042 46.0251 78.5184 46.1405 78.6668C46.2098 78.7468 46.279 78.8381 46.3252 78.9295C46.3714 79.0323 46.3714 79.1351 46.4406 79.2264C46.5561 79.3749 46.7985 79.4662 46.9486 79.2949C47.1564 79.0437 47.1217 78.6897 47.0178 78.4042C46.9139 78.0958 46.66 77.8674 46.3945 77.6961C45.8173 77.3192 45.0554 77.3307 44.409 77.4791C43.3469 77.7189 42.2965 78.5298 42.0656 79.6147C42.031 79.7403 42.2272 79.8431 42.2849 79.7061Z" fill="#1D2E43"/>
<path d="M44.536 77.8779C44.3167 77.9121 44.2359 78.0035 44.1089 78.1862C43.9934 78.3461 43.8896 78.5174 43.8088 78.7001C43.6241 79.0656 43.5432 79.4767 43.5548 79.8878C43.5548 80.6073 43.8549 81.3496 44.4206 81.8178C44.6745 82.0234 45.0324 81.6808 44.7784 81.4638C44.3167 81.0527 44.1204 80.4474 44.1551 79.8421C44.1781 79.5224 44.282 79.1912 44.3744 78.8828C44.4321 78.7115 44.5014 78.5517 44.5822 78.3918C44.6168 78.3232 44.663 78.2433 44.6745 78.1634C44.6861 78.0948 44.663 78.0149 44.6399 77.9464C44.6399 77.8893 44.5822 77.8664 44.536 77.8779Z" fill="#1D2E43"/>
<path d="M104.69 50.2313C108.395 49.0892 111.893 45.4347 114.098 42.397C116.614 38.9252 118.45 34.7454 118.808 30.4628C118.992 28.213 118.334 23.1081 121.832 23.0053C125.145 22.9026 123.898 29.3208 123.46 31.1137C122.79 33.8432 121.774 36.5155 120.92 39.1993C120.031 41.9858 119.281 44.7952 118.45 47.5932C117.561 50.5853 116.06 53.0521 114.202 55.5417C112.274 58.1455 110.173 60.5552 107.553 62.4966C106.906 62.9763 107.656 63.9127 108.222 63.3531C110.242 61.3889 111.893 59.1276 113.567 56.8664C115.218 54.6395 117.03 52.4011 118.104 49.843C119.35 46.8965 120.516 43.8588 121.578 40.8438C122.675 37.7375 123.887 34.6426 124.603 31.4221C125.122 29.0809 125.63 26.1117 124.603 23.839C123.829 22.126 121.798 21.6578 120.216 22.6399C118.011 24.0218 118.011 26.991 117.63 29.2294C117.215 31.6619 116.545 34.0716 115.622 36.3785C114.537 39.0851 112.944 41.7117 111.085 43.973C109.169 46.2913 106.652 47.8102 104.447 49.7973C104.251 49.98 104.447 50.3112 104.69 50.2313Z" fill="#1D2E43"/>
<path d="M118.045 30.5866C117.572 31.0891 118.392 31.7857 118.796 32.0141C119.361 32.3453 120.054 32.5623 120.712 32.6194C121.358 32.6765 122.063 32.5737 122.686 32.3682C122.998 32.2654 123.252 32.0941 123.517 31.9114C123.759 31.7401 124.083 31.5688 124.175 31.2718C124.21 31.1462 124.106 31.0206 123.979 31.0206C123.725 31.0092 123.517 31.1805 123.286 31.2604C123.032 31.3518 122.767 31.3746 122.513 31.4431C122.005 31.5802 121.497 31.6601 120.977 31.6259C120.469 31.603 119.973 31.5459 119.488 31.386C119.257 31.3061 119.027 31.2033 118.83 31.0548C118.657 30.9178 118.53 30.6551 118.322 30.5638C118.23 30.5067 118.126 30.5067 118.045 30.5866Z" fill="#1D2E43"/>
<path d="M116.522 36.1034C117.261 37.097 118.173 38.102 119.466 38.3075C120.008 38.3989 120.574 38.3646 121.093 38.1705C121.647 37.9649 122.028 37.6451 122.248 37.1084C122.328 36.9028 122.028 36.7544 121.878 36.9028C121.266 37.5309 120.343 37.805 119.489 37.5652C118.473 37.2911 117.653 36.5145 116.995 35.7494C116.776 35.4981 116.326 35.8293 116.522 36.1034Z" fill="#1D2E43"/>
<path d="M78.8431 43.3888C78.162 41.6643 77.3539 39.6658 79.0393 38.2497C80.3784 37.1305 82.1792 35.9428 83.8761 37.0505C85.3653 38.0213 86.0232 39.6544 86.739 41.1961C87.1314 42.0298 87.5355 42.852 87.8933 43.6971C88.2281 44.508 88.5744 45.433 89.1862 46.084C89.4517 46.3695 90.052 46.0726 89.8904 45.6843C89.5556 44.8963 89.0939 44.1654 88.7706 43.366C88.4474 42.5665 88.2512 41.7214 87.9857 40.8992C87.5008 39.4374 86.6351 37.9527 85.5038 36.8907C84.3032 35.7601 82.7564 35.1662 81.1403 35.7943C80.3784 36.0912 79.7088 36.5595 79.0624 37.0505C78.4737 37.4845 77.8619 37.9185 77.4809 38.558C76.4882 40.2368 77.2039 42.1897 77.9658 43.7885C78.1851 44.2453 79.0393 43.8913 78.8431 43.3888Z" fill="#1D2E43"/>
<path d="M78.2086 38.285C78.3471 38.422 78.4625 38.5705 78.6011 38.6961C78.7396 38.8218 78.8896 38.936 79.0166 39.073C79.1436 39.21 79.2706 39.3585 79.3976 39.4956C79.513 39.6212 79.6746 39.8039 79.7439 39.8838C80.2056 40.5005 80.4942 41.2086 80.8405 41.8824C81.0021 42.1907 81.4177 42.008 81.4408 41.7225C81.4639 41.4941 81.4293 41.2885 81.3946 41.0601C81.36 40.8317 81.3138 40.6033 81.2215 40.3863C81.0483 40.0095 80.829 39.6554 80.575 39.3357C80.2864 38.9588 79.9748 38.6505 79.5823 38.3878C79.4207 38.2736 79.2475 38.1822 79.0744 38.0909C78.8666 37.9881 78.6472 37.9538 78.4164 37.9196C78.2086 37.8967 78.0354 38.1251 78.2086 38.285Z" fill="#1D2E43"/>
<path d="M81.5098 36.2973C81.5676 36.4686 81.6022 36.6399 81.7061 36.7883C81.81 36.9368 81.9023 37.0967 81.9947 37.2566C82.1678 37.5649 82.3294 37.8847 82.491 38.2044C82.5257 38.273 82.5603 38.3529 82.5949 38.4214C82.6296 38.4785 82.6757 38.6041 82.6873 38.6384C82.7335 38.7412 82.8027 38.9468 82.8489 39.0838C82.9066 39.2551 82.9643 39.4264 83.0221 39.6091C83.0913 39.8033 83.1952 39.9746 83.2876 40.1573C83.4492 40.4428 84.0033 40.42 84.0494 40.0545C84.0841 39.8147 84.1187 39.5977 84.0725 39.3579C84.0379 39.1752 84.0033 39.0039 83.9456 38.8211C83.8186 38.4328 83.657 38.0446 83.4607 37.6677C83.276 37.3022 83.0336 36.9939 82.7681 36.6855C82.6527 36.5485 82.5257 36.4115 82.3987 36.2858C82.2371 36.126 82.0524 36.046 81.8331 35.9661C81.6599 35.8747 81.4521 36.1031 81.5098 36.2973Z" fill="#1D2E43"/>
<path d="M104.979 63.8106C111.339 64.5301 117.804 64.4273 124.187 63.9934C127.35 63.7764 130.49 63.3881 133.63 63.0569C136.678 62.7371 139.933 62.5316 142.888 63.5251C144.389 64.0276 145.243 65.1925 145.301 66.7571C145.37 68.5044 144.331 69.5322 142.738 70.1032C140.002 71.0968 137.162 71.9304 134.3 72.4444C131.298 72.9811 128.216 72.9469 125.226 73.5635C122.606 74.1003 120.424 75.3108 118.369 76.9668C117.076 78.006 115.853 79.1481 114.698 80.3243C113.648 81.3978 112.794 82.6198 111.766 83.7162C109.712 85.8974 107.576 88.0673 104.863 89.4263C104.055 89.8374 104.771 91.0366 105.579 90.6254C108.072 89.3692 110.069 87.4963 111.905 85.4292C113.96 83.088 116.199 80.8383 118.577 78.8054C121.209 76.5557 123.98 75.1738 127.431 74.6599C130.71 74.1688 133.976 73.9404 137.209 73.141C140.949 72.216 148.406 69.9319 145.866 64.5758C144.747 62.2118 141.976 61.5837 139.564 61.3667C136.124 61.0584 132.66 61.6979 129.255 62.0633C121.174 62.9199 113.105 62.8742 104.99 62.7486C104.286 62.76 104.321 63.7421 104.979 63.8106Z" fill="#1D2E43"/>
<path d="M140.221 67.2924C141.191 67.6007 142.218 67.6579 143.199 67.3609C144.192 67.064 145.116 66.5387 145.762 65.7278C146.074 65.3281 145.577 64.7914 145.185 65.1568C144.538 65.7621 143.788 66.3103 142.945 66.6072C142.091 66.9155 141.168 67.1097 140.256 67.0526C140.117 67.0526 140.094 67.2467 140.221 67.2924Z" fill="#1D2E43"/>
<path d="M139.343 69.9637C139.701 70.1807 140.036 70.352 140.452 70.4319C140.833 70.5005 141.225 70.5576 141.606 70.5804C142.391 70.6375 143.211 70.489 143.972 70.2835C144.4 70.1693 144.215 69.564 143.788 69.6325C143.06 69.7696 142.333 69.7696 141.606 69.7581C141.26 69.7581 140.913 69.7353 140.567 69.6896C140.371 69.6668 140.186 69.6325 139.99 69.6325C139.805 69.6325 139.62 69.6325 139.436 69.6211C139.251 69.6325 139.193 69.8723 139.343 69.9637Z" fill="#1D2E43"/>
<path d="M72.1015 68.104C75.0105 67.0762 77.7232 65.3174 80.4014 63.8214C83.2527 62.234 86.0578 60.578 88.8629 58.9221C94.4731 55.5988 100.014 52.1613 105.474 48.6096C106.49 47.9472 105.544 46.337 104.516 46.9879C99.0329 50.5054 93.515 54 87.9625 57.4032C85.2613 59.0591 82.5485 60.6808 79.8357 62.3253C77.1345 63.9699 74.1562 65.4431 71.709 67.453C71.4204 67.6929 71.7436 68.2296 72.1015 68.104Z" fill="#1D2E43"/>
<path d="M71.9864 111.236C72.1365 111.704 72.4828 112.07 72.7829 112.447C73.1754 112.938 73.5679 113.429 73.9489 113.931C74.653 114.845 75.3572 115.77 76.0498 116.695C77.435 118.545 78.751 120.452 80.1016 122.337C80.5057 122.908 81.4638 122.382 81.0598 121.777C79.7553 119.824 78.3239 117.94 76.8809 116.078C76.1883 115.188 75.4842 114.297 74.7685 113.417C74.4106 112.983 74.0527 112.549 73.6949 112.115C73.3255 111.682 72.9792 111.133 72.4597 110.859C72.2288 110.745 71.8941 110.962 71.9864 111.236Z" fill="#1D2E43"/>
<path d="M71.8129 68.1277C74.7334 71.7936 77.4116 75.6422 80.0089 79.5365C80.3783 80.0961 81.2902 79.5822 80.9208 79.0112C78.3697 75.0027 75.276 71.3939 71.8706 68.0706C71.8244 68.0363 71.7782 68.082 71.8129 68.1277Z" fill="#1D2E43"/>
<path d="M80.1132 79.0442C79.8592 86.1933 80.3556 93.4109 80.3787 100.571C80.3902 104.066 80.3787 107.561 80.4017 111.055C80.4133 112.848 80.4248 114.641 80.4248 116.434C80.4248 117.382 80.4248 118.318 80.4248 119.266C80.4248 119.906 80.8289 121.516 80.4248 122.019C79.9977 122.544 80.6788 123.263 81.1867 122.772C82.0409 121.95 81.8216 120.328 81.8332 119.255C81.8562 117.371 81.8447 115.475 81.8447 113.59C81.8447 109.719 81.787 105.848 81.6831 101.976C81.5792 98.196 81.4407 94.4158 81.3137 90.6472C81.1867 86.7871 81.1752 82.8814 80.748 79.0327C80.7134 78.6445 80.1247 78.6216 80.1132 79.0442Z" fill="#1D2E43"/>
<path d="M12.3058 67.5788C13.0908 67.6701 13.8989 67.3275 14.6723 67.1448C15.5496 66.9278 16.4154 66.688 17.2812 66.4367C19.0127 65.9457 20.7558 65.466 22.4874 64.9749C24.1612 64.5067 25.8466 64.0499 27.5204 63.5588C28.998 63.1249 30.568 62.7023 31.9301 61.9714C32.4496 61.6973 32.0917 60.818 31.5261 61.0121C29.9792 61.5717 28.4901 62.177 26.9086 62.6452C25.2232 63.1363 23.5263 63.6045 21.8409 64.0842C20.1094 64.5752 18.3663 65.0663 16.6347 65.5574C15.769 65.8086 14.9032 66.0599 14.0374 66.3339C13.3563 66.5509 12.6752 66.6766 12.1096 67.1219C11.9134 67.2818 12.1096 67.5559 12.3058 67.5788Z" fill="#1D2E43"/>
<path d="M31.5489 61.3765C31.4796 61.6163 31.3873 61.8561 31.3757 62.1074C31.3642 62.3244 31.3642 62.5528 31.3642 62.7812C31.3527 63.2608 31.3296 63.7519 31.3527 64.2316C31.3988 65.1909 31.4565 66.173 31.4104 67.1323C31.3873 67.6119 32.1723 67.6119 32.1723 67.1323C32.1607 66.1616 32.2415 65.1909 32.2761 64.2316C32.2877 63.7405 32.2531 63.2608 32.23 62.7812C32.2184 62.5528 32.2069 62.3358 32.1838 62.1074C32.1607 61.8561 32.0684 61.6277 31.976 61.3765C31.8952 61.1823 31.6066 61.1709 31.5489 61.3765Z" fill="#1D2E43"/>
<path d="M12.0175 67.0089C11.752 68.5049 11.8328 70.0353 11.8212 71.5541C11.8097 73.3471 11.7404 75.1401 11.8097 76.9331C11.9597 80.4163 12.0405 83.9109 12.1098 87.4055C12.2599 94.3833 12.1675 101.372 12.4215 108.339C12.4446 108.876 13.2411 108.876 13.2642 108.339C13.472 101.372 13.2411 94.3718 13.1372 87.4055C13.0795 84.0137 13.0102 80.6218 12.9756 77.2186C12.964 75.4256 12.8024 73.6326 12.687 71.8397C12.5831 70.2294 12.5716 68.5849 12.1791 67.0089C12.156 66.9404 12.029 66.9289 12.0175 67.0089Z" fill="#1D2E43"/>
<path d="M31.4913 61.8012C32.3917 62.0067 33.3614 62.0182 34.2849 62.0867C35.2315 62.1552 36.1665 62.2694 37.1015 62.4179C37.5517 62.4864 37.7595 61.8126 37.2978 61.7212C36.3397 61.5385 35.37 61.3786 34.4003 61.2644C33.4537 61.1502 32.4379 61.0474 31.4913 61.2073C31.1912 61.253 31.2027 61.7326 31.4913 61.8012Z" fill="#1D2E43"/>
<path d="M38.348 62.7243C38.8444 63.2268 39.5832 63.2383 40.2527 63.3753C41.13 63.558 42.0073 63.7293 42.9078 63.8664C44.6278 64.129 46.3478 64.3803 48.0678 64.6201C49.7878 64.8599 51.5193 65.0541 53.2278 65.3282C54.7631 65.5794 56.6217 66.0819 58.157 65.705C58.5725 65.6023 58.6995 64.9513 58.2839 64.7457C56.8641 64.0605 54.9594 64.129 53.4125 64.0148C51.681 63.8778 49.9609 63.638 48.2409 63.421C46.4401 63.1926 44.6508 62.9413 42.85 62.6787C42.0304 62.5645 41.2224 62.4731 40.4028 62.3932C39.7217 62.3246 39.0291 62.0962 38.3942 62.416C38.2787 62.4845 38.2672 62.6444 38.348 62.7243Z" fill="#1D2E43"/>
<path d="M63.2597 66.6206C65.9147 67.2601 68.6391 67.8882 71.3749 68.0024C71.5827 68.0138 71.7328 67.8539 71.802 67.6826C71.8367 67.6027 71.8251 67.5342 71.802 67.4428C71.7443 67.2487 71.5712 67.123 71.3749 67.123C70.0243 67.0659 68.6968 66.8604 67.3693 66.6206C66.0302 66.3807 64.6911 66.1866 63.3405 66.0039C62.9827 65.9468 62.9018 66.5406 63.2597 66.6206Z" fill="#1D2E43"/>
<path d="M32.0217 61.6065C33.4762 61.3438 34.7922 60.3617 36.0505 59.6422C37.4126 58.8542 38.7748 58.0776 40.1254 57.2668C42.9767 55.5423 45.7818 53.7493 48.5984 51.9792C54.151 48.4846 59.5996 44.8301 65.1405 41.3127C65.8909 40.833 65.1636 39.6225 64.4479 40.1364C59.1032 43.9393 53.5507 47.4682 48.0213 50.9856C45.2854 52.7215 42.5265 54.4117 39.7791 56.1133C38.44 56.9356 37.124 57.7921 35.7965 58.6372C34.4921 59.4595 32.899 60.2018 31.9294 61.4123C31.8255 61.4923 31.8947 61.6179 32.0217 61.6065Z" fill="#1D2E43"/>
<path d="M64.5412 40.924C67.4963 42.2716 71.1095 42.6257 74.2725 43.3223C77.6663 44.0646 81.0486 44.864 84.4309 45.6292C90.9646 47.1024 97.4522 48.1417 104.136 48.5756C105.036 48.6327 105.036 47.2394 104.136 47.1823C97.3829 46.7712 90.8377 45.7206 84.2462 44.2473C81.0371 43.5279 77.8395 42.7855 74.6419 42.0318C72.9911 41.6435 71.3404 41.2438 69.7012 40.8555C68.1197 40.4787 66.4574 39.9762 64.8297 39.9419C64.3103 39.9191 64.0448 40.6956 64.5412 40.924Z" fill="#1D2E43"/>
<path d="M104.805 47.7887C104.17 49.2048 104.112 50.8151 104.008 52.3454C103.893 54.1841 103.847 56.0342 103.743 57.8842C103.535 61.4702 103.708 65.1018 103.731 68.6992C103.777 76.1224 103.754 83.5342 104.066 90.9573C104.089 91.5055 104.92 91.5055 104.932 90.9573C105.082 83.6255 104.874 76.3051 104.793 68.9847C104.759 65.4673 104.955 61.9613 104.966 58.4438C104.978 56.5937 105.082 54.7551 105.22 52.905C105.347 51.2376 105.659 49.5018 105.301 47.8572C105.278 47.6403 104.909 47.5717 104.805 47.7887Z" fill="#1D2E43"/>
<path d="M104.528 91.0572C102.531 91.8452 100.58 93.2042 98.7563 94.3348C96.7824 95.5568 94.8084 96.7902 92.8344 98.0236C90.8604 99.2455 88.9096 100.525 86.924 101.724C84.9154 102.934 82.6991 103.962 80.8636 105.412C80.3788 105.801 80.9906 106.44 81.487 106.212C83.5764 105.218 85.4349 103.711 87.3627 102.455C89.3828 101.153 91.4492 99.9307 93.4924 98.6631C95.4664 97.4297 97.4403 96.2077 99.4143 94.9744C100.396 94.3577 101.354 93.6953 102.323 93.0443C103.131 92.4962 104.009 91.9937 104.667 91.2856C104.747 91.1942 104.667 91.0001 104.528 91.0572Z" fill="#1D2E43"/>
<path d="M94.7503 41.0716C98.1672 39.1073 101.503 37.0516 105.024 35.2701C106.767 34.3907 108.522 33.5456 110.265 32.7005C112.089 31.8097 114.178 31.0674 115.783 29.8226C116.071 29.5942 115.748 29.1602 115.437 29.2402C113.451 29.7427 111.581 30.9532 109.757 31.844C107.956 32.7348 106.144 33.6141 104.355 34.5277C100.903 36.2865 97.3361 38.1023 94.531 40.7975C94.3924 40.9345 94.5771 41.1629 94.7503 41.0716Z" fill="#1D2E43"/>
<path d="M118.912 57.5271C122.975 56.0424 126.727 53.6099 130.479 51.5086C134.369 49.3387 138.455 47.3288 142.069 44.7249C142.415 44.4737 142.126 44.0055 141.745 44.1653C137.624 45.8898 133.78 48.3223 129.89 50.515C126.138 52.6278 122.11 54.5464 118.727 57.2301C118.6 57.3443 118.75 57.5842 118.912 57.5271Z" fill="#1D2E43"/>
<path d="M120.932 40.3883C119.708 42.2726 118.923 44.4196 117.93 46.4296C116.938 48.451 115.945 50.4952 114.848 52.4709C113.775 54.4009 112.609 56.2853 111.235 58.0212C110.519 58.9234 109.757 59.7913 108.926 60.6021C108.037 61.4815 106.998 62.0639 106.006 62.8062C105.648 63.0803 105.682 63.8455 106.271 63.777C108.441 63.5257 110.254 61.3787 111.627 59.8484C113.209 58.0897 114.617 56.1482 115.829 54.1154C117.053 52.0598 118.115 49.9013 118.946 47.663C119.812 45.3332 120.828 42.9578 121.22 40.5025C121.255 40.3312 121.036 40.2284 120.932 40.3883Z" fill="#1D2E43"/>
<path d="M30.187 68.7312C32.034 67.3722 33.754 65.8305 35.5548 64.4144C36.4667 63.6949 37.4018 62.9868 38.2445 62.2103C38.9602 61.5479 40.0915 60.7942 40.2069 59.7549C40.2184 59.6864 40.1261 59.595 40.0568 59.6064C39.572 59.6521 39.1333 59.9376 38.7755 60.246C38.3253 60.6343 37.8866 61.034 37.4249 61.4108C36.5475 62.1532 35.7049 62.9526 34.8506 63.7406C33.1883 65.2709 31.3875 66.8126 30.1523 68.7198C30.1523 68.7198 30.1754 68.7427 30.187 68.7312Z" fill="#1D2E43"/>
<path d="M39.7332 60.1651C39.4908 60.4734 39.2137 60.7704 39.0175 61.113C38.7982 61.4784 38.6365 61.8895 38.4634 62.2778C38.1171 63.0658 37.8516 63.8767 37.6092 64.6989C37.3898 65.4527 37.1128 66.3434 37.3321 67.12C37.4822 67.6568 38.0363 68.4676 38.6827 68.2506C38.7982 68.2164 38.8674 68.1022 38.8328 67.988C38.7635 67.7139 38.5904 67.5654 38.4749 67.3142C38.371 67.0972 38.3249 66.8117 38.3018 66.5718C38.2325 65.8524 38.5211 65.0872 38.7289 64.4134C38.9367 63.7282 39.1676 63.043 39.3869 62.3578C39.4908 62.038 39.6178 61.7297 39.7101 61.4099C39.814 61.0444 39.8602 60.6562 39.9294 60.2907C39.9641 60.1765 39.814 60.0623 39.7332 60.1651Z" fill="#1D2E43"/>
<path d="M65.9492 60.3602C64.714 60.8513 63.4904 61.3424 62.3591 62.039C61.1701 62.7699 60.0157 63.5351 58.8845 64.3345C57.8224 65.0882 56.772 65.8762 55.7561 66.6756C55.2251 67.0982 54.6941 67.5321 54.14 67.9319C53.5859 68.3201 52.951 68.5828 52.42 68.9939C52.0968 69.2338 52.2815 69.6906 52.6855 69.6335C53.8168 69.4736 54.8903 68.4915 55.7561 67.8062C56.8643 66.9383 57.9841 66.0704 59.15 65.2595C60.2466 64.4829 61.3779 63.7406 62.5092 63.0211C63.7328 62.2446 64.8641 61.388 66.03 60.5544C66.0993 60.4858 66.0531 60.326 65.9492 60.3602Z" fill="#1D2E43"/>
<path d="M65.8105 60.5793C64.7485 61.6072 63.7327 62.7378 63.0516 64.0511C62.3359 65.4329 61.7933 66.8833 61.4239 68.3908C61.0661 69.8297 60.7775 71.4172 60.9737 72.9132C61.0776 73.6441 61.3316 74.3408 61.6779 74.9917C62.0242 75.6427 62.4167 76.4535 63.0516 76.8418C63.4902 77.1159 63.952 76.6705 63.8712 76.2251C63.7442 75.5741 63.2017 75.026 62.89 74.4435C62.5552 73.8154 62.3243 73.1645 62.2435 72.4564C62.0819 71.0517 62.3359 69.5442 62.6706 68.1738C62.9823 66.8491 63.4556 65.5472 64.0674 64.3252C64.6792 63.0918 65.2333 61.8584 65.9952 60.705C66.0529 60.6022 65.9029 60.4994 65.8105 60.5793Z" fill="#1D2E43"/>
<path d="M65.2678 60.8648C65.1524 60.9561 65.0369 61.0361 64.9215 61.1274C64.8522 61.1845 64.7599 61.2302 64.7022 61.2987C64.6444 61.3558 64.5983 61.4129 64.5521 61.47C64.5059 61.5271 64.4597 61.5728 64.4136 61.6299C64.3443 61.7099 64.2519 61.7898 64.2058 61.8926C64.1481 62.0411 64.1019 62.1781 64.0673 62.338C64.0442 62.4179 64.0673 62.4979 64.1365 62.5435C64.2058 62.6006 64.2866 62.5892 64.3674 62.555C64.4944 62.4979 64.6214 62.4408 64.7368 62.3608C64.8407 62.2923 64.9099 62.1895 64.9792 62.0982C65.0254 62.0411 65.0716 61.984 65.1177 61.9154C65.1639 61.8583 65.1985 61.8012 65.2447 61.7441C65.2909 61.687 65.314 61.6185 65.3486 61.55C65.4179 61.4129 65.4756 61.2873 65.5448 61.1503C65.5795 61.0703 65.5795 60.979 65.5102 60.9104C65.464 60.8419 65.3371 60.8077 65.2678 60.8648Z" fill="#1D2E43"/>
<path d="M63.0515 63.3071C61.597 65.0886 60.9967 67.5897 60.7659 69.8395C60.5581 71.9294 60.7774 74.6246 62.3935 76.1549C62.6937 76.4404 63.2939 76.1549 63.1439 75.7209C62.7976 74.7502 62.3473 73.8137 62.1049 72.8087C61.8741 71.838 61.8048 70.833 61.8625 69.8395C61.9895 67.6125 63.0284 65.6482 63.3401 63.4784C63.3747 63.3299 63.1785 63.1586 63.0515 63.3071Z" fill="#1D2E43"/>
<path d="M61.3087 71.1415C61.3779 71.1415 61.3779 71.0273 61.3087 71.0273C61.2278 71.0273 61.2278 71.1415 61.3087 71.1415Z" fill="#1D2E43"/>
<path d="M66.1803 79.1569C66.4574 79.0313 66.6652 78.8257 66.8499 78.5859C67.0461 78.3232 67.1385 77.9578 67.2193 77.6494C67.4501 76.8843 67.6579 76.0963 67.5656 75.2969C67.5656 75.2626 67.5194 75.2626 67.5079 75.2855C67.2308 75.9707 67.1038 76.7016 66.8845 77.3982C66.7922 77.6951 66.6883 77.9921 66.5497 78.2776C66.4112 78.5631 66.3189 78.8143 66.0649 79.0199C66.0072 79.0998 66.0995 79.1912 66.1803 79.1569Z" fill="#1D2E43"/>
<path d="M67.3806 75.4004C67.242 75.6288 67.0804 75.8229 66.9073 76.0285C66.7226 76.234 66.5725 76.4624 66.3532 76.6566C66.1569 76.8393 65.9376 77.0106 65.7298 77.1819C65.6144 77.2733 65.522 77.3532 65.4412 77.4903C65.3835 77.5931 65.3258 77.6958 65.2565 77.7986C65.2219 77.8557 65.2681 77.9128 65.3258 77.9128C65.4181 77.9128 65.5105 77.9699 65.6028 77.9813C65.6836 77.9928 65.7644 77.9928 65.8568 77.9699C66.0184 77.9357 66.18 77.89 66.3301 77.8329C66.6418 77.7073 66.9765 77.4789 67.1381 77.1819C66.9765 77.1591 66.8149 77.1362 66.6533 77.1134C66.6648 77.1705 66.4571 77.3761 66.3878 77.4332C66.2608 77.536 66.1223 77.6273 65.9953 77.7415C66.1685 77.8443 66.3532 77.9471 66.5263 78.0499C66.6418 77.6958 66.7918 77.3646 66.9534 77.0335C67.0458 76.8507 66.9881 76.5652 66.7456 76.5196C66.5609 76.4853 66.3993 76.4739 66.2031 76.4739C66.0415 76.4739 65.8914 76.451 65.7298 76.4168C65.4297 76.3368 65.1642 76.1884 64.8871 76.0513C64.5985 75.9029 64.3446 75.7201 64.0791 75.5374C63.9521 75.446 63.8251 75.3775 63.7097 75.2747C63.5827 75.172 63.5019 75.0235 63.3287 74.9892C63.1902 74.9664 63.0401 75.0235 63.0055 75.172C62.9247 75.5031 63.2941 75.9371 63.5134 76.1655C63.7674 76.451 64.1137 76.7023 64.4369 76.9078C64.7601 77.1248 65.1873 77.2619 65.5682 77.3304C65.9953 77.3989 66.4801 77.4446 66.838 77.1705C66.6648 77.0677 66.4801 76.9649 66.307 76.8622C66.2724 77.2162 66.1569 77.5131 65.9722 77.8215C65.8337 78.0384 66.0646 78.3811 66.3301 78.2783C66.584 78.1755 66.7456 78.0499 66.8957 77.81C67.0112 77.6159 67.0342 77.3646 67.1728 77.1819C67.3344 76.9649 67.0227 76.6794 66.8034 76.8165C66.5609 76.9649 66.3532 77.1705 66.1107 77.3304C65.9953 77.3989 65.8799 77.4674 65.7529 77.5131C65.6952 77.536 65.6375 77.5588 65.5797 77.5931C65.4989 77.6502 65.4412 77.7301 65.3373 77.7529C65.3373 77.7986 65.3373 77.8557 65.3373 77.9014C65.4758 77.9357 65.6144 77.9585 65.7529 77.9699C65.9376 77.9813 66.0761 77.9242 66.2262 77.8329C66.5263 77.673 66.7572 77.4674 66.9765 77.1933C67.1728 76.9421 67.4036 76.6452 67.496 76.3368C67.5768 76.0513 67.5999 75.7316 67.5999 75.4346C67.5883 75.3547 67.4383 75.309 67.3806 75.4004Z" fill="#1D2E43"/>
<path d="M112.967 42.8526C113.302 42.944 113.671 42.7613 114.017 42.727C114.387 42.6927 114.791 42.6813 115.16 42.7042C115.853 42.7498 116.557 43.0125 117.065 43.4807C117.561 43.9261 117.896 44.4972 118.035 45.1481C118.104 45.445 118.115 45.7762 118.069 46.0731C118.046 46.2445 118 46.4158 117.988 46.5985C117.977 46.7698 117.965 46.9411 117.931 47.1124C117.885 47.3294 118.127 47.4664 118.289 47.318C118.519 47.1124 118.785 46.8497 118.877 46.5528C118.97 46.2445 119.004 45.9018 119.004 45.5821C118.993 44.9197 118.808 44.2573 118.485 43.6749C117.769 42.4415 116.338 41.802 114.929 41.8248C114.514 41.8362 114.121 41.9162 113.74 42.0761C113.406 42.2131 113.025 42.3387 112.875 42.6813C112.84 42.7613 112.898 42.8412 112.967 42.8526Z" fill="#1D2E43"/>
<path d="M110.669 46.0158C110.981 46.1872 111.396 46.21 111.743 46.347C112.158 46.5183 112.551 46.7582 112.897 47.0323C113.648 47.6261 114.109 48.4484 114.34 49.3734C114.583 50.3213 114.594 51.2577 114.375 52.2056C114.259 52.6853 114.109 53.1535 113.89 53.5875C113.682 54.01 113.521 54.4212 113.509 54.8894C113.497 55.1521 113.821 55.3234 114.04 55.1863C114.963 54.6153 115.148 53.302 115.241 52.3084C115.344 51.2121 115.264 50.0129 114.94 48.9509C114.652 47.9801 114.109 47.1236 113.301 46.4955C112.932 46.21 112.516 46.0044 112.078 45.8445C111.685 45.7075 111.119 45.5248 110.715 45.6618C110.565 45.7303 110.519 45.9359 110.669 46.0158Z" fill="#1D2E43"/>
<path d="M105.694 47.6601C105.486 47.9456 105.29 48.2082 105.186 48.5394C105.093 48.8478 105.013 49.1447 104.932 49.453C104.863 49.7614 104.782 50.0812 104.759 50.4009C104.747 50.5608 104.736 50.7093 104.724 50.8692C104.713 51.0405 104.689 51.2232 104.736 51.3831C104.77 51.5201 104.99 51.5544 105.059 51.4288C105.197 51.1661 105.22 50.8235 105.301 50.538C105.394 50.2182 105.44 49.8984 105.521 49.5787C105.601 49.2703 105.682 48.962 105.786 48.665C105.89 48.3681 105.878 48.0369 105.913 47.7172C105.936 47.5915 105.751 47.5801 105.694 47.6601Z" fill="#1D2E43"/>
<path d="M94.7276 46.4391C98.133 46.9073 101.596 47.5126 105.048 47.4783C105.394 47.4783 105.394 46.9416 105.048 46.9416C103.362 46.9416 101.7 46.7703 100.038 46.5533C98.2946 46.3249 96.5054 46.3363 94.7392 46.3592C94.693 46.3592 94.6815 46.4277 94.7276 46.4391Z" fill="#1D2E43"/>
<path d="M34.6892 59.4708C33.9966 59.8591 33.2809 60.2131 32.5652 60.5671C32.2188 60.7384 31.8725 60.9097 31.5262 61.0582C31.33 61.1496 31.1337 61.2295 30.926 61.3094C30.7528 61.378 30.5912 61.4351 30.4527 61.5607C30.3719 61.6292 30.4411 61.7663 30.5335 61.7663C30.7413 61.7663 30.9029 61.6977 31.0876 61.6178C31.2723 61.5493 31.4454 61.4693 31.6301 61.3894C31.9995 61.2295 32.3574 61.0696 32.7152 60.8869C33.4425 60.5214 34.112 60.076 34.77 59.5964C34.8508 59.5507 34.7815 59.4251 34.6892 59.4708Z" fill="#1D2E43"/>
<path d="M32.0795 61.4469C31.8717 62.2577 31.7909 63.0686 31.7216 63.9022C31.6523 64.7473 31.5946 65.5924 31.56 66.4375C31.5369 67.0086 32.4835 66.9971 32.4489 66.4375C32.4027 65.6153 32.368 64.7816 32.368 63.9593C32.3565 63.1257 32.3796 62.3148 32.3219 61.4811C32.3103 61.3555 32.1141 61.3098 32.0795 61.4469Z" fill="#1D2E43"/>
<path d="M56.5875 64.4152C57.0607 64.4495 57.4301 64.7807 57.8804 64.8949C58.1228 64.952 58.3883 64.9063 58.6307 64.8834C58.7461 64.872 58.85 64.872 58.9655 64.872C59.1386 64.872 59.2541 64.872 59.3926 64.7464C59.2541 64.6436 59.1271 64.5408 58.9885 64.438C58.9655 64.4837 58.9424 64.5408 58.9308 64.5979C58.9193 64.6664 58.9424 64.735 59.0001 64.7692C59.0463 64.7921 59.0924 64.8035 59.1502 64.8263C59.3579 64.8834 59.5773 64.6436 59.4388 64.4495C59.3349 64.301 59.2079 64.2439 59.0232 64.2553C58.8962 64.2553 58.7692 64.2782 58.6422 64.2896C58.3998 64.3238 58.1459 64.3353 57.8919 64.3809C57.7765 64.4038 57.6726 64.4152 57.5571 64.4038C57.4532 64.3924 57.3493 64.3695 57.2454 64.3467C57.0261 64.3124 56.8068 64.2782 56.5875 64.3238C56.5067 64.3238 56.5297 64.4152 56.5875 64.4152Z" fill="#1D2E43"/>
<path d="M63.259 66.1953C63.8708 66.5608 64.5865 66.6179 65.2791 66.6978C65.9717 66.7778 66.6644 66.8349 67.3454 66.9148C68.8923 67.0861 70.4276 67.3716 71.9514 67.7142C72.39 67.817 72.5747 67.166 72.1361 67.0404C70.6585 66.6407 69.1463 66.3552 67.6225 66.1496C66.9414 66.0583 66.2603 66.0012 65.5908 65.9098C64.8635 65.8185 64.1709 65.5786 63.4552 65.4987C63.0512 65.453 62.9588 66.024 63.259 66.1953Z" fill="#1D2E43"/>
<path d="M71.6636 68.024C71.9407 68.458 72.1946 68.9148 72.5179 69.3145C72.8526 69.7256 73.1759 70.1368 73.5106 70.5365C74.1686 71.3473 74.8843 72.1125 75.6 72.8776C75.7155 73.0032 75.9348 72.8434 75.8309 72.6949C75.2306 71.8384 74.6419 70.9933 73.9839 70.1824C73.6607 69.7827 73.3375 69.3944 73.0258 68.9947C72.691 68.5722 72.287 68.2182 71.8945 67.8413C71.7791 67.7271 71.5713 67.8756 71.6636 68.024Z" fill="#1D2E43"/>
<path d="M71.398 67.808C71.8828 68.0935 72.1137 68.7559 72.4369 69.2013C72.7948 69.6924 73.1526 70.1949 73.5105 70.6859C74.2031 71.6338 74.9188 72.5474 75.6692 73.4611C76.4772 74.4546 77.2391 75.471 77.9433 76.5331C78.6128 77.5381 79.3054 78.5545 80.2058 79.3768C80.379 79.5366 80.6214 79.3425 80.5291 79.1369C80.0096 77.9949 79.2131 77.0013 78.4166 76.042C77.5392 74.9685 76.7427 73.8379 75.9578 72.6959C75.2536 71.6567 74.5033 70.6517 73.7414 69.6581C73.1642 68.9158 72.5293 67.7623 71.5712 67.4654C71.3287 67.3741 71.2018 67.6938 71.398 67.808Z" fill="#1D2E43"/>
<path d="M80.6903 79.3303C80.6095 79.73 80.4941 80.1411 80.4595 80.5522C80.4133 80.9862 80.4248 81.4316 80.4133 81.8541C80.4018 82.2767 80.4017 82.6992 80.4017 83.1104C80.4017 83.5329 80.3902 83.9441 80.4941 84.3552C80.5287 84.4808 80.7134 84.4808 80.7596 84.3552C80.875 83.9669 80.875 83.5672 80.9097 83.1561C80.9443 82.7335 80.9789 82.311 81.0136 81.8998C81.0482 81.4773 81.1175 81.0661 81.1521 80.6436C81.1867 80.2325 81.1521 79.7985 81.1521 79.3874C81.1405 79.1361 80.7481 79.079 80.6903 79.3303Z" fill="#1D2E43"/>
<path d="M71.8945 111.522C71.8945 111.991 72.2755 112.47 72.5294 112.847C72.8757 113.361 73.2336 113.864 73.603 114.355C74.3418 115.325 75.1268 116.262 75.9117 117.198C76.7083 118.135 77.4701 119.117 78.2782 120.053C78.6822 120.522 79.0862 120.99 79.5134 121.447C79.9058 121.869 80.2983 122.372 80.7716 122.703C80.864 122.771 80.9794 122.646 80.9217 122.554C80.6331 122.086 80.1829 121.698 79.825 121.287C79.4326 120.853 79.0401 120.419 78.6591 119.985C77.8049 119.026 76.9276 118.055 76.1657 117.016C75.45 116.056 74.7689 115.074 74.0878 114.092C73.7531 113.612 73.4068 113.144 73.072 112.664C72.7949 112.265 72.4486 111.671 71.9984 111.477C71.9407 111.465 71.8945 111.477 71.8945 111.522Z" fill="#1D2E43"/>
<path d="M73.4867 113.499C74.4679 115.418 75.8416 117.062 77.2615 118.684C77.4115 118.536 77.5616 118.387 77.7232 118.227C77.1922 117.702 76.7074 117.154 76.2572 116.56C75.8185 115.989 75.4491 115.361 74.9874 114.801C74.8258 114.596 74.5487 114.858 74.6526 115.064C74.9643 115.738 75.4491 116.343 75.8993 116.925C76.3495 117.519 76.7997 118.102 77.273 118.684C77.527 119.004 78.0003 118.547 77.7348 118.227C76.3611 116.651 74.9296 115.087 73.8445 113.294C73.706 113.077 73.3712 113.271 73.4867 113.499Z" fill="#1D2E43"/>
<path d="M104.193 90.7155C102.265 91.4807 100.672 93.0795 98.906 94.153C96.932 95.3407 94.8541 96.3571 92.834 97.4649C88.7937 99.6919 85.2152 102.684 81.0941 104.74C80.5169 105.025 81.0248 105.87 81.602 105.596C83.7376 104.568 85.6538 103.221 87.5816 101.85C89.4748 100.503 91.4257 99.2693 93.4343 98.0816C95.3621 96.951 97.2898 95.809 99.2176 94.6669C100.972 93.6163 103.2 92.6684 104.355 90.9211C104.412 90.8183 104.308 90.6699 104.193 90.7155Z" fill="#1D2E43"/>
<path d="M72.1133 67.5998C72.2287 68.1708 72.5981 68.582 72.9444 69.0388C73.3369 69.5527 73.7409 70.078 74.0872 70.6262C74.7568 71.6883 75.3801 72.7961 76.0843 73.8239C76.7538 74.806 77.5734 75.7196 78.3238 76.6447C78.7278 77.1472 79.1434 77.6497 79.5474 78.1522C79.7321 78.3806 79.9168 78.6546 80.1246 78.8602C80.3324 79.0544 80.5863 79.18 80.8287 79.3399C80.9442 79.4198 81.1058 79.2828 81.0712 79.1571C80.8865 78.5861 80.7018 78.175 80.367 77.6725C79.9976 77.1358 79.6397 76.599 79.2819 76.0622C78.5893 75.0458 77.9544 73.9495 77.1694 72.9902C76.4075 72.0537 75.5764 71.1515 74.8029 70.2151C74.3643 69.6783 73.9603 69.1073 73.5678 68.5363C73.2445 68.0795 72.9675 67.6113 72.4596 67.3257C72.2633 67.2458 72.0671 67.4057 72.1133 67.5998Z" fill="#1D2E43"/>
<path d="M64.5988 39.8731C63.6406 40.8895 62.3593 41.609 61.1472 42.2942C59.7042 43.1165 58.2844 43.9958 56.8183 44.761C53.8516 46.3142 50.9657 47.9587 48.1259 49.7517C42.4811 53.3148 36.513 56.4097 31.1105 60.3268C30.3602 60.875 30.9951 61.9942 31.8493 61.5716C38.0945 58.4996 43.8548 54.4911 49.8575 50.9851C52.8473 49.2378 55.6062 47.2278 58.5037 45.3663C60.8702 43.8474 63.3867 42.5341 64.8874 40.0901C65.0143 39.9188 64.7488 39.7247 64.5988 39.8731Z" fill="#1D2E43"/>
<path d="M30.8567 61.2184C30.7298 61.3441 30.7413 61.5268 30.7298 61.6981C30.7067 61.9608 30.7067 62.2349 30.7067 62.4975C30.6951 63.0114 30.7067 63.5253 30.7298 64.0507C30.7529 64.5646 30.7759 65.0899 30.799 65.6038C30.8106 65.8779 30.8452 66.1406 30.8683 66.4033C30.9029 66.6773 30.9029 66.9743 30.9837 67.2369C31.2031 67.0199 31.4224 66.803 31.6302 66.5974C31.4686 66.5746 31.3647 66.5746 31.2261 66.6545C30.8567 66.8258 30.9029 67.374 31.2261 67.5567C31.6071 67.7737 31.9765 67.4882 32.0227 67.0999C32.0573 66.8372 31.988 66.5631 31.9649 66.3005C31.9303 66.0264 31.9072 65.7409 31.861 65.4668C31.7802 64.9529 31.6879 64.4504 31.6071 63.9365C31.5263 63.4226 31.4224 62.9201 31.3069 62.4176C31.2492 62.1549 31.1915 61.8922 31.1107 61.641C31.0645 61.4811 31.0414 61.2984 30.8914 61.207C30.8798 61.207 30.8683 61.207 30.8567 61.2184Z" fill="#1D2E43"/>
<path d="M11.7056 67.6342C12.4214 67.8055 13.0909 67.5657 13.7951 67.3944C14.6724 67.1888 15.5382 66.9718 16.4039 66.732C18.1932 66.2523 19.994 65.7727 21.7833 65.2816C23.5148 64.802 25.2348 64.3223 26.9549 63.797C27.8091 63.5343 28.6749 63.2831 29.5291 63.0204C30.3141 62.7806 31.1106 62.6321 31.757 62.1182C32.1726 61.7984 31.7917 61.216 31.3645 61.1818C30.5449 61.1247 29.7484 61.4901 28.975 61.7185C28.1208 61.9697 27.255 62.221 26.4008 62.4722C24.6808 62.9747 22.9607 63.4886 21.2407 64.0026C19.5207 64.5165 17.8007 65.019 16.0807 65.51C15.2149 65.7613 14.3607 66.0125 13.5065 66.2752C12.8138 66.4808 12.1212 66.6064 11.5902 67.1089C11.394 67.2802 11.4748 67.5885 11.7056 67.6342Z" fill="#1D2E43"/>
<path d="M11.382 67.2794C10.9549 68.7184 11.2435 70.3743 11.3012 71.8475C11.3705 73.6291 11.4282 75.4107 11.4744 77.1922C11.5782 80.664 11.636 84.1357 11.6591 87.6075C11.7052 94.551 11.7629 101.506 11.7168 108.449C11.7052 109.226 12.9173 109.226 12.9289 108.449C13.0328 101.506 13.0558 94.551 12.8596 87.6075C12.7672 84.2271 12.6518 80.8467 12.5364 77.4663C12.4787 75.6847 12.4094 73.9032 12.3401 72.1216C12.2824 70.5685 12.4556 68.7412 11.8668 67.268C11.786 67.051 11.4628 67.0168 11.382 67.2794Z" fill="#1D2E43"/>
<path d="M31.0521 62.6547C29.6322 62.5062 28.1085 62.826 26.7232 63.1343C25.1648 63.4884 23.618 63.9223 22.0711 64.322C19.0236 65.0986 15.9645 65.8524 12.9516 66.7089C12.4437 66.8573 12.663 67.5882 13.1709 67.4855C16.2531 66.8688 19.3353 66.1493 22.3943 65.4641C23.895 65.1215 25.4072 64.8017 26.9079 64.4362C28.3162 64.0936 29.8977 63.6597 31.1214 62.8602C31.2022 62.7917 31.156 62.6661 31.0521 62.6547Z" fill="#1D2E43"/>
<path d="M32.0336 62.3352C32.3799 62.4608 32.7608 62.4723 33.1187 62.5179C33.4881 62.5636 33.8459 62.5979 34.2153 62.6436C34.9426 62.7235 35.6698 62.8035 36.3971 62.8491C36.2124 62.6093 36.0277 62.3695 35.8545 62.1411C35.8545 62.1639 35.843 62.1868 35.843 62.2096C35.7737 62.5979 36.0738 62.9405 36.4894 62.8491C36.5125 62.8491 36.5356 62.8377 36.5587 62.8377C36.8357 62.7806 37.0089 62.4837 36.9627 62.221C36.9165 61.9355 36.6972 61.7528 36.4086 61.73C35.6814 61.6957 34.9541 61.6843 34.2269 61.6957C33.8575 61.6957 33.4996 61.7071 33.1302 61.7071C32.7608 61.7071 32.4029 61.6843 32.0451 61.7756C31.7219 61.8442 31.768 62.2324 32.0336 62.3352Z" fill="#1D2E43"/>
<path d="M38.9945 62.2565C39.6524 62.679 40.5528 62.7476 41.3032 62.896C42.0651 63.0445 42.8385 63.1359 43.6119 63.2501C45.2742 63.4785 46.9365 63.7069 48.5988 63.9239C52.0042 64.3692 55.4211 64.769 58.838 65.1458C59.6807 65.2372 59.6807 63.9239 58.838 63.8325C55.4788 63.4785 52.1312 63.0902 48.7835 62.6676C47.0404 62.4506 45.2973 62.2222 43.5542 61.9824C42.85 61.891 42.1574 61.7883 41.4533 61.7197C40.6798 61.6512 39.8025 61.4571 39.0522 61.6741C38.7867 61.7426 38.7636 62.0966 38.9945 62.2565Z" fill="#1D2E43"/>
<path d="M63.2589 65.3395C63.7899 65.7506 64.6211 65.9105 65.2791 66.0704C66.0756 66.2759 66.8837 66.4244 67.6802 66.6071C69.2501 66.9611 70.8316 67.2695 72.4131 67.6007C73.2558 67.772 73.6252 66.5043 72.7709 66.3102C71.201 65.9562 69.631 65.5907 68.0496 65.2595C67.2761 65.0996 66.5027 64.9283 65.7293 64.7799C65.3599 64.7113 64.9789 64.6657 64.6095 64.62C64.2286 64.5743 63.8477 64.4829 63.4667 64.5629C63.155 64.6314 62.9819 65.1225 63.2589 65.3395Z" fill="#1D2E43"/>
<path d="M72.4829 66.9859C72.4598 67.0659 72.4483 67.1344 72.4252 67.2143C72.4252 67.2257 72.4137 67.2486 72.4137 67.26C72.3906 67.3285 72.3906 67.397 72.4021 67.477C72.4137 67.5113 72.4252 67.5455 72.4252 67.5798C72.4367 67.6255 72.4598 67.6711 72.4945 67.694C72.5406 67.7397 72.5868 67.7625 72.6561 67.7625C72.7022 67.7739 72.7484 67.7625 72.7946 67.7397C72.8177 67.7282 72.8408 67.7168 72.8523 67.7054C72.8869 67.6826 72.91 67.6597 72.9216 67.6255C72.9447 67.5912 72.9678 67.5684 72.9908 67.5341C73.0024 67.5113 73.0139 67.4884 73.0255 67.4542V67.4427C73.0255 67.4313 73.0255 67.4199 73.0255 67.4199C73.0255 67.3971 73.037 67.3856 73.037 67.3628C73.0486 67.2828 73.0601 67.2143 73.0716 67.1344C73.0832 67.0887 73.0832 67.0544 73.0716 67.0088C73.0716 66.9631 73.0601 66.9288 73.037 66.8946C73.0024 66.826 72.9216 66.7689 72.8523 66.7575C72.7715 66.7347 72.6792 66.7461 72.6099 66.7918C72.5637 66.8375 72.506 66.906 72.4829 66.9859Z" fill="#1D2E43"/>
<path d="M72.7832 66.9061C72.5177 67.4086 72.7139 67.9225 72.8871 68.425C73.0949 69.0303 73.3604 69.5785 73.6721 70.1381C74.2839 71.2687 74.9765 72.3193 75.7153 73.3586C76.431 74.375 77.1698 75.38 77.874 76.4078C78.6128 77.4927 79.2477 78.6233 79.9403 79.7425C80.2404 80.245 81.1524 79.9138 80.933 79.3314C80.0557 76.9902 78.532 74.8546 77.2044 72.7419C76.5464 71.6912 75.8885 70.6406 75.2536 69.5785C74.9303 69.0303 74.6302 68.4821 74.2839 67.9454C73.9837 67.4771 73.7413 66.9175 73.1757 66.7348C73.0372 66.712 72.8525 66.7805 72.7832 66.9061Z" fill="#1D2E43"/>
<path d="M71.5821 67.0654C70.9934 68.8355 71.1435 70.9369 71.0857 72.7869C71.0165 74.854 71.0396 76.9325 71.0511 79.011C71.0627 83.1565 71.0742 87.3135 71.0511 91.4591C71.028 95.6046 70.9357 99.7616 71.0396 103.907C71.0857 105.734 71.1435 107.573 71.282 109.4C71.409 111.068 71.7206 112.221 73.0251 113.329C73.2675 113.534 73.6369 113.34 73.5676 113.021C72.7942 109.446 73.2213 105.837 73.279 102.217C73.3483 98.2541 73.2329 94.2913 73.1752 90.3399C73.1174 86.4684 73.0597 82.6084 72.9674 78.7369C72.9212 76.7612 72.8981 74.7741 72.7596 72.7984C72.6326 70.9597 72.7249 68.8127 72.067 67.0768C71.9862 66.837 71.6629 66.8141 71.5821 67.0654Z" fill="#1D2E43"/>
<path d="M81.1638 105.037C82.1912 104.946 83.1494 104.42 84.0844 103.998C85.2388 103.473 86.3701 102.879 87.4782 102.251C89.6254 101.017 91.7379 99.7495 93.8504 98.4704C95.9051 97.2256 97.8906 95.8781 99.9223 94.6104C100.996 93.9366 102.081 93.2628 103.155 92.5776C104.217 91.9038 104.817 91.0815 105.694 90.2136C105.775 90.1337 105.671 90.0195 105.579 90.0651C104.424 90.6133 103.432 90.9217 102.37 91.6754C101.388 92.372 100.407 93.0458 99.4029 93.7082C97.4058 95.0215 95.2818 96.175 93.1924 97.3284C91.0914 98.4819 88.9328 99.5554 86.7625 100.572C85.6774 101.074 84.5923 101.6 83.5188 102.136C82.5606 102.627 81.4178 103.061 80.6675 103.827C80.2519 104.226 80.5174 105.094 81.1638 105.037Z" fill="#1D2E43"/>
<path d="M103.778 48.4728C103.131 49.8775 103.062 51.5563 102.912 53.0866C102.739 54.8339 102.635 56.5926 102.566 58.3513C102.427 61.9944 102.623 65.5804 102.785 69.212C103.12 76.4753 103.835 83.7043 103.743 90.9904C103.743 91.4358 104.436 91.4358 104.447 90.9904C104.563 83.8299 104.205 76.6466 103.974 69.4975C103.858 65.9801 103.893 62.4284 103.962 58.9109C103.997 57.1522 104.066 55.3935 104.205 53.6462C104.332 51.9902 104.701 50.2201 104.482 48.5756C104.424 48.2444 103.905 48.1873 103.778 48.4728Z" fill="#1D2E43"/>
<path d="M103.997 90.3391C103.154 90.7046 102.392 91.3555 101.596 91.8352C100.788 92.3263 99.9797 92.8173 99.1716 93.3198C97.5555 94.3134 95.9279 95.2955 94.3117 96.2777C92.6841 97.2712 91.0449 98.2762 89.4172 99.2812C88.5745 99.7951 87.7318 100.32 86.9007 100.834C86.2427 101.245 85.527 101.577 85.0768 102.216C85.0075 102.308 85.123 102.41 85.2153 102.388C86.0811 102.262 86.8314 101.657 87.5702 101.223C88.4129 100.72 89.2671 100.206 90.1098 99.6923C91.749 98.7102 93.3882 97.7166 95.0159 96.7231C96.632 95.7409 98.2481 94.7588 99.8643 93.7652C100.672 93.2627 101.457 92.7488 102.231 92.1892C102.9 91.7096 103.685 91.2185 104.193 90.579C104.309 90.4533 104.159 90.2706 103.997 90.3391Z" fill="#1D2E43"/>
<path d="M123.229 74.7619C124.037 72.2837 122.513 68.8462 120.481 67.3159C118.346 65.7056 115.702 66.4708 114.432 68.6863C113.024 71.1302 112.805 74.1794 112.458 76.9203C112.251 78.5762 112.008 80.2322 111.581 81.8538C111.396 82.5619 111.177 83.2814 110.911 83.9666C110.611 84.7432 110.103 85.4741 109.884 86.2621C109.803 86.5476 110.15 86.7189 110.357 86.5362C111.2 85.8053 111.662 84.4805 112.054 83.4641C112.539 82.2193 112.851 80.9174 113.116 79.6155C113.636 77.0231 113.855 74.385 114.351 71.7926C114.79 69.5314 116.314 66.368 119.2 67.7156C120.435 68.298 121.439 69.3258 122.005 70.5478C122.64 71.9068 122.698 73.3115 122.917 74.7619C122.94 74.9217 123.182 74.8989 123.229 74.7619Z" fill="#1D2E43"/>
<path d="M96.5745 31.4312C100.915 29.9808 105.013 28.0622 108.938 25.7211C109.03 25.664 108.949 25.5383 108.857 25.584C104.863 27.6739 100.696 29.4669 96.459 31.0201C96.2051 31.1114 96.309 31.5111 96.5745 31.4312Z" fill="#1D2E43"/>
<path d="M137.069 53.2816C137.162 53.2816 137.162 53.1445 137.069 53.1445C136.977 53.156 136.977 53.2816 137.069 53.2816Z" fill="#1D2E43"/>
<path d="M136.17 54.2616C136.631 55.278 138.259 54.1245 138.802 53.839C140.325 53.0282 141.872 52.2402 143.431 51.475C144.966 50.7213 146.524 50.0132 148.106 49.3623C149.687 48.6999 151.407 48.1289 152.896 47.2952C153.127 47.1696 152.954 46.8612 152.735 46.9069C151.257 47.1467 149.78 47.7863 148.383 48.3116C147.067 48.8141 145.774 49.3965 144.493 49.9904C143.153 50.6071 141.826 51.258 140.533 51.9661C139.91 52.3087 139.298 52.6742 138.686 53.0396C138.155 53.3594 137.058 54.3415 136.377 54.056C136.239 53.9989 136.112 54.1245 136.17 54.2616Z" fill="#1D2E43"/>
<path d="M33.1415 62.0176C33.1069 62.3488 33.0376 62.68 33.0491 63.0112C33.0491 63.3195 33.0607 63.6279 33.0722 63.9362C33.0838 64.2445 33.0838 64.5529 33.0953 64.8612C33.0953 65.0325 33.1069 65.1924 33.1069 65.3637C33.1069 65.5008 33.0838 65.6378 33.2107 65.7406C33.2685 65.7863 33.3377 65.7863 33.407 65.7406C33.5224 65.6378 33.4993 65.5008 33.4993 65.3637C33.4993 65.1924 33.4993 65.0325 33.4993 64.8612C33.4993 64.5529 33.4993 64.2445 33.4993 63.9362C33.4993 63.6279 33.4993 63.3195 33.4993 63.0112C33.4993 62.68 33.4301 62.3374 33.3839 62.0176C33.3608 61.8691 33.1646 61.8691 33.1415 62.0176Z" fill="#1D2E43"/>
<path d="M34.3659 61.9716C34.3428 62.1657 34.3313 62.3713 34.3082 62.5654C34.2851 62.771 34.2851 62.9537 34.2966 63.1593C34.3082 63.3534 34.3197 63.559 34.3313 63.7532C34.3313 63.8445 34.3428 63.9359 34.3428 64.0272C34.3544 64.1414 34.3775 64.2214 34.4121 64.3356C34.4583 64.4498 34.5968 64.4498 34.643 64.3356C34.6891 64.2328 34.7122 64.1414 34.7238 64.0272C34.7353 63.9359 34.7469 63.8445 34.7469 63.7532C34.7699 63.559 34.7815 63.3534 34.8046 63.1593C34.8277 62.9537 34.8277 62.771 34.8161 62.5654C34.8046 62.3713 34.793 62.1657 34.7815 61.9716C34.793 61.6861 34.4005 61.6975 34.3659 61.9716Z" fill="#1D2E43"/>
<path d="M39.1099 62.5883C39.0175 63.2621 38.8674 63.9473 38.8213 64.6326C38.7751 65.3178 38.6712 66.0144 38.7751 66.6882C38.7982 66.8138 38.9829 66.791 39.006 66.6882C39.2022 66.0372 39.1791 65.3406 39.2253 64.6668C39.2715 63.9816 39.2253 63.285 39.2138 62.5997C39.2138 62.5426 39.1214 62.5312 39.1099 62.5883Z" fill="#1D2E43"/>
<path d="M40.6218 62.7031C40.518 63.8337 40.4141 64.9529 40.4141 66.0835C40.4141 67.1799 40.4487 68.2648 40.7142 69.3383C40.7604 69.5096 41.049 69.4753 41.0374 69.2926C40.9335 68.2077 40.8527 67.1114 40.8527 66.0264C40.8527 65.4897 40.8874 64.9529 40.8527 64.4162C40.8181 63.8452 40.795 63.2741 40.7604 62.7146C40.7488 62.6232 40.6334 62.6232 40.6218 62.7031Z" fill="#1D2E43"/>
<path d="M43.15 63.5027C43.1385 64.3592 43.1269 65.2272 43.1039 66.0837C43.0923 66.5177 43.1269 66.9402 43.15 67.3742C43.1731 67.7967 43.2077 68.185 43.3116 68.5962C43.3463 68.7104 43.5194 68.7104 43.5425 68.5962C43.7272 67.7967 43.7041 66.906 43.6349 66.0837C43.5656 65.2272 43.4848 64.3592 43.3924 63.5027C43.3809 63.3428 43.15 63.3428 43.15 63.5027Z" fill="#1D2E43"/>
<path d="M45.7943 63.5692C45.7019 64.243 45.6096 64.9053 45.6211 65.5791C45.6326 65.9103 45.6442 66.2529 45.6557 66.5841C45.6788 66.9153 45.6788 67.2693 45.7596 67.5891C45.7943 67.7147 46.0251 67.7376 46.0482 67.5891C46.0944 67.2693 46.0713 66.9496 46.0713 66.6184C46.0713 66.2872 46.0713 65.9446 46.0828 65.6134C46.0944 64.9396 46.0713 64.2772 46.0598 63.6034C46.0598 63.455 45.8173 63.4093 45.7943 63.5692Z" fill="#1D2E43"/>
<path d="M48.299 63.8077C48.2067 64.6871 48.1028 65.555 48.0912 66.4458C48.0797 66.8797 48.0797 67.3251 48.0682 67.7591C48.0566 68.1931 48.1028 68.5814 48.1836 69.0153C48.2067 69.141 48.426 69.141 48.4491 69.0153C48.5299 68.5928 48.5761 68.2045 48.5761 67.7591C48.5761 67.3251 48.5645 66.8797 48.5645 66.4458C48.553 65.5664 48.4606 64.6871 48.3798 63.8077C48.3683 63.762 48.299 63.762 48.299 63.8077Z" fill="#1D2E43"/>
<path d="M49.938 64.129C49.9149 64.6886 49.8803 65.2368 49.8572 65.7964C49.8341 66.3446 49.8687 66.9042 50.0073 67.4295C50.0419 67.5551 50.2381 67.5665 50.2728 67.4295C50.3766 66.8928 50.3766 66.3332 50.3189 65.7964C50.2612 65.2368 50.1919 64.6886 50.1342 64.129C50.1111 64.0148 49.938 64.0034 49.938 64.129Z" fill="#1D2E43"/>
<path d="M51.6694 63.8655C51.5886 64.6764 51.4732 65.5329 51.5193 66.3437C51.5655 67.1546 51.681 67.954 51.8657 68.742C51.8887 68.8333 52.0157 68.8105 52.0273 68.7191C52.0619 67.9083 52.085 67.1089 52.085 66.298C52.085 65.4872 52.0042 64.6764 52.0042 63.8655C52.0042 63.6485 51.6925 63.66 51.6694 63.8655Z" fill="#1D2E43"/>
<path d="M53.7246 64.5849C53.6784 64.9275 53.6322 65.2815 53.6092 65.6241C53.5976 65.7954 53.5861 65.9782 53.5745 66.1495C53.563 66.3322 53.5976 66.5035 53.6322 66.6862C53.6553 66.8119 53.8285 66.7662 53.84 66.6634C53.8631 66.4921 53.8862 66.3208 53.8747 66.1381C53.8631 65.9668 53.8631 65.8069 53.8516 65.6356C53.84 65.293 53.84 64.9503 53.8516 64.6077C53.8631 64.5278 53.7361 64.505 53.7246 64.5849Z" fill="#1D2E43"/>
<path d="M64.1834 66.3459C64.1718 67.4993 64.1603 68.6528 64.1372 69.8176C64.1257 70.9254 64.1488 72.1017 64.345 73.1866C64.3796 73.3579 64.622 73.3008 64.6336 73.1523C64.749 72.0446 64.6913 70.8683 64.599 69.7491C64.5066 68.6185 64.4143 67.4879 64.3104 66.3459C64.3219 66.2545 64.1949 66.2545 64.1834 66.3459Z" fill="#1D2E43"/>
<path d="M66.6069 66.6067C66.5722 67.5546 66.5491 68.5025 66.5145 69.4503C66.503 69.93 66.4799 70.3982 66.4914 70.8779C66.503 71.3347 66.4799 71.7915 66.653 72.2255C66.6992 72.3511 66.8608 72.3511 66.9185 72.2255C67.0802 71.7915 67.0571 71.3347 67.0571 70.8779C67.0571 70.3982 67.0224 69.93 66.9994 69.4503C66.9416 68.5025 66.8955 67.5546 66.8377 66.6067C66.8147 66.4696 66.6184 66.4696 66.6069 66.6067Z" fill="#1D2E43"/>
<path d="M69.5511 67.7147C69.4933 68.8453 69.3895 69.9759 69.3779 71.0951C69.3664 71.6547 69.3664 72.2257 69.3664 72.7853C69.3664 73.2992 69.2971 73.8588 69.401 74.3727C69.4125 74.4641 69.5626 74.4641 69.5857 74.3727C69.7011 73.8588 69.655 73.3106 69.6665 72.7853C69.678 72.2257 69.7011 71.6547 69.7127 71.0951C69.7358 69.9645 69.678 68.8339 69.655 67.7147C69.6319 67.6576 69.5511 67.6576 69.5511 67.7147Z" fill="#1D2E43"/>
<path d="M43.5889 124.225C47.7447 120.239 48.4604 114.255 50.3535 109.104C50.8499 107.757 51.404 106.135 52.5699 105.187C53.8513 104.148 55.6752 104.33 57.0373 105.084C58.2956 105.781 59.1845 106.969 59.6578 108.305C60.2119 109.824 60.0849 111.354 60.2696 112.918C60.3157 113.352 60.9622 113.512 61.0892 113.033C61.828 110.246 60.8237 106.66 58.5957 104.787C56.414 102.96 53.1587 103.154 51.3809 105.438C50.4459 106.637 49.9264 108.168 49.4416 109.572C48.876 111.183 48.4258 112.827 47.9525 114.472C46.9251 117.966 45.5745 121.141 43.3696 124.076C43.2888 124.19 43.4851 124.327 43.5889 124.225Z" fill="#1D2E43"/>
</g>
<defs>
<clipPath id="clip0_9381_6966">
<rect width="153" height="110" fill="white" transform="translate(0 22)"/>
</clipPath>
</defs>
</svg>
