<svg width="159" height="159" viewBox="0 0 159 159" fill="none" xmlns="http://www.w3.org/2000/svg">
<circle cx="56.5" cy="78.5039" r="56.5" fill="#BADDFE"/>
<path d="M37.4218 127.929L33.8467 124.363L34.4426 126.146L31.4633 125.552L26.1005 121.985L24.313 119.608L23.1548 112.655L22.5254 95.2386V78.0018V62.5481L23.1212 53.0382L23.7171 47.0945L29.0798 41.1508L38.6136 37.5845L45.168 35.8014L51.1266 37.5845L51.7224 36.9902L62.4479 36.3958V35.207L63.0437 34.6127V34.0183L65.4272 33.4239V27.4802L67.211 25.0624L70.3579 23.7929L81.0573 22.5234L78.5398 26.9666L69.7285 28.236L70.194 34.6127L86.2822 32.8296L91.0491 30.4521H92.2408L92.8366 31.0464L93.4325 31.6408L98.7952 31.0464L99.9869 29.8577L105.35 29.2633L110.117 30.4521L110.712 31.6408L116.671 32.2352L121.438 35.8014L122.63 39.3676L123.225 42.3395V59.5763L122.63 77.4074L122.034 85.1343L121.438 91.6724L120.842 95.833L120.246 103.56L118.459 106.532L115.479 109.504L106.541 112.475L90.4532 117.23L81.5153 119.608L62.4479 124.363L51.1266 126.74L41.5928 128.523L37.4218 127.929Z" fill="#F6F6F6"/>
<path d="M45.1461 49.1187C46.2271 48.7277 47.2964 48.4432 48.4244 48.2418C48.4596 48.2418 48.4714 48.2892 48.4361 48.301C46.4621 48.8699 44.1591 49.6401 43.4423 51.7851C43.3695 52.0006 43.2866 52.212 43.2036 52.4236C43.086 52.7234 42.9678 53.0252 42.8783 53.3375C42.7256 53.8945 42.6198 54.4633 42.5141 55.0321C42.4083 55.6484 42.3143 56.2527 42.2438 56.869C42.2304 56.9774 42.2194 57.0928 42.2082 57.212C42.1504 57.8223 42.0831 58.5325 41.6211 58.9191C41.1041 59.3576 40.4696 59.2746 40.07 58.7177C39.657 58.1194 39.8836 57.2131 40.0614 56.502C40.0808 56.4243 40.0997 56.3489 40.1171 56.2764C40.2933 55.5773 40.4813 54.8899 40.6928 54.2145L40.7587 54.0029C41.0965 52.9155 41.4999 51.6169 42.3378 50.8607C43.1838 50.1023 44.0768 49.5216 45.1461 49.1187Z" fill="#1D2E43"/>
<path fill-rule="evenodd" clip-rule="evenodd" d="M86.5383 22.7849C87.6452 22.6628 88.7818 22.6784 89.5614 23.3912C90.6081 24.3499 90.7228 26.0822 90.8144 27.4666C90.8236 27.6051 90.8325 27.7402 90.8422 27.8707C90.934 29.0626 90.8823 30.2641 90.7601 31.4602C90.8254 31.4482 90.8928 31.4409 90.9567 31.4341C91.0126 31.4281 91.0657 31.4223 91.1124 31.414C91.1516 31.4081 91.1908 31.4018 91.2299 31.3956C91.4258 31.3643 91.6216 31.333 91.8174 31.3429C92.2639 31.3785 92.6164 31.6273 92.8632 31.9947C92.9878 32.1805 93.065 32.3815 93.1142 32.5906C93.3706 32.4992 93.6408 32.4538 93.9123 32.4081C94.0209 32.3898 94.1297 32.3715 94.2379 32.3502C94.5797 32.2914 94.9273 32.2623 95.2725 32.2335C95.4139 32.2217 95.5549 32.2099 95.6949 32.1962C96.2119 32.1488 96.7289 32.0895 97.2459 32.0302C97.3281 32.0196 97.4118 32.0101 97.4963 32.0006C97.846 31.9609 98.209 31.9198 98.5321 31.7898C98.4492 31.5555 98.4883 31.2855 98.656 31.0704C98.9595 30.6826 99.4808 30.6112 99.9573 30.5458C100.034 30.5353 100.11 30.5249 100.183 30.5134C100.591 30.4432 100.994 30.3584 101.396 30.2739C102.351 30.073 103.3 29.8735 104.284 29.8735C105.536 29.8735 106.701 30.2321 107.884 30.5962C108.078 30.6559 108.272 30.7157 108.467 30.7741C108.594 30.8111 108.739 30.8439 108.89 30.8785C109.371 30.9878 109.923 31.1135 110.218 31.4377C110.437 31.6663 110.447 31.95 110.458 32.2402C110.459 32.2808 110.461 32.3214 110.463 32.3621C110.979 32.347 111.496 32.3361 112.014 32.3278C113.124 32.085 114.27 32.0343 115.412 32.1725C119.559 32.6702 122.215 36.3794 122.873 40.3138C123.218 42.375 123.205 44.5 123.192 46.6011V46.6348C123.189 47.2403 123.185 47.8438 123.19 48.4432C123.214 51.5362 123.225 54.6174 123.225 57.6985C123.225 69.8335 122.979 81.9921 121.475 94.0322C121.11 96.9238 120.687 99.8035 120.135 102.659L120.096 102.863C119.697 104.965 119.263 107.249 117.726 108.822C116.261 110.322 114.227 111.072 112.294 111.785C112.166 111.832 112.037 111.879 111.91 111.927C109.078 112.969 106.235 113.953 103.368 114.889C92.0877 118.551 80.5491 121.525 68.9635 124.05C66.0077 124.693 63.0519 125.33 60.0961 125.968L60.0264 125.984C57.0716 126.621 54.1169 127.258 51.1621 127.901C50.2131 128.107 49.2641 128.327 48.3146 128.548C46.5837 128.95 44.8509 129.353 43.1133 129.667C41.0688 130.046 38.8598 129.856 36.9915 128.861C33.2668 126.87 32.4442 122.367 32.268 118.492C32.0922 114.462 32.1012 110.411 32.1101 106.364C32.1143 104.46 32.1185 102.556 32.1035 100.657C32.0793 97.4578 32.1081 94.2621 32.1369 91.0663C32.164 88.0583 32.1911 85.0503 32.174 82.0395C32.1533 78.4098 32.036 74.772 31.9187 71.1356C31.8357 68.5627 31.7527 65.9905 31.704 63.4223C31.6934 62.8737 31.6789 62.3205 31.6645 61.7642C31.551 57.4056 31.4324 52.8525 33.0787 48.7751C34.8295 44.4496 38.5425 42.1625 42.9253 41.167C43.3865 41.0613 43.8493 40.9607 44.3134 40.8647C43.9456 40.7609 43.5773 40.6567 43.2073 40.5508C42.8995 40.4675 42.5916 40.3793 42.2838 40.2864C42.2518 40.2976 42.215 40.3032 42.1733 40.3019C36.5568 40.1123 29.9062 43.1461 28.3082 49.0713C27.6276 51.5851 27.5414 54.2172 27.4561 56.8197C27.4369 57.407 27.4177 57.9928 27.3917 58.5754C27.2272 62.1069 27.0392 65.6384 26.8042 69.158C26.45 74.3732 26.5229 79.649 26.5954 84.8991C26.6191 86.616 26.6428 88.3302 26.6515 90.0386C26.6985 96.9949 26.7925 103.951 26.8982 110.907C26.9071 111.518 26.9059 112.139 26.9047 112.764C26.8996 115.454 26.8943 118.241 27.6855 120.779C28.7077 124.05 31.3515 126.206 34.618 126.941C34.7473 126.965 34.712 127.166 34.5945 127.154C31.6687 126.799 29.1542 124.986 27.803 122.331C26.4295 119.643 26.3422 116.466 26.2595 113.462C26.2467 112.997 26.234 112.535 26.2167 112.081C25.8623 102.932 25.8518 93.7799 25.8413 84.6282C25.8337 78.0011 25.8261 71.3743 25.6879 64.7496C25.6757 64.1783 25.6617 63.6044 25.6477 63.0287L25.6476 63.0273C25.567 59.7225 25.4848 56.3581 25.7349 53.0886C25.9582 50.209 26.8982 47.673 28.696 45.4214C31.4241 42.0133 35.9698 39.7419 40.375 39.6388C40.3465 39.6199 40.3248 39.5918 40.3168 39.5553C40.3097 39.5233 40.3006 39.4902 40.2912 39.4563C40.2693 39.3775 40.2463 39.2945 40.2463 39.2117C40.2463 39.1468 40.2593 39.0775 40.2722 39.0092C40.2805 38.9652 40.2887 38.9216 40.2933 38.8799C40.3051 38.7732 40.3197 38.6695 40.3344 38.5658C40.3491 38.4621 40.3638 38.3584 40.3756 38.2518C40.3756 38.2462 40.3773 38.2415 40.3802 38.2377C40.3673 38.1801 40.4013 38.1138 40.4696 38.1214L40.5423 38.1244C40.5923 38.0928 40.6425 38.0606 40.693 38.0283C41.0177 37.8201 41.3535 37.6048 41.7151 37.4933C42.0737 37.3858 42.4403 37.2864 42.8017 37.1883L43.0311 37.126C43.9006 36.9008 44.8406 36.6638 45.7453 36.7231C45.8162 36.726 45.8729 36.7522 45.9139 36.7912C46.2679 36.8033 46.6202 36.8426 46.9673 36.9127C47.2376 36.9719 47.5079 37.043 47.7781 37.1141C48.0484 37.1852 48.3186 37.2563 48.5889 37.3156C48.8651 37.3749 49.1384 37.4341 49.4116 37.4934C49.6847 37.5526 49.9578 37.6119 50.2339 37.6711L50.2645 37.6783C50.6559 37.77 51.0595 37.8646 51.4047 38.0716C52.8292 37.6356 54.3338 37.4595 55.8188 37.2857C56.1003 37.2527 56.3817 37.2198 56.6612 37.1852C58.5471 36.949 60.4329 36.7833 62.3188 36.6297C62.3309 36.2186 62.4342 35.8016 62.6537 35.4551C62.8747 35.1048 63.1993 34.7641 63.6108 34.7053C63.7848 34.6006 63.9364 34.542 64.1225 34.4833C64.2165 34.4537 64.3134 34.427 64.4104 34.4004C64.5073 34.3737 64.6042 34.347 64.6982 34.3174C64.8211 34.2789 64.9455 34.2405 65.0715 34.2092C65.0673 34.1945 65.0642 34.1792 65.0625 34.1633C65.0185 33.8825 65.0659 33.6063 65.1136 33.3289C65.1423 33.1615 65.1711 32.9937 65.18 32.8242L65.1952 32.5363C65.061 30.5028 64.9057 28.0961 65.9672 26.4605C67.0835 24.7303 69.457 24.1496 71.3253 23.7112C73.0036 23.3193 74.7333 23.1711 76.46 23.0231C77.3445 22.9473 78.2282 22.8715 79.1038 22.7631C79.9236 22.6598 80.7355 22.6566 81.5487 22.6534C82.1341 22.6511 82.7202 22.6488 83.3104 22.6091C83.4111 22.6021 83.5155 22.5943 83.6227 22.5863C84.5555 22.5163 85.6997 22.4304 86.5383 22.7849ZM109.803 32.3836C109.765 32.0247 109.665 31.9422 109.302 31.7932C109.043 31.6904 108.761 31.6192 108.478 31.5546C108.451 31.5675 108.42 31.5763 108.385 31.5799C107.895 31.6329 107.418 31.7252 106.94 31.8178C106.776 31.8496 106.611 31.8815 106.446 31.9117C106.248 31.9464 106.047 31.9923 105.845 32.0384C105.529 32.1106 105.209 32.1835 104.892 32.2153C104.899 32.2437 104.905 32.2728 104.907 32.3028C104.907 32.3738 104.907 32.4332 104.919 32.5043C104.923 32.536 104.926 32.559 104.928 32.5787C104.932 32.6105 104.935 32.6336 104.942 32.6702C104.945 32.6959 104.947 32.7217 104.951 32.7475L105.107 32.7294C106.673 32.5419 108.236 32.4408 109.803 32.3836ZM104.402 32.291L104.402 32.2838C104.115 32.3239 103.823 32.3266 103.532 32.3028C103.494 32.2985 103.453 32.2897 103.411 32.2806C103.336 32.2645 103.259 32.2478 103.192 32.2554C103.183 32.2554 103.154 32.2633 103.117 32.2734C103.053 32.2908 102.966 32.3147 102.921 32.3147C102.763 32.3147 102.592 32.2684 102.433 32.2253C102.379 32.2106 102.326 32.1963 102.275 32.1843C101.829 32.069 101.439 31.92 101.018 31.7592L100.982 31.7458C100.783 31.6747 100.583 31.6036 100.383 31.5444C100.32 31.5283 100.255 31.5149 100.19 31.5014C100.017 31.4653 99.8441 31.4293 99.69 31.3429C99.6547 31.3221 99.6251 31.2973 99.6009 31.2695C99.2814 31.404 99.0745 31.5691 99.1224 31.7696C99.3956 31.7164 99.7133 31.7946 99.9953 31.864C100.086 31.8863 100.173 31.9078 100.254 31.9236C100.736 32.0184 101.206 32.1369 101.676 32.2554C101.833 32.296 101.99 32.3372 102.147 32.3784C102.796 32.5485 103.445 32.719 104.099 32.8462L104.42 32.8089L104.417 32.7681L104.414 32.7294C104.402 32.5872 104.39 32.4332 104.402 32.291ZM102.357 31.1889C102.037 31.0466 101.71 30.9347 101.369 30.847C101.458 30.8333 101.538 30.8212 101.608 30.8107C101.713 30.7949 101.794 30.7828 101.84 30.7741C102.898 30.5963 103.955 30.4541 105.025 30.6793C105.685 30.8192 106.346 30.9991 107.004 31.1794C106.812 31.2119 106.622 31.2501 106.435 31.2955C106.168 31.3565 105.907 31.4566 105.647 31.5567C105.341 31.6743 105.035 31.7918 104.719 31.846C104.674 31.8068 104.598 31.8152 104.578 31.8643L104.577 31.8667L104.571 31.868L104.564 31.8697C104.558 31.8712 104.553 31.8729 104.547 31.8747C104.204 31.8748 103.872 31.8197 103.532 31.734C103.407 31.7008 103.308 31.6381 103.208 31.5746C103.129 31.5246 103.05 31.4743 102.956 31.4377L102.357 31.1889ZM97.5867 32.5754C98.0331 32.5304 98.4583 32.4853 98.8724 32.3083C99.0847 32.5477 99.4558 32.6386 99.7762 32.7171C99.8576 32.7371 99.9358 32.7562 100.007 32.7768C100.501 32.919 100.982 33.0138 101.488 33.1086C101.536 33.1179 101.584 33.127 101.633 33.1361C99.7168 33.3633 97.8022 33.5951 95.8829 33.8315C95.0022 33.9385 94.1215 34.0462 93.2407 34.1546C93.2285 33.887 93.2162 33.618 93.2039 33.3457C93.1979 33.2238 93.1903 33.1019 93.1777 32.9812C93.515 33.018 93.8689 32.9916 94.2114 32.966L94.2916 32.96L94.3672 32.9546C94.7614 32.9287 95.1556 32.8712 95.5453 32.8144L95.5473 32.8141C95.6912 32.7932 95.8345 32.7723 95.9769 32.7531C96.5174 32.682 97.0462 32.6228 97.5867 32.5754ZM90.3368 34.5146C90.4781 33.6363 90.6151 32.7477 90.7173 31.8552C90.7758 31.8566 90.8359 31.8521 90.8938 31.8477C90.9413 31.8441 90.9875 31.8406 91.0302 31.8406C91.0864 31.8406 91.1445 31.8388 91.2035 31.8369C91.3538 31.832 91.5094 31.827 91.6529 31.8525C91.9702 31.8999 92.1934 32.1013 92.2992 32.4095C92.3962 32.703 92.4131 33.0288 92.4293 33.3402C92.4327 33.4058 92.4361 33.4714 92.4402 33.5353C92.4526 33.7731 92.465 34.011 92.4757 34.2489C91.7627 34.337 91.0497 34.4256 90.3368 34.5146ZM65.7396 30.8842C65.7983 30.5677 65.8629 30.251 65.932 29.9327C65.9766 29.7237 66.016 29.5092 66.0559 29.2926C66.2263 28.367 66.4036 27.4036 67.013 26.6738C68.4135 25.0161 70.9429 24.5889 72.9612 24.248L73.0525 24.2326C73.4057 24.1726 73.7558 24.1085 74.1049 24.0445C74.9289 23.8935 75.7475 23.7435 76.5893 23.6519C77.333 23.5784 78.0676 23.587 78.8044 23.5956C79.255 23.6009 79.7065 23.6062 80.1613 23.5927L80.1942 23.5917C79.6144 23.6795 79.0355 23.7714 78.4576 23.8652C77.8393 23.9649 77.2228 24.0689 76.6071 24.1727C74.9526 24.4518 73.3038 24.7299 71.6425 24.9199L71.4182 24.9461C69.9935 25.1113 68.6218 25.2704 67.7062 26.5316C66.8245 27.736 66.7909 29.2932 66.7596 30.7463L66.7545 30.9756C66.7351 31.775 66.7169 32.5732 66.6988 33.3709L66.6985 33.3829L66.6984 33.3896C66.6878 33.853 66.6773 34.3163 66.6665 34.7796C66.6313 34.7267 66.594 34.6751 66.5547 34.6255C66.3788 34.3959 66.1482 34.2398 65.8709 34.1735C65.8834 34.1334 65.892 34.0903 65.8967 34.0448C65.9156 33.8736 65.8815 33.6872 65.849 33.51C65.8411 33.4664 65.8332 33.4233 65.8262 33.3812C65.791 33.1679 65.7792 32.9546 65.7675 32.7294C65.7616 32.5176 65.7587 32.3057 65.7558 32.0953C65.7528 31.8821 65.7499 31.6701 65.744 31.4614C65.7414 31.269 65.7399 31.0766 65.7396 30.8842ZM90.1244 34.5411C89.5213 34.6165 88.9183 34.6922 88.3153 34.7682C88.5564 33.9347 88.4809 32.9914 88.4077 32.0769C88.3716 31.6261 88.3361 31.1824 88.3394 30.7622C88.3428 30.4134 88.3902 30.037 88.4387 29.6517C88.5584 28.7019 88.6848 27.6983 88.1749 26.9227C87.5125 25.9255 86.2927 26.1617 85.2295 26.3676C85.0291 26.4064 84.8343 26.4442 84.6499 26.4723C82.8051 26.7449 80.9603 26.9938 79.1156 27.1952C77.3296 27.3967 75.5318 27.5626 73.734 27.693C73.4767 27.7119 73.1838 27.7154 72.874 27.7191C71.8261 27.7316 70.5847 27.7465 69.8683 28.3684C69.504 28.6765 69.3748 29.115 69.3395 29.589C69.2912 30.1985 69.3146 30.8191 69.338 31.4355C69.3486 31.718 69.3593 31.9998 69.363 32.2791C69.3703 32.833 69.3877 33.3891 69.4051 33.9461C69.4395 35.0459 69.4741 36.1492 69.4309 37.245C68.7904 37.3323 68.15 37.4199 67.5097 37.5079C67.4919 35.9334 67.483 34.3655 67.483 32.7887C67.483 32.4173 67.4691 32.0307 67.4549 31.6368C67.4079 30.334 67.3582 28.9525 67.8002 27.7878C68.4704 26.0193 70.5417 25.7605 72.1779 25.556C72.2631 25.5454 72.3472 25.5349 72.4298 25.5243C74.1335 25.311 75.8373 25.0147 77.5293 24.6711L77.9289 24.5887C79.5819 24.2479 81.2363 23.9068 82.9109 23.6875L83.1261 23.6587C84.7905 23.4354 86.9267 23.1489 88.4804 23.8415C90.0042 24.5372 90.0214 26.7524 90.0339 28.3664V28.3714C90.0357 28.5973 90.0373 28.812 90.0432 29.0084C90.1002 30.849 90.1129 32.6896 90.1244 34.5411ZM64.1128 34.764C64.4299 34.8853 64.6949 35.1545 64.851 35.4432C65.2259 36.1398 65.4269 37.012 65.2938 37.814C65.7274 37.7538 66.1611 37.6938 66.5948 37.6339C66.6147 36.9173 66.6327 36.2016 66.6498 35.4861C66.5802 35.4432 66.543 35.3676 66.5058 35.292C66.4914 35.2628 66.477 35.2335 66.4607 35.2062C66.4413 35.1769 66.4229 35.1475 66.4045 35.1185C66.3562 35.0419 66.3088 34.9667 66.2492 34.8981C66.0612 34.6729 65.838 34.5663 65.556 34.5663C65.302 34.5663 65.0612 34.6057 64.8187 34.6455C64.7359 34.6591 64.6528 34.6727 64.569 34.6848C64.413 34.7185 64.2677 34.7415 64.1128 34.764ZM62.5107 36.6592C62.5935 36.702 62.6431 36.7828 62.6602 36.8739C62.7785 36.9239 62.8963 36.9716 63.018 37.0193C63.1668 37.0746 63.3052 37.151 63.4435 37.2273C63.5127 37.2655 63.582 37.3037 63.6525 37.3393C64.0391 37.5342 64.4587 37.6959 64.9007 37.7384C64.9421 36.9255 64.59 36.0616 64.052 35.4788C63.9345 35.3602 63.7935 35.2417 63.6055 35.2773C63.4057 35.301 63.2295 35.4788 63.0885 35.6328C62.8177 35.9254 62.6186 36.2741 62.5107 36.6592ZM62.3365 37.3274C62.391 37.323 62.4389 37.3081 62.4801 37.2854C62.5742 37.3616 62.6682 37.4362 62.7595 37.5052C62.9546 37.6583 63.1698 37.7508 63.3958 37.848L63.4527 37.8726C63.5764 37.9256 63.7025 37.9745 63.8306 38.0177C62.5487 38.1969 61.2673 38.3775 59.9864 38.5599C58.4108 38.7841 56.8233 38.9863 55.2324 39.1889C54.2929 39.3085 53.3522 39.4283 52.412 39.5529C52.4036 39.4633 52.3845 39.3729 52.3652 39.2813C52.3432 39.1769 52.3208 39.0709 52.3136 38.9628C52.3116 38.9362 52.3098 38.9103 52.3081 38.8852C52.29 38.62 52.2775 38.4379 52.0199 38.2755C51.9538 38.235 51.8867 38.2046 51.8188 38.1821C53.0491 38.2062 54.2876 38.0773 55.5204 37.949C55.9367 37.9057 56.3524 37.8624 56.7669 37.8252C57.3857 37.7699 58.0045 37.7132 58.6234 37.6566C59.8611 37.5434 61.0988 37.4301 62.3365 37.3274ZM87.1284 34.9181C86.8118 34.5701 86.4336 34.2591 85.9541 34.3056C85.8644 34.3125 85.7828 34.2622 85.7307 34.1908C84.9831 34.4612 84.0956 34.5026 83.2638 34.5413C82.9762 34.5547 82.6953 34.5678 82.4291 34.59C81.6329 34.6545 80.8323 34.706 80.0301 34.7576C79.5064 34.7913 78.9819 34.8251 78.4576 34.8625C77.1121 34.9553 75.7778 35.1049 74.4328 35.2556L74.345 35.2654C73.9702 35.3074 73.5962 35.3424 73.2232 35.3773C72.2793 35.4655 71.3409 35.5532 70.4082 35.7532C70.4193 36.2038 70.4364 36.6543 70.4674 37.104C72.8913 36.775 75.3161 36.4508 77.7408 36.1305C80.8674 35.7195 83.9971 35.3148 87.1284 34.9181ZM85.7837 32.2613C85.7481 32.7364 85.7124 33.2115 85.6876 33.6866C84.8196 33.5051 83.8094 33.6201 82.8754 33.7264C82.5584 33.7624 82.2501 33.7975 81.9591 33.8197C81.1669 33.8762 80.3789 33.9455 79.5901 34.0147C79.0573 34.0616 78.5226 34.1085 77.9876 34.1515C77.3305 34.2107 76.6706 34.2344 76.0121 34.258C75.3516 34.2818 74.6926 34.3055 74.0395 34.3648C72.8173 34.4739 71.5751 34.7336 70.3955 35.0978L70.39 34.7305C70.3834 34.2724 70.3767 33.814 70.3618 33.3575L70.2913 31.2007C70.2874 31.0873 70.2781 30.9659 70.2684 30.8405C70.2184 30.1927 70.1604 29.4404 70.82 29.1624C71.1792 29.0142 71.663 29.0205 72.1062 29.0262C72.301 29.0287 72.488 29.0311 72.653 29.0202C73.3698 28.9728 74.0865 28.9254 74.8033 28.8662C76.2956 28.7477 77.7878 28.6291 79.2801 28.4869C80.7136 28.3447 82.1353 28.1788 83.5689 27.9892C84.1536 27.9155 84.7291 27.8324 85.3118 27.7483L85.381 27.7383C85.5522 27.7974 85.7983 27.9151 85.8719 27.9892C86.0165 28.1455 85.9976 28.4116 85.983 28.6186C85.981 28.6471 85.979 28.6745 85.9776 28.7002C85.9424 29.3046 85.9189 29.8972 85.8954 30.5015C85.8719 31.0881 85.8278 31.6747 85.7837 32.2613ZM85.7341 27.6789C85.7896 27.6673 85.8476 27.6546 85.9072 27.6415C86.4363 27.5254 87.0986 27.3802 87.4346 27.7285C87.7638 28.0708 87.6607 28.8127 87.5905 29.3182C87.5806 29.39 87.5712 29.4575 87.5639 29.5179C87.5228 29.873 87.4788 30.225 87.4348 30.5771L87.4345 30.58C87.3905 30.9321 87.3465 31.2841 87.3054 31.6392C87.2921 31.7506 87.2779 31.8633 87.2636 31.977C87.166 32.7521 87.063 33.5698 87.201 34.3207C86.9352 34.0641 86.6337 33.8609 86.2709 33.7773C86.4476 32.4791 86.4476 31.1543 86.4476 29.8498C86.4476 29.5179 86.4241 29.1743 86.4006 28.8425C86.3958 28.7887 86.3919 28.734 86.3881 28.6788C86.3731 28.4663 86.3577 28.2459 86.2831 28.0485C86.2244 27.9063 86.1304 27.7759 85.9776 27.7048C85.9148 27.6752 85.8264 27.6743 85.7341 27.6789ZM43.9744 37.641C44.5353 37.5354 45.0988 37.4293 45.6416 37.2643C46.6231 37.3463 47.6333 37.57 48.5654 37.8726L50.0459 38.3703C50.1153 38.3931 50.1847 38.4159 50.2542 38.438C50.1301 38.4766 50.0073 38.4971 49.8696 38.5125C49.1529 38.6073 48.4479 38.7139 47.7429 38.8325C47.6649 38.8453 47.5816 38.8573 47.4949 38.8697C46.9822 38.9433 46.3515 39.0339 46.019 39.421C45.8882 39.3605 45.7476 39.3295 45.607 39.2986C45.5351 39.2828 45.4633 39.267 45.3928 39.2472C45.1579 39.188 44.9346 39.1169 44.7114 39.0458C44.5941 39.0094 44.476 38.9722 44.3574 38.9349C44.0126 38.8263 43.6627 38.7161 43.3131 38.6191C42.5754 38.412 41.8229 38.2422 41.0614 38.1634C41.3383 38.1648 41.6155 38.1553 41.8796 38.0977C42.089 38.0508 42.3013 38.0009 42.5137 37.951L42.5256 37.9483C42.7379 37.8984 42.9509 37.8484 43.1603 37.8015C43.4293 37.7436 43.7016 37.6923 43.9744 37.641ZM51.6296 39.4254C51.6207 39.5103 51.6126 39.5869 51.6147 39.6598C49.8272 39.9027 48.0433 40.1675 46.2748 40.4862C46.2597 40.3685 46.2434 40.251 46.2271 40.136C46.2212 40.0768 46.2124 40.0205 46.2036 39.9642C46.1948 39.9079 46.186 39.8516 46.1801 39.7923C46.177 39.7766 46.1747 39.76 46.1723 39.743C46.1699 39.7254 46.1674 39.707 46.1638 39.689C46.5161 39.7922 46.9349 39.712 47.2802 39.6459L47.3199 39.6383C47.8369 39.5316 48.3656 39.4368 48.8826 39.3539C49.0102 39.333 49.1422 39.3059 49.2767 39.2784C49.6744 39.1971 50.0946 39.1112 50.4806 39.1643C50.5295 39.1697 50.5784 39.1778 50.6285 39.186C50.6867 39.1955 50.7465 39.2053 50.8096 39.2117C50.9538 39.2311 51.09 39.2108 51.2313 39.1898C51.2628 39.1852 51.2945 39.1804 51.3266 39.1761C51.4569 39.1542 51.5671 39.1323 51.6711 39.0976C51.6659 39.1514 51.6579 39.2058 51.6503 39.2567C51.6424 39.3101 51.6351 39.3598 51.6321 39.4013L51.6296 39.4254ZM45.8082 39.7632C45.5005 39.7611 45.1499 39.638 44.8384 39.5286C44.7577 39.5002 44.6796 39.4728 44.6056 39.4487C44.4973 39.4151 44.3896 39.3815 44.2825 39.348C43.9363 39.2399 43.5953 39.1335 43.2543 39.0339C42.8242 38.9131 42.3891 38.8076 41.9536 38.702L41.9512 38.7014C41.4776 38.5866 41.0035 38.4716 40.535 38.3369C40.538 38.4431 40.5378 38.5509 40.5345 38.657C40.552 38.7344 40.5695 38.8122 40.5871 38.8917C40.5929 38.9213 40.5988 38.948 40.6047 38.9747C40.6105 39.0013 40.6164 39.028 40.6223 39.0576C40.6247 39.0675 40.6277 39.0783 40.6308 39.0899C40.6428 39.1341 40.6576 39.1884 40.6576 39.2354C40.6517 39.2887 40.6429 39.345 40.6341 39.4013L40.6287 39.4358C40.6959 39.4341 40.7638 39.4305 40.8319 39.4269C40.9899 39.4185 41.1492 39.4101 41.3038 39.425C41.4526 39.4408 41.6015 39.4777 41.7503 39.5145C41.8247 39.533 41.8991 39.5514 41.9736 39.5672C42.4436 39.6738 42.9136 39.7923 43.3836 39.9227C43.8594 40.0471 44.3353 40.1745 44.8112 40.3019C45.1112 40.3822 45.4113 40.4626 45.7113 40.5421C45.7153 40.5139 45.7189 40.4853 45.7218 40.456C45.7274 40.4222 45.7304 40.3911 45.7331 40.3614C45.7362 40.3286 45.7392 40.2975 45.7453 40.2664C45.7336 40.3138 45.7453 40.2308 45.7453 40.2308C45.7453 40.219 45.7483 40.2042 45.7512 40.1893C45.7542 40.1745 45.7571 40.1597 45.7571 40.1479C45.7806 40.0294 45.7923 39.9109 45.8041 39.7924C45.806 39.783 45.8072 39.7732 45.8082 39.7632ZM40.6938 39.6351C40.6664 39.6167 40.639 39.5984 40.6116 39.5804C40.6023 39.6005 40.5876 39.6193 40.567 39.6357C40.6093 39.6353 40.6515 39.6351 40.6938 39.6351ZM110.022 33.3057C110.054 33.5556 110.28 33.7948 110.559 33.7012C114.19 32.5161 119.172 34.4478 120.899 37.9792C121.938 40.0959 121.894 42.6407 121.854 44.9984L121.854 44.9999C121.847 45.3873 121.841 45.7697 121.839 46.1442C121.827 48.941 121.804 51.7377 121.78 54.5226C121.674 65.8161 121.287 77.0386 120.394 88.2966C120.17 91.0696 119.912 93.8426 119.583 96.6157C119.497 97.3433 119.434 98.0923 119.37 98.8487C119.205 100.79 119.036 102.78 118.478 104.579C117.679 107.139 115.87 108.703 113.473 109.71C111.334 110.615 109.125 111.367 106.929 112.115L106.925 112.116L106.924 112.116C106.588 112.231 106.253 112.345 105.918 112.46C95.4717 116.015 84.7909 118.788 74.0748 121.348C69.7458 122.382 65.4246 123.454 61.0986 124.528L61.0958 124.529C60.0683 124.784 59.0406 125.039 58.0124 125.294C56.6435 125.632 55.2717 125.969 53.8999 126.307C52.5281 126.645 51.1563 126.983 49.7874 127.32L49.5439 127.38C47.0366 127.999 44.6506 128.588 42.0441 128.565C39.6 128.541 37.2618 128.103 35.652 126.052C34.3243 124.346 33.866 122.094 33.678 119.973C33.3457 116.295 33.3952 112.545 33.4444 108.817C33.4648 107.272 33.4851 105.731 33.4783 104.2C33.4606 101.289 33.3959 98.3803 33.3312 95.4735C33.2667 92.5707 33.2021 89.6692 33.1845 86.7679C33.1619 83.1123 33.2164 79.4567 33.2708 75.8011C33.3015 73.7448 33.3321 71.6883 33.349 69.632C33.3588 68.2278 33.346 66.8146 33.3331 65.3975V65.3897C33.2996 61.6908 33.2659 57.966 33.631 54.3093C34.1128 49.4387 36.1808 45.2791 40.9631 43.5253C43.0663 42.755 45.2988 42.4113 47.4961 42.0795C50.2691 41.6529 53.0421 41.2263 55.8152 40.8115C61.3612 39.982 66.919 39.1643 72.4768 38.3821C83.8156 36.7823 95.1779 35.2891 106.54 33.9026C107.71 33.7604 108.869 33.5479 110.022 33.3057Z" fill="#1D2E43"/>
<path d="M40.0113 38.2162C37.015 38.6428 33.9953 39.579 31.1987 40.7522C28.8017 41.7595 26.722 43.0749 25.3237 45.3502C22.7815 49.4913 22.829 55.0736 22.871 60.0049C22.8779 60.8172 22.8847 61.6118 22.8797 62.3795C22.8559 66.5168 22.7813 70.663 22.7067 74.8127C22.5226 85.045 22.3381 95.2983 22.9149 105.492C22.997 106.898 22.9878 108.309 22.9787 109.719C22.9656 111.743 22.9525 113.767 23.2087 115.778C23.5259 118.35 24.6422 121.419 26.6045 123.173C26.7337 123.291 26.9805 123.137 26.863 122.971C26.7522 122.813 26.6393 122.655 26.5259 122.496C25.8814 121.594 25.2199 120.667 24.8302 119.629C24.4218 118.548 24.1908 117.36 23.9677 116.211C23.9341 116.038 23.9006 115.866 23.8667 115.695C23.3027 112.827 23.2322 109.888 23.2087 106.973C23.1634 102.745 23.2392 98.502 23.3148 94.2665C23.357 91.9016 23.3991 89.5391 23.4202 87.1826C23.4789 80.5819 23.6199 73.993 23.7962 67.4041C23.8372 65.7363 23.9163 64.0684 23.9955 62.3991C24.075 60.7236 24.1545 59.0466 24.1957 57.3667C24.2003 57.1836 24.2048 57.0002 24.2093 56.8166C24.2723 54.2202 24.3363 51.5829 24.9947 49.0595C26.6358 42.7302 32.3481 40.9732 37.8463 39.282C38.6072 39.048 39.364 38.8152 40.1053 38.5717C40.3286 38.4888 40.2346 38.1807 40.0113 38.2162Z" fill="#1D2E43"/>
<path d="M29.1072 56.5846C28.649 53.0768 29.6125 49.0358 31.7157 46.1916C31.798 46.085 32.033 46.1442 31.9742 46.2983C31.328 47.9337 30.7052 49.5572 30.2587 51.2637C29.8005 52.9938 29.6007 54.807 29.4362 56.5846C29.4127 56.7979 29.1307 56.7979 29.1072 56.5846Z" fill="#1D2E43"/>
<path d="M29.1307 68.2336C28.914 70.3933 28.9659 72.5853 29.0175 74.7619C29.0358 75.5353 29.0541 76.3068 29.0602 77.0741C29.0955 79.9301 29.1072 82.7742 29.119 85.6302C29.1283 87.9317 29.0839 90.2332 29.0395 92.5354C28.972 96.0299 28.9046 99.5262 29.025 103.027C29.0367 103.264 29.3657 103.252 29.3775 103.027C29.8094 98.2156 29.7866 93.3964 29.7637 88.5758C29.7586 87.4952 29.7535 86.4146 29.7535 85.334C29.7535 82.3832 29.7182 79.4324 29.6595 76.4935C29.6491 76.0067 29.642 75.5184 29.6349 75.0294C29.6019 72.7564 29.5687 70.4669 29.2012 68.2336C29.2012 68.1744 29.1307 68.1862 29.1307 68.2336Z" fill="#1D2E43"/>
<path d="M29.3775 120.305C29.2365 119.582 29.0837 118.859 28.931 118.136C28.9192 118.077 29.025 118.041 29.0367 118.113L29.1049 118.374C29.3878 119.462 29.6731 120.558 29.9885 121.644C30.1177 122.094 30.2822 122.545 30.5525 122.936C30.6935 123.137 30.8462 123.315 31.046 123.457C31.1953 123.57 31.3595 123.631 31.5268 123.692C31.5701 123.708 31.6135 123.724 31.657 123.742C31.7157 123.777 31.7157 123.884 31.6335 123.884C30.717 123.884 30.1177 122.793 29.824 122.059C29.6472 121.608 29.5515 121.143 29.4551 120.675C29.4298 120.552 29.4044 120.428 29.3775 120.305Z" fill="#1D2E43"/>
<path fill-rule="evenodd" clip-rule="evenodd" d="M80.5965 109.984C92.6019 109.984 104.097 92.8371 104.097 76.8021C104.097 60.7672 97.8894 51.3235 85.884 51.3235C73.8787 51.3235 61.2089 69.6551 61.2089 85.69C61.2089 101.725 68.5911 109.984 80.5965 109.984ZM81.0874 108.799C91.9416 108.799 102.922 92.6197 102.922 77.3947C102.922 62.1696 96.7221 53.1011 85.8679 53.1011C75.0138 53.1011 63.5589 70.5068 63.5589 85.7319C63.5589 100.957 70.2333 108.799 81.0874 108.799Z" fill="#1D2E43"/>
<path fill-rule="evenodd" clip-rule="evenodd" d="M86.6638 65.5172C87.4291 65.2416 88.2341 65.8137 88.2341 66.6332V72.9142C88.2341 73.6852 88.9524 74.2509 89.694 74.0639L93.8241 73.0226C94.5657 72.8356 95.2841 73.4013 95.2841 74.1722V81.8021C95.2841 82.3459 94.9172 82.8199 94.3941 82.9518L89.1241 84.2806C88.601 84.4125 88.2341 84.8865 88.2341 85.4302V93.1503C88.2341 93.6511 87.9219 94.0978 87.4542 94.2663L81.5792 96.3825C80.814 96.6581 80.009 96.0859 80.009 95.2664V88.0966C80.009 87.3256 79.2906 86.7599 78.549 86.9469L73.2439 88.2845C72.5023 88.4715 71.7839 87.9058 71.7839 87.1349V79.505C71.7839 78.9612 72.1509 78.4872 72.674 78.3553L79.119 76.7303C79.642 76.5984 80.009 76.1244 80.009 75.5806V68.7494C80.009 68.2485 80.3212 67.8018 80.7888 67.6333L86.6638 65.5172ZM87.0079 66.5546C87.2383 66.4677 87.4839 66.6395 87.4839 66.8876V75.2087C87.4839 75.5963 87.8467 75.8795 88.2187 75.7823L92.9615 74.5434C93.7055 74.349 94.4311 74.9155 94.4311 75.6906V81.2157C94.4311 81.7566 94.0679 82.2289 93.5484 82.3635L88.5292 83.6634C88.0097 83.7979 87.6465 84.2702 87.6465 84.8112V92.4749C87.6465 92.9695 87.3419 93.412 86.8826 93.5851L82.7113 95.1563C81.9434 95.4456 81.1252 94.8729 81.1252 94.0462V87.129C81.1252 86.3621 80.4139 85.7972 79.6747 85.977L74.9969 87.1148C74.2577 87.2946 73.5465 86.7297 73.5465 85.9628V80.3596C73.5465 79.8121 73.9183 79.3359 74.446 79.2076L80.2257 77.8018C80.7533 77.6734 81.1252 77.1972 81.1252 76.6497V69.5957C81.1252 69.1014 81.4295 68.659 81.8885 68.4858L87.0079 66.5546Z" fill="#1D2E43"/>
</svg>
