<svg width="159" height="159" viewBox="0 0 159 159" fill="none" xmlns="http://www.w3.org/2000/svg">
<circle cx="56.5" cy="78.5039" r="56.5" fill="#BADDFE"/>
<g clip-path="url(#clip0_7761_23808)">
<path d="M27.8252 106.662L77.5127 132.499L121.238 108.649L121.9 76.1867L112.625 72.8742L111.3 48.3617L109.313 43.7242L102.688 37.7617L89.4377 30.4742L75.5252 21.1992L52.3377 36.4367L51.6752 51.6742L41.0752 58.2992L33.7877 62.2742L29.8127 66.9117L27.8252 75.5242V106.662Z" fill="#F6F6F6"/>
<path d="M51.8187 36.1292C51.6978 36.421 51.5894 36.5419 51.5519 36.8628C51.5102 37.238 51.4977 37.6173 51.4852 37.9925C51.4602 38.6678 51.4518 39.3472 51.4393 40.0267C51.4101 41.4648 51.406 42.9029 51.406 44.341C51.4101 45.7458 51.4101 47.1505 51.4143 48.5595C51.4143 49.2723 51.4143 49.9851 51.4101 50.6979C51.406 51.2898 51.2267 52.0943 51.6728 52.557C51.7853 52.6737 51.9771 52.6654 52.0854 52.557C52.5231 52.1276 52.3772 51.3648 52.3814 50.8021C52.3856 50.0893 52.3856 49.3765 52.3814 48.6637C52.3772 47.2589 52.3564 45.85 52.3314 44.4452C52.3064 43.0738 52.2772 41.7024 52.2397 40.331C52.223 39.6223 52.2063 38.9095 52.1938 38.2009C52.1855 37.8591 52.173 37.5173 52.1563 37.1755C52.148 37.0129 52.1521 36.8462 52.123 36.6878C52.0813 36.446 51.9854 36.3793 51.8895 36.1334C51.877 36.0917 51.8312 36.0917 51.8187 36.1292Z" fill="#1D2E43" stroke="#1D2E43" stroke-width="0.6625"/>
<path d="M75.335 21.9665C76.5189 23.0295 78.0487 23.7881 79.4034 24.6177C80.7623 25.4472 82.1296 26.2517 83.4927 27.0687C86.2813 28.7361 89.0659 30.4034 91.8545 32.0708C94.5807 33.7007 97.3152 35.3139 100.033 36.9562C102.492 38.4443 104.927 40.0409 106.919 42.1334C107.936 43.2047 108.799 44.3927 109.5 45.6933C109.845 46.331 110.133 46.998 110.354 47.6899C110.596 48.4403 110.692 49.2197 110.954 49.9576C111.117 50.4161 111.926 50.5453 112.017 49.9576C112.234 48.5861 111.717 47.1314 111.184 45.8767C110.646 44.6136 109.912 43.4673 109.058 42.396C107.253 40.1326 104.893 38.3735 102.463 36.8353C99.7329 35.1054 96.8983 33.5339 94.1055 31.9124C91.2334 30.2492 88.3656 28.586 85.4935 26.9228C83.8803 25.9891 82.263 25.0512 80.6498 24.1174C79.8119 23.6339 78.9699 23.1545 78.1279 22.6793C77.3276 22.225 76.5105 21.7331 75.6393 21.433C75.3475 21.3329 75.1016 21.7581 75.335 21.9665Z" fill="#1D2E43" stroke="#1D2E43" stroke-width="0.6625"/>
<path d="M111.645 47.9406C111.312 48.5992 111.362 49.508 111.345 50.2291C111.328 51.1587 111.349 52.0882 111.358 53.0136C111.37 54.8019 111.42 56.5901 111.474 58.3784C111.583 61.9883 111.787 65.5939 112.008 69.1996C112.07 70.2292 112.137 71.2588 112.208 72.2884C112.241 72.7678 112.275 73.2472 112.308 73.7307C112.346 74.2268 112.308 74.3515 112.604 75.198C112.792 75.4565 113.225 75.5315 113.396 75.198C113.759 74.4935 113.479 73.4723 113.421 72.7011C113.35 71.7757 113.279 70.8462 113.213 69.9208C113.083 68.1367 112.967 66.3484 112.858 64.5643C112.642 60.9586 112.487 57.3446 112.287 53.7389C112.229 52.7093 112.196 51.6755 112.137 50.6418C112.087 49.7998 112.129 48.691 111.712 47.9406C111.695 47.9156 111.658 47.9156 111.645 47.9406Z" fill="#1D2E43" stroke="#1D2E43" stroke-width="1.325"/>
<path d="M109.129 44.4301C109.721 46.3601 110.371 48.3526 110.334 50.391C110.296 52.3793 109.409 54.0717 108.25 55.639C106.291 58.286 103.777 60.4994 101.005 62.2543C98.208 64.0259 95.1609 65.3598 92.0179 66.3853C88.5623 67.5107 84.9524 68.3236 81.3467 68.7613C77.3742 69.2406 73.3767 69.0864 69.4375 68.3986C65.54 67.715 61.7259 66.6103 57.9576 65.4223C54.2561 64.251 50.6003 62.9338 46.8654 61.8708C43.5223 60.9204 39.9167 60.2201 36.4569 60.9538C33.1096 61.6624 30.4335 63.88 28.812 66.8563C26.9987 70.1827 26.5735 74.0093 26.5068 77.7401C26.4901 78.7363 26.6986 82.5172 26.707 83.5135C26.7111 84.4055 27.7575 82.3255 27.7491 81.4293C27.7033 77.5443 27.7782 72.8046 29.2163 69.1239C30.4251 66.0226 32.7428 63.3882 36.015 62.4503C39.4248 61.4707 43.093 62.2085 46.4236 63.1506C50.1877 64.2135 53.8726 65.5516 57.5991 66.7312C65.1315 69.1156 72.9973 70.9955 80.9424 70.0535C87.8036 69.2406 94.8649 67.2731 100.817 63.6924C103.606 62.0126 106.207 59.92 108.246 57.3689C109.35 55.985 110.409 54.4802 110.922 52.767C111.48 50.8995 111.259 48.8862 110.73 47.0396C110.459 46.0933 110.121 45.1721 109.771 44.255C109.621 43.8632 109 44.0133 109.129 44.4301Z" fill="#1D2E43" stroke="#1D2E43" stroke-width="1.325"/>
<path d="M33.0626 63.5199C35.622 62.2819 38.0981 60.8771 40.5533 59.4473C43.0085 58.0217 45.4762 56.6128 47.9189 55.1622C50.3074 53.7449 52.6709 52.2735 55.0969 50.9271C57.4313 49.6307 59.8615 48.7095 62.5126 48.3135C65.4388 47.8758 68.4234 48.0008 71.3622 48.2176C71.9791 48.2634 71.9708 47.3089 71.3622 47.2588C68.6902 47.0421 65.9932 46.917 63.3213 47.1963C60.666 47.4756 58.1566 48.1926 55.7764 49.4056C53.3337 50.6478 51.016 52.1484 48.6651 53.5532C46.1682 55.0455 43.6879 56.5711 41.2036 58.0884C38.4232 59.7892 35.6345 61.4857 32.9876 63.3907C32.9125 63.449 32.9751 63.5616 33.0626 63.5199Z" fill="#1D2E43" stroke="#1D2E43" stroke-width="0.6625"/>
<path d="M26.8066 78.6381C26.5357 80.3805 26.644 82.1771 26.6524 83.9403C26.6607 85.8036 26.7024 87.6669 26.7441 89.5302C26.8275 93.1901 26.9608 96.8458 27.0859 100.506C27.1568 102.611 27.2318 104.716 27.3027 106.821C27.3277 107.6 28.5449 107.6 28.5157 106.821C28.2322 99.4719 28.0196 92.1104 27.5569 84.7657C27.4277 82.7356 27.4235 80.6181 26.965 78.6339C26.9483 78.563 26.8191 78.5547 26.8066 78.6381Z" fill="#1D2E43" stroke="#1D2E43" stroke-width="1.325"/>
<path d="M112.661 74.3991C112.323 75.4913 112.123 76.6167 111.756 77.7047C111.402 78.7551 110.956 79.7722 110.426 80.7435C109.359 82.711 108 84.5201 106.412 86.0958C103.419 89.0637 99.6134 90.9895 95.9785 93.0487C94.8197 93.7073 93.6275 94.2867 92.402 94.8161C91.6976 95.1162 92.3062 96.1458 93.0023 95.8457C95.8243 94.6327 98.4171 93.0028 101.077 91.4814C103.161 90.2892 105.107 88.9845 106.825 87.2963C108.463 85.6831 109.893 83.824 110.964 81.7856C111.564 80.6476 112.065 79.4513 112.444 78.2174C112.815 77.0211 113.148 75.7164 113.077 74.4575C113.069 74.2157 112.736 74.1615 112.661 74.3991Z" fill="#1D2E43" stroke="#1D2E43" stroke-width="1.325"/>
<path d="M51.8244 91.1925C52.3121 91.726 52.8998 92.097 53.5084 92.4847C54.2129 92.9349 54.9215 93.3809 55.6343 93.8227C57.1891 94.7856 58.7314 95.7652 60.2779 96.7365C61.7327 97.6494 63.1875 98.5581 64.6715 99.4209C66.3805 100.413 68.1229 101.338 69.8195 102.351C70.9199 103.006 72.0037 103.689 73.0625 104.411C73.5627 104.752 74.0588 105.103 74.5506 105.465C75.0675 105.844 75.5677 106.378 76.1972 106.541C76.7307 106.678 77.1267 106.111 76.885 105.644C76.6265 105.14 76.1055 104.836 75.6595 104.506C75.1968 104.165 74.7299 103.831 74.2547 103.506C73.3043 102.856 72.3289 102.243 71.341 101.651C69.5277 100.567 67.6644 99.5877 65.8178 98.5622C62.7373 96.849 59.736 94.9941 56.6639 93.2683C55.8177 92.7931 54.9632 92.3221 54.092 91.8969C53.3667 91.5468 52.6622 91.2008 51.8577 91.1174C51.816 91.1132 51.8035 91.1674 51.8244 91.1925Z" fill="#1D2E43" stroke="#1D2E43" stroke-width="0.6625"/>
<path d="M112.358 72.4975C113.037 73.0352 113.979 73.3395 114.771 73.6771C115.593 74.0273 116.414 74.3816 117.235 74.7318C118.023 75.0694 118.815 75.3987 119.607 75.728C120.019 75.8989 120.432 76.0698 120.849 76.2449C121.266 76.42 121.72 76.7034 122.179 76.6868C122.4 76.6784 122.512 76.4158 122.358 76.2532C122.079 75.9615 121.658 75.8614 121.291 75.7155C120.845 75.5363 120.403 75.357 119.957 75.1778C119.127 74.8443 118.298 74.5108 117.464 74.1857C116.631 73.8606 115.801 73.5396 114.967 73.2145C114.163 72.9018 113.279 72.46 112.416 72.3683C112.35 72.3558 112.304 72.4558 112.358 72.4975Z" fill="#1D2E43" stroke="#1D2E43" stroke-width="0.6625"/>
<path d="M76.1035 105.609C75.9409 107.535 76.1495 109.081 76.1703 111.011C76.1911 112.945 76.2537 114.879 76.287 116.814C76.3579 120.682 76.4246 124.554 76.4663 128.423C76.4746 129.39 76.4829 130.357 76.4913 131.324C76.4954 131.774 76.4954 132.224 76.4996 132.67C76.5038 133.025 76.4538 133.579 76.8164 133.8C77.5542 134.246 77.6001 132.941 77.6042 132.566C77.6084 131.599 77.6001 130.632 77.5959 129.665C77.5792 125.792 77.5459 121.924 77.45 118.056C77.3958 115.913 77.3416 113.771 77.2624 111.628C77.1832 109.469 77.2708 107.539 76.9374 105.401C76.8832 105.046 76.1326 105.292 76.1035 105.609Z" fill="#1D2E43" stroke="#1D2E43" stroke-width="1.325"/>
<path d="M27.9571 106.696C28.2447 106.696 28.2447 106.246 27.9571 106.246C27.6653 106.246 27.6653 106.696 27.9571 106.696Z" fill="#1D2E43" stroke="#1D2E43" stroke-width="1.325"/>
<path d="M77.1301 133.845C80.2689 132.466 83.266 130.728 86.2756 129.089C89.1893 127.505 92.1031 125.921 95.0043 124.312C100.757 121.119 106.492 117.889 112.187 114.596C115.525 112.666 118.852 110.711 122.162 108.731C122.77 108.368 122.216 107.413 121.603 107.776C115.796 111.223 109.952 114.596 104.066 117.905C98.3307 121.132 92.5658 124.308 86.8008 127.476C83.4327 129.327 79.9521 131.073 76.7424 133.191C76.3255 133.466 76.6882 134.041 77.1301 133.845Z" fill="#1D2E43" stroke="#1D2E43" stroke-width="0.6625"/>
<path d="M121.407 76.6C121.295 78.6133 121.403 80.6475 121.399 82.6609C121.395 84.7492 121.353 86.8376 121.316 88.926C121.241 93.0486 121.111 97.1753 121.124 101.302C121.132 103.62 121.186 105.942 121.324 108.255C121.366 108.972 122.491 108.98 122.449 108.255C121.945 99.9599 122.566 91.6563 122.433 83.357C122.395 81.0935 122.399 78.7592 122.003 76.5208C121.941 76.1664 121.424 76.2748 121.407 76.6Z" fill="#1D2E43" stroke="#1D2E43" stroke-width="1.325"/>
<path d="M27.367 79.1047C27.1919 79.7842 27.242 80.497 27.242 81.1931C27.242 81.9518 27.2378 82.7104 27.2461 83.4691C27.2586 84.9822 27.2586 86.512 27.417 88.0168C27.4962 88.7713 27.6005 89.53 27.6213 90.2928C27.6421 91.0515 27.5963 91.8101 27.5921 92.5688C27.5838 93.2941 27.5838 94.0152 27.5963 94.7405C27.613 95.4742 27.5796 96.2161 27.7463 96.9373C27.7672 97.0248 27.9089 97.029 27.9256 96.9373C28.0506 96.2453 27.9965 95.545 27.9798 94.8447C27.9631 94.0861 27.9298 93.3274 27.8881 92.5688C27.8464 91.8101 27.7714 91.0556 27.7589 90.2928C27.7463 89.5341 27.8214 88.7755 27.8672 88.0168C27.9589 86.5037 27.8922 84.9822 27.8381 83.4691C27.813 82.7438 27.7755 82.0226 27.7463 81.2973C27.7172 80.5678 27.7422 79.8092 27.5296 79.1047C27.5046 79.0297 27.3879 79.0255 27.367 79.1047Z" fill="#1D2E43" stroke="#1D2E43" stroke-width="1.325"/>
<path d="M113.089 74.0178C113.005 74.1762 113.026 74.268 113.026 74.4472C113.03 74.7432 112.984 75.0266 112.922 75.3142C112.805 75.8269 112.647 76.3272 112.497 76.8315C112.172 77.8987 111.784 78.9408 111.309 79.9537C110.863 80.9041 110.346 81.8253 109.775 82.709C109.487 83.1509 109.183 83.5802 108.87 84.0012C108.599 84.3639 108.191 84.7182 108.128 85.1809C108.112 85.2976 108.257 85.3852 108.358 85.356C108.799 85.2226 109.07 84.7307 109.337 84.3764C109.691 83.9137 110.025 83.4302 110.342 82.9383C110.988 81.9295 111.559 80.8707 112.042 79.7744C112.497 78.7365 112.901 77.6652 113.18 76.5648C113.314 76.0312 113.927 74.293 113.151 74.0012C113.126 73.9887 113.101 74.0012 113.089 74.0178Z" fill="#1D2E43" stroke="#1D2E43" stroke-width="1.325"/>
<path d="M121.982 76.6612C121.766 76.7529 121.736 76.9239 121.732 77.1406C121.728 77.374 121.741 77.6116 121.745 77.8492C121.753 78.3036 121.766 78.758 121.786 79.2123C121.807 79.6667 121.816 80.1252 121.857 80.5754C121.899 81.0089 121.874 81.53 122.032 81.9385C122.095 82.101 122.324 82.1177 122.383 81.9385C122.52 81.4925 122.458 80.9381 122.47 80.4754C122.483 79.9876 122.453 79.4958 122.437 79.0081C122.424 78.5204 122.395 78.0327 122.37 77.5408C122.358 77.3282 122.387 77.0614 122.303 76.8613C122.258 76.7571 122.12 76.6029 121.982 76.6612Z" fill="#1D2E43" stroke="#1D2E43" stroke-width="1.325"/>
<path d="M122.019 76.4805C121.768 77.16 121.877 77.952 121.877 78.6648C121.877 79.4734 121.873 80.2821 121.881 81.0908C121.894 82.6123 121.819 84.2004 122.102 85.7011C122.123 85.8053 122.302 85.8095 122.319 85.7011C122.577 84.1963 122.469 82.6123 122.456 81.0908C122.448 80.3113 122.431 79.536 122.419 78.7565C122.406 78.0187 122.506 77.1808 122.235 76.4805C122.194 76.3763 122.06 76.3763 122.019 76.4805Z" fill="#1D2E43" stroke="#1D2E43" stroke-width="1.325"/>
<path d="M27.5421 107.284C29.1053 108.447 31.2897 109.71 32.9905 110.661C34.612 111.569 36.2543 112.441 37.8884 113.324C40.9647 114.988 44.0576 116.613 47.1506 118.239C53.2574 121.453 59.3766 124.633 65.4709 127.876C67.2717 128.835 69.0599 129.802 70.844 130.79C71.7986 131.32 72.7531 131.849 73.7077 132.382C74.679 132.924 75.6294 133.566 76.6881 133.921C77.3051 134.125 77.8845 133.212 77.3468 132.787C76.5756 132.17 75.6794 131.766 74.804 131.307C73.9495 130.857 73.0908 130.411 72.2363 129.965C70.5856 129.106 68.9307 128.247 67.2842 127.38C64.1662 125.73 61.0357 124.096 57.9052 122.466C51.7859 119.281 45.6625 116.096 39.5432 112.916C37.7091 111.961 35.875 111.003 34.0409 110.035C32.1234 109.023 30.1974 107.418 28.1674 106.659C27.8506 106.547 27.317 107.114 27.5421 107.284Z" fill="#1D2E43" stroke="#1D2E43" stroke-width="0.6625"/>
<path d="M52.1756 36.5555C52.9842 36.2096 53.697 35.6802 54.4265 35.1966C55.1601 34.7089 55.8855 34.2129 56.6149 33.7252C58.0822 32.7498 59.5578 31.791 61.0376 30.8365C64.0389 28.9023 67.061 26.9932 70.0998 25.1132C71.8089 24.0544 73.4971 22.9706 75.1936 21.8993C75.598 21.6451 75.2353 21.0156 74.8185 21.2574C68.6492 24.8423 62.6258 28.6897 56.6816 32.6414C55.8354 33.2041 54.9892 33.7627 54.1597 34.3463C53.3677 34.9048 52.5257 35.4426 51.8671 36.1637C51.6712 36.3846 51.9213 36.6639 52.1756 36.5555Z" fill="#1D2E43" stroke="#1D2E43" stroke-width="0.6625"/>
<path d="M52.0634 36.4587C52.6511 37.1174 53.539 37.5217 54.2935 37.9594C55.1105 38.4346 55.9317 38.9056 56.7445 39.3808C58.3744 40.3354 60.0042 41.2983 61.6383 42.2445C63.2765 43.1908 64.9105 44.1412 66.5362 45.1041C67.349 45.5876 68.1619 46.0711 68.9705 46.5589C69.7459 47.0257 70.5379 47.5593 71.3841 47.8927C71.8259 48.0637 72.1886 47.405 71.8468 47.1007C71.1673 46.5005 70.3211 46.0503 69.5458 45.5793C68.7371 45.0916 67.9243 44.608 67.1114 44.1245C65.4857 43.1574 63.8559 42.1987 62.2177 41.2608C60.5753 40.3229 58.9121 39.4183 57.2447 38.5304C56.411 38.0844 55.5774 37.6384 54.7353 37.2049C53.9642 36.8047 53.1263 36.2628 52.2551 36.1294C52.0634 36.0919 51.9216 36.3003 52.0634 36.4587Z" fill="#1D2E43" stroke="#1D2E43" stroke-width="0.6625"/>
<path d="M51.0551 90.8723C51.6429 91.4267 52.2598 92.0312 52.9517 92.448C53.6729 92.8815 54.4566 93.2192 55.2319 93.5443C56.3907 94.0278 57.5704 94.4697 58.7417 94.9115C60.9927 95.7619 63.2686 96.5581 65.5904 97.2C71.1053 98.7298 76.8744 99.3092 82.5643 98.5714C84.4359 98.3297 86.2867 97.9587 88.1083 97.4626C89.1004 97.1917 90.0883 96.8915 91.0554 96.5414C91.9975 96.1954 93.0854 95.9036 93.8066 95.1742C94.0358 94.9407 93.8691 94.5239 93.5356 94.5239C92.6436 94.5239 91.8349 94.9366 90.997 95.22C90.1383 95.5118 89.2755 95.7994 88.4043 96.0495C86.8244 96.5081 85.2196 96.8749 83.5981 97.1375C80.651 97.621 77.658 97.7544 74.6776 97.5543C69.638 97.2167 64.7276 95.887 59.9922 94.1821C58.8376 93.7652 57.6871 93.3359 56.5449 92.8982C55.6696 92.5647 54.8067 92.2021 53.9605 91.8019C53.0726 91.3851 52.1514 91.0432 51.3052 90.5389C51.1051 90.4221 50.88 90.7098 51.0551 90.8723Z" fill="#1D2E43" stroke="#1D2E43" stroke-width="1.325"/>
<path d="M76.3115 105.818C97.1865 94.051 105.482 87.9599 121.956 76.8477" stroke="#1D2E43" stroke-width="1.325"/>
<path d="M53 37.196C53.0999 39.441 53.1544 41.6935 53.1816 43.9385C53.1907 45.0421 53.2089 46.1457 53.2361 47.2492C53.2543 48.2395 53.1362 49.3506 53.6448 50.2652C53.7357 50.4164 53.9718 50.3484 54.0354 50.2199C54.4986 49.2674 54.2806 48.1109 54.2261 47.1132C54.1625 46.0096 54.0717 44.906 53.9627 43.8024C53.7447 41.5953 53.4995 39.3881 53.2361 37.1885C53.2271 37.0751 53 37.0675 53 37.196Z" fill="#1D2E43"/>
<path d="M56.9746 39.8161C57.0745 41.3876 57.129 42.9644 57.1563 44.5359C57.1653 45.3084 57.1835 46.0809 57.2108 46.8534C57.2289 47.5465 57.1108 48.3243 57.6195 48.9645C57.7103 49.0704 57.9464 49.0228 58.01 48.9328C58.4732 48.2661 58.2552 47.4566 58.2007 46.7581C58.1371 45.9856 58.0463 45.2131 57.9373 44.4406C57.7193 42.8956 57.4741 41.3506 57.2108 39.8108C57.2017 39.7315 56.9746 39.7262 56.9746 39.8161Z" fill="#1D2E43"/>
<path d="M60.9502 41.1215C61.0501 42.2439 61.1046 43.3702 61.1318 44.4927C61.1409 45.0445 61.1591 45.5963 61.1863 46.1481C61.2045 46.6432 61.0864 47.1987 61.595 47.656C61.6859 47.7316 61.922 47.6976 61.9856 47.6334C62.4488 47.1572 62.2308 46.5789 62.1763 46.08C62.1127 45.5282 62.0219 44.9764 61.9129 44.4247C61.6949 43.3211 61.4497 42.2175 61.1863 41.1177C61.1773 41.061 60.9502 41.0572 60.9502 41.1215Z" fill="#1D2E43"/>
<path d="M55.6504 50.2571C55.5505 48.0121 55.496 45.7596 55.4688 43.5146C55.4597 42.411 55.4415 41.3075 55.4142 40.2039C55.3961 39.2137 55.5142 38.1025 55.0055 37.1879C54.9147 37.0367 54.6786 37.1048 54.615 37.2333C54.1518 38.1857 54.3698 39.3422 54.4243 40.3399C54.4879 41.4435 54.5787 42.5471 54.6877 43.6507C54.9057 45.8579 55.1509 48.065 55.4142 50.2646C55.4233 50.378 55.6504 50.3856 55.6504 50.2571Z" fill="#1D2E43"/>
<path d="M60.9502 48.9573C60.8503 47.3858 60.7958 45.8091 60.7686 44.2376C60.7595 43.4651 60.7413 42.6926 60.714 41.9201C60.6959 41.2269 60.814 40.4491 60.3054 39.8089C60.2145 39.7031 59.9784 39.7507 59.9148 39.8406C59.4516 40.5073 59.6696 41.3169 59.7241 42.0153C59.7877 42.7878 59.8785 43.5603 59.9875 44.3328C60.2055 45.8778 60.4507 47.4229 60.714 48.9626C60.7231 49.042 60.9502 49.0472 60.9502 48.9573Z" fill="#1D2E43"/>
<path d="M64.9248 47.6614C64.8249 46.7634 64.7704 45.8624 64.7432 44.9644C64.7341 44.523 64.7159 44.0816 64.6887 43.6401C64.6705 43.2441 64.7886 42.7996 64.28 42.4338C64.1891 42.3733 63.953 42.4005 63.8894 42.4519C63.4262 42.8329 63.6442 43.2955 63.6987 43.6946C63.7623 44.136 63.8531 44.5774 63.9621 45.0189C64.1801 45.9017 64.4253 46.7846 64.6887 47.6644C64.6977 47.7098 64.9248 47.7128 64.9248 47.6614Z" fill="#1D2E43"/>
</g>
<defs>
<clipPath id="clip0_7761_23808">
<rect width="95.9907" height="112.744" fill="white" transform="translate(26.5 21.1992)"/>
</clipPath>
</defs>
</svg>
