<svg width="159" height="159" viewBox="0 0 159 159" fill="none" xmlns="http://www.w3.org/2000/svg">
<circle cx="56.5" cy="78.5039" r="56.5" fill="#BADDFE"/>
<g clip-path="url(#clip0_9381_5683)">
<circle cx="76.5" cy="79.5" r="49.5" fill="white"/>
<path d="M73.215 30.0834C71.44 30.1644 69.0386 30.3727 68.5165 30.5116C68.3541 30.5463 67.6812 30.6736 67.0084 30.7893C65.6163 31.0208 63.9109 31.3911 63.0988 31.6341C61.1034 32.2243 60.4074 32.4327 60.0825 32.5831C59.8853 32.6757 59.6649 32.7451 59.5837 32.7451C59.5025 32.7451 59.2821 32.8146 59.0849 32.9072C58.876 32.9997 58.3772 33.2196 57.9596 33.3816C57.5419 33.5437 56.9271 33.8098 56.5906 33.9719C56.2542 34.1223 55.9526 34.2496 55.9294 34.2496C55.8482 34.2496 53.2495 35.5573 52.6695 35.8814C49.9316 37.4437 48.2379 38.5663 45.8944 40.3832C44.9548 41.1123 42.8434 42.9987 41.7181 44.0981C38.551 47.2228 35.3955 51.2501 33.2377 54.9072C30.6158 59.328 28.7365 64.3043 27.6112 69.7204C27.0543 72.4169 27.0659 72.3359 27.0195 79.0366C26.9615 85.8414 27.0079 86.6168 27.5068 89.1628C28.0752 91.9866 29.2933 96.257 29.827 97.287C29.9198 97.4606 30.001 97.6573 30.001 97.7036C30.001 97.7499 30.1054 98.0392 30.2446 98.3401C30.3722 98.641 30.523 98.9882 30.581 99.1155C32.5764 103.721 34.6878 107.193 37.8781 111.093C39.9199 113.593 43.4234 116.938 46.0685 118.917C48.5163 120.745 50.6161 122.076 53.5627 123.65C54.1776 123.986 54.8853 124.333 55.1289 124.437C55.3841 124.529 55.999 124.807 56.5094 125.039C58.9456 126.138 62.0315 127.238 64.0849 127.712C64.5142 127.816 64.9434 127.909 65.0362 127.932C68.2033 128.707 69.897 128.892 74.2474 128.985C78.1802 129.066 82.7162 128.811 85.106 128.395C85.3265 128.349 85.9297 128.244 86.4402 128.152C86.9506 128.048 87.4727 127.955 87.6003 127.932C88.9924 127.712 93.1456 126.508 94.2129 126.022C94.3405 125.964 95.199 125.606 96.1271 125.212C100.651 123.291 103.83 121.416 107.728 118.338C109.433 116.984 113.575 112.887 114.816 111.325C116.916 108.663 117.925 107.228 119.271 104.96C120.072 103.617 121.707 100.412 122.113 99.4164C122.229 99.127 122.519 98.4095 122.751 97.8425C123.807 95.2501 124.631 92.2991 125.257 88.9314C125.826 85.8183 125.988 83.874 126 79.9624C126 76.1781 125.884 74.6505 125.315 71.2249C124.909 68.7599 123.691 64.1307 123.065 62.6031C122.995 62.4411 122.693 61.6889 122.403 60.925C120.57 56.2033 117.171 50.6136 113.958 46.9797C112.322 45.1512 108.819 41.772 107.438 40.7188C107.125 40.4758 106.522 40.0129 106.104 39.6888C105.454 39.1796 103.413 37.7677 102.832 37.4321C100.721 36.1707 100.083 35.8119 99.2013 35.3722C97.4032 34.4695 94.2825 33.0923 94.0157 33.0923C93.9229 33.0923 93.8068 33.046 93.7372 32.9882C93.6792 32.9303 93.424 32.8261 93.1688 32.7567C92.9136 32.6757 92.6003 32.5715 92.4727 32.5137C92.0319 32.3285 89.8741 31.692 89.1084 31.5184C88.9808 31.4953 88.4123 31.368 87.8323 31.2291C83.0527 30.1412 79.0851 29.8288 73.215 30.0834ZM78.1454 31.6457C86.243 31.9813 87.7511 32.2128 88.5052 33.2312C88.7952 33.6247 88.8184 34.4463 88.5516 35.0713C88.4007 35.43 88.2963 35.5226 87.7627 35.6731C86.4634 36.055 85.2105 36.0202 82.3798 35.5226C81.6141 35.3837 80.802 35.2564 80.5816 35.2217C80.3612 35.1986 79.9204 35.1176 79.5955 35.0597C77.925 34.7472 75.8484 34.8282 73.447 35.3143C71.962 35.6036 69.0386 35.7309 68.0293 35.5342C67.3332 35.3953 65.9643 34.7704 65.9643 34.5968C65.9643 34.3769 66.3703 33.5668 66.672 33.1849C67.252 32.4558 68.4005 31.8772 69.8506 31.5763C70.3031 31.4837 75.4076 31.53 78.1454 31.6457ZM62.7508 33.4395C63.0176 33.4395 63.2264 33.5668 63.6093 33.9603C65.2798 35.7078 64.9202 37.6752 62.3796 40.6147C61.6255 41.4826 61.6603 41.4595 60.9758 42.1886C60.4422 42.7557 58.7136 44.7346 58.5628 44.9545C58.4352 45.1281 57.9247 45.9498 57.7275 46.3085C56.9967 47.6162 55.3377 49.1207 53.7948 49.873C52.2286 50.6483 51.0105 51.0418 47.8086 51.8288C44.9316 52.5347 44.4095 52.6736 43.3422 53.0555C43.0522 53.1597 42.5997 53.3448 42.3329 53.4605C42.0545 53.5878 41.6021 53.692 41.312 53.692C40.8364 53.692 40.7204 53.6341 40.2331 53.1365C39.4559 52.3611 39.131 51.3311 39.189 49.8498C39.2238 48.843 39.247 48.7388 39.6299 48.1949C41.3816 45.6952 44.4675 42.7672 47.9826 40.3022C48.7135 39.7814 49.5836 39.1796 49.8968 38.9482C50.2216 38.7283 50.9989 38.2538 51.6486 37.9066C52.2866 37.5594 53.2843 37.0039 53.8528 36.6799C55.9178 35.4763 56.289 35.268 57.2635 34.8167C58.6556 34.157 58.6324 34.1686 59.4445 33.9024C60.245 33.6362 61.9967 33.3238 62.2287 33.3932C62.3216 33.4164 62.5536 33.4395 62.7508 33.4395ZM93.2964 34.3769C96.5679 35.4069 100.303 37.3048 103.958 39.7814C104.77 40.3369 105.245 40.7073 106.278 41.5636C106.406 41.6678 106.881 42.0381 107.322 42.3969C110.756 45.1512 111.672 45.9729 112.705 47.2691C114.144 49.0629 114.735 51.0881 114.341 52.7893C114.283 53.0671 114.202 53.4837 114.167 53.7267C114.12 54.0045 113.946 54.3285 113.726 54.5715C113.239 55.0923 112.705 55.1849 112.009 54.8724C111.73 54.7451 110.663 54.3748 109.642 54.0392C104.491 52.3496 103.656 52.0602 102.798 51.6668C99.967 50.3822 99.1665 49.9193 97.6352 48.7041C96.4983 47.7898 96.2315 47.5237 95.9646 47.0145C95.5586 46.2159 94.3405 44.6999 92.2059 42.3043C89.6189 39.3995 88.9112 37.0965 90.1293 35.4995C90.5585 34.944 91.6838 34.0297 91.9623 34.0181C92.0667 34.0181 92.6699 34.1802 93.2964 34.3769ZM79.0155 36.46C79.7231 36.5179 81.0805 36.622 82.0318 36.6799C83.3079 36.7493 83.9575 36.8419 84.4564 37.0271C87.5771 38.1497 89.4564 40.0013 94.0041 46.4358C94.3057 46.8756 94.8509 47.5815 95.2106 47.9982C96.2779 49.2827 96.2895 49.2943 96.2779 50.4979C96.2663 52.8935 95.083 54.803 90.7442 59.3743C89.6885 60.4737 89.294 60.925 88.4007 62.036L87.7743 62.7998L84.9668 62.8809C83.4123 62.9156 78.7719 62.9503 74.6419 62.9619H67.136L66.5211 62.6494C64.4677 61.631 62.484 59.8025 60.4422 57.0481C59.5837 55.8908 58.702 54.3748 57.5535 52.1065L56.8226 50.6368L57.0083 50.1739C57.8319 48.1023 59.7925 45.0355 61.8343 42.6052C62.8436 41.4132 65.9759 38.3464 66.6836 37.8603C67.4492 37.3395 69.549 36.703 71.3588 36.4484C72.2405 36.3211 77.577 36.3327 79.0155 36.46ZM55.3725 52.3496C56.6486 53.0092 58.1336 54.56 59.3169 56.4695C59.5721 56.8861 60.4422 58.3443 61.2427 59.7215C62.0431 61.0986 62.8552 62.4527 63.0524 62.7304C63.2612 63.0082 63.5049 63.3553 63.6093 63.5058C63.7717 63.7488 63.7717 63.8183 63.5861 64.4316C63.2032 65.7162 61.3355 71.3522 60.8598 72.6715C60.593 73.4006 60.2218 74.419 60.0477 74.9282C59.8621 75.4374 59.5257 76.3748 59.2937 77.0113C59.0616 77.6478 58.818 78.319 58.7484 78.5158C58.6904 78.7009 58.5628 79.0134 58.4816 79.2102C58.412 79.3953 58.1452 80.1013 57.9131 80.7725C57.0895 83.0871 56.5674 83.9087 55.3841 84.742C53.9108 85.7835 52.1822 86.4085 48.9107 87.0681C46.5557 87.5426 45.3492 87.8667 44.5255 88.2486C43.8179 88.5842 43.203 88.5032 42.0893 87.9361C40.0475 86.9061 38.3189 84.7998 36.1496 80.7146C35.3839 79.268 34.0266 76.9534 33.5161 76.2244L33.1217 75.6689L33.2377 74.4306C33.5509 71.0397 34.131 68.4474 35.2563 65.3806C36.2888 62.5568 38.551 57.9855 39.4443 56.9093C40.4419 55.7057 42.3909 54.479 44.3747 53.7846C45.1056 53.5415 47.275 52.9629 48.5047 52.6852C50.0128 52.3611 51.1729 52.0834 51.579 51.9676C51.7994 51.9098 52.5651 51.8635 53.2611 51.8866C54.4792 51.9098 54.572 51.9329 55.3725 52.3496ZM101.533 52.3148C103.146 52.6042 104.12 52.9976 108.192 54.9997C109.561 55.671 111.232 56.4001 111.905 56.6199C113.262 57.0713 113.181 56.9903 114.294 58.8651C115.199 60.3811 116.058 62.1286 116.719 63.7604C116.881 64.177 117.067 64.6168 117.125 64.7441C117.369 65.2649 118.076 67.5447 118.343 68.6557C119.028 71.5258 119.086 72.5558 118.633 74.4653C118.111 76.6757 117.171 78.5505 113.795 84.1286C112.972 85.4942 112.079 87.0103 111.823 87.4848L111.359 88.3527L110.176 88.3296C109.526 88.318 108.935 88.2717 108.853 88.2138C108.552 87.9824 106.22 87.3227 104.19 86.8945C103.807 86.8135 103.471 86.7441 103.436 86.7325C103.401 86.7209 103.064 86.6515 102.682 86.5705C100.361 86.0729 98.3777 85.3553 96.9971 84.5221C96.0342 83.9435 95.3498 83.0755 94.4913 81.3511C93.6096 79.6036 93.366 78.8167 91.8927 73.0187C91.5098 71.5258 91.1502 70.4958 90.3033 68.5168C89.2824 66.1213 89.3404 64.3159 90.5237 61.9782C91.2314 60.5663 92.1363 59.3627 94.9669 56.0644C95.4542 55.4858 96.1271 54.6641 96.4519 54.2244C97.1131 53.3448 97.554 52.9745 98.3313 52.6273C99.3057 52.1991 100.338 52.095 101.533 52.3148ZM38.3422 52.6273C38.841 52.9861 38.9802 53.5994 38.8178 54.6525C38.5742 56.3075 37.6461 58.3674 36.2076 60.4621C35.8131 61.0292 35.3491 61.7814 35.1751 62.117C34.769 62.9156 34.2122 64.4779 34.0614 65.2764C33.9918 65.6236 33.8873 66.0287 33.8177 66.1907C33.7597 66.3527 33.6321 66.9776 33.5393 67.5794C33.0637 70.4495 32.9941 70.8198 32.53 72.4979C31.7875 75.2291 30.4186 77.4742 29.0961 78.157C28.7249 78.3538 28.7133 78.3538 28.3884 78.0181C27.9824 77.6247 27.6808 76.6757 27.6808 75.8656C27.6808 74.824 27.8432 73.9677 28.7133 70.5189C28.8989 69.7551 29.0961 68.8409 29.1425 68.4937C29.2701 67.429 30.8131 62.7304 31.7992 60.4158C33.1101 57.3143 34.7806 54.6178 36.4048 52.9513C37.0428 52.2917 37.0776 52.2685 37.5533 52.338C37.8201 52.3727 38.1797 52.5 38.3422 52.6273ZM117.415 53.8077C117.949 54.6525 119.886 58.4832 120.547 59.9992C122.508 64.4779 123.656 68.4011 124.376 73.0765C124.666 74.9976 124.805 80.1938 124.561 80.1938C124.399 80.1938 123.216 78.9903 122.833 78.4348C121.626 76.6873 121.023 74.9629 120.025 70.4148C119.642 68.6904 119.364 67.672 118.877 66.2486C118.703 65.7393 118.448 64.9755 118.308 64.5473C118.169 64.1191 117.624 62.8924 117.113 61.8277C115.617 58.7378 115.431 58.3096 115.164 57.3606C114.863 56.2496 114.851 55.4048 115.153 54.7567C115.408 54.1896 115.686 53.9235 116.371 53.5763C116.997 53.2638 117.079 53.2754 117.415 53.8077ZM85.2453 64.0497C87.4379 64.7094 88.7604 66.075 89.2244 68.1581C89.4216 69.0145 89.6421 69.8477 90.1177 71.4563C90.2453 71.8961 90.8718 73.8519 91.5098 75.7962C93.2384 81.0618 93.5168 82.0224 93.9229 84.3022L94.0389 84.9966L93.482 85.5289C91.7419 87.1607 88.6328 89.7183 84.178 93.167C82.3016 94.618 79.0938 96.9706 76.5 96.9706C72.9372 96.9706 68.0495 92.3569 65.0942 90.5516C64.0733 89.9266 62.8436 89.1397 62.368 88.7809C60.5234 87.4269 59.1545 85.8646 58.4468 84.3369C58.1452 83.6773 58.1336 83.3995 58.3772 82.7283C58.6904 81.8488 59.6881 79.025 60.0477 77.995C60.2334 77.4511 60.6046 76.4095 60.8598 75.6804C61.1266 74.9513 61.4399 74.0487 61.5559 73.6899C61.8459 72.8682 63.1568 69.3385 63.296 69.026C63.3424 68.8987 63.4237 68.5284 63.4585 68.2159C63.5281 67.591 63.8761 66.5957 64.1893 66.0981C65.2334 64.4432 67.6696 63.7141 71.3588 63.9803C74.6187 64.2117 77.0897 64.258 78.5514 64.1076C79.3171 64.0266 80.338 63.9224 80.8137 63.8761C82.113 63.7372 84.526 63.8414 85.2453 64.0497ZM120.965 77.6825C121.707 78.6778 122.369 79.7888 122.856 80.8188C123.088 81.3048 123.274 81.733 123.274 81.7678C123.274 81.8025 123.355 81.9992 123.436 82.196C123.656 82.6704 123.958 83.7699 124.097 84.5915C124.387 86.3043 124.422 86.6747 124.364 87.4848C124.248 89.0702 123.83 90.9913 123.448 91.7204C123.355 91.9056 123.274 92.1023 123.274 92.1602C123.274 92.218 123.1 92.7735 122.879 93.3753C122.659 93.9887 122.218 95.2386 121.881 96.1644C121.557 97.0902 121.22 98.0045 121.127 98.2128C121.035 98.4095 120.953 98.6063 120.953 98.6526C120.953 98.9882 118.703 103.444 118.041 104.416C117.299 105.515 116.348 106.754 115.814 107.332C115.385 107.795 115.234 107.876 114.631 107.98C113.633 108.165 112.299 108.061 111.719 107.76C111.104 107.448 110.315 106.557 110.164 106.013C109.979 105.353 110.025 104.034 110.269 103.097C110.396 102.622 110.524 101.974 110.57 101.661C110.617 101.337 110.698 100.921 110.744 100.736C110.802 100.539 110.907 99.6825 110.976 98.8261C111.046 97.9698 111.15 96.8472 111.208 96.338C111.266 95.8288 111.371 94.8682 111.44 94.2086C111.742 91.1881 112.566 88.5842 113.772 86.8367C114.086 86.3738 115.269 84.1171 115.269 83.9782C115.269 83.8856 116.487 81.3164 116.916 80.4832C117.461 79.43 118.076 78.5852 118.772 77.9256C120.037 76.7104 120.234 76.6873 120.965 77.6825ZM32.7388 78.4695C33.8873 79.0366 34.7922 80.0781 36.5556 82.8556C36.9152 83.4227 37.7969 84.9387 37.9825 85.2859C38.0637 85.4479 38.435 86.015 38.8178 86.5589C41.2424 90.0076 41.5788 92.5074 40.732 101.025C40.7088 101.245 40.6276 102.252 40.5464 103.27L40.3955 105.11L39.7691 105.4C37.6809 106.349 35.4071 105.469 33.6553 103.05C32.9361 102.055 32.0428 100.307 31.7063 99.2312C31.5439 98.722 30.8015 96.4537 30.0706 94.197C28.0172 87.8898 27.878 87.2301 27.8664 84.3022C27.8548 82.6126 27.8896 82.1728 28.1332 81.2123L28.4 80.0897L29.2353 79.3027C30.5346 78.076 31.4743 77.8561 32.7388 78.4695ZM98.6909 86.4432C99.9554 86.7094 99.7698 86.6631 102.856 87.6352C105.338 88.4221 106.626 88.7578 107.194 88.7578C107.647 88.7578 108.25 89.1397 108.935 89.8456C109.538 90.4821 109.828 90.9798 110.188 91.9866C110.478 92.8198 110.594 94.9724 110.408 96.2223C110.234 97.4953 109.48 101.499 109.236 102.518C109.167 102.796 109.062 103.71 108.993 104.543C108.853 106.302 108.737 106.95 108.355 107.911C107.218 110.735 104.491 113.339 99.793 116.081C99.4218 116.301 98.9809 116.556 98.8069 116.66C98.6445 116.764 97.728 117.296 96.7883 117.84C94.6537 119.067 94.4217 119.125 91.7187 119.044C89.9669 118.986 89.5028 118.94 88.3543 118.639C86.881 118.257 85.2685 117.736 82.9018 116.88C81.0805 116.232 79.4795 115.723 79.2359 115.723C78.9575 115.723 77.867 114.623 77.5305 114.021C77.3681 113.709 77.1245 113.026 76.9853 112.494C76.7649 111.637 76.7417 111.279 76.7881 109.6C76.8113 108.547 76.9737 106.349 77.1361 104.728C77.3278 102.936 77.2611 101.417 77.983 99.7867C78.6094 99.0692 79.9668 97.7383 80.6976 97.1249C80.8601 96.9861 81.2313 96.6852 81.5213 96.4421C81.8229 96.1875 82.9598 95.3427 84.0503 94.5442C89.0504 90.9103 89.7349 90.3664 91.6722 88.5032C92.9948 87.2417 93.656 86.8135 94.8509 86.4316C95.7442 86.1539 97.322 86.1539 98.6909 86.4432ZM58.586 86.9987C59.0965 87.369 60.4886 88.3759 61.6719 89.2207C62.8552 90.0655 64.0037 90.8987 64.2357 91.0608C65.6279 92.0445 69.3518 94.7988 70.4887 95.6899C71.2196 96.2685 72.1941 96.9629 72.6349 97.2291C73.7602 97.9119 74.8739 99.046 75.3147 99.9834C75.5236 100.4 75.7904 101.233 75.9296 101.835C76.1732 102.888 76.1732 103.131 76.1268 108.084C76.092 111.059 76.0224 113.396 75.9528 113.616C75.6744 114.519 74.7231 115.479 73.737 115.827C73.5166 115.908 73.2266 116.023 73.0989 116.07C72.7393 116.232 70.9759 116.625 70.0827 116.764C69.6418 116.822 68.6905 116.961 67.9713 117.053C66.8924 117.204 65.9295 117.401 64.6882 117.748C64.5954 117.771 64.1429 117.921 63.6789 118.083C61.7415 118.755 59.2009 118.986 57.6695 118.627C56.1614 118.269 52.2982 116.07 50.0128 114.253C48.3307 112.91 48.1799 112.783 46.6253 111.348C44.5603 109.427 42.9014 107.668 42.6461 107.101C42.3561 106.476 41.9965 105.018 41.8109 103.745C41.486 101.546 41.6949 95.1344 42.1821 92.1833C42.3097 91.4195 42.4837 91.1765 43.6554 90.2507C45.3956 88.8619 48.5511 87.6815 52.101 87.0797C53.6324 86.8251 56.8574 86.3738 57.4259 86.339C57.5419 86.339 58.064 86.6284 58.586 86.9987ZM41.254 107.367C43.3804 108.816 45.7551 111.362 47.4026 113.396C48.1451 114.334 49.8156 115.503 52.2286 116.764C55.2449 118.35 56.0686 118.893 57.2635 120.109C58.3424 121.196 58.876 122.111 59.1197 123.268C59.6155 125.776 52.2634 121.349 51.4588 120.847C46.7007 117.88 42.2779 114.601 38.6471 110.365C37.2897 108.779 36.9848 108.42 37.4257 107.737C38.3538 106.302 39.5487 106.186 41.254 107.367ZM113.273 109.716C113.668 109.913 113.993 110.121 113.993 110.191C113.993 110.584 110.106 114.646 108.018 116.428C104.677 119.299 101.19 121.173 97.2577 122.851C96.7821 123.048 97.4665 122.759 97.2577 122.851C97.0605 122.944 93.8683 124.569 93.8219 124.569C92.9982 124.927 94.2395 124.372 93.8219 124.569C93.4042 124.765 92.502 124.9 92.2235 124.924L91.9623 124.715C91.143 121.337 96.6763 118.958 98.7953 117.956C99.7234 117.516 100.767 116.949 101.116 116.706C101.464 116.463 102.067 116.047 102.45 115.792C103.436 115.144 104.317 114.38 106.452 112.309C109.445 109.404 111.22 108.733 113.273 109.716ZM79.3635 116.926C82.2406 117.632 82.8786 117.806 85.8601 118.789C86.6954 119.056 87.8439 119.426 88.4123 119.611C89.352 119.912 89.5261 120.004 90.1641 120.641C90.953 121.416 91.1154 121.868 90.9646 122.851C90.3806 126.8 83.539 126.85 80.5765 127.253C79.1147 127.473 75.0595 127.392 73.0989 127.253C69.258 126.958 66.5065 127.294 63.1059 125.212C61.6906 124.367 60.7394 124.287 60.1941 123.176C59.2776 121.348 59.9781 120.363 62.0547 119.518C62.9132 119.171 64.7694 118.697 65.7903 118.558C66.1151 118.523 66.5559 118.442 66.7764 118.384C66.9968 118.326 67.7624 118.188 68.4585 118.083C69.1662 117.979 70.2567 117.713 70.8947 117.505C73.447 116.683 73.563 116.66 76.3472 116.695C77.9482 116.718 78.7719 116.787 79.3635 116.926Z" fill="#1D2E43"/>
<path d="M97.2577 122.851C101.19 121.173 104.677 119.299 108.018 116.428C110.106 114.646 113.993 110.584 113.993 110.191C113.993 110.121 113.668 109.913 113.273 109.716C111.22 108.733 109.445 109.404 106.452 112.309C104.317 114.38 103.436 115.144 102.45 115.792C102.067 116.047 101.464 116.463 101.116 116.706C100.767 116.949 99.7234 117.516 98.7953 117.956C96.6763 118.958 91.143 121.337 91.9623 124.715L92.2235 124.924C92.502 124.9 93.4042 124.765 93.8219 124.569M97.2577 122.851C96.782 123.048 97.4665 122.759 97.2577 122.851ZM97.2577 122.851C97.0605 122.944 93.8683 124.569 93.8219 124.569M93.8219 124.569C92.9982 124.927 94.2395 124.372 93.8219 124.569ZM73.215 30.0834C71.44 30.1644 69.0386 30.3727 68.5165 30.5116C68.3541 30.5463 67.6812 30.6736 67.0084 30.7893C65.6163 31.0208 63.9109 31.3911 63.0988 31.6341C61.1034 32.2244 60.4074 32.4327 60.0825 32.5831C59.8853 32.6757 59.6649 32.7451 59.5837 32.7451C59.5025 32.7451 59.2821 32.8146 59.0849 32.9072C58.876 32.9997 58.3772 33.2196 57.9596 33.3816C57.5419 33.5437 56.9271 33.8098 56.5906 33.9719C56.2542 34.1223 55.9526 34.2496 55.9294 34.2496C55.8482 34.2496 53.2495 35.5573 52.6695 35.8814C49.9316 37.4437 48.2379 38.5663 45.8944 40.3832C44.9548 41.1123 42.8434 42.9987 41.7181 44.0981C38.551 47.2228 35.3955 51.2501 33.2377 54.9072C30.6158 59.328 28.7365 64.3043 27.6112 69.7204C27.0543 72.4169 27.0659 72.3359 27.0195 79.0366C26.9615 85.8414 27.0079 86.6168 27.5068 89.1628C28.0752 91.9866 29.2933 96.257 29.827 97.287C29.9198 97.4606 30.001 97.6573 30.001 97.7036C30.001 97.7499 30.1054 98.0392 30.2446 98.3401C30.3722 98.641 30.523 98.9882 30.581 99.1155C32.5764 103.721 34.6878 107.193 37.8781 111.093C39.9199 113.593 43.4234 116.938 46.0685 118.917C48.5163 120.745 50.6161 122.076 53.5627 123.65C54.1776 123.986 54.8853 124.333 55.1289 124.437C55.3841 124.529 55.999 124.807 56.5094 125.039C58.9456 126.138 62.0315 127.238 64.0849 127.712C64.5142 127.816 64.9434 127.909 65.0362 127.932C68.2033 128.707 69.897 128.892 74.2474 128.985C78.1802 129.066 82.7162 128.811 85.106 128.395C85.3265 128.349 85.9297 128.244 86.4402 128.152C86.9506 128.048 87.4727 127.955 87.6003 127.932C88.9924 127.712 93.1456 126.508 94.2129 126.022C94.3405 125.964 95.199 125.606 96.1271 125.212C100.651 123.291 103.83 121.416 107.728 118.338C109.433 116.984 113.575 112.887 114.816 111.325C116.916 108.663 117.925 107.228 119.271 104.96C120.072 103.617 121.707 100.412 122.113 99.4164C122.229 99.127 122.519 98.4095 122.751 97.8425C123.807 95.2501 124.631 92.2991 125.257 88.9314C125.826 85.8183 125.988 83.874 126 79.9624C126 76.1781 125.884 74.6505 125.315 71.2249C124.909 68.7599 123.691 64.1307 123.065 62.6031C122.995 62.4411 122.693 61.6888 122.403 60.925C120.57 56.2033 117.171 50.6136 113.958 46.9797C112.322 45.1512 108.819 41.772 107.438 40.7188C107.125 40.4758 106.522 40.0129 106.104 39.6888C105.454 39.1796 103.413 37.7677 102.832 37.4321C100.721 36.1707 100.083 35.8119 99.2013 35.3722C97.4032 34.4695 94.2825 33.0923 94.0157 33.0923C93.9229 33.0923 93.8068 33.046 93.7372 32.9882C93.6792 32.9303 93.424 32.8261 93.1688 32.7567C92.9136 32.6757 92.6003 32.5715 92.4727 32.5137C92.0319 32.3285 89.8741 31.692 89.1084 31.5184C88.9808 31.4953 88.4123 31.368 87.8323 31.2291C83.0527 30.1412 79.0851 29.8288 73.215 30.0834ZM78.1454 31.6457C86.2429 31.9813 87.7511 32.2128 88.5052 33.2312C88.7952 33.6247 88.8184 34.4463 88.5516 35.0713C88.4007 35.43 88.2963 35.5226 87.7627 35.6731C86.4634 36.055 85.2105 36.0202 82.3798 35.5226C81.6141 35.3837 80.802 35.2564 80.5816 35.2217C80.3612 35.1986 79.9204 35.1176 79.5955 35.0597C77.925 34.7472 75.8484 34.8282 73.447 35.3143C71.962 35.6036 69.0386 35.7309 68.0293 35.5342C67.3332 35.3953 65.9643 34.7704 65.9643 34.5968C65.9643 34.3769 66.3703 33.5668 66.6719 33.1849C67.252 32.4558 68.4005 31.8772 69.8506 31.5763C70.3031 31.4837 75.4076 31.53 78.1454 31.6457ZM62.7508 33.4395C63.0176 33.4395 63.2264 33.5668 63.6093 33.9603C65.2798 35.7078 64.9202 37.6752 62.3796 40.6147C61.6255 41.4826 61.6603 41.4595 60.9758 42.1886C60.4422 42.7557 58.7136 44.7346 58.5628 44.9545C58.4352 45.1281 57.9247 45.9498 57.7275 46.3085C56.9967 47.6162 55.3377 49.1207 53.7948 49.873C52.2286 50.6483 51.0105 51.0418 47.8086 51.8288C44.9316 52.5347 44.4095 52.6736 43.3422 53.0555C43.0522 53.1597 42.5997 53.3448 42.3329 53.4605C42.0545 53.5878 41.6021 53.692 41.312 53.692C40.8364 53.692 40.7204 53.6341 40.2331 53.1365C39.4559 52.3611 39.131 51.3311 39.189 49.8498C39.2238 48.843 39.247 48.7388 39.6299 48.1949C41.3816 45.6952 44.4675 42.7672 47.9826 40.3022C48.7135 39.7814 49.5836 39.1796 49.8968 38.9482C50.2216 38.7283 50.9989 38.2538 51.6486 37.9066C52.2866 37.5594 53.2843 37.0039 53.8528 36.6799C55.9178 35.4763 56.289 35.268 57.2635 34.8167C58.6556 34.157 58.6324 34.1686 59.4445 33.9024C60.245 33.6362 61.9967 33.3238 62.2287 33.3932C62.3216 33.4164 62.5536 33.4395 62.7508 33.4395ZM93.2964 34.3769C96.5679 35.4069 100.303 37.3048 103.958 39.7814C104.77 40.3369 105.245 40.7073 106.278 41.5636C106.406 41.6678 106.881 42.0381 107.322 42.3969C110.756 45.1512 111.672 45.9729 112.705 47.2691C114.144 49.0629 114.735 51.0881 114.341 52.7893C114.283 53.0671 114.202 53.4837 114.167 53.7267C114.12 54.0045 113.946 54.3285 113.726 54.5715C113.239 55.0923 112.705 55.1849 112.009 54.8724C111.73 54.7451 110.663 54.3748 109.642 54.0392C104.491 52.3496 103.656 52.0602 102.798 51.6668C99.967 50.3822 99.1665 49.9192 97.6352 48.7041C96.4983 47.7898 96.2315 47.5237 95.9646 47.0145C95.5586 46.2159 94.3405 44.6999 92.2059 42.3043C89.6189 39.3995 88.9112 37.0965 90.1293 35.4995C90.5585 34.944 91.6838 34.0297 91.9623 34.0181C92.0667 34.0181 92.6699 34.1802 93.2964 34.3769ZM79.0155 36.46C79.7231 36.5179 81.0805 36.622 82.0318 36.6799C83.3079 36.7493 83.9575 36.8419 84.4564 37.0271C87.5771 38.1497 89.4564 40.0013 94.0041 46.4358C94.3057 46.8756 94.8509 47.5815 95.2106 47.9982C96.2779 49.2827 96.2895 49.2943 96.2779 50.4979C96.2663 52.8935 95.083 54.803 90.7442 59.3743C89.6885 60.4737 89.294 60.925 88.4007 62.036L87.7743 62.7998L84.9668 62.8809C83.4123 62.9156 78.7719 62.9503 74.6419 62.9619H67.136L66.5211 62.6494C64.4677 61.631 62.484 59.8025 60.4422 57.0481C59.5837 55.8908 58.702 54.3748 57.5535 52.1065L56.8226 50.6368L57.0083 50.1739C57.8319 48.1023 59.7925 45.0355 61.8343 42.6052C62.8436 41.4132 65.9759 38.3464 66.6836 37.8603C67.4492 37.3395 69.549 36.703 71.3588 36.4484C72.2405 36.3211 77.577 36.3327 79.0155 36.46ZM55.3725 52.3496C56.6486 53.0092 58.1336 54.56 59.3169 56.4695C59.5721 56.8861 60.4422 58.3443 61.2427 59.7215C62.0431 61.0986 62.8552 62.4527 63.0524 62.7304C63.2612 63.0082 63.5049 63.3553 63.6093 63.5058C63.7717 63.7488 63.7717 63.8183 63.5861 64.4316C63.2032 65.7162 61.3355 71.3522 60.8598 72.6715C60.593 73.4006 60.2218 74.419 60.0477 74.9282C59.8621 75.4374 59.5257 76.3748 59.2937 77.0113C59.0617 77.6478 58.818 78.319 58.7484 78.5158C58.6904 78.7009 58.5628 79.0134 58.4816 79.2102C58.412 79.3953 58.1452 80.1013 57.9131 80.7725C57.0895 83.0871 56.5674 83.9087 55.3841 84.742C53.9108 85.7835 52.1822 86.4085 48.9107 87.0681C46.5557 87.5426 45.3492 87.8667 44.5255 88.2486C43.8179 88.5842 43.203 88.5032 42.0893 87.9361C40.0475 86.9061 38.3189 84.7998 36.1496 80.7146C35.3839 79.268 34.0266 76.9534 33.5161 76.2244L33.1217 75.6689L33.2377 74.4306C33.5509 71.0397 34.131 68.4474 35.2563 65.3806C36.2888 62.5568 38.551 57.9855 39.4443 56.9093C40.4419 55.7057 42.3909 54.479 44.3747 53.7846C45.1056 53.5416 47.275 52.9629 48.5047 52.6852C50.0128 52.3611 51.1729 52.0834 51.579 51.9676C51.7994 51.9098 52.5651 51.8635 53.2611 51.8866C54.4792 51.9098 54.572 51.9329 55.3725 52.3496ZM101.533 52.3148C103.146 52.6042 104.12 52.9976 108.192 54.9997C109.561 55.671 111.232 56.4001 111.905 56.6199C113.262 57.0713 113.181 56.9903 114.294 58.8651C115.199 60.3811 116.058 62.1286 116.719 63.7604C116.881 64.177 117.067 64.6168 117.125 64.7441C117.369 65.2649 118.076 67.5447 118.343 68.6557C119.028 71.5258 119.086 72.5558 118.633 74.4653C118.111 76.6757 117.171 78.5505 113.795 84.1286C112.972 85.4942 112.079 87.0103 111.823 87.4848L111.359 88.3527L110.176 88.3296C109.526 88.318 108.935 88.2717 108.853 88.2138C108.552 87.9824 106.22 87.3227 104.19 86.8945C103.807 86.8135 103.471 86.7441 103.436 86.7325C103.401 86.7209 103.064 86.6515 102.682 86.5705C100.361 86.0729 98.3777 85.3553 96.9971 84.5221C96.0342 83.9435 95.3498 83.0755 94.4913 81.3511C93.6096 79.6036 93.366 78.8167 91.8927 73.0187C91.5098 71.5258 91.1502 70.4958 90.3033 68.5168C89.2824 66.1213 89.3404 64.3159 90.5237 61.9782C91.2314 60.5663 92.1363 59.3627 94.9669 56.0644C95.4542 55.4858 96.1271 54.6641 96.4519 54.2244C97.1131 53.3448 97.554 52.9745 98.3313 52.6273C99.3057 52.1991 100.338 52.095 101.533 52.3148ZM38.3422 52.6273C38.841 52.9861 38.9802 53.5994 38.8178 54.6525C38.5742 56.3075 37.6461 58.3674 36.2076 60.4621C35.8131 61.0292 35.3491 61.7814 35.1751 62.117C34.769 62.9156 34.2122 64.4779 34.0614 65.2764C33.9918 65.6236 33.8873 66.0287 33.8177 66.1907C33.7597 66.3527 33.6321 66.9776 33.5393 67.5794C33.0637 70.4495 32.9941 70.8198 32.53 72.4979C31.7875 75.2291 30.4186 77.4742 29.0961 78.157C28.7249 78.3538 28.7133 78.3538 28.3884 78.0181C27.9824 77.6247 27.6808 76.6757 27.6808 75.8656C27.6808 74.824 27.8432 73.9677 28.7133 70.5189C28.8989 69.7551 29.0961 68.8409 29.1425 68.4937C29.2701 67.429 30.8131 62.7304 31.7992 60.4158C33.1101 57.3143 34.7806 54.6178 36.4048 52.9513C37.0428 52.2917 37.0776 52.2685 37.5533 52.338C37.8201 52.3727 38.1797 52.5 38.3422 52.6273ZM117.415 53.8077C117.949 54.6525 119.886 58.4832 120.547 59.9992C122.508 64.4779 123.656 68.4011 124.376 73.0765C124.666 74.9976 124.805 80.1938 124.561 80.1938C124.399 80.1938 123.216 78.9903 122.833 78.4348C121.626 76.6873 121.023 74.9629 120.025 70.4148C119.642 68.6904 119.364 67.672 118.877 66.2486C118.703 65.7393 118.447 64.9755 118.308 64.5473C118.169 64.1191 117.624 62.8924 117.113 61.8277C115.617 58.7378 115.431 58.3096 115.164 57.3606C114.863 56.2496 114.851 55.4048 115.153 54.7567C115.408 54.1896 115.686 53.9235 116.371 53.5763C116.997 53.2638 117.079 53.2754 117.415 53.8077ZM85.2453 64.0497C87.4379 64.7094 88.7604 66.075 89.2244 68.1581C89.4216 69.0145 89.6421 69.8477 90.1177 71.4563C90.2453 71.8961 90.8718 73.8519 91.5098 75.7962C93.2384 81.0618 93.5168 82.0224 93.9229 84.3022L94.0389 84.9966L93.482 85.5289C91.7419 87.1607 88.6328 89.7183 84.178 93.167C82.3016 94.618 79.0938 96.9706 76.5 96.9706C72.9372 96.9706 68.0495 92.3569 65.0942 90.5516C64.0733 89.9266 62.8436 89.1397 62.368 88.7809C60.5234 87.4269 59.1545 85.8646 58.4468 84.3369C58.1452 83.6773 58.1336 83.3995 58.3772 82.7283C58.6904 81.8488 59.6881 79.025 60.0477 77.995C60.2334 77.4511 60.6046 76.4095 60.8598 75.6804C61.1266 74.9513 61.4399 74.0487 61.5559 73.6899C61.8459 72.8682 63.1568 69.3385 63.296 69.026C63.3424 68.8987 63.4237 68.5284 63.4585 68.2159C63.5281 67.591 63.8761 66.5957 64.1893 66.0981C65.2334 64.4432 67.6696 63.7141 71.3588 63.9803C74.6187 64.2117 77.0897 64.258 78.5514 64.1076C79.3171 64.0266 80.338 63.9224 80.8137 63.8761C82.113 63.7372 84.526 63.8414 85.2453 64.0497ZM120.965 77.6825C121.707 78.6778 122.369 79.7888 122.856 80.8188C123.088 81.3048 123.274 81.733 123.274 81.7678C123.274 81.8025 123.355 81.9992 123.436 82.196C123.656 82.6704 123.958 83.7699 124.097 84.5915C124.387 86.3043 124.422 86.6747 124.364 87.4848C124.248 89.0702 123.83 90.9913 123.448 91.7204C123.355 91.9056 123.274 92.1023 123.274 92.1602C123.274 92.218 123.1 92.7735 122.879 93.3753C122.659 93.9887 122.218 95.2386 121.881 96.1644C121.557 97.0902 121.22 98.0045 121.127 98.2128C121.035 98.4095 120.953 98.6063 120.953 98.6526C120.953 98.9882 118.703 103.444 118.041 104.416C117.299 105.515 116.348 106.754 115.814 107.332C115.385 107.795 115.234 107.876 114.631 107.98C113.633 108.165 112.299 108.061 111.719 107.76C111.104 107.448 110.315 106.557 110.164 106.013C109.979 105.353 110.025 104.034 110.269 103.097C110.396 102.622 110.524 101.974 110.57 101.661C110.617 101.337 110.698 100.921 110.744 100.736C110.802 100.539 110.907 99.6825 110.976 98.8261C111.046 97.9698 111.15 96.8472 111.208 96.338C111.266 95.8288 111.371 94.8682 111.44 94.2086C111.742 91.1881 112.566 88.5842 113.772 86.8367C114.086 86.3738 115.269 84.1171 115.269 83.9782C115.269 83.8856 116.487 81.3164 116.916 80.4832C117.461 79.43 118.076 78.5852 118.772 77.9256C120.037 76.7104 120.234 76.6873 120.965 77.6825ZM32.7388 78.4695C33.8873 79.0366 34.7922 80.0781 36.5556 82.8556C36.9152 83.4227 37.7969 84.9387 37.9825 85.2859C38.0637 85.4479 38.435 86.015 38.8178 86.5589C41.2424 90.0076 41.5788 92.5074 40.732 101.025C40.7088 101.245 40.6276 102.252 40.5464 103.27L40.3955 105.11L39.7691 105.4C37.6809 106.349 35.4071 105.469 33.6553 103.05C32.9361 102.055 32.0428 100.307 31.7063 99.2312C31.5439 98.722 30.8015 96.4537 30.0706 94.197C28.0172 87.8898 27.878 87.2301 27.8664 84.3022C27.8548 82.6126 27.8896 82.1728 28.1332 81.2123L28.4 80.0897L29.2353 79.3027C30.5346 78.076 31.4743 77.8561 32.7388 78.4695ZM98.6909 86.4432C99.9554 86.7094 99.7698 86.6631 102.856 87.6352C105.338 88.4222 106.626 88.7578 107.194 88.7578C107.647 88.7578 108.25 89.1397 108.935 89.8456C109.538 90.4821 109.828 90.9798 110.188 91.9866C110.478 92.8198 110.594 94.9724 110.408 96.2223C110.234 97.4953 109.48 101.499 109.236 102.518C109.167 102.796 109.062 103.71 108.993 104.543C108.853 106.302 108.737 106.95 108.355 107.911C107.218 110.735 104.491 113.339 99.793 116.081C99.4218 116.301 98.9809 116.556 98.8069 116.66C98.6445 116.764 97.728 117.296 96.7883 117.84C94.6537 119.067 94.4217 119.125 91.7186 119.044C89.9669 118.986 89.5028 118.94 88.3543 118.639C86.881 118.257 85.2685 117.736 82.9018 116.88C81.0805 116.232 79.4795 115.723 79.2359 115.723C78.9575 115.723 77.867 114.623 77.5305 114.021C77.3681 113.709 77.1245 113.026 76.9853 112.494C76.7649 111.637 76.7417 111.279 76.7881 109.6C76.8113 108.547 76.9737 106.349 77.1361 104.728C77.3278 102.936 77.2611 101.417 77.983 99.7867C78.6094 99.0692 79.9668 97.7383 80.6976 97.1249C80.8601 96.9861 81.2313 96.6852 81.5213 96.4421C81.8229 96.1875 82.9598 95.3427 84.0503 94.5442C89.0504 90.9103 89.7349 90.3664 91.6722 88.5032C92.9948 87.2417 93.656 86.8135 94.8509 86.4316C95.7442 86.1539 97.322 86.1539 98.6909 86.4432ZM58.586 86.9987C59.0965 87.369 60.4886 88.3759 61.6719 89.2207C62.8552 90.0655 64.0037 90.8987 64.2357 91.0608C65.6279 92.0445 69.3518 94.7988 70.4887 95.6899C71.2196 96.2685 72.1941 96.9629 72.6349 97.2291C73.7602 97.9119 74.8739 99.046 75.3147 99.9834C75.5236 100.4 75.7904 101.233 75.9296 101.835C76.1732 102.888 76.1732 103.131 76.1268 108.084C76.092 111.059 76.0224 113.396 75.9528 113.616C75.6744 114.519 74.7231 115.479 73.737 115.827C73.5166 115.908 73.2266 116.023 73.0989 116.07C72.7393 116.232 70.9759 116.625 70.0827 116.764C69.6418 116.822 68.6905 116.961 67.9713 117.053C66.8924 117.204 65.9295 117.401 64.6882 117.748C64.5954 117.771 64.1429 117.921 63.6789 118.083C61.7415 118.755 59.2009 118.986 57.6695 118.627C56.1614 118.269 52.2982 116.07 50.0128 114.253C48.3307 112.91 48.1799 112.783 46.6253 111.348C44.5603 109.427 42.9014 107.668 42.6461 107.101C42.3561 106.476 41.9965 105.018 41.8109 103.745C41.486 101.546 41.6949 95.1344 42.1821 92.1833C42.3097 91.4195 42.4837 91.1765 43.6554 90.2507C45.3956 88.8619 48.5511 87.6815 52.101 87.0797C53.6324 86.8251 56.8574 86.3738 57.4259 86.339C57.5419 86.339 58.064 86.6284 58.586 86.9987ZM41.254 107.367C39.5487 106.186 38.3538 106.302 37.4257 107.737C36.9848 108.42 37.2897 108.779 38.6471 110.365C42.2779 114.601 46.7007 117.88 51.4588 120.847C52.2634 121.349 59.6155 125.776 59.1197 123.268C58.876 122.111 58.3424 121.196 57.2635 120.109C56.0686 118.893 55.2449 118.35 52.2286 116.764C49.8156 115.503 48.1451 114.334 47.4026 113.396C45.7551 111.362 43.3804 108.816 41.254 107.367ZM79.3635 116.926C82.2406 117.632 82.8786 117.806 85.8601 118.789C86.6954 119.056 87.8439 119.426 88.4123 119.611C89.352 119.912 89.5261 120.004 90.1641 120.641C90.953 121.416 91.1154 121.868 90.9646 122.851C90.3806 126.8 83.539 126.85 80.5765 127.253C79.1147 127.473 75.0595 127.392 73.0989 127.253C69.258 126.958 66.5065 127.294 63.1059 125.212C61.6906 124.367 60.7394 124.287 60.1941 123.176C59.2776 121.348 59.9781 120.363 62.0547 119.518C62.9132 119.171 64.7694 118.697 65.7903 118.558C66.1151 118.523 66.5559 118.442 66.7764 118.384C66.9968 118.326 67.7624 118.188 68.4585 118.083C69.1662 117.979 70.2567 117.713 70.8947 117.505C73.447 116.683 73.563 116.66 76.3472 116.695C77.9482 116.718 78.7719 116.787 79.3635 116.926Z" stroke="#1D2E43" stroke-width="0.582353"/>
<path d="M110.565 101.129C111.248 102.142 111.93 103.154 112.612 104.161C112.944 104.657 113.283 105.152 113.617 105.654C113.791 105.909 113.967 106.17 114.135 106.427C114.29 106.656 114.428 106.914 114.631 107.107C114.768 107.235 114.947 107.079 114.878 106.922C114.759 106.641 114.538 106.397 114.365 106.147C114.185 105.893 114.005 105.639 113.825 105.385C113.492 104.914 113.159 104.443 112.821 103.973C112.128 102.994 111.435 102.015 110.736 101.038C110.666 100.93 110.496 101.022 110.565 101.129Z" fill="#1D2E43"/>
<path d="M111.24 98.2274C113.1 100.318 114.701 102.596 116.311 104.884C116.395 105 116.584 104.905 116.508 104.774C115.081 102.367 113.227 100.2 111.282 98.1925C111.255 98.1616 111.214 98.1965 111.24 98.2274Z" fill="#1D2E43"/>
<path d="M112.152 95.3083C113.254 96.6902 114.324 98.0924 115.363 99.5208C115.851 100.196 116.334 100.873 116.804 101.552C117.266 102.222 117.675 102.978 118.341 103.467C118.5 103.584 118.73 103.403 118.678 103.217C118.447 102.424 117.85 101.787 117.356 101.138C116.834 100.453 116.302 99.7756 115.759 99.1074C114.661 97.743 113.531 96.3991 112.37 95.0812C112.242 94.9387 112.026 95.1526 112.152 95.3083Z" fill="#1D2E43"/>
<path d="M113.598 93.3121C114.808 94.8042 115.975 96.3253 117.096 97.8828C117.633 98.633 118.172 99.3889 118.694 100.149C118.945 100.516 119.198 100.889 119.443 101.257C119.678 101.609 119.874 102.052 120.324 102.141C120.494 102.174 120.732 102.103 120.764 101.903C120.846 101.424 120.591 101.145 120.319 100.77C120.056 100.406 119.793 100.042 119.526 99.6853C118.95 98.9072 118.366 98.1437 117.765 97.3904C116.548 95.869 115.291 94.3883 113.987 92.944C113.748 92.6795 113.384 93.0477 113.598 93.3121Z" fill="#1D2E43"/>
<path d="M112.33 87.8084C113.844 89.764 115.366 91.7166 116.88 93.6722C117.62 94.6318 118.369 95.5882 119.11 96.5477C119.809 97.445 120.477 98.5608 121.477 99.0449C121.795 99.1961 122.019 98.882 121.933 98.5713C121.634 97.4193 122.666 98.7572 121.933 97.8635C121.197 96.9612 118.414 93.7699 117.678 92.8677C116.141 90.9899 114.39 89.1111 112.853 87.2334C112.452 86.7313 111.926 87.2777 112.33 87.8084Z" fill="#1D2E43"/>
<path d="M114.498 86.8792C115.91 88.3592 117.239 89.9031 118.48 91.5241C119.1 92.3288 119.693 93.1523 120.265 93.9933C120.564 94.4292 120.84 94.8708 121.133 95.3082C121.369 95.6604 121.597 96.0886 122.028 96.1946C122.18 96.232 122.403 96.1526 122.435 95.9773C122.509 95.5184 122.274 95.191 122.02 94.8124C121.744 94.3956 121.434 93.9933 121.137 93.594C120.51 92.7542 119.865 91.9245 119.19 91.1211C117.845 89.5069 116.405 87.9653 114.887 86.5111C114.641 86.2671 114.262 86.6265 114.498 86.8792Z" fill="#1D2E43"/>
<path d="M115.229 84.3422C116.584 85.7736 117.881 87.2555 119.096 88.8082C119.716 89.5996 120.313 90.4067 120.889 91.2294C121.165 91.6232 121.437 92.0229 121.709 92.4227C121.951 92.7837 122.175 93.2364 122.585 93.4232C122.763 93.5025 123.042 93.4243 123.029 93.1815C123.003 92.7419 122.743 92.4315 122.485 92.0898C122.174 91.6789 121.86 91.2741 121.54 90.8705C120.918 90.0898 120.28 89.3236 119.62 88.5778C118.277 87.051 116.876 85.5795 115.405 84.1813C115.287 84.0768 115.125 84.2342 115.229 84.3422Z" fill="#1D2E43"/>
<path d="M116.722 79.5017C118.597 81.4272 117.864 80.8711 119.587 82.9333C120.448 83.9644 121.29 85.0188 122.11 86.0848C122.929 87.1449 123.676 88.272 124.564 89.2842C124.977 89.7544 125.652 88.9255 125.098 88.62C124.783 88.4487 124.671 88.2712 124.468 87.9981C124.321 87.8043 124.006 88.0426 124.131 88.248C124.292 88.5252 124.425 88.7658 124.46 89.0863C124.727 88.9837 124.987 88.8768 125.254 88.7743C123.857 86.5397 121.917 84.5305 120.148 82.5851C118.312 80.5633 117.49 78.7295 116.722 79.5017C119.249 81.8031 116.726 79.5008 116.722 79.5017Z" fill="#1D2E43"/>
</g>
<defs>
<clipPath id="clip0_9381_5683">
<rect width="99" height="99" fill="white" transform="translate(27 30)"/>
</clipPath>
</defs>
</svg>
