<svg width="159" height="159" viewBox="0 0 159 159" fill="none" xmlns="http://www.w3.org/2000/svg">
<circle cx="56.5" cy="78.5039" r="56.5" fill="#BADDFE"/>
<g clip-path="url(#clip0_9381_5795)">
<path d="M14.831 106.893H12.8794H12.3915L9.46409 103.473L8.48828 100.541L8.97618 97.6101L9.95199 95.6559L13.3673 93.2132L15.3189 88.8163L17.2705 86.8621L24.5891 91.7476L28.4923 92.2361H32.3955L45.081 90.7705L48.4963 89.7934L50.9359 87.3506L52.8875 81.488L55.8149 75.1369L57.7665 72.2056L56.3028 62.9231L54.3512 59.0147L52.8875 57.0605L50.9359 56.0834L48.9842 56.572L45.5689 59.0147L40.202 62.9231V67.8086L41.1778 72.2056V74.6483V76.114L40.202 78.0682L29.956 86.3735L28.9802 87.8392L28.0044 86.8621L28.9802 85.885L31.9076 82.4651L28.4923 82.9537L28.0044 82.4651C27.8418 82.4651 27.7428 81.7538 29.4681 81.488C35.8109 80.5109 30.4439 80.1852 29.956 80.0224L28.9802 79.0453L29.956 78.5567L34.8351 78.0682L35.8109 76.114V75.1369L33.3713 66.343L32.8834 63.9002L33.3713 61.946L36.2988 58.5262L41.1778 54.1292L36.2988 52.6636L33.3713 50.2208L31.9076 48.2666L29.956 43.8697L29.4681 41.4269L30.4439 42.404L32.3955 42.8926L33.8592 42.404L35.8109 41.9155L34.3472 40.4498L33.3713 38.4956L33.8592 35.0758L34.8351 32.1445L36.2988 29.7018L35.8109 32.1445L36.7867 34.5872L38.2504 36.0529L41.1778 37.03V33.1216L42.1536 32.633L43.1294 35.0758L45.081 36.5414L47.0326 37.03L48.4963 36.5414L49.9601 34.0987L51.4238 30.1903L52.3996 26.7705L54.3512 23.8392L56.7907 21.3964L59.2302 19.4422L62.6455 17.9766H65.573L69.9641 19.9308L73.8673 22.3735L74.8431 24.3277V26.7705L73.8673 31.1674V33.6101L74.8431 34.5872L75.331 35.5643V36.5414H74.8431L74.3552 37.03L73.8673 38.0071L73.3794 38.9842L72.8915 41.4269L70.9399 42.404L68.9883 41.9155L66.5488 42.404V44.3582L67.0367 46.3124L68.9883 45.8239L70.452 46.3124L73.8673 47.2895L78.2584 49.7323L83.1375 51.1979L87.5286 45.3353L89.4802 41.9155L89.9681 39.9613L88.9923 37.5185L87.5286 34.5872L86.5528 32.633L87.0407 28.2361L88.0165 26.2819C88.1791 26.4448 88.5044 26.9659 88.5044 27.7476C88.5044 28.5292 89.155 30.3532 89.4802 31.1674L89.9681 30.1903L90.9439 29.7018L91.4318 30.6789V32.1445L91.9197 34.0987L92.4076 35.0758V36.5414V38.0071L91.9197 39.4727L90.456 46.801L89.4802 51.6865L88.9923 54.1292L88.5044 56.0834L87.5286 57.0605L86.5528 58.0376L85.577 58.5262H83.6254L81.6738 58.0376L73.8673 54.1292H72.8915L74.8431 59.9918L74.3552 62.4346L72.8915 65.8544L73.3794 67.3201L73.8673 70.2514V73.6712L77.2826 79.5338L78.2584 80.9995L90.456 75.1369L96.3109 73.1827L101.19 72.6941L105.581 71.717L108.508 69.2743L110.948 64.3888L113.875 64.8773L117.779 68.2972L121.682 69.7628L122.658 72.2056L125.097 76.6025L127.537 77.5796L128.512 80.5109L125.585 82.9537V84.4193V87.3506L126.073 90.2819L124.121 92.2361L121.194 93.7018L119.242 95.6559L118.267 98.0987L117.779 100.541V103.961L116.803 106.404L114.851 107.87L111.436 109.824L107.533 111.29L105.581 113.244C105.093 114.058 103.727 116.273 102.166 118.618C100.604 120.963 98.913 121.223 98.2625 121.061L94.3593 122.038L93.3834 121.549L94.8472 127.412L98.7504 134.251L101.19 137.671L104.117 139.137L107.045 140.114L108.021 141.091L108.508 142.557L107.533 144.022L105.581 144.511L100.214 144.022L97.2867 142.068L94.8472 139.625L91.9197 137.183L90.456 136.694L90.9439 140.603V143.534L90.456 144.022L89.9681 143.534L88.0165 138.648L87.0407 135.717L87.5286 133.274V131.809L88.5044 128.877L88.9923 126.923L88.5044 124.48L87.5286 122.038L86.0649 124.969L84.1133 126.923L81.6738 128.389L77.7705 126.923L74.3552 125.457L71.9157 126.435L69.4762 127.9L67.0367 128.389L64.5972 127.412L62.1576 125.457L59.7181 122.526L57.7665 121.549L53.8633 124.969L51.4238 127.412V129.366L51.9117 130.343L53.3754 133.763L55.8149 136.206L59.7181 137.671L61.6697 138.648L62.1576 140.114L61.6697 140.603L60.6939 141.091L56.3028 141.58L53.8633 141.091L48.4963 136.206L46.0568 133.763H45.5689V136.206V138.648V140.603C45.5689 140.993 44.9184 141.091 44.5931 141.091L43.6173 139.137L42.6415 131.809V128.389L44.1052 125.946L47.5205 123.503L48.9842 122.038L44.5931 119.106L42.6415 116.175L42.1536 113.732L29.956 113.244H25.5649L23.1254 109.335L19.2222 106.893H14.831Z" fill="#F6F6F6"/>
<path d="M52.9301 80.8297C52.0223 83.0145 51.7136 85.3467 50.2625 87.3045C49.5214 88.3049 48.552 89.0659 47.3602 89.4587C45.8905 89.9436 44.2727 90.0172 42.7412 90.2075C39.5302 90.6064 36.313 90.9501 33.0958 91.2263C30.2615 91.4656 26.9146 92.0794 24.2655 90.7353C23.0305 90.1093 22.0054 89.201 20.968 88.2988C19.9492 87.4089 19.1668 86.5045 17.7589 86.3757C17.129 86.3143 16.6455 86.8258 16.9481 87.2125C17.3618 87.7403 17.9237 88.0656 18.4424 88.4829C18.9982 88.9248 19.5231 89.4035 20.048 89.8761C21.0545 90.7783 22.1042 91.7234 23.3269 92.3187C26.2107 93.7242 29.5637 93.2025 32.6327 92.9079C36.1092 92.5704 39.5734 92.1837 43.0315 91.7234C45.9337 91.3368 48.8731 90.9317 50.8553 88.5566C51.7012 87.5378 52.294 86.3533 52.7572 85.1196C53.2512 83.794 53.6834 82.3579 53.7637 80.9463C53.7946 80.4246 53.0968 80.4246 52.9301 80.8297Z" fill="#1D2E43"/>
<path d="M61.6488 78.9877C64.1991 83.2102 69.6085 83.9467 74.1101 83.3391C79.1365 82.664 84.0148 80.8719 88.2818 78.1592C90.3504 76.8458 92.382 75.2869 94.7038 74.4461C97.0318 73.6053 99.3783 73.7219 101.805 73.55C103.929 73.4027 105.93 72.8442 107.468 71.316C108.851 69.9413 109.703 68.1676 110.71 66.5228C110.975 66.0932 111.247 65.6636 111.549 65.2585C111.698 65.0621 111.858 64.8289 112.043 64.6571C112.5 64.2397 112.834 64.4607 113.266 64.7307C114.464 65.4794 115.65 66.2405 116.835 67.0138C117.971 67.7503 119.2 68.4315 120.231 69.3153C121.145 70.1009 121.689 71.089 122.115 72.1937C122.479 73.1511 122.769 74.1454 123.3 75.0291C123.85 75.9497 124.653 76.5696 125.523 77.1772C126.437 77.8155 127.802 78.8097 127.53 80.117C127.314 81.1542 126.005 81.5531 125.394 82.3387C124.097 84.0019 125.11 86.1806 125.493 87.9727C125.715 89.0284 125.814 90.3663 124.962 91.1826C124.554 91.5692 123.98 91.7595 123.473 91.9804C122.992 92.1891 122.529 92.4407 122.078 92.7108C120.367 93.7357 118.929 95.313 118.132 97.1419C117.755 98.0011 117.502 98.8972 117.391 99.8301C117.243 101.058 117.422 102.291 117.311 103.512C116.86 108.613 110.216 108.944 106.912 111.387C105.133 112.706 104.176 114.658 103.015 116.474C101.7 118.53 99.9464 119.819 97.6123 120.562C96.5069 120.912 95.3707 121.157 94.2345 121.397C93.5862 121.538 93.864 122.507 94.5062 122.379C96.7478 121.943 99.0881 121.446 101.015 120.163C102.917 118.899 103.911 116.922 105.053 115.026C105.646 114.038 106.301 113.087 107.196 112.338C108.147 111.54 109.283 111 110.419 110.515C112.439 109.656 114.569 108.926 116.224 107.428C116.934 106.784 117.514 106.004 117.854 105.108C118.28 103.979 118.231 102.77 118.206 101.585C118.163 99.2286 118.817 97.0007 120.318 95.1534C121.022 94.288 121.893 93.4963 122.893 92.9747C123.801 92.5021 124.925 92.3241 125.659 91.5631C127.092 90.0901 126.221 87.8316 125.764 86.15C125.449 85.0023 125.202 83.56 126.141 82.621C126.802 81.9582 127.747 81.6206 128.148 80.7184C129.105 78.5642 126.629 77.1035 125.239 76.0234C123.3 74.5197 123.288 72.0587 122.059 70.1131C121.473 69.1864 120.59 68.5174 119.676 67.9344C118.478 67.1672 117.249 66.4491 116.039 65.7127C115.477 65.369 114.921 65.0314 114.365 64.6816C113.877 64.3686 113.254 63.7978 112.673 63.6874C111.864 63.5339 111.284 64.5589 110.87 65.0989C109.623 66.7315 108.746 68.6402 107.4 70.1929C105.732 72.1139 103.528 72.6233 101.064 72.7031C98.6188 72.7829 96.3094 72.8136 93.9814 73.6666C91.6781 74.5136 89.5662 75.7288 87.4482 76.9562C85.1696 78.2758 82.8477 79.4725 80.353 80.344C75.6353 81.9827 69.4788 83.3329 64.8166 80.8289C63.7916 80.2765 62.8715 79.5216 62.0996 78.6563C61.8649 78.4353 61.4944 78.7299 61.6488 78.9877Z" fill="#1D2E43"/>
<path d="M95.3521 73.6888C91.3198 74.5971 89.597 79.3168 89.1647 82.9562C88.9177 85.0183 88.9548 87.2155 88.1397 89.1672C87.232 91.3398 85.1633 92.1744 82.9218 92.2481C80.6802 92.3217 78.4634 92.1253 76.3701 93.0828C74.5052 93.9359 72.9429 95.4763 72.0475 97.3114C71.6153 98.189 71.325 99.1096 71.2077 100.085C71.1336 100.718 71.1892 101.43 70.8804 102.013C70.6087 102.534 70.09 102.878 69.5899 103.154C67.3915 104.375 64.7425 104.48 62.3342 103.903C59.9877 103.338 57.9252 101.828 55.5108 101.522C53.5224 101.27 51.497 102 50.6201 103.891C49.8544 105.542 49.9223 107.401 49.6136 109.156C49.4592 110.04 49.2246 110.967 48.6132 111.66C47.8784 112.507 46.699 112.857 45.6183 112.986C42.9631 113.287 40.2213 112.692 37.5846 112.428C36.189 112.286 34.775 112.201 33.3732 112.336C32.0579 112.464 30.7797 112.796 29.4644 112.949C28.1985 113.103 26.9141 113.047 25.8273 112.323C24.8764 111.691 24.1909 110.715 23.5117 109.825C22.2458 108.162 20.5168 106.217 18.2073 106.333C17.0587 106.388 16.1881 107.051 15.163 107.487C14.5702 107.739 14.0515 107.794 13.4957 107.413C12.9709 107.045 12.5077 106.524 12.0693 106.057C10.4391 104.326 9.01266 102.098 9.10529 99.6436C9.14852 98.4775 9.51902 97.2868 10.2909 96.3846C11.0937 95.4456 12.2237 94.8565 13.0635 93.9543C14.385 92.5427 15.0457 90.7076 16.0707 89.0996C16.6018 88.265 17.2502 87.5469 18.1332 87.0682C20.1976 87.3496 18.2011 85.8162 17.5836 86.1353C15.7805 87.0621 14.8913 88.8787 13.9898 90.591C13.5081 91.5055 13.0141 92.4383 12.2978 93.1932C11.4209 94.1138 10.2538 94.7153 9.43257 95.6911C7.99996 97.3973 7.75913 99.7111 8.19756 101.835C8.70391 104.265 10.3403 106.315 12.1311 107.966C12.94 108.708 13.823 109.199 14.9469 108.948C16.0893 108.69 17.0155 107.739 18.2011 107.683C20.7206 107.573 22.1593 110.678 23.5487 112.286C24.3021 113.158 25.1975 113.87 26.2843 114.257C27.5069 114.692 28.8346 114.625 30.0943 114.453C31.4775 114.263 32.8298 113.968 34.2316 113.925C35.6889 113.882 37.1462 114.029 38.5911 114.201C42.7778 114.705 49.4469 115.846 50.6572 110.329C51.0647 108.457 50.7251 106.407 51.3982 104.596C52.4109 101.878 55.4984 102.411 57.6164 103.4C59.9444 104.486 62.1551 105.474 64.7672 105.584C66.9963 105.677 69.7504 105.143 71.3683 103.486C72.2204 102.614 72.3192 101.583 72.3933 100.429C72.4613 99.2937 72.8071 98.2013 73.3937 97.2193C74.5546 95.2799 76.5615 93.8315 78.8216 93.5001C81.1866 93.1564 83.6751 93.8008 85.9846 93.0459C88.0718 92.3586 89.2759 90.5787 89.7823 88.5227C90.301 86.4299 90.1775 84.2634 90.4986 82.1461C90.8258 79.998 91.5916 77.7763 93.0056 76.0885C93.6849 75.2784 94.5741 74.5419 95.4571 73.965C95.63 73.8791 95.5312 73.6459 95.3521 73.6888Z" fill="#1D2E43"/>
<path d="M57.0241 72.3157C57.3514 72.8558 57.9318 72.954 58.5061 73.1381C59.2841 73.3898 60.0746 73.6168 60.865 73.8194C62.4519 74.2183 64.0636 74.5252 65.6877 74.7461C67.2067 74.9548 68.7381 75.0898 70.2696 75.145C71.7269 75.2003 73.1348 75.323 74.3513 74.4208C74.1722 74.3717 73.9869 74.3288 73.8079 74.2797C75.4751 76.6794 76.6731 79.2141 77.8834 81.8531C78.0686 82.252 78.7355 81.9697 78.5997 81.5524C77.6796 78.8274 76.1358 76.2252 74.4933 73.8746C74.376 73.7089 74.1351 73.6046 73.9499 73.7334C72.8692 74.4699 71.0723 74.2244 69.8373 74.1876C68.2874 74.1385 66.7436 74.0096 65.206 73.7887C63.7734 73.5861 62.3531 73.31 60.9514 72.9724C60.2475 72.8006 59.5497 72.6226 58.8519 72.4262C58.2529 72.2543 57.691 71.9536 57.0735 72.1868C57.0241 72.2053 56.9932 72.2605 57.0241 72.3157Z" fill="#1D2E43"/>
<path d="M82.6684 92.6802C80.2354 92.2628 77.0676 92.7231 74.9434 94.0549C73.9863 94.6564 73.1465 95.4665 72.6154 96.473C72.0165 97.6023 71.9362 98.8298 71.8003 100.076C71.6768 101.248 71.3001 102.162 70.1886 102.696C69.213 103.169 68.0891 103.365 67.027 103.525C65.7241 103.721 64.3964 103.807 63.0812 103.703C62.3834 103.648 61.6671 103.58 60.9817 103.439C60.3641 103.316 59.7713 103.083 59.1477 103.022C58.808 102.991 58.7278 103.414 58.8945 103.623C59.6478 104.544 61.2101 105.065 62.3463 105.262C63.711 105.501 65.1189 105.513 66.496 105.446C68.7807 105.341 71.4545 105.108 72.918 103.114C74.4247 101.064 73.2762 98.2897 75.0113 96.3442C75.882 95.3683 77.0059 94.6748 78.2594 94.3004C79.7044 93.8647 81.2296 93.8463 82.6622 93.4167C83.0019 93.3123 83.0636 92.7477 82.6684 92.6802Z" fill="#1D2E43"/>
<path d="M74.579 27.1818C74.2208 28.3786 73.8997 29.5999 73.6774 30.8274C73.5168 31.6989 73.4489 32.6072 73.8071 33.4357C74.1652 34.2643 75.462 35.0499 75.2335 36.0257C75.0668 36.7499 74.4678 36.443 74.0417 36.799C73.8503 36.9586 73.7762 37.1672 73.7268 37.4066C73.6465 37.8239 73.77 38.2474 73.5539 38.6341C73.3686 38.9716 73.0969 39.211 72.9611 39.5853C72.5535 40.7269 72.7697 42.0648 71.0962 42.0464C69.5216 42.0341 67.2677 40.7146 66.2982 42.7154C66.0636 43.1941 66.786 43.6176 67.0207 43.1388C67.6259 41.9175 69.2622 42.5312 70.2749 42.697C71.053 42.8258 71.936 42.8136 72.5844 42.3042C73.3501 41.7088 73.2451 40.8005 73.4798 39.9536C73.6156 39.4626 73.9861 39.168 74.1652 38.7077C74.3011 38.3579 74.2084 38.0142 74.2702 37.6582C74.3752 37.0506 74.7519 37.2409 75.1841 36.977C75.4311 36.8297 75.604 36.5658 75.6905 36.2957C75.9251 35.5715 75.5608 34.9148 75.1162 34.3686C74.721 33.8838 74.3134 33.4419 74.1529 32.822C73.9738 32.1408 74.0726 31.3736 74.1837 30.6924C74.3752 29.5263 74.6284 28.3724 74.7827 27.2002C74.8074 27.0836 74.616 27.0713 74.579 27.1818Z" fill="#1D2E43"/>
<path d="M86.5465 92.1585C86.6082 92.2137 86.67 92.2628 86.7256 92.318C86.7379 92.3303 86.7564 92.3364 86.7688 92.3364C86.7873 92.3364 86.8058 92.3303 86.812 92.318C86.8367 92.2935 86.8367 92.2567 86.812 92.226C86.7564 92.1646 86.7071 92.1032 86.6515 92.048C86.6391 92.0357 86.6144 92.0234 86.5959 92.0234C86.5774 92.0234 86.5527 92.0296 86.5403 92.048C86.528 92.0603 86.5156 92.0848 86.5156 92.1032C86.5218 92.1216 86.528 92.14 86.5465 92.1585Z" fill="#1D2E43"/>
<path d="M86.6021 93.0125C87.7877 93.0125 87.7877 91.1836 86.6021 91.1836C85.4165 91.1897 85.4165 93.0125 86.6021 93.0125Z" fill="#1D2E43"/>
<path d="M65.0949 105.088C64.8293 105.309 64.9034 105.91 64.9096 106.217C64.922 106.677 64.9714 107.126 65.0331 107.58C65.0949 108.015 65.1628 108.451 65.2492 108.881C65.3357 109.323 65.416 109.783 65.5642 110.206C65.7371 110.697 66.4472 110.501 66.3484 109.992C66.262 109.562 66.1261 109.145 66.0273 108.715C65.9285 108.285 65.8482 107.856 65.7803 107.426C65.7124 106.997 65.6506 106.561 65.5889 106.131C65.5395 105.812 65.5456 105.278 65.2616 105.076C65.2122 105.033 65.1443 105.051 65.0949 105.088Z" fill="#1D2E43"/>
<path d="M65.6196 109.558C65.0947 109.405 64.5204 109.613 64.0017 109.73C63.4336 109.865 62.8655 110.012 62.3036 110.184C61.1489 110.534 60.0188 110.982 58.932 111.498C56.8016 112.516 54.8071 113.86 53.1398 115.53C49.9967 118.684 48.2554 123.379 44.0872 125.442C43.5562 125.705 44.0193 126.497 44.5565 126.239C48.6012 124.239 50.4228 119.961 53.3251 116.77C54.98 114.947 56.9498 113.48 59.1482 112.363C60.235 111.811 61.365 111.356 62.5197 110.957C63.0755 110.767 63.6374 110.595 64.1993 110.436C64.7242 110.295 65.2861 110.239 65.7122 109.896C65.8357 109.791 65.7554 109.595 65.6196 109.558Z" fill="#1D2E43"/>
<path d="M73.3694 98.2832C74.3945 98.7005 75.506 98.9276 76.5619 99.2774C77.6673 99.6457 78.7541 100.088 79.8224 100.548C81.6502 101.327 83.6694 102.512 85.7134 102.53C86.4667 102.536 86.6211 101.419 85.8924 101.223C84.8859 100.947 83.9041 100.744 82.9284 100.37C81.9219 99.9771 80.9462 99.5168 79.9459 99.1117C78.9146 98.6944 77.8402 98.3752 76.7657 98.1052C75.7036 97.8352 74.5736 97.5467 73.4744 97.559C73.0175 97.559 72.9928 98.1359 73.3694 98.2832Z" fill="#1D2E43"/>
<path d="M86.5711 91.9358C86.6267 92.1077 86.6884 92.2734 86.744 92.4452C86.7625 92.5005 86.8428 92.4759 86.8305 92.4207C86.7749 92.2488 86.7131 92.0831 86.6576 91.9113C86.6329 91.8622 86.5526 91.8806 86.5711 91.9358Z" fill="#1D2E43"/>
<path d="M85.9842 92.3726C86.3979 92.925 87.1081 93.3055 87.67 93.686C88.2381 94.0726 88.8124 94.4593 89.3805 94.8521C90.2203 95.4351 91.1465 96.0918 91.5047 97.0922C91.6097 97.3868 91.9061 97.5893 92.2272 97.4973C92.5174 97.4175 92.7397 97.0799 92.6347 96.7792C92.2272 95.5701 91.2824 94.6925 90.2635 93.9806C89.7078 93.5939 89.1273 93.2318 88.5592 92.8636C88.2381 92.6549 87.9232 92.4401 87.5959 92.2376C87.2624 92.0289 86.9043 91.7711 86.5214 91.6791C86.1571 91.5932 85.7249 92.0228 85.9842 92.3726Z" fill="#1D2E43"/>
<path d="M91.524 95.9799C91.666 98.441 92.0365 100.902 92.1909 103.369C92.3515 105.91 92.3638 108.463 92.4256 111.004C92.5429 115.65 92.6849 120.192 93.8458 124.715C94.4819 127.182 95.3464 129.643 96.532 131.902C96.816 132.442 97.6805 131.951 97.3594 131.423C94.9141 127.428 94.1731 122.978 93.7964 118.381C93.4074 113.576 93.5803 108.764 93.3395 103.952C93.2098 101.264 93.0246 98.4226 92.0304 95.9063C91.9377 95.6608 91.5055 95.6608 91.524 95.9799Z" fill="#1D2E43"/>
<path d="M75.2211 98.4492C74.9062 98.8113 74.9494 99.2225 74.9 99.6889C74.8321 100.352 74.7518 101.008 74.6963 101.671C74.5728 103.058 74.3999 104.445 74.2146 105.832C74.0355 107.158 73.8194 108.478 73.5539 109.785C73.3316 110.877 72.9364 111.835 72.4794 112.847C72.3497 113.142 72.6214 113.467 72.9364 113.302C73.9429 112.768 74.2825 111.657 74.5234 110.626C74.8383 109.263 75.0544 107.864 75.2458 106.477C75.4434 105.071 75.5793 103.66 75.6534 102.242C75.6966 101.487 75.7151 100.732 75.6966 99.9774C75.6843 99.4373 75.7831 98.8911 75.4373 98.4553C75.3879 98.3878 75.2705 98.394 75.2211 98.4492Z" fill="#1D2E43"/>
<path d="M73.1653 111.879C72.202 112.805 71.3004 113.751 70.226 114.561C69.2565 115.291 68.2129 115.929 67.1508 116.512C64.9648 117.709 62.6554 118.667 60.4262 119.777C56.5544 121.698 51.6823 124.54 50.682 129.069C50.6264 129.309 50.9598 129.468 51.0895 129.241C52.2504 127.216 53.6583 125.375 55.4923 123.914C57.3942 122.398 59.574 121.244 61.7662 120.207C63.9892 119.151 66.2431 118.139 68.3611 116.874C70.3124 115.702 72.4552 114.223 73.6223 112.222C73.7828 111.94 73.4 111.652 73.1653 111.879Z" fill="#1D2E43"/>
<path d="M41.4132 113.799C41.4873 114.756 42.006 115.671 42.4506 116.512C42.9322 117.414 43.4941 118.261 44.124 119.071C45.1985 120.446 46.7052 122.14 48.6441 121.98C49.2493 121.931 49.2678 121.035 48.6441 121.029C46.9213 121.023 45.6863 119.513 44.7415 118.255C44.2104 117.549 43.7164 116.8 43.2718 116.033C42.8211 115.254 42.5123 114.364 41.9689 113.652C41.8084 113.443 41.3885 113.474 41.4132 113.799Z" fill="#1D2E43"/>
<path d="M58.055 122.2C58.9319 122.807 59.7346 123.268 60.4509 124.084C61.1549 124.894 61.7724 125.778 62.464 126.6C63.8781 128.276 65.675 129.264 67.9104 128.773C70.226 128.263 72.2329 126.385 74.6659 126.385C76.1355 126.385 77.2903 127.367 78.5438 127.993C79.7541 128.595 81.02 128.791 82.3415 128.466C83.7617 128.116 85.0029 127.245 85.8983 126.103C86.8986 124.826 87.2877 123.347 87.547 121.776C87.6211 121.334 86.9419 121.138 86.8616 121.586C86.3985 124.231 84.5459 127.097 81.6498 127.41C78.9637 127.705 77.1544 125.06 74.4683 125.188C72.202 125.299 70.368 126.766 68.2747 127.447C67.2496 127.778 66.1628 127.877 65.1748 127.38C64.2856 126.938 63.6064 126.189 62.9827 125.44C61.8588 124.096 60.2595 121.463 58.1785 121.733C57.9377 121.764 57.8389 122.046 58.055 122.2Z" fill="#1D2E43"/>
<path d="M44.4015 125.489C42.4501 126.379 41.8944 128.564 42.0488 130.528C42.2464 133.026 42.8577 135.548 43.3208 138.003C43.4876 138.875 43.4999 140.274 44.1606 140.955C44.5126 141.317 45.3771 141.557 45.7044 141.01C45.902 140.673 45.7044 139.783 45.692 139.409C45.6735 138.838 45.6612 138.267 45.6673 137.696C45.6735 136.291 45.8217 134.91 46.0193 133.523C45.8958 133.554 45.7661 133.59 45.6426 133.621C46.7974 134.548 47.8286 135.671 48.8907 136.702C49.9899 137.77 51.0829 138.85 52.1882 139.912C53.065 140.759 53.9666 141.489 55.214 141.686C56.5601 141.894 57.9742 141.698 59.3265 141.624C60.2466 141.575 61.4755 141.649 62.0374 140.753C62.4635 140.071 62.1485 139.169 61.7286 138.568C60.3825 136.659 57.8384 136.69 56.0167 135.53C54.6891 134.683 53.979 133.007 53.2009 131.694C52.6637 130.792 50.947 128.613 51.9288 127.6C52.0894 127.435 51.8733 127.128 51.6757 127.275C49.9034 128.527 51.441 130.767 52.2129 132.105C52.8551 133.222 53.4356 134.419 54.2321 135.426C54.9052 136.279 55.7821 136.8 56.8009 137.169C57.8198 137.543 58.919 137.66 59.9502 137.985C60.5739 138.181 61.142 138.488 61.5002 139.053C61.9756 139.808 61.7163 140.575 60.8147 140.722C59.5118 140.931 58.1039 140.918 56.7824 140.974C55.2572 141.035 54.1272 140.685 52.9724 139.685C51.8239 138.691 50.7124 137.66 49.5885 136.641C48.3782 135.548 47.0691 134.505 45.9637 133.302C45.8464 133.173 45.6365 133.247 45.5871 133.4C44.8646 135.788 45.019 138.365 45.0622 140.826C45.1178 140.728 45.1733 140.63 45.2351 140.532C44.457 141.029 44.3088 138.954 44.2656 138.672C44.1668 138.077 44.068 137.482 43.963 136.886C43.7222 135.548 43.4876 134.216 43.2467 132.879C42.8453 130.632 42.2464 127.367 44.7596 126.072C45.1548 125.876 44.7967 125.305 44.4015 125.489Z" fill="#1D2E43"/>
<path d="M96.2479 130.502C96.3961 133.27 98.8044 135.829 100.731 137.615C101.861 138.665 102.979 139.364 104.516 139.647C105.77 139.874 108.135 140.181 108.011 141.954C107.869 143.973 105.22 144.01 103.751 143.931C102.034 143.838 100.027 143.544 98.508 142.691C97.1927 141.954 96.2973 140.53 95.334 139.407C94.4078 138.321 93.3951 137.272 92.1539 136.547C91.6537 136.253 90.9065 135.805 90.3384 136.204C89.7271 136.639 89.9556 137.652 89.9926 138.272C90.0482 139.18 90.1408 140.082 90.2643 140.978C90.3199 141.396 90.9065 143.648 90.2458 143.814C90.4372 143.894 90.6286 143.967 90.8201 144.047C90.8262 144.102 90.8262 144.164 90.8324 144.219C90.7274 144.323 90.6225 144.428 90.5175 144.532C90.5422 144.526 90.5731 144.526 90.5978 144.52C91.0671 144.458 90.9497 143.814 90.5978 143.685C90.5731 143.673 90.5422 143.667 90.5175 143.654C90.3755 143.599 90.1779 143.66 90.0729 143.771C89.8753 143.986 89.8444 144.139 89.8938 144.428C89.9185 144.587 90.0914 144.747 90.252 144.784C91.8142 145.103 91.6537 142.709 91.5178 141.801C91.382 140.862 91.2708 139.917 91.1967 138.972C91.1659 138.542 91.1412 138.118 91.1226 137.689C91.1165 137.591 91.1165 137.499 91.1103 137.4C91.0732 137.057 91.0918 137.02 91.1597 137.296C91.3696 137.351 91.5981 137.529 91.7772 137.646C94.4572 139.328 95.686 142.795 98.6624 144.004C100.348 144.692 102.232 144.974 104.047 144.986C105.566 144.992 107.307 144.734 108.295 143.464C109.061 142.476 109.08 141.156 108.209 140.23C107.178 139.125 105.634 138.996 104.257 138.634C102.398 138.143 100.997 136.639 99.7677 135.234C99.1131 134.491 98.508 133.7 98.0016 132.853C97.5262 132.049 97.1989 131.177 96.7666 130.349C96.637 130.128 96.2356 130.238 96.2479 130.502Z" fill="#1D2E43"/>
<path d="M37.7392 77.841C36.5289 77.5464 35.1024 77.6262 34.1515 78.5222C33.6266 79.0132 33.429 79.7374 32.935 80.2529C32.3792 80.8237 31.6382 81.1183 30.854 81.2042C30.7367 81.2165 30.7305 81.3883 30.854 81.3883C31.4962 81.4067 32.1384 81.1919 32.6695 80.836C33.2376 80.4493 33.5587 79.9154 33.9477 79.3753C34.8246 78.1478 36.3621 78.3565 37.6959 78.2031C37.8812 78.1724 37.9553 77.8901 37.7392 77.841Z" fill="#1D2E43"/>
<path d="M32.039 82.3124C31.403 82.4965 30.7546 82.6745 30.0939 82.7236C29.7666 82.7482 29.4393 82.7543 29.1182 82.7298C28.8218 82.7113 28.476 82.6991 28.192 82.5886C28.0499 82.5334 28.0005 82.4843 28.1179 82.3861C28.2661 82.2572 28.5007 82.2019 28.6921 82.1835C29.0441 82.1467 29.4023 82.1528 29.7604 82.1344C29.9271 82.1283 30.1 82.1222 30.2668 82.1099C30.347 82.1037 30.4397 82.1099 30.5199 82.0976C30.6249 82.0792 30.6805 82.0301 30.7731 81.9871C30.8781 81.938 30.8843 81.7539 30.7731 81.6987C30.7114 81.668 30.6558 81.6189 30.5879 81.6005C30.5138 81.5821 30.4273 81.5882 30.3532 81.5882C30.168 81.5882 29.9889 81.5882 29.8036 81.5821C29.4517 81.5821 29.0997 81.5698 28.7477 81.5759C28.3093 81.5821 27.735 81.7232 27.4942 82.1222C27.1731 82.6561 27.6547 83.1532 28.1734 83.2514C28.8033 83.3742 29.4702 83.3803 30.1062 83.3067C30.8472 83.2207 31.5574 83.0489 32.2119 82.6745C32.4033 82.5763 32.2675 82.2449 32.039 82.3124Z" fill="#1D2E43"/>
<path d="M29.2912 86.7276C29.2912 86.7522 29.2541 86.7951 29.2479 86.8258C29.2418 86.8565 29.2356 86.8933 29.2232 86.924C29.1985 86.9915 29.1491 87.0406 29.0997 87.0897C29.0195 87.1695 28.9083 87.237 28.7972 87.2247C28.6675 87.2125 28.5563 87.0959 28.5316 86.9731C28.5008 86.8197 28.6119 86.654 28.686 86.519C28.791 86.341 28.9021 86.1569 29.0442 86.0096C29.1924 85.8561 29.3406 85.715 29.5073 85.5738C29.8284 85.2976 30.1866 85.0521 30.5447 84.8251C30.6065 84.7882 30.5632 84.6778 30.4953 84.7084C30.0939 84.8619 29.7296 85.0521 29.3838 85.3099C29.038 85.5615 28.7169 85.85 28.402 86.1323C28.2291 86.2857 28.0747 86.4576 27.9944 86.6785C27.9141 86.8872 27.9574 87.1388 28.0685 87.3229C28.2785 87.6789 28.7786 87.8999 29.1615 87.6789C29.3406 87.5746 29.4702 87.3843 29.5073 87.1818C29.5258 87.0897 29.5258 86.9915 29.5011 86.8995C29.4949 86.8565 29.4826 86.8135 29.4579 86.7767C29.4332 86.7338 29.39 86.7276 29.3591 86.6969C29.3282 86.6785 29.2912 86.6969 29.2912 86.7276Z" fill="#1D2E43"/>
<path d="M32.1196 78.213C31.8664 78.1823 31.5947 78.2314 31.3415 78.2498C31.0698 78.2682 30.8043 78.3112 30.5326 78.3419C30.2794 78.3726 30.02 78.4032 29.7669 78.4339C29.5816 78.4585 29.384 78.4892 29.2235 78.5996C28.9147 78.8144 28.9024 79.195 29.1185 79.4773C29.347 79.7841 29.7051 79.9314 30.0818 79.9621C30.3226 79.9805 30.5635 79.9621 30.7981 79.9069C30.9278 79.8762 31.0513 79.8332 31.1686 79.7841C31.2798 79.735 31.3662 79.6553 31.4527 79.5755C31.5144 79.5141 31.4527 79.4036 31.3662 79.4282C30.9216 79.5632 30.5079 79.7228 30.0324 79.6675C29.8286 79.643 29.6434 79.5755 29.4828 79.4404C29.3593 79.3361 29.2173 79.1704 29.2605 79.0047C29.3099 78.8022 29.5631 78.7531 29.736 78.7224C30.0015 78.6856 30.2671 78.6549 30.5264 78.6242C30.7919 78.5935 31.0513 78.5689 31.3168 78.5198C31.5885 78.4769 31.8849 78.4585 32.1381 78.3603C32.2245 78.3357 32.206 78.2253 32.1196 78.213Z" fill="#1D2E43"/>
<path d="M91.3505 30.5313C91.5666 30.4024 91.5111 30.0648 91.3937 29.8868C91.2764 29.7089 91.1035 29.5861 90.9059 29.5247C90.4428 29.3713 90.0291 29.6782 89.8068 30.0587C89.7388 30.1692 89.6894 30.2919 89.64 30.4085C89.6153 30.476 89.5906 30.5313 89.5845 30.6049C89.5783 30.6601 89.5783 30.7154 89.5783 30.7706C89.5721 30.8934 89.7512 30.9793 89.8376 30.875C89.8685 30.832 89.9056 30.7952 89.9364 30.7522C89.9797 30.697 90.0105 30.6417 90.0414 30.5804C90.0846 30.4822 90.1402 30.3901 90.1958 30.298C90.2143 30.2735 90.2267 30.2489 90.2452 30.2305C90.2143 30.2735 90.2699 30.206 90.2761 30.1998C90.3131 30.1569 90.3502 30.1201 90.3934 30.0832C90.4366 30.0464 90.3687 30.1017 90.4057 30.071C90.4304 30.0526 90.449 30.0403 90.4737 30.0219C90.4984 30.0096 90.5231 29.9912 90.5478 29.9789C90.5601 29.9728 90.5725 29.9666 90.5848 29.9605C90.5539 29.9728 90.5539 29.9728 90.5786 29.9666C90.591 29.9605 90.6342 29.9421 90.6466 29.9482C90.6095 29.9544 90.6095 29.9544 90.6342 29.9482C90.6466 29.9482 90.6589 29.9482 90.6713 29.9482C90.6774 29.9482 90.7515 29.9482 90.7083 29.9482C90.6713 29.9482 90.733 29.9544 90.7454 29.9544C90.7701 29.9605 90.7886 29.9666 90.8133 29.9728C90.838 29.985 90.838 29.9789 90.8071 29.9666C90.8195 29.9728 90.8318 29.9789 90.838 29.9789C90.8565 29.9912 90.8812 30.0035 90.8997 30.0157C90.9121 30.0219 90.9677 30.071 90.9244 30.028C90.9553 30.0526 90.98 30.0832 91.0109 30.1078C90.9677 30.0587 91.0109 30.1139 91.0232 30.1262C91.0356 30.1446 91.0541 30.1998 91.0356 30.1385C91.0356 30.1446 91.0541 30.1998 91.0541 30.1998C91.0479 30.163 91.0479 30.1569 91.0541 30.1814C91.0541 30.1937 91.0541 30.1998 91.0541 30.2121C91.0541 30.2489 91.0665 30.163 91.0479 30.2244C91.0356 30.2796 91.0294 30.3226 91.0479 30.3717C91.0726 30.5313 91.227 30.611 91.3505 30.5313Z" fill="#1D2E43"/>
<path d="M86.8371 31.6672C86.6333 31.1578 86.9606 30.5502 87.5101 30.4581C87.4669 30.4274 87.4237 30.3906 87.3805 30.3599C87.3928 30.8448 87.3866 31.3173 87.4422 31.8022C87.4978 32.2563 87.5719 32.7166 87.7016 33.1585C87.8251 33.582 87.998 33.9993 88.2388 34.3676C88.4549 34.7051 88.7698 35.1225 89.1774 35.2329C89.27 35.2575 89.3626 35.1532 89.3071 35.0611C89.1959 34.8893 89.0415 34.7726 88.9119 34.6253C88.7698 34.4658 88.634 34.3062 88.5228 34.1282C88.2882 33.7723 88.1276 33.3733 88.0041 32.9683C87.8806 32.5571 87.8004 32.1336 87.7448 31.7101C87.683 31.2621 87.6213 30.8079 87.5904 30.3599C87.5842 30.2924 87.5287 30.2433 87.4607 30.2617C86.8247 30.4029 86.4542 31.1332 86.7259 31.7224C86.7506 31.7838 86.8679 31.7347 86.8371 31.6672Z" fill="#1D2E43"/>
<path d="M87.5714 26.6791C87.9419 26.2372 88.4112 26.8141 88.4051 27.2069C88.4051 27.4708 88.3001 27.7225 88.2136 27.968C88.1272 28.2073 88.0654 28.4528 88.016 28.7044C87.9296 29.177 87.8802 29.668 87.8987 30.1528C87.9234 30.6438 88.0531 31.1409 88.2075 31.6074C88.2507 31.7424 88.4421 31.6872 88.4174 31.5521C88.3063 30.92 88.2877 30.2572 88.3248 29.6128C88.3618 28.9622 88.5471 28.3607 88.6768 27.7286C88.757 27.3174 88.7817 26.7528 88.3433 26.5441C88.0778 26.4213 87.7196 26.3784 87.5529 26.6607C87.5406 26.6791 87.5591 26.6975 87.5714 26.6791Z" fill="#1D2E43"/>
<path d="M41.0306 61.8133C40.7527 61.844 40.4995 62.0772 40.2896 62.2491C40.2402 62.292 40.234 62.2982 40.1846 62.3289C40.129 62.3718 40.0735 62.4086 40.0179 62.4455C39.9129 62.5191 39.8018 62.5866 39.6844 62.6541C39.5795 62.7155 39.4683 62.7769 39.3572 62.8321C39.2954 62.8628 39.2337 62.8935 39.1719 62.9242C39.1472 62.9364 39.1225 62.9487 39.0978 62.961C38.9743 63.0162 39.1287 62.9487 39.0546 62.9794C38.9126 63.0346 38.7767 63.096 38.647 63.1635C38.4927 63.2494 38.3383 63.3108 38.2827 63.4949C38.258 63.5809 38.2827 63.7036 38.3568 63.765C38.6223 63.9859 39.0546 63.8141 39.3386 63.6913C39.5918 63.5809 39.8326 63.452 40.0673 63.3047C40.3081 63.1512 40.5428 62.9794 40.7589 62.8014C40.975 62.6234 41.2529 62.3473 41.2714 62.0588C41.2776 61.9299 41.1541 61.801 41.0306 61.8133Z" fill="#1D2E43"/>
<path d="M83.6624 50.7548C83.2857 51.1476 82.9708 51.6017 82.7485 52.0927C82.6373 52.3443 82.5694 52.6144 82.52 52.8844C82.4706 53.1667 82.4397 53.4552 82.52 53.7375C82.5756 53.9339 82.8473 53.9216 82.909 53.7375C82.9893 53.4981 83.0078 53.2527 83.0572 53.0072C83.1066 52.7617 83.1869 52.5223 83.2548 52.2768C83.3907 51.792 83.6068 51.3439 83.897 50.9327C84.002 50.7916 83.7797 50.632 83.6624 50.7548Z" fill="#1D2E43"/>
<path d="M73.6408 38.1749C73.542 38.1994 73.4432 38.224 73.3444 38.2485C73.2271 38.2731 73.1283 38.3283 73.0233 38.3774C72.9739 38.402 72.9245 38.4265 72.8751 38.4449C72.8565 38.4511 72.7083 38.5186 72.801 38.4817C72.6898 38.5247 72.5848 38.5738 72.4799 38.629C72.3996 38.672 72.3255 38.7088 72.2514 38.7641C72.1711 38.8193 72.0908 38.8684 72.0044 38.9175C71.85 38.9973 71.6771 39.0218 71.498 39.0218C71.4116 39.0218 71.3807 39.1384 71.4548 39.1814C71.6339 39.2796 71.8191 39.341 72.0167 39.3962C72.2514 39.4576 72.5046 39.4944 72.7392 39.4453C72.9739 39.3962 73.1838 39.2919 73.3938 39.1753C73.5111 39.1077 73.6346 39.0402 73.7272 38.942C73.8013 38.8623 73.8754 38.7825 73.9495 38.7027C74.1595 38.4756 73.9557 38.0951 73.6408 38.1749Z" fill="#1D2E43"/>
<path d="M72.8378 31.1449C72.597 30.8995 72.2141 30.8442 71.8807 30.8626C71.541 30.881 71.2138 30.9976 70.9235 31.1756C70.6271 31.3598 70.3863 31.5807 70.2072 31.8753C70.1331 31.998 70.059 32.1331 69.9973 32.2681C69.9294 32.4154 69.8985 32.5872 69.8614 32.7468C69.8306 32.8879 69.9849 32.9677 70.0899 32.8818C70.1887 32.7959 70.2937 32.7161 70.3987 32.6302C70.5036 32.5443 70.5901 32.4461 70.6889 32.3601C70.8 32.2619 70.8865 32.2128 71.0038 32.1085C71.1026 32.0226 71.1767 31.9489 71.2632 31.8876C71.4855 31.7403 71.6522 31.6789 71.9115 31.6175C72.0165 31.593 72.103 31.5868 72.2388 31.593C72.35 31.5991 72.492 31.6237 72.6279 31.6237C72.8872 31.6237 73.0045 31.3168 72.8378 31.1449Z" fill="#1D2E43"/>
<path d="M72.0537 31.4948C72.0413 31.593 72.0351 31.6728 72.0475 31.771C72.0598 31.8446 72.0722 31.9183 72.0845 31.9919C72.1031 32.1576 72.1154 32.3233 72.1031 32.4891C72.0845 32.7345 71.9857 32.98 71.8005 33.1519C71.6399 33.3053 71.4485 33.3606 71.2633 33.2808C71.1768 33.2439 71.1027 33.1764 71.0533 33.1151C70.9916 33.023 70.973 32.9371 70.936 32.8266C70.9051 32.7223 70.7507 32.6548 70.6705 32.7591C70.6334 32.8082 70.5902 32.8573 70.5717 32.9187C70.5531 32.9923 70.5655 33.0844 70.584 33.158C70.6149 33.2869 70.689 33.4097 70.7878 33.5017C70.9916 33.6981 71.2756 33.7963 71.5597 33.7595C72.1463 33.6736 72.4674 33.0844 72.5106 32.5443C72.523 32.354 72.5045 32.1638 72.4736 31.9797C72.4612 31.8876 72.4427 31.8017 72.4242 31.7158C72.3995 31.6114 72.3501 31.5316 72.2945 31.4396C72.2142 31.323 72.066 31.3782 72.0537 31.4948Z" fill="#1D2E43"/>
<path d="M92.3138 96.5715C92.3879 97.3939 92.567 98.1979 92.6164 99.0265C92.6719 99.855 92.709 100.684 92.7275 101.518C92.7275 101.604 92.8695 101.629 92.8819 101.537C93.0363 100.69 93.0671 99.8366 92.9683 98.9774C92.8695 98.155 92.7522 97.308 92.4126 96.5409C92.4002 96.4856 92.3076 96.5163 92.3138 96.5715Z" fill="#1D2E43"/>
<path d="M63.6803 110.264C63.2234 111.694 63.3901 113.235 64.0941 114.56C64.7486 115.8 66.1689 117.273 67.7188 116.898C68.1325 116.8 67.9535 116.193 67.5459 116.272C66.8543 116.408 66.2059 115.929 65.7428 115.475C65.3105 115.051 64.9647 114.542 64.7177 113.989C64.2299 112.903 64.1311 111.62 64.4646 110.479C64.6128 109.982 63.8409 109.773 63.6803 110.264Z" fill="#1D2E43"/>
<path d="M84.7124 106.75C84.7927 107.53 85.898 107.996 86.534 108.236C87.38 108.561 88.3248 108.665 89.2202 108.524C90.0476 108.389 90.8504 108.002 91.5111 107.493C91.8507 107.229 92.1595 106.935 92.425 106.597C92.567 106.413 92.6473 106.216 92.7646 106.02C92.8881 105.811 93.0178 105.713 93.0116 105.462C93.0055 105.271 92.777 105.099 92.5979 105.228C92.425 105.351 92.4003 105.437 92.3077 105.615C92.2212 105.781 92.0854 105.91 91.9619 106.051C91.7211 106.333 91.4679 106.603 91.1777 106.83C90.5787 107.297 89.8747 107.603 89.1337 107.745C88.368 107.886 87.59 107.831 86.8489 107.597C86.4661 107.475 86.1018 107.303 85.7621 107.088C85.4781 106.91 85.1755 106.677 84.8297 106.646C84.7618 106.634 84.7062 106.695 84.7124 106.75Z" fill="#1D2E43"/>
<path d="M56.9122 72.4735C56.5849 73.075 56.06 73.5291 55.6463 74.0692C55.2573 74.5786 54.9053 75.1126 54.6027 75.6772C54.0346 76.7267 53.5962 77.8682 53.3307 79.0282C52.7811 81.4033 52.9169 83.9871 53.7506 86.2825C55.2511 90.4375 59.2093 94.4329 63.8777 94.4942C64.4087 94.5004 64.7051 93.6718 64.1679 93.4325C60.4258 91.7938 56.8999 89.4739 55.566 85.411C54.893 83.3673 54.8497 81.1701 55.3252 79.0711C55.5722 77.9787 55.9612 76.9231 56.517 75.9473C57.0789 74.953 57.8693 74.1122 58.1904 72.9952C58.3942 72.2587 57.2889 71.78 56.9122 72.4735Z" fill="#1D2E43"/>
<path d="M84.4839 101.77C83.9837 103.004 83.9899 104.581 83.9528 105.888C83.9096 107.33 83.9528 108.779 84.0763 110.221C84.3295 113.087 84.8112 115.935 85.6571 118.697C86.5031 121.471 87.732 124.165 87.9049 127.086C87.9913 128.565 87.627 129.995 87.2565 131.413C86.9169 132.733 86.7748 134.065 86.8366 135.421C86.991 138.655 88.2877 141.675 89.7944 144.504C90.0847 145.056 90.8627 144.572 90.6219 144.025C89.4424 141.405 88.1704 138.839 87.5652 136.01C87.238 134.463 87.3429 132.929 87.7628 131.407C88.1148 130.118 88.7755 128.903 88.9546 127.565C89.3189 124.834 87.9049 122.256 86.9107 119.795C85.8362 117.15 85.1693 114.173 84.9223 111.332C84.7865 109.798 84.7494 108.257 84.805 106.723C84.8359 105.931 84.8914 105.139 84.9532 104.348C85.0149 103.525 85.2002 102.672 85.1323 101.85C85.089 101.481 84.6197 101.432 84.4839 101.77Z" fill="#1D2E43"/>
<path d="M84.1506 101.243C83.8728 102.593 83.5949 103.894 83.527 105.275C83.459 106.68 83.4837 108.104 83.5764 109.51C83.7616 112.29 84.2556 115.107 85.0522 117.783C85.8364 120.409 87.2752 122.932 87.6704 125.657C88.0718 128.437 86.8183 131.064 86.6762 133.807C86.5157 136.907 87.4111 140.282 88.9857 142.946C89.1462 143.216 89.5291 143.032 89.4735 142.743C88.9239 139.938 87.8618 137.287 87.8989 134.378C87.9174 132.911 88.2817 131.567 88.6955 130.174C89.0721 128.922 89.4673 127.694 89.4303 126.369C89.3562 123.693 88.0841 121.269 87.2443 118.783C86.349 116.132 85.6697 113.401 85.3054 110.627C85.1139 109.129 84.9719 107.625 84.9287 106.116C84.8793 104.526 84.7805 102.912 84.8114 101.322C84.8237 100.96 84.2247 100.862 84.1506 101.243Z" fill="#1D2E43"/>
<path d="M97.7749 73.1836C96.7991 73.1837 95.1054 72.9299 94.2718 73.0772C93.2282 73.2552 92.2093 73.5866 91.2152 73.9426C89.2391 74.6484 87.4052 75.6303 85.565 76.6123C83.6199 77.6557 81.6871 78.7113 79.6061 79.4478C77.346 80.2456 74.9624 80.755 72.6097 81.1969C70.115 81.6633 67.5647 81.7492 65.1873 80.7366C64.7921 80.5709 64.3105 81.0373 64.6872 81.381C66.3112 82.8785 68.5651 83.1424 70.7017 83.0074C73.0667 82.8601 75.4626 82.4059 77.7783 81.8965C80.1618 81.3749 82.3601 80.5402 84.5091 79.3925C86.448 78.3553 88.2697 77.1156 90.1654 76.0109C91.2152 75.3971 92.2834 74.8325 93.432 74.4213C94.0186 74.2126 94.6238 74.0346 95.2351 73.8873C95.8032 73.7523 96.3343 73.7032 96.8221 73.3595C96.89 73.3227 97.8552 73.2266 97.7749 73.1836Z" fill="#1D2E43"/>
<path d="M66.5514 104.561C65.0818 104.217 63.6492 104.039 62.2413 103.444C60.8642 102.861 59.5489 102.161 58.1781 101.572C55.8501 100.572 53.0775 100.203 50.8298 101.658C49.78 102.339 49.0328 103.321 48.6685 104.512C48.2857 105.77 48.3721 107.114 48.2918 108.409C48.2177 109.581 47.8719 110.698 47.063 111.582C46.2417 112.478 45.0746 112.859 43.9446 113.233C43.3888 113.417 43.4506 114.313 44.0866 114.295C46.2788 114.215 49.0081 113.184 49.9961 111.091C50.5642 109.882 50.5581 108.495 50.6013 107.188C50.6383 106.04 50.6816 104.782 51.5584 103.929C53.3554 102.174 56.4244 102.935 58.4807 103.696C59.8886 104.211 61.2347 104.868 62.6982 105.224C63.9888 105.537 65.4152 105.739 66.6132 105.07C66.8293 104.96 66.7923 104.616 66.5514 104.561Z" fill="#1D2E43"/>
<path d="M49.9035 103.144C51.7931 102.861 53.2751 101.487 54.3249 99.9708C54.8559 99.2036 55.2758 98.3505 55.5475 97.4545C55.8007 96.6259 56.0107 95.4414 55.6031 94.6436C55.424 94.2937 54.9609 94.3735 54.7633 94.6436C54.504 94.9934 54.436 95.4046 54.2878 95.8097C54.1458 96.2086 54.0038 96.6014 53.8556 96.9942C53.5839 97.7245 53.2319 98.4364 52.8243 99.0993C51.9722 100.48 50.7866 101.603 49.6874 102.782C49.533 102.953 49.6936 103.174 49.9035 103.144Z" fill="#1D2E43"/>
<path d="M17.7261 106.568C18.6771 107.329 20.2579 107.311 21.425 107.421C22.8514 107.556 24.2902 107.673 25.729 107.605C26.3033 107.574 26.8837 107.568 27.4518 107.495C28.0632 107.415 28.5325 107.182 29.1129 107.028C30.0824 106.77 31.1939 106.482 31.8979 105.709C32.0461 105.543 31.8608 105.328 31.6694 105.414C30.5394 105.917 29.5699 106.427 28.304 106.206C27.2975 106.028 26.2107 106.034 25.1918 105.948C23.9444 105.838 22.6785 105.838 21.425 105.807C20.3135 105.776 18.7882 105.537 17.7879 106.108C17.6335 106.187 17.5718 106.445 17.7261 106.568Z" fill="#1D2E43"/>
<path d="M30.8291 113.331C30.2919 113.319 29.7608 113.19 29.2174 113.178C28.6617 113.165 28.1121 113.104 27.5687 112.981C26.5436 112.754 25.8211 112.11 25.3024 111.22C24.7467 110.269 24.4009 109.256 23.7155 108.372C23.0794 107.55 22.2767 106.789 21.3381 106.31C20.4427 105.856 19.4238 105.58 18.4173 105.61C17.1823 105.647 16.0646 106.144 14.879 106.402C13.7922 106.635 13.0697 106.421 12.1434 105.862C11.6247 105.549 11.2974 105.328 10.964 104.8C10.6799 104.352 10.0876 103.983 9.95174 103.473C9.90851 103.314 9.99492 103.802 9.9517 103.962C9.44534 105.901 11.0381 107.403 12.8289 108.047C15.2186 108.912 17.6022 106.967 19.9055 108.096C20.8996 108.581 21.7456 109.33 22.3384 110.256C22.9868 111.269 23.5179 112.441 24.4503 113.239C25.2963 113.963 26.4078 114.239 27.4946 114.35C28.0689 114.405 28.6431 114.356 29.2112 114.301C29.8226 114.246 30.3104 114.006 30.897 113.853C31.1934 113.779 31.1255 113.337 30.8291 113.331Z" fill="#1D2E43"/>
<path d="M93.3148 74.6251C94.4386 74.4839 95.5872 74.4962 96.7111 74.2998C97.9955 74.0727 99.2799 73.8211 100.558 73.5633C101.639 73.3424 102.719 73.1276 103.806 72.9066C104.887 72.6857 106.004 72.52 106.993 72.0106C108.74 71.1145 109.395 69.2979 110.166 67.6347C110.809 66.2415 112.278 64.2898 113.884 65.7198C115.162 66.8552 115.854 68.3466 117.484 69.1015C118.33 69.4943 119.25 69.7214 120.065 70.1817C120.843 70.6235 121.312 71.3171 121.708 72.1026C122.103 72.8882 122.393 73.7229 122.801 74.5023C123.276 75.4168 123.918 76.1717 124.703 76.8407C125.616 77.6201 128.457 79.6393 126.814 81.014C126.394 81.3639 125.863 81.5603 125.474 81.9592C125.147 82.2967 124.912 82.7141 124.758 83.1498C124.462 84.009 124.517 84.9419 124.647 85.8257C124.9 87.538 126.16 90.3857 124.369 91.6439C124.128 91.8096 124.338 92.1901 124.604 92.0428C126.055 91.2327 126.401 89.3976 126.228 87.8817C126.018 86.0282 125.24 83.7942 127.222 82.6711C128.074 82.1863 128.76 81.5848 128.945 80.5783C129.13 79.6086 128.883 78.6143 128.364 77.7858C127.802 76.8898 126.956 76.2515 126.147 75.5886C125.339 74.9197 124.74 74.2077 124.276 73.2749C123.412 71.5257 122.819 69.6354 120.991 68.6228C120.071 68.1134 119.021 67.8924 118.089 67.4137C117.268 66.9903 116.731 66.3029 116.175 65.5909C115.057 64.1487 113.55 62.823 111.581 63.5411C109.574 64.2714 108.722 66.2845 107.925 68.0827C107.474 69.1076 106.949 70.108 105.881 70.599C104.665 71.1575 103.201 71.3539 101.904 71.673C100.496 72.0229 99.0884 72.3727 97.6805 72.7409C96.1615 73.1337 94.7412 73.7229 93.2592 74.2077C93.0369 74.2753 93.0616 74.6558 93.3148 74.6251Z" fill="#1D2E43"/>
<path d="M65.3102 107.426C64.7606 108.028 64.3778 108.635 63.6368 109.065C62.7352 109.587 61.7225 109.912 60.7901 110.378C58.8326 111.348 56.9986 112.539 55.2943 113.895C51.9968 116.516 48.7302 119.996 47.2729 124.009C47.1926 124.224 47.5014 124.31 47.6187 124.151C48.9834 122.309 50.2493 120.419 51.7869 118.701C53.3306 116.976 55.0782 115.429 56.9801 114.104C58.8388 112.815 60.821 111.778 62.8958 110.876C63.9332 110.427 66.9157 108.973 65.5943 107.426C65.5202 107.353 65.3781 107.353 65.3102 107.426Z" fill="#1D2E43"/>
<path d="M72.2756 26.6739C71.4419 27.0237 70.7627 27.3367 70.0464 27.9198C69.3795 28.466 68.7867 29.0981 68.2494 29.7671C67.1256 31.1603 66.2302 32.713 65.3225 34.2412C64.3098 35.9351 63.3156 37.6413 62.1917 39.2677C60.9814 41.023 59.4932 42.5818 58.2829 44.331C58.11 44.5826 58.4558 44.9202 58.709 44.7544C60.3701 43.662 61.7224 42.0602 62.9574 40.5258C64.2048 38.9731 65.3163 37.3406 66.2364 35.573C67.0576 33.9896 67.7986 32.3693 68.7496 30.8595C69.682 29.3743 70.8985 27.8338 72.3805 26.8396C72.4917 26.7721 72.3929 26.6248 72.2756 26.6739Z" fill="#1D2E43"/>
<path d="M42.5002 32.7044C42.2471 34.9936 43.7599 37.6143 46.1065 38.0991C48.8667 38.6638 50.182 36.1597 51.0774 34.0239C53.0287 29.3534 54.1155 23.7255 58.4751 20.5771C59.673 19.7117 60.9945 19.1287 62.4086 18.7297C63.9338 18.3001 65.459 18.4413 67.009 18.6254C67.5215 18.6868 67.6018 17.8828 67.1263 17.7478C64.9033 17.134 62.1863 17.4409 60.0374 18.2203C57.7649 19.0427 55.8877 20.485 54.4551 22.4183C53.0102 24.3699 52.053 26.6837 51.2564 28.9606C50.8489 30.139 50.4599 31.3235 50.04 32.4957C49.6386 33.6127 49.2496 34.8218 48.6074 35.8283C47.7737 37.1356 46.2547 37.2767 45.0197 36.4052C43.7105 35.4846 43.4018 33.9626 42.7349 32.6308C42.6793 32.5142 42.5126 32.5878 42.5002 32.7044Z" fill="#1D2E43"/>
<path d="M55.9246 46.7776C56.5483 47.6184 57.2152 48.3917 57.6722 49.343C58.1291 50.2943 58.4193 51.3376 58.5181 52.3871C58.7281 54.6947 57.8512 56.6648 56.8385 58.6717C55.8258 60.6786 55.2207 62.5935 55.8505 64.8213C56.221 66.1286 56.5421 67.4235 56.6409 68.786C56.6903 69.4611 56.6965 70.1362 56.6718 70.8113C56.6471 71.4312 56.4989 72.0634 56.6348 72.671C56.7274 73.0822 57.3511 73.1619 57.5487 72.7876C58.1229 71.7074 57.9192 69.9644 57.808 68.786C57.6783 67.4788 57.3819 66.2206 57.0114 64.9563C56.6039 63.5632 56.5483 62.3725 57.0361 60.9916C57.4313 59.8808 57.9994 58.8436 58.4749 57.7634C59.3518 55.781 59.6482 53.7496 59.1665 51.6199C58.759 49.7849 57.7463 47.643 56.0914 46.6057C55.9926 46.5444 55.8505 46.6733 55.9246 46.7776Z" fill="#1D2E43"/>
<path d="M67.8181 46.2317C69.0346 45.5198 69.9856 46.9743 70.2017 47.9808C70.4487 49.1347 70.4302 50.2885 70.8068 51.4239C71.554 53.6395 73.0113 55.5297 73.7338 57.7515C74.1043 58.8807 74.3019 60.102 73.9808 61.2681C73.6659 62.4158 72.8755 63.3732 72.4865 64.4964C71.6837 66.8101 72.7705 69.1239 73.283 71.364C73.4436 72.076 73.598 73.3894 72.8693 73.8619C72.4247 74.1504 71.7393 73.9908 71.2329 74.046C70.7327 74.0951 70.3499 74.2179 69.9732 74.5493C69.72 74.7641 69.9856 75.2306 70.3067 75.1139C70.8871 74.9053 71.4737 75.1999 72.0604 75.2735C72.5791 75.341 73.0916 75.2858 73.5424 75.0096C74.3451 74.5248 74.6601 73.6103 74.728 72.7204C74.9379 70.0322 72.9372 67.5896 73.8017 64.8646C74.2155 63.5574 75.0861 62.4833 75.2961 61.1024C75.4937 59.8259 75.2467 58.5248 74.8021 57.328C73.845 54.7687 71.9183 52.6329 71.3008 49.9448C71.0168 48.6928 71.0847 47.1953 70.1276 46.2133C69.4483 45.5198 68.38 45.1884 67.5217 45.7469C67.2191 45.9371 67.497 46.422 67.8181 46.2317Z" fill="#1D2E43"/>
<path d="M56.4121 64.4187C56.0663 61.4543 55.4364 57.9867 52.4354 56.5506C51.188 55.9491 49.8419 55.9123 48.576 56.4954C46.8655 57.2871 45.3279 58.6066 43.7903 59.6868C43.037 60.2146 42.2774 60.7424 41.5241 61.2702C40.8942 61.7121 40.2273 62.1417 39.9433 62.8905C39.6901 63.5656 39.7827 64.3266 39.8198 65.0262C39.8753 66.0082 39.9494 66.9902 40.0421 67.9722C40.2211 69.9054 40.5361 71.8203 40.7831 73.7412C40.888 74.5943 40.956 75.4781 40.7337 76.3189C40.4928 77.2395 39.9124 77.9944 39.2393 78.645C37.7635 80.0811 36.0036 81.2717 34.3857 82.5422C32.5826 83.966 30.7795 85.3899 29.0196 86.869C28.7356 87.1083 29.1184 87.6116 29.421 87.3907C32.3912 85.2426 35.2811 82.9841 38.1587 80.7132C39.2702 79.8417 40.4311 78.9334 41.1165 77.6753C41.8328 76.368 41.8019 74.9257 41.5982 73.4896C41.3388 71.6484 41.0424 69.8195 40.8633 67.966C40.7831 67.1313 40.7151 66.2967 40.6657 65.462C40.6163 64.6028 40.3755 63.4428 40.993 62.7309C41.5302 62.1172 42.4071 61.6691 43.074 61.2088C43.8768 60.6565 44.6733 60.098 45.4761 59.5456C46.1862 59.0546 46.8964 58.5698 47.6003 58.0727C48.2857 57.5878 48.9835 57.0845 49.811 56.8882C51.577 56.477 53.2875 57.7228 54.1829 59.1406C55.1833 60.7301 55.455 62.6818 55.7575 64.4984C55.8316 64.8605 56.4553 64.7808 56.4121 64.4187Z" fill="#1D2E43"/>
<path d="M56.2884 46.9885C53.7011 46.2275 50.8173 46.1907 48.5943 47.903C45.9514 49.9344 43.4937 52.2482 40.9681 54.4147C39.6837 55.5132 38.3993 56.618 37.1211 57.7227C35.9293 58.7476 34.5893 59.7296 33.5581 60.9141C31.6747 63.0867 32.848 66.0633 33.7001 68.4139C34.2867 70.0342 34.9783 71.6544 35.4415 73.3176C35.8428 74.766 36.0405 76.4599 34.7869 77.5462C34.5399 77.761 34.9042 78.1231 35.1451 77.9022C36.7568 76.4108 36.2628 73.962 35.6638 72.1147C35.1821 70.6233 34.6449 69.1565 34.1324 67.6774C33.6569 66.3088 33.0394 64.8788 33.1135 63.3997C33.2061 61.6444 34.5461 60.6686 35.7873 59.6437C37.0532 58.6003 38.3129 57.5386 39.5664 56.4829C42.0796 54.3717 44.5929 52.2543 47.1 50.1431C48.4029 49.0506 49.6255 47.817 51.3484 47.4488C52.9477 47.1051 54.6212 47.3629 56.239 47.3629C56.4552 47.3567 56.4922 47.0499 56.2884 46.9885Z" fill="#1D2E43"/>
<path d="M75.6232 25.7569C75.37 23.8666 72.8444 23.394 71.3006 23.928C69.5284 24.5356 68.3613 26.027 66.9225 27.1255C65.422 28.2732 63.8103 29.1815 61.9331 29.4823C61.5317 29.5436 61.1859 29.7584 60.8401 29.7462C60.3832 29.7278 59.9138 29.47 59.5619 29.1938C58.8023 28.5924 58.3886 27.7024 57.8267 26.9353C57.66 26.7021 57.2771 26.8371 57.3512 27.1378C57.7279 28.7274 58.6727 30.3599 60.2411 31.0105C61.0809 31.3603 61.7355 31.6917 62.7111 31.5567C63.6992 31.4278 64.5884 31.0964 65.5023 30.7281C67.4351 29.9487 68.9047 28.7581 70.4423 27.3833C71.0042 26.88 71.6341 26.34 72.3998 26.1927C73.2952 26.0147 73.9991 26.5425 74.8698 26.5118C75.228 26.4995 75.6787 26.1742 75.6232 25.7569Z" fill="#1D2E43"/>
<path d="M75.0425 26.5082C74.635 25.6552 73.2024 25.9191 72.5231 26.2075C71.4487 26.6617 70.6582 27.4473 69.9852 28.374C69.2627 29.3682 68.6699 30.4607 68.0153 31.4979C67.3423 32.5658 66.5457 33.5907 65.9158 34.6832C65.7491 34.9716 65.6688 35.2908 65.4897 35.5731C65.2798 35.8983 64.9834 36.1623 64.7117 36.4323C64.2486 36.8987 63.8595 37.4327 63.4396 37.9359C62.5998 38.9547 61.7724 39.9797 60.9202 40.9923C59.4258 42.766 57.7586 45.0245 55.3874 45.626C53.6151 46.074 49.4161 45.1841 48.848 47.7495C48.7924 48.0011 49.0703 48.2712 49.3173 48.1055C50.1571 47.5347 50.9105 47.0867 51.954 47.0069C53.2076 46.9087 54.4796 47.1296 55.7085 46.7737C57.7277 46.1845 59.2715 44.6072 60.6362 43.0974C62.2664 41.2992 63.9707 39.4519 65.2983 37.4081C65.6318 36.8926 65.8479 36.2789 66.2925 35.8308C66.5024 35.616 66.7186 35.4933 66.91 35.2539C67.1138 34.9962 67.3052 34.7261 67.5028 34.4561C68.2315 33.468 68.9354 32.4614 69.6208 31.4488C70.3433 30.3748 71.0041 29.2209 71.9674 28.3372C72.4552 27.8891 72.9554 27.6191 73.5605 27.3797C74.0298 27.1956 74.6412 27.1588 75.0055 26.7967C75.0796 26.7169 75.0858 26.6064 75.0425 26.5082Z" fill="#1D2E43"/>
<path d="M74.8693 25.8801C76.1908 24.7078 75.246 22.8973 74.1036 21.9951C73.4491 21.4796 72.6895 21.1298 71.9794 20.7063C71.1149 20.1969 70.3183 19.5832 69.5032 19.0124C68.0212 17.9691 66.4466 17.0914 64.5879 17.0116C62.7909 16.9319 60.9631 17.4781 59.3514 18.2452C56.4368 19.6323 54.115 22.0688 52.4971 24.8122C51.6759 26.2115 51.0089 27.6967 50.5149 29.2372C49.9345 31.0477 49.8666 33.1589 48.928 34.8283C48.4648 35.6507 47.6682 36.424 46.6802 36.5222C45.612 36.6265 44.5746 35.8778 43.8829 35.1474C42.3886 33.564 42.3145 30.7408 44.766 30.078C45.0315 30.0044 44.9574 29.6484 44.7042 29.6238C43.2407 29.5011 41.9996 30.8329 41.7526 32.1892C41.4376 33.8709 42.4009 35.4911 43.6606 36.5283C44.9698 37.6146 46.6555 38.1302 48.224 37.2525C49.8295 36.3565 50.6014 34.5705 50.9781 32.8643C51.3671 31.0968 51.7129 29.3599 52.4107 27.6783C53.0776 26.0642 53.9791 24.5176 55.0845 23.1612C57.2951 20.4608 60.6667 18.1348 64.3038 18.2146C66.675 18.2698 68.4534 19.8287 70.2998 21.1052C71.893 22.21 75.0546 23.2226 74.5791 25.7144C74.5482 25.8801 74.7335 25.9967 74.8693 25.8801Z" fill="#1D2E43"/>
<path d="M43.6366 30.2798C42.2842 30.6787 41.4444 31.8386 40.9442 33.0968C40.4317 34.404 40.4132 35.8954 40.9257 37.2088C41.0863 37.0001 41.2406 36.7976 41.4012 36.5889C39.5734 36.5828 37.7764 35.521 36.9366 33.9008C36.0536 32.1885 36.3685 30.0834 37.3689 28.4877C37.4739 28.3158 37.2392 28.144 37.0972 28.279C35.4979 29.8195 35.1891 32.3296 36.1092 34.3058C37.0478 36.3189 39.1844 37.5955 41.4012 37.5709C41.6914 37.5648 42.0002 37.2579 41.8767 36.951C41.4197 35.8218 41.4074 34.6066 41.7594 33.4466C42.1113 32.2928 42.9079 31.3108 43.7354 30.4516C43.8033 30.378 43.7354 30.2491 43.6366 30.2798Z" fill="#1D2E43"/>
<path d="M36.368 29.2559C34.5896 31.2076 33.5213 33.595 33.0767 36.1849C32.8729 37.394 32.7618 38.6889 33.1632 39.8735C33.5707 41.0702 34.4599 41.9172 35.5467 42.5186C35.5467 42.1443 35.5467 41.7699 35.5467 41.3955C34.4105 41.8742 33.1446 42.4511 31.8726 42.267C30.8784 42.1197 29.8101 41.5121 29.4581 40.5363C29.384 40.3399 29.0691 40.3583 29.0753 40.5854C29.1 41.911 30.0448 42.9114 31.2983 43.2919C32.947 43.7952 34.7069 43.1815 36.2136 42.5186C36.6644 42.3161 36.615 41.6103 36.2136 41.3955C35.1762 40.8493 34.4352 40.1005 34.2067 38.9222C34.003 37.885 34.1326 36.7434 34.3117 35.7123C34.6946 33.5397 35.59 31.4224 36.7076 29.5198C36.8311 29.3111 36.5347 29.0656 36.368 29.2559Z" fill="#1D2E43"/>
<path d="M29.4399 41.0752C29.4646 42.0142 29.3596 42.9655 29.3905 43.9106C29.4152 44.6655 29.6066 45.4388 29.8351 46.1569C30.3229 47.6667 31.1195 49.066 32.1816 50.2505C34.3799 52.7054 37.6527 54.3379 40.9378 54.6632C41.6603 54.7369 41.7962 53.5892 41.1046 53.4173C38.0726 52.6809 35.2197 51.5577 33.1079 49.1764C32.1384 48.084 31.3356 46.8258 30.8602 45.4449C30.3662 43.9965 30.3723 42.3701 29.6499 41.0138C29.6066 40.9156 29.4399 40.9647 29.4399 41.0752Z" fill="#1D2E43"/>
<path d="M67.6815 46.0056C67.2677 45.6742 66.9713 45.1954 66.8416 44.6983C66.6996 44.1766 66.7799 43.6734 66.9096 43.1333C66.9281 43.0412 66.9157 42.9246 66.8355 42.8571C66.8293 42.8571 66.8293 42.851 66.8231 42.851C66.8478 42.9062 66.8725 42.9615 66.8911 43.0167C66.8849 42.9369 66.891 42.8694 66.854 42.7957C66.8355 42.7589 66.7861 42.7344 66.7428 42.7344C66.6626 42.7344 66.5946 42.7773 66.5267 42.8142C66.5885 42.808 66.6502 42.7957 66.712 42.7896H66.7058C66.6193 42.7651 66.4897 42.7896 66.4279 42.8633C66.3044 43.0167 66.1871 43.164 66.1253 43.3481C66.0759 43.4893 66.0389 43.6427 66.0204 43.7961C65.9648 44.1644 65.971 44.5326 66.0451 44.9008C66.1809 45.6251 66.5823 46.2265 67.1998 46.6377C67.5703 46.8709 68.0334 46.2879 67.6815 46.0056Z" fill="#1D2E43"/>
<path d="M57.9192 45.648C59.1727 47.0105 60.4139 48.3238 61.4822 49.8459C62.5381 51.3495 63.4397 52.9514 64.4709 54.4734C65.3848 55.8237 66.8174 57.2905 68.6205 56.6461C70.2199 56.0753 70.5224 54.1359 70.2754 52.6813C70.0902 51.595 69.6147 50.6069 69.1454 49.625C68.5711 48.422 68.2253 47.1946 67.898 45.9119C67.7622 45.3902 66.9347 45.6971 67.1941 46.2065C67.7869 47.3419 68.3365 48.4589 68.707 49.6863C69.0281 50.7604 69.4603 51.8589 69.6209 52.9698C69.7691 53.9763 69.6024 55.5536 68.4106 55.8912C67.3546 56.1858 66.379 55.2038 65.8356 54.4366C64.6747 52.7857 63.6867 51.012 62.5134 49.3672C61.3834 47.7776 60.0557 46.096 58.2897 45.1815C57.9809 45.0158 57.6783 45.3902 57.9192 45.648Z" fill="#1D2E43"/>
<path d="M73.1961 53.9482C74.5731 54.9056 76.0984 55.6237 77.6174 56.3479C78.9883 57.0046 80.353 57.7042 81.7671 58.2689C82.9897 58.7537 84.4223 59.1342 85.7253 58.7414C86.7318 58.4346 87.5469 57.6797 88.0965 56.8082C89.4673 54.6294 89.7637 51.8185 90.2886 49.3636C90.9926 46.0924 91.6842 42.8151 92.382 39.5378C92.7278 37.9236 93.0427 36.3648 92.4808 34.7629C91.9744 33.3207 91.0729 31.8722 91.5669 30.295C91.6163 30.1415 91.4001 30.0679 91.3137 30.1906C90.6962 31.0867 90.8814 32.0134 91.2458 32.9831C91.7274 34.2781 92.3881 35.4442 92.3202 36.868C92.2461 38.4576 91.7645 40.084 91.4495 41.6367C91.1408 43.1772 90.8259 44.7238 90.5109 46.2643C89.9552 49.0199 89.5908 51.9045 88.7449 54.5926C88.3867 55.7219 87.8124 56.888 86.7812 57.5569C85.5338 58.3671 83.9592 58.1952 82.613 57.7472C79.3958 56.6732 76.5492 54.6478 73.2826 53.715C73.1467 53.6843 73.085 53.8684 73.1961 53.9482Z" fill="#1D2E43"/>
<path d="M70.1762 46.3666C72.5969 46.5261 74.5914 48.3367 76.6724 49.4045C78.7534 50.4724 80.9702 51.2703 83.2673 51.7429C83.4649 51.7858 83.6193 51.7122 83.7366 51.5526C85.2372 49.4843 86.6513 47.3424 87.9357 45.133C89.0039 43.2856 90.4551 41.0639 89.8252 38.8361C89.5473 37.8602 88.9175 37.0501 88.405 36.197C87.806 35.1905 87.3058 34.0981 87.065 32.9504C86.5772 30.5998 87.0032 28.2062 88.2815 26.1748C88.3926 26.0029 88.1147 25.8434 88.0036 26.0152C86.9291 27.7214 86.3734 29.8081 86.4413 31.8211C86.4784 32.8338 86.6513 33.8771 87.0032 34.8284C87.3737 35.8349 87.9789 36.6389 88.5593 37.5288C89.3189 38.6888 89.6091 39.7996 89.183 41.156C88.7755 42.4448 87.9851 43.6109 87.2873 44.7586C85.9658 46.9558 84.5456 49.0793 83.0142 51.1353C83.1685 51.0739 83.3229 51.0125 83.4835 50.945C80.9887 50.4111 78.5743 49.5948 76.3204 48.398C74.3506 47.3485 72.5166 45.8633 70.1762 45.8449C69.8366 45.851 69.8428 46.3482 70.1762 46.3666Z" fill="#1D2E43"/>
<path d="M50.3546 46.4338C46.0259 48.944 42.1603 52.3256 38.5417 55.7564C36.8374 57.3705 34.9787 58.9969 33.5276 60.8504C32.8792 61.6851 32.4284 62.6057 32.3852 63.6736C32.3358 64.8397 32.7186 65.9873 33.0212 67.0982C33.8363 70.0871 34.67 73.0575 35.5777 76.0157C35.7074 76.4392 36.3496 76.2673 36.2446 75.8316C35.5036 72.6709 34.6885 69.5347 33.8549 66.3924C33.4473 64.8642 33.0644 63.379 33.9784 61.949C34.7441 60.7522 35.9235 59.7641 36.9362 58.7821C39.116 56.6586 41.3946 54.6456 43.6732 52.6325C45.9456 50.6256 48.323 48.7476 50.546 46.6854C50.6757 46.5627 50.5089 46.3479 50.3546 46.4338Z" fill="#1D2E43"/>
<path d="M55.9064 61.5857C55.9311 62.4756 56.1966 63.4392 56.4004 64.3045C56.6166 65.2313 56.7956 66.1641 56.9377 67.1032C57.0859 68.0667 57.1538 69.018 57.2032 69.9938C57.2402 70.8408 57.3267 71.6939 57.8516 72.3935C58.3456 73.0502 59.0804 73.5473 59.8523 73.8358C60.6859 74.1427 61.5813 74.1488 62.4458 74.3084C63.3473 74.4679 64.2119 74.425 65.1134 74.5232C66.0705 74.6275 67.0153 74.8607 67.9354 75.1308C68.133 75.186 68.2565 74.9037 68.0774 74.7994C67.3858 74.4066 66.651 74.1734 65.8853 73.9708C65.4407 73.8542 64.9961 73.7376 64.5453 73.6271C64.1625 73.5351 63.829 73.3571 63.4523 73.265C63.0077 73.1607 62.5446 73.0932 62.1062 72.9643C61.7974 72.8722 61.5504 72.6881 61.2602 72.5347C60.5748 72.1603 59.7288 71.8534 59.2471 71.2152C58.7902 70.6076 58.7655 69.6624 58.6111 68.9444C58.4197 68.0606 58.2529 67.1768 58.0245 66.2992C57.796 65.4277 57.5613 64.5378 57.2402 63.6969C56.9624 62.9605 56.6289 62.1196 56.1411 61.4936C56.0608 61.3954 55.9002 61.4752 55.9064 61.5857Z" fill="#1D2E43"/>
<path d="M54.5168 46.7401C54.523 46.7647 54.5291 46.7708 54.523 46.7401C54.523 46.6972 54.523 46.7156 54.5353 46.8015C54.5538 46.8629 54.5909 46.9181 54.6403 46.9611C54.7206 47.0408 54.8317 47.0838 54.9429 47.1022C55.1466 47.1329 55.3442 47.1452 55.548 47.1452C55.9432 47.1329 56.3261 47.047 56.6904 46.8997C57.4005 46.6112 58.2218 46.065 58.3144 45.2426C58.333 45.0646 58.0983 44.948 57.9563 45.0401C57.6846 45.2181 57.4437 45.4697 57.2029 45.6477C56.9683 45.8195 56.6719 46.0282 56.4063 46.1325C56.1285 46.2491 55.7765 46.3351 55.4986 46.3719C55.3381 46.3903 55.1775 46.3903 55.0108 46.3903C54.8996 46.3903 54.7823 46.4087 54.6835 46.4639C54.6341 46.4946 54.5909 46.5253 54.56 46.5805C54.4736 46.734 54.6094 46.5253 54.5538 46.5867C54.5168 46.6174 54.4921 46.6787 54.5168 46.7401Z" fill="#1D2E43"/>
</g>
<defs>
<clipPath id="clip0_9381_5795">
<rect width="121" height="128" fill="white" transform="translate(8 17)"/>
</clipPath>
</defs>
</svg>
