<svg width="497" height="80" viewBox="0 0 497 80" fill="none" xmlns="http://www.w3.org/2000/svg">
<g clip-path="url(#clip0_10210_6607)">
<path d="M40.2576 21.4854L27.9087 43.5783L15.7671 21.4854H0.425537V56.8557H10.53V31.653L24.4744 56.8557H31.2708L45.3324 31.653V56.8557H55.3918V21.4854H40.2576Z" fill="#1D2E43"/>
<path d="M84.065 29.9402L90.6721 42.4604H77.5931L84.065 29.9402ZM77.5931 21.4852L59.0066 56.8555H70.346L73.6631 50.9604H94.4039L97.6939 56.8555H109.105L90.8614 21.4852H77.5931Z" fill="#1D2E43"/>
<path d="M140.113 21.4852C145.512 21.4852 149.181 22.3145 151.137 23.9821C153.084 25.6496 154.066 28.6783 154.066 33.086C154.066 36.1417 153.634 38.4132 152.759 39.9005C151.894 41.3878 150.434 42.3883 148.388 42.8931C150.181 43.3347 151.533 44.1189 152.435 45.2457C153.336 46.3724 153.787 47.8236 153.787 49.6174V56.8645H143.385V51.4742C143.385 50.0861 143.069 49.1216 142.438 48.5988C141.807 48.076 140.564 47.8146 138.698 47.8146H123.194V56.8645H112.765V21.4852H140.113ZM139.725 30.3007H123.194V38.945H139.725C141.113 38.945 142.087 38.6115 142.637 37.9355C143.196 37.2594 143.475 36.0426 143.475 34.2849C143.475 32.8967 143.178 31.8782 142.583 31.2472C141.988 30.6162 141.032 30.3007 139.725 30.3007Z" fill="#1D2E43"/>
<path d="M189.229 21.4852L175.6 34.6184H171.238V21.4852H160.854V56.8555H171.238V43.479H175.6L191.014 56.8555H205.463L184.632 38.945L203.038 21.4852H189.229Z" fill="#1D2E43"/>
<path d="M208.275 45.0925L218.542 45.0655V45.7055C218.542 47.0305 218.849 47.9319 219.479 48.4006C220.101 48.8693 221.417 49.1037 223.41 49.1037H236.462C237.741 49.1037 238.661 48.8783 239.202 48.4277C239.752 47.977 240.022 47.2288 240.022 46.1832C240.022 45.1196 239.707 44.3624 239.076 43.9027C238.445 43.443 237.083 43.1365 234.992 42.9743L218.668 42.5957C214.585 42.4695 211.818 41.6673 210.376 40.171C208.933 38.6837 208.212 35.9706 208.212 32.0495C208.212 30.0214 208.401 28.3539 208.78 27.0379C209.159 25.7218 209.772 24.6312 210.61 23.7568C211.601 22.7743 212.899 22.0802 214.495 21.6656C216.099 21.251 218.704 21.0527 222.319 21.0527H238.192C242.122 21.0527 244.953 21.8008 246.683 23.2881C248.414 24.7754 249.279 27.1911 249.279 30.5352C249.279 30.7606 249.27 30.9949 249.27 31.2473C249.261 31.4997 249.234 31.9143 249.189 32.4822H239.175V32.338C239.175 31.1662 238.886 30.2828 238.318 29.6969C237.751 29.111 236.885 28.8136 235.749 28.8136H223.77C221.769 28.8136 220.453 29.0209 219.813 29.4355C219.173 29.8502 218.849 30.5713 218.849 31.5988C218.849 32.6084 219.137 33.3475 219.714 33.7982C220.291 34.2489 221.363 34.5374 222.914 34.6635L240.022 34.952C243.925 35.0602 246.674 35.9706 248.261 37.6832C249.856 39.3958 250.649 42.3163 250.649 46.4446C250.649 48.8964 250.352 50.7983 249.775 52.1414C249.189 53.4844 248.198 54.6382 246.809 55.5846C245.89 56.1886 244.655 56.6212 243.078 56.8826C241.509 57.144 239.238 57.2702 236.263 57.2702H222.409C216.721 57.2702 212.917 56.6122 210.997 55.2872C209.078 53.9712 208.113 51.5014 208.113 47.8868C208.113 47.6795 208.122 47.337 208.149 46.8502C208.194 46.3815 208.23 45.7956 208.275 45.0925Z" fill="#1D2E43"/>
<path d="M271.471 21.4943H288.534C297.431 21.4943 300.541 24.604 300.541 33.3114V44.9843C300.541 53.6916 297.431 56.8465 288.534 56.8465H271.471V21.4943ZM287.912 53.3491C294.474 53.3491 296.466 51.7447 296.466 45.0294V33.6088C296.466 26.7043 294.664 25.0006 287.912 25.0006H275.365V53.3491H287.912Z" fill="#1D2E43"/>
<path d="M319.281 21.4943H315.342V56.8465H319.281V21.4943Z" fill="#1D2E43"/>
<path d="M346.601 21.0616H351.072C359.635 21.0616 363.809 23.8379 363.809 30.2017V31.707H359.77V31.2743C359.77 25.9291 357.147 24.7573 350.829 24.7573H347.719C344.213 24.7573 341.734 24.8565 339.796 26.506C338.047 28.0113 337.948 30.3459 337.948 34.1407V44.2001C337.948 47.995 338.047 50.3295 339.796 51.8348C341.788 53.5385 344.267 53.5835 347.719 53.5835H350.829C353.993 53.5835 356.228 53.5385 358.022 52.0241C359.626 50.663 359.77 48.4727 359.77 45.0204V42.83H349.945V39.2335H363.8V45.1646C363.8 54.2596 360.492 57.2702 351.063 57.2702H346.592C337.164 57.2702 333.856 54.2596 333.856 45.1646V33.1672C333.865 24.0723 337.173 21.0616 346.601 21.0616Z" fill="#1D2E43"/>
<path d="M382.251 21.4943H378.312V56.8465H382.251V21.4943Z" fill="#1D2E43"/>
<path d="M393.393 21.4943V25.244H404.624V56.8465H408.563V25.244H419.839V21.4943H393.393Z" fill="#1D2E43"/>
<path d="M442.887 25.244H444.149L451.198 44.2992H435.893L442.887 25.244ZM440.318 21.4943L427.239 56.8465H431.277L434.586 47.7966H452.478L455.831 56.8465H459.869L446.736 21.4943H440.318Z" fill="#1D2E43"/>
<path d="M472.02 21.4943V56.8465H495.897V53.1508H475.869V21.4943H472.02Z" fill="#1D2E43"/>
</g>
<defs>
<clipPath id="clip0_10210_6607">
<rect width="496.241" height="80" fill="white" transform="translate(0.0717773)"/>
</clipPath>
</defs>
</svg>
