<svg width="407" height="80" viewBox="0 0 407 80" fill="none" xmlns="http://www.w3.org/2000/svg">
<g clip-path="url(#clip0_10210_6626)">
<path d="M37.7719 3.31573L36.9678 4.11984H59.2025L60.0066 3.31573H37.7719Z" fill="#404142"/>
<path d="M41.0875 0L40.2744 0.813131H60.9099L61.7231 0H41.0875Z" fill="#404142"/>
<path d="M34.456 6.63141L33.6519 7.43551H54.2874L55.0915 6.63141H34.456Z" fill="#404142"/>
<path d="M31.1129 9.97449L30.2817 10.7967H52.2002L53.0314 9.97449H31.1129Z" fill="#404142"/>
<path d="M27.7968 13.2902L26.9746 14.1123H49.2183L50.0405 13.2902H27.7968Z" fill="#404142"/>
<path d="M24.454 16.6331L23.6228 17.4553H45.9117L46.7429 16.6331H24.454Z" fill="#404142"/>
<path d="M21.1388 19.9489L20.2986 20.7801H43.2199L44.0601 19.9489H21.1388Z" fill="#404142"/>
<path d="M17.7958 23.2917L16.9736 24.1048H40.4913L41.3134 23.2917H17.7958Z" fill="#404142"/>
<path d="M14.4796 26.6077L13.6665 27.4208H35.7566L36.5607 26.6077H14.4796Z" fill="#404142"/>
<path d="M11.1828 29.8962L10.3696 30.7184H32.6585L33.4807 29.8962H11.1828Z" fill="#404142"/>
<path d="M7.86611 33.212L7.06201 34.0252H29.7123L30.5164 33.212H7.86611Z" fill="#404142"/>
<path d="M4.52358 36.5549L3.71045 37.377H26.6679L27.4901 36.5549H4.52358Z" fill="#404142"/>
<path d="M21.7352 39.988H1.09969L0.684082 40.4036L1.09969 40.8192H21.7352L21.3196 40.4036L21.7352 39.988Z" fill="#404142"/>
<path d="M3.76416 43.4845L4.6044 44.3247H27.5348L26.6855 43.4845H3.76416Z" fill="#404142"/>
<path d="M7.09912 46.8184L7.92129 47.6405H28.5568L27.7346 46.8184H7.09912Z" fill="#404142"/>
<path d="M10.4316 50.1523L11.2628 50.9835H33.4975L32.6663 50.1523H10.4316Z" fill="#404142"/>
<path d="M13.7476 53.4681L14.5788 54.2993H35.2143L34.3831 53.4681H13.7476Z" fill="#404142"/>
<path d="M17.064 56.7838L17.8952 57.615H40.5635L39.7323 56.7838H17.064Z" fill="#404142"/>
<path d="M20.3887 60.0994L21.2108 60.9306H43.9334L43.1112 60.0994H20.3887Z" fill="#404142"/>
<path d="M23.7224 63.4425L24.5536 64.2737H47.3575L46.5263 63.4425H23.7224Z" fill="#404142"/>
<path d="M27.0476 66.7673L27.8698 67.5895H50.9085L50.0773 66.7673H27.0476Z" fill="#404142"/>
<path d="M30.3806 70.1012L31.2118 70.9324H53.9525L53.1122 70.1012H30.3806Z" fill="#404142"/>
<path d="M33.6973 73.4169L34.5285 74.2481H56.9167L56.0765 73.4169H33.6973Z" fill="#404142"/>
<path d="M37.0581 76.7779L37.8712 77.591H60.7203L59.9072 76.7779H37.0581Z" fill="#404142"/>
<path d="M59.2204 80.9068H73.911L33.3989 40.4037L73.8116 0H59.121L18.7173 40.4037L59.2204 80.9068Z" fill="#404142"/>
<path d="M89.7125 40.4668L73.7299 24.4843L67.5049 30.7092H67.514L77.2716 40.4668L67.2881 50.4503L73.5131 56.6663L89.7125 40.4668Z" fill="#404142"/>
<path d="M65.3647 33.1306L64.5244 33.9709H73.5773L74.4175 33.1306H65.3647Z" fill="#404142"/>
<path d="M61.9311 36.5637L61.0908 37.4039H78.0672L78.8984 36.5637H61.9311Z" fill="#404142"/>
<path d="M58.4252 40.1146L57.585 40.9549H79.8738L80.7051 40.1146H58.4252Z" fill="#404142"/>
<path d="M60.4033 43.584L61.2616 44.4333H75.9161L75.0578 43.584H60.4033Z" fill="#404142"/>
<path d="M63.8462 47.0261L64.7045 47.8844H79.359L78.5097 47.0261H63.8462Z" fill="#404142"/>
<path d="M128.824 56.405V24.2139H146.767V56.405H144.192V26.572H131.399V56.405H128.824Z" fill="#404142"/>
<path d="M153.371 46.1861V34.4318C153.371 27.3033 156.804 23.7888 162.514 23.7888C168.224 23.7888 171.658 27.3123 171.658 34.4318V46.1951C171.658 53.3236 168.224 56.8381 162.514 56.8381C156.813 56.8381 153.371 53.3145 153.371 46.1861ZM169.083 46.1861V34.4318C169.083 28.6405 166.634 26.1468 162.514 26.1468C158.44 26.1468 155.946 28.6405 155.946 34.4318V46.1951C155.946 51.9864 158.394 54.48 162.514 54.48C166.598 54.471 169.083 51.9864 169.083 46.1861Z" fill="#404142"/>
<path d="M175.009 54.0468H177.241C179.003 51.3815 180.159 47.5688 180.114 24.2138H196.042V54.0468H199.051V62.2052H196.648V56.4048H177.422V62.1962H175.018V54.0468H175.009ZM179.897 54.0468H193.458V26.5719H182.472C182.427 40.0518 182.174 46.322 181.225 50.3515C180.882 51.77 180.539 53.062 179.897 54.0468Z" fill="#404142"/>
<path d="M209.252 40.9097V38.5878H211.953C215.215 38.5878 217.194 36.4375 217.194 32.4531V32.1098C217.194 28.1616 214.872 26.1468 211.7 26.1468C208.394 26.1468 205.864 27.9538 205.864 31.9382V32.9681H203.289V31.8117C203.289 26.4902 207.111 23.7888 211.7 23.7888C216.037 23.7888 219.768 26.2824 219.768 31.7304V32.3718C219.768 35.8502 218.223 38.2535 215.82 39.41C218.784 40.5664 220.627 43.1865 220.627 47.2612V48.0743C220.627 54.0012 216.679 56.8291 211.782 56.8291C206.758 56.8291 202.684 53.956 202.684 47.8575V46.3939H205.258V47.5955C205.258 52.149 207.96 54.462 211.782 54.462C215.649 54.462 218.052 52.2755 218.052 47.8485V47.4148C218.052 43.0781 215.992 40.8917 212.044 40.8917H209.252V40.9097Z" fill="#404142"/>
<path d="M240.115 56.4049H226.382V24.2138H240.115V26.5719H228.957V38.5882H239.257V40.9101H228.957V54.0468H240.115V56.4049Z" fill="#404142"/>
<path d="M256.251 56.4049L248.264 25.7136V56.4049H245.861V24.2138H250.324L257.968 53.4414L265.692 24.2138H270.246V56.4049H267.671V25.8039L259.476 56.4139H256.251V56.4049Z" fill="#404142"/>
<path d="M277.284 56.4049V24.2138H295.227V56.4049H292.652V26.5719H279.859V56.4049H277.284Z" fill="#404142"/>
<path d="M302.256 56.4049V24.2138H311.4C316.378 24.2138 319.937 27.0507 319.937 32.3722V35.0375C319.937 40.5759 316.378 43.6206 311.4 43.6206H304.831V56.4049H302.256ZM304.831 26.5719V41.2535H310.966C314.869 41.2535 317.363 39.32 317.363 34.6038V32.7969C317.363 28.3337 314.869 26.5719 310.966 26.5719H304.831Z" fill="#404142"/>
<path d="M324.582 46.1861V34.4318C324.582 27.3033 328.015 23.7888 333.725 23.7888C339.435 23.7888 342.868 27.3123 342.868 34.4318V46.1951C342.868 53.3236 339.435 56.8381 333.725 56.8381C328.015 56.8381 324.582 53.3145 324.582 46.1861ZM340.284 46.1861V34.4318C340.284 28.6405 337.836 26.1468 333.716 26.1468C329.641 26.1468 327.147 28.6405 327.147 34.4318V46.1951C327.147 51.9864 329.596 54.48 333.716 54.48C337.799 54.471 340.284 51.9864 340.284 46.1861Z" fill="#404142"/>
<path d="M363.205 56.4049H349.472V24.2138H363.205V26.5719H352.047V38.5882H362.346V40.9101H352.047V54.0468H363.205V56.4049Z" fill="#404142"/>
<path d="M371.525 41.8136L383.677 24.2138H386.55L376.765 38.6785L387.237 56.4049H384.147L374.832 40.9101L371.525 45.7167V56.4049H368.95V24.2138H371.525V41.8136Z" fill="#404142"/>
<path d="M396.228 56.4049V26.5719H388.629V24.2138H406.401V26.5719H398.803V56.4049H396.228Z" fill="#404142"/>
</g>
<defs>
<clipPath id="clip0_10210_6626">
<rect width="406.316" height="80" fill="white" transform="translate(0.684082)"/>
</clipPath>
</defs>
</svg>
