<svg width="675" height="80" viewBox="0 0 675 80" fill="none" xmlns="http://www.w3.org/2000/svg">
<g clip-path="url(#clip0_10210_6567)">
<path d="M40.3577 21.4861L27.987 43.6179L15.8241 21.4861H0.446533V56.9186H10.5778V31.6716L24.5467 56.9186H31.3551L45.4414 31.6716V56.9186H55.5185V21.4861H40.3577Z" fill="#1D2E43"/>
<path d="M84.2422 29.9558L90.8609 42.498H77.7589L84.2422 29.9558ZM77.7589 21.486L59.1396 56.9184H70.499L73.8219 51.013H94.5992L97.895 56.9184H109.327L91.0415 21.486H77.7589Z" fill="#1D2E43"/>
<path d="M140.389 21.486C145.797 21.486 149.473 22.3167 151.432 23.9872C153.391 25.6486 154.367 28.6916 154.367 33.0981C154.367 36.1592 153.933 38.4347 153.066 39.9246C152.191 41.4145 150.737 42.4168 148.687 42.9224C150.484 43.3649 151.838 44.1505 152.741 45.2792C153.644 46.4079 154.096 47.8617 154.096 49.6586V56.9184H143.676V51.5187C143.676 50.1281 143.359 49.1619 142.727 48.6382C142.095 48.1145 140.849 47.8526 138.98 47.8526H123.449V56.9184H113.002V21.486H140.389ZM140 30.308H123.44V38.9674H140C141.391 38.9674 142.366 38.6333 142.917 37.9561C143.477 37.2789 143.757 36.0599 143.757 34.2991C143.757 32.9085 143.459 31.8882 142.863 31.2561C142.267 30.633 141.31 30.308 140 30.308Z" fill="#1D2E43"/>
<path d="M189.591 21.486L175.938 34.6422H171.559V21.486H161.166V56.9184H171.559V43.5184H175.938L191.379 56.9184H205.854L184.986 38.9764L203.425 21.486H189.591Z" fill="#1D2E43"/>
<path d="M208.671 45.1348L218.956 45.1077V45.7488C218.956 47.0852 219.272 47.9792 219.895 48.4487C220.518 48.9183 221.836 49.153 223.832 49.153H236.916C238.198 49.153 239.119 48.9273 239.661 48.4758C240.211 48.0243 240.482 47.2749 240.482 46.2274C240.482 45.1619 240.166 44.4034 239.534 43.9429C238.902 43.4824 237.539 43.1754 235.444 43.0129L219.091 42.6336C215.001 42.5072 212.229 41.6945 210.784 40.2046C209.339 38.7147 208.617 36.0058 208.617 32.0689C208.617 30.0372 208.806 28.3667 209.186 27.0484C209.565 25.73 210.179 24.6375 211.019 23.7616C212.012 22.7773 213.312 22.0821 214.91 21.6667C216.518 21.2513 219.127 21.0527 222.748 21.0527H238.649C242.586 21.0527 245.422 21.7931 247.164 23.292C248.898 24.7819 249.765 27.2019 249.765 30.5519C249.765 30.7776 249.756 31.0124 249.756 31.2652C249.747 31.5181 249.72 31.9334 249.675 32.5023H239.643V32.3578C239.643 31.184 239.354 30.2991 238.785 29.7121C238.216 29.1252 237.358 28.8363 236.211 28.8363H224.211C222.206 28.8363 220.888 29.0439 220.247 29.4503C219.606 29.8656 219.281 30.588 219.281 31.6174C219.281 32.6287 219.57 33.3692 220.148 33.8206C220.725 34.2721 221.8 34.5611 223.353 34.6875L240.491 34.9764C244.401 35.0848 247.155 35.9968 248.745 37.7124C250.334 39.4281 251.137 42.3537 251.137 46.4893C251.137 48.9453 250.839 50.8506 250.253 52.2051C249.666 53.5505 248.672 54.7063 247.282 55.6544C246.361 56.2594 245.124 56.6928 243.543 56.9547C241.972 57.2165 239.697 57.352 236.717 57.352H222.838C217.141 57.352 213.33 56.6928 211.407 55.3655C209.483 54.0381 208.517 51.573 208.517 47.9521C208.517 47.7444 208.526 47.4013 208.553 46.9227C208.59 46.4261 208.626 45.8391 208.671 45.1348Z" fill="#1D2E43"/>
<path d="M271.129 21.4952V56.8555H295.934V53.1623H275.021V40.4124H295.347V36.8186H275.021V25.2426H295.934V21.4952H271.129Z" fill="#9B9C9E"/>
<path d="M334.798 21.4951V53.0628L315.637 21.4951H309.605V56.8553H313.497V25.2424L332.658 56.8553H338.69V21.4951H334.798Z" fill="#9B9C9E"/>
<path d="M366.076 21.0616H370.546C379.106 21.0616 383.287 23.8338 383.287 30.2087V31.7167H379.25V31.2742C379.25 25.9196 376.623 24.7548 370.302 24.7548H367.187C363.683 24.7548 361.2 24.8541 359.259 26.5065C357.507 28.0145 357.408 30.3532 357.408 34.1457V44.2137C357.408 48.0062 357.507 50.3449 359.259 51.8528C361.254 53.5504 363.737 53.6046 367.187 53.6046H370.302C373.462 53.6046 375.702 53.5595 377.499 52.0515C379.106 50.688 379.25 48.5028 379.25 45.0445V42.8593H369.426V39.2655H383.287V45.198C383.287 54.2909 379.982 57.3068 370.546 57.3068H366.076C356.64 57.3068 353.335 54.2909 353.335 45.198V33.1704C353.335 24.0776 356.64 21.0616 366.076 21.0616Z" fill="#9B9C9E"/>
<path d="M401.725 21.4951H397.788V56.8553H401.725V21.4951Z" fill="#9B9C9E"/>
<path d="M442.883 21.4951V53.0628L423.722 21.4951H417.69V56.8553H421.582V25.2424L440.743 56.8553H446.775V21.4951H442.883Z" fill="#9B9C9E"/>
<path d="M462.785 21.4951V56.8553H487.58V53.1621H466.667V40.4122H487.002V36.8184H466.667V25.2424H487.58V21.4951H462.785Z" fill="#9B9C9E"/>
<path d="M501.26 21.4951V56.8553H526.055V53.1621H505.143V40.4122H525.477V36.8184H505.143V25.2424H526.055V21.4951H501.26Z" fill="#9B9C9E"/>
<path d="M539.726 21.4951H555.682C563.267 21.4951 566.138 23.2468 566.138 29.5676V34.9222C566.138 38.6153 564.63 40.7102 561.569 41.243C565.073 42.0737 566.138 44.0602 566.138 48.3403V56.8553H562.057V49.5593C562.057 44.4034 560.738 43.094 556.169 43.094H543.618V56.8553H539.726V21.4951ZM543.618 25.2424V39.3919H554.905C559.772 39.3919 562.057 38.8591 562.057 34.3804V30.2448C562.057 25.7209 559.917 25.2333 554.905 25.2333H543.618V25.2424Z" fill="#9B9C9E"/>
<path d="M585.063 21.4951H581.126V56.8553H585.063V21.4951Z" fill="#9B9C9E"/>
<path d="M626.213 21.4951V53.0628L607.052 21.4951H601.02V56.8553H604.912V25.2424L624.073 56.8553H630.105V21.4951H626.213Z" fill="#9B9C9E"/>
<path d="M657.491 21.0616H661.961C670.521 21.0616 674.702 23.8338 674.702 30.2087V31.7167H670.666V31.2742C670.666 25.9196 668.038 24.7548 661.717 24.7548H658.602C655.099 24.7548 652.615 24.8541 650.674 26.5065C648.922 28.0145 648.823 30.3532 648.823 34.1457V44.2137C648.823 48.0062 648.922 50.3449 650.674 51.8528C652.67 53.5504 655.153 53.6046 658.602 53.6046H661.717C664.878 53.6046 667.117 53.5595 668.914 52.0515C670.521 50.688 670.666 48.5028 670.666 45.0445V42.8593H660.841V39.2655H674.702V45.198C674.702 54.2909 671.397 57.3068 661.961 57.3068H657.491C648.055 57.3068 644.75 54.2909 644.75 45.198V33.1704C644.75 24.0776 648.055 21.0616 657.491 21.0616Z" fill="#9B9C9E"/>
</g>
<defs>
<clipPath id="clip0_10210_6567">
<rect width="674.829" height="80" fill="white"/>
</clipPath>
</defs>
</svg>
