<svg width="332" height="300" viewBox="0 0 332 300" fill="none" xmlns="http://www.w3.org/2000/svg">
<circle cx="133.505" cy="133.089" r="133.089" fill="#BADDFE"/>
<path d="M21.6947 211.285V270.708L115.074 265.992L182.987 248.071L224.489 237.695L249.956 230.149L273.537 223.547L289.572 217.887L296.174 153.748L294.288 89.6083L261.275 102.813L256.559 105.643L204.681 120.735L201.851 121.678L172.611 129.224L133.939 141.486H130.166L171.668 92.438L199.965 117.905L202.795 120.735L256.559 104.7L245.24 94.3244L240.524 89.6083L235.808 87.7218H233.921L197.135 51.8792L188.646 44.3333L181.1 39.6172H174.498H164.122L156.576 43.3901L140.541 59.425L135.825 56.5953L127.336 55.6521L115.074 57.5385L104.699 64.1411L81.1181 90.5515L52.8212 121.678L30.1837 142.429L23.5811 156.578L21.6947 176.385L16.9785 183.931L21.6947 211.285Z" fill="#F6F6F6"/>
<g clip-path="url(#clip0_9394_14563)">
<path d="M76.9458 130.364C75.4161 133.297 74.13 136.351 72.9793 139.447C72.4242 140.967 71.8963 142.488 71.436 144.049C71.2059 144.823 70.9893 145.597 70.7997 146.384C70.5967 147.199 70.2718 148.122 70.3665 148.977C70.4342 149.629 71.3819 150.064 71.7203 149.344C72.0452 148.665 72.1129 147.891 72.2753 147.158C72.4513 146.371 72.6409 145.583 72.871 144.81C73.3313 143.194 73.8863 141.619 74.4684 140.044C75.6327 136.949 76.8646 133.894 77.7851 130.717C77.9341 130.215 77.1895 129.889 76.9458 130.364Z" fill="#1D2E43"/>
<path d="M116.352 158.271C116.366 158.284 116.393 158.298 116.406 158.312C116.555 158.407 116.785 158.407 116.934 158.312C117.611 157.864 117.611 156.71 117.706 155.976C117.828 155.04 117.922 154.089 117.99 153.153C118.071 152.202 118.112 151.252 118.153 150.315C118.18 149.351 118.274 148.319 118.139 147.355C118.085 146.975 117.435 146.975 117.367 147.355C117.232 148.184 117.259 149.066 117.205 149.908C117.151 150.79 117.07 151.673 116.975 152.555C116.88 153.451 116.758 154.347 116.623 155.23C116.555 155.637 116.488 156.031 116.42 156.438C116.379 156.75 116.433 157.307 116.23 157.551C116.054 157.768 116.095 158.094 116.352 158.271Z" fill="#1D2E43"/>
<path d="M77.1477 131.207C80.2072 127.27 84.1602 124.27 88.9931 122.953C93.6636 121.677 98.6049 122.369 103.005 124.27C107.553 126.239 111.114 129.741 113.32 134.167C114.457 136.434 115.121 138.81 115.771 141.254C116.109 142.544 116.502 143.725 116.745 145.042C116.975 146.304 117.016 147.648 117.382 148.87C117.517 149.305 118.072 149.183 118.126 148.775C118.302 147.336 118.045 145.761 117.882 144.322C117.734 142.951 117.693 141.566 117.409 140.222C116.881 137.615 115.974 135.05 114.782 132.674C112.359 127.854 108.352 124.066 103.397 121.948C94.0291 117.957 81.8724 122.098 76.9041 131.045C76.8499 131.167 77.0394 131.343 77.1477 131.207Z" fill="#1D2E43"/>
<path d="M71.4237 148.849C73.1159 147.709 74.2259 145.591 75.7828 144.233C77.6645 142.59 79.9523 141.613 82.335 140.948C87.0461 139.631 92.2039 139.536 96.9421 140.758C101.274 141.871 105.268 144.111 108.517 147.179C111.63 150.125 114.514 153.872 115.881 157.972C116.125 158.692 117.248 158.38 117.018 157.66C115.475 153.017 113.444 148.89 109.884 145.455C106.378 142.061 102.005 139.644 97.267 138.477C92.1768 137.228 86.7888 137.377 81.8205 139.115C79.6004 139.902 77.4479 140.934 75.6474 142.495C73.9823 143.948 71.6809 146.46 71.1258 148.645C71.0988 148.781 71.2747 148.944 71.4237 148.849Z" fill="#1D2E43"/>
<path d="M70.6099 148.853C69.9872 151.053 70.2174 153.496 70.2174 155.764C70.2174 156.918 70.1903 158.085 70.2174 159.253C70.2309 159.85 70.258 160.461 70.2715 161.058C70.285 161.629 70.2444 162.104 70.6641 162.538C70.8807 162.783 71.341 162.796 71.5576 162.538C71.9637 162.077 71.9096 161.629 71.9096 161.058C71.9096 160.461 71.9096 159.85 71.9096 159.253C71.9096 158.085 71.8419 156.931 71.7877 155.764C71.7065 153.496 71.8554 151.039 71.1514 148.853C71.0838 148.582 70.6912 148.568 70.6099 148.853Z" fill="#1D2E43"/>
<path d="M116 156.931C115.932 157.203 115.838 157.474 115.824 157.759C115.811 158.004 115.838 158.248 115.838 158.492C115.851 159.035 115.838 159.592 115.838 160.135C115.851 160.665 115.905 161.194 115.919 161.724C115.946 162.267 115.905 162.945 116.19 163.421C116.42 163.801 116.975 163.801 117.205 163.421C117.489 162.932 117.435 162.212 117.435 161.656C117.422 161.126 117.435 160.597 117.381 160.067C117.313 159.524 117.232 158.968 117.151 158.425C117.11 158.153 117.083 157.854 117.015 157.596C116.948 157.338 116.785 157.094 116.663 156.85C116.515 156.565 116.068 156.632 116 156.931Z" fill="#1D2E43"/>
<path d="M155.828 42.7259C152.918 44.6809 150.644 47.8713 148.329 50.478C145.878 53.234 143.428 55.99 140.991 58.746C136.036 64.353 131.082 69.9736 126.1 75.5535C116.272 86.5503 106.484 97.5743 96.5879 108.517C93.745 111.667 90.8886 114.816 88.0457 117.952C85.2028 121.089 82.1297 124.062 79.4087 127.307C78.9754 127.836 79.6794 128.569 80.1668 128.067C82.8337 125.365 85.2298 122.392 87.7614 119.568C90.2252 116.826 92.7161 114.11 95.1935 111.382C100.216 105.842 105.293 100.344 110.329 94.8048C120.238 83.8894 130.107 72.9333 139.989 61.9907C142.832 58.841 145.675 55.6913 148.505 52.528C149.845 51.0346 151.199 49.5412 152.525 48.0342C153.852 46.5001 155.341 44.966 156.275 43.1467C156.397 42.8888 156.099 42.5358 155.828 42.7259Z" fill="#1D2E43"/>
<path d="M92.0952 114.857C94.7892 114.124 97.4426 113.242 100.299 113.486C103.047 113.717 105.863 114.369 108.422 115.387C113.769 117.505 118.033 121.578 120.687 126.669C123.313 131.719 124.342 137.571 123.909 143.232C123.665 146.355 123.056 149.396 121.35 152.07C119.929 154.31 117.911 155.98 116.883 158.465C116.666 158.981 117.519 159.334 117.776 158.845C118.967 156.564 120.754 154.826 122.419 152.898C123.936 151.147 124.802 148.907 125.208 146.653C126.061 141.942 125.872 136.973 124.626 132.344C122.203 123.356 115.583 115.604 106.377 113.296C101.937 112.183 96.0482 112.292 92.014 114.735C91.9598 114.762 92.014 114.885 92.0952 114.857Z" fill="#1D2E43"/>
<path d="M117.545 157.648C117.044 158.761 117.098 160.038 117.044 161.232C117.003 161.857 116.99 162.468 117.003 163.092C117.003 163.418 117.017 163.717 117.071 164.043C117.125 164.341 117.138 164.599 117.342 164.816C117.477 164.966 117.734 164.952 117.883 164.816C118.1 164.599 118.127 164.328 118.194 164.043C118.262 163.73 118.289 163.418 118.303 163.092C118.343 162.495 118.357 161.898 118.357 161.3C118.357 160.133 118.492 158.829 118.046 157.716C117.964 157.512 117.653 157.404 117.545 157.648Z" fill="#1D2E43"/>
<path d="M122.296 151.55C126.208 147.11 129.769 142.332 133.491 137.743C137.228 133.14 141.005 128.552 144.809 124.017C152.431 114.921 160.201 105.96 168.107 97.1223C172.561 92.1397 177.042 87.1708 181.564 82.2426C182.091 81.6724 181.239 80.8171 180.711 81.3873C164.479 98.8193 148.978 116.971 134.033 135.557C129.904 140.689 125.585 145.78 121.863 151.224C121.7 151.468 122.093 151.767 122.296 151.55Z" fill="#1D2E43"/>
<path d="M110.356 58.6537C88.0864 80.2945 68.9577 104.922 47.4329 127.282C41.3545 133.595 35.1002 139.718 28.6563 145.651C28.0877 146.181 28.9405 147.022 29.5091 146.506C52.4825 125.626 72.0037 101.256 92.7975 78.2852C98.6728 71.7821 104.643 65.3605 110.708 59.0339C110.951 58.7895 110.599 58.4365 110.356 58.6537Z" fill="#1D2E43"/>
<path d="M28.777 145.747C26.9223 152.209 23.2536 158.142 22.1977 164.822C22.1165 165.297 22.8475 165.514 22.9287 165.026C23.4702 161.74 24.6886 158.645 25.9612 155.59C27.2743 152.4 28.3979 149.223 29.156 145.856C29.2102 145.598 28.8582 145.503 28.777 145.747Z" fill="#1D2E43"/>
<path d="M22.3478 164.36C22.0906 166.953 22.0229 169.519 21.9958 172.126C21.9823 173.375 21.9958 174.61 22.0094 175.859C22.0229 176.524 22.0365 177.203 22.05 177.868C22.0635 178.425 22.0094 178.859 22.3614 179.307C22.5373 179.538 22.8622 179.403 23.0112 179.226C23.3631 178.764 23.2413 178.14 23.2548 177.583C23.2548 177.013 23.2548 176.429 23.2684 175.859C23.2819 174.569 23.2684 173.266 23.2278 171.976C23.1601 169.424 23.0653 166.899 22.7675 164.36C22.7404 164.088 22.3749 164.088 22.3478 164.36Z" fill="#1D2E43"/>
<path d="M67.6172 167.554C68.7814 166.875 69.6614 165.708 70.6902 164.825C71.7868 163.888 72.9646 163.074 74.21 162.341C76.728 160.861 79.4626 159.802 82.3055 159.137C88.235 157.738 94.4758 158.064 100.365 159.476C105.834 160.793 112.318 162.721 116.19 167.038C118.207 169.292 119.087 171.586 119.209 174.627C119.317 177.275 118.627 179.881 118.735 182.502C118.762 183.113 119.602 183.235 119.791 182.651C120.468 180.587 120.495 178.103 120.536 175.944C120.59 173.663 120.306 171.369 119.805 169.156C118.708 164.323 114.66 161.906 110.396 160.074C100.717 155.919 89.7106 153.951 79.5845 157.698C77.0394 158.634 74.6161 159.87 72.4231 161.472C70.5819 162.816 67.6578 164.88 67.3329 167.31C67.2923 167.5 67.4412 167.663 67.6172 167.554Z" fill="#1D2E43"/>
<path d="M67.9135 166.383C66.0588 169.397 66.0588 172.941 66.0724 176.362C66.0859 179.743 66.6409 183.381 69.2943 185.743C69.7952 186.191 70.5398 185.458 70.0389 184.997C67.5209 182.702 67.2501 179.213 67.1283 176.009C67.02 172.859 66.7628 169.424 68.1301 166.506C68.2113 166.37 68.0082 166.248 67.9135 166.383Z" fill="#1D2E43"/>
<path d="M67.6171 182.828C67.1433 176.176 73.8173 173.243 79.1511 171.37C84.4985 169.51 90.1708 168.777 95.8159 169.048C101.393 169.306 107.526 170.189 112.535 172.822C115.012 174.126 117.287 176.189 118.072 178.972C118.884 181.864 118.058 184.865 115.215 186.195C114.498 186.535 115.121 187.593 115.838 187.268C119.764 185.489 120.847 180.534 119.019 176.868C116.704 172.239 111.479 170.229 106.808 168.912C96.4522 166.007 85.1483 166.618 75.3471 171.166C71.2587 173.067 64.8825 177.438 67.0485 182.896C67.1703 183.181 67.6442 183.181 67.6171 182.828Z" fill="#1D2E43"/>
<path d="M70.3652 186.019C69.5529 174.805 84.9181 172.253 93.2979 172.565C101.718 172.877 115.892 175.661 115.202 186.82C115.175 187.309 115.919 187.391 116.041 186.929C117.449 181.851 113.848 177.235 109.557 174.914C104.737 172.294 98.7264 171.37 93.2979 171.194C84.6473 170.936 67.617 174.099 69.4311 186.128C69.5123 186.671 70.4058 186.549 70.3652 186.019Z" fill="#1D2E43"/>
<path d="M69.3232 184.796C69.1743 188.177 69.1878 191.557 69.1878 194.951C69.1878 196.581 69.2826 198.21 69.3367 199.839C69.3773 201.102 69.0931 203.26 70.0407 204.238C70.1625 204.373 70.4333 204.387 70.5551 204.238C71.4215 203.179 71.0019 201.129 70.9477 199.839C70.88 198.21 70.8529 196.581 70.7311 194.951C70.4874 191.557 70.2438 188.177 69.8376 184.796C69.7835 184.471 69.3367 184.457 69.3232 184.796Z" fill="#1D2E43"/>
<path d="M114.119 180.504C114.201 182.337 114.647 184.129 114.742 185.976C114.837 187.727 114.702 189.465 114.742 191.216C114.783 193.09 114.932 194.963 114.932 196.85C114.932 197.855 114.918 198.873 114.932 199.878C114.945 200.774 115.27 201.616 115.311 202.471C115.338 203.082 116.245 203.095 116.258 202.471C116.272 201.602 116.57 200.76 116.556 199.878C116.543 198.873 116.489 197.855 116.461 196.85C116.394 194.827 116.516 192.818 116.461 190.795C116.407 188.935 116.231 187.048 115.988 185.202C115.771 183.573 115.514 181.808 114.607 180.396C114.485 180.151 114.106 180.219 114.119 180.504Z" fill="#1D2E43"/>
<path d="M70.244 202.111C76.6744 196.409 85.7852 195.662 93.9619 195.024C98.4293 194.671 102.585 195.363 106.89 196.531C108.65 197.006 110.424 197.549 112.021 198.431C113.348 199.165 114.241 200.59 115.609 201.16C115.825 201.255 116.042 201.025 116.055 200.821C116.123 199.328 114.58 198.187 113.47 197.4C111.913 196.314 110.139 195.635 108.325 195.105C103.723 193.748 99.1062 192.879 94.3003 193.218C85.6904 193.843 75.7944 194.589 69.716 201.554C69.3911 201.934 69.8785 202.437 70.244 202.111Z" fill="#1D2E43"/>
<path d="M69.6892 199.303C69.0935 204.937 69.4455 210.68 69.4455 216.355C69.4455 219.138 69.5132 221.935 69.4997 224.718C69.4997 227.61 69.1206 230.529 69.2966 233.407C69.3372 234.058 70.3932 234.303 70.515 233.57C70.9347 230.868 70.7993 228.112 70.9076 225.383C71.0159 222.369 71.1919 219.382 71.2054 216.355C71.219 210.666 71.3273 204.829 70.2442 199.235C70.1901 198.882 69.7298 199.004 69.6892 199.303Z" fill="#1D2E43"/>
<path d="M115.636 197.772C114.255 203.691 114.404 209.936 114.566 215.978C114.729 222.237 114.106 228.563 114.674 234.795C114.756 235.731 116.055 235.745 116.136 234.795C116.637 228.55 116.028 222.237 116.367 215.978C116.692 209.936 117.111 203.746 116.123 197.772C116.082 197.528 115.69 197.541 115.636 197.772Z" fill="#1D2E43"/>
<path d="M155.071 43.8584C155.152 43.8584 155.152 43.7227 155.071 43.7227C154.976 43.7227 154.976 43.8584 155.071 43.8584Z" fill="#1D2E43"/>
<path d="M179.641 83.6792C181.455 82.308 182.849 80.3395 184.081 78.4388C185.462 76.3073 186.775 73.9721 187.574 71.542C189.212 66.5459 188.616 61.1425 187.235 56.16C185.922 51.3675 184.054 46.1542 179.993 43.0316C176.256 40.1534 170.895 37.3295 166.035 37.7776C163.531 38.0084 160.823 39.2981 158.63 40.5064C156.464 41.7011 154.366 43.4389 153.215 45.6654C152.971 46.1406 153.594 46.6972 153.987 46.2628C157.913 41.9048 163.125 38.4021 169.23 39.9498C172.073 40.6693 175.011 41.7962 177.542 43.276C180.317 44.9052 182.118 47.0638 183.431 49.9827C185.854 55.3997 187.276 61.5362 186.653 67.4826C186.342 70.4559 185.408 73.3884 183.959 75.995C182.551 78.5338 180.52 80.7739 179.397 83.4349C179.343 83.5842 179.492 83.8014 179.641 83.6792Z" fill="#1D2E43"/>
<path d="M169.787 39.4541C172.21 39.7799 174.66 39.617 177.097 39.8071C179.52 39.9971 181.781 40.8117 183.744 42.2372C187.196 44.7353 189.389 48.8218 190.391 52.8947C191.406 57.0083 191.163 61.2984 189.998 65.3442C189.43 67.2992 188.712 69.1727 187.697 70.9512C186.749 72.6211 185.138 74.0466 184.421 75.7844C184.313 76.0559 184.651 76.4089 184.922 76.2867C186.668 75.5536 188.076 73.3135 189.078 71.7522C190.337 69.7972 191.366 67.6114 191.989 65.3713C193.193 61.0133 193.261 56.2752 192.083 51.9036C190.933 47.6678 188.523 43.7442 184.922 41.1647C180.644 38.11 174.742 38.4223 169.773 39.2233C169.692 39.2504 169.679 39.4405 169.787 39.4541Z" fill="#1D2E43"/>
<path d="M171.032 92.5772C172.954 95.0889 175.648 97.0982 178.004 99.1753C180.508 101.402 183.04 103.601 185.558 105.814C190.567 110.213 195.454 114.815 200.598 119.065C201.275 119.621 202.236 118.712 201.586 118.074C196.808 113.431 191.65 109.127 186.614 104.755C184.163 102.624 181.7 100.492 179.236 98.3608C176.772 96.2429 174.335 93.7176 171.492 92.1156C171.222 91.9663 170.815 92.2921 171.032 92.5772Z" fill="#1D2E43"/>
<path d="M176.649 87.1716C177.65 88.3934 178.95 89.4117 180.101 90.4978C181.333 91.6653 182.538 92.8465 183.783 94.0005C186.22 96.227 188.67 98.4399 191.134 100.626C196.089 104.997 200.949 109.464 205.755 114.012C206.418 114.637 207.433 113.645 206.77 112.994C201.937 108.351 197.036 103.789 192.082 99.2952C189.631 97.0687 187.127 94.9237 184.568 92.8329C183.431 91.8961 182.267 91.0272 181.103 90.1312C179.708 89.0722 178.354 87.8096 176.825 86.9543C176.676 86.8729 176.554 87.0494 176.649 87.1716Z" fill="#1D2E43"/>
<path d="M206.487 113.862C207.34 113.916 208.138 113.454 208.883 113.034C209.682 112.586 210.426 112.015 211.144 111.445C212.646 110.264 214.068 109.015 215.313 107.549C216.518 106.137 217.561 104.589 218.413 102.946C218.833 102.118 219.212 101.29 219.496 100.408C219.632 99.9867 219.754 99.5523 219.875 99.1178C219.984 98.7241 220.024 97.8145 220.309 97.5158C220.837 96.9728 219.523 96.7148 219.754 97.3665C219.889 97.7466 219.551 98.3847 219.429 98.7377C219.28 99.1585 219.131 99.5794 218.955 100C218.603 100.869 218.224 101.752 217.804 102.593C216.978 104.236 215.963 105.784 214.785 107.196C213.608 108.594 212.267 109.925 210.751 110.943C210.047 111.418 209.303 111.825 208.558 112.233C207.8 112.64 206.947 112.979 206.392 113.645C206.324 113.726 206.365 113.862 206.487 113.862Z" fill="#1D2E43"/>
<path d="M220.241 97.309C220.661 97.5941 221.203 97.7298 221.676 97.9199C222.218 98.1371 222.773 98.3408 223.328 98.5308C224.357 98.8838 225.386 99.2775 226.401 99.6848C228.54 100.554 230.652 101.518 232.737 102.536C233.075 102.699 233.387 102.196 233.035 102.02C231.017 100.907 228.946 99.9563 226.794 99.1146C225.697 98.6802 224.601 98.2865 223.491 97.9199C222.963 97.7434 222.448 97.5941 221.92 97.4719C221.392 97.3497 220.824 97.1596 220.282 97.1732C220.201 97.1596 220.174 97.2546 220.241 97.309Z" fill="#1D2E43"/>
<path d="M232.979 102.156C232.735 102.495 232.857 103.106 232.87 103.5C232.884 104.029 232.884 104.559 232.925 105.088C232.965 105.604 233.019 106.107 233.06 106.622C233.101 107.152 233.074 107.681 233.087 108.211C233.087 108.645 233.805 108.632 233.75 108.211C233.683 107.668 233.602 107.111 233.588 106.555C233.574 106.039 233.561 105.536 233.547 105.02C233.534 104.505 233.466 104.002 233.426 103.486C233.385 103.079 233.439 102.441 233.141 102.115C233.074 102.088 233.006 102.102 232.979 102.156Z" fill="#1D2E43"/>
<path d="M186.52 42.8511C203.266 60.4325 221.691 76.3169 238.342 94.0069C238.857 94.5635 239.682 93.7353 239.168 93.1787C231.072 84.3269 222.584 75.8553 213.907 67.5737C205.013 59.0885 196.105 50.5897 186.764 42.6068C186.588 42.4574 186.358 42.6882 186.52 42.8511Z" fill="#1D2E43"/>
<path d="M236.905 92.2087C237.813 93.0912 238.462 94.0551 239.166 95.0869C239.505 95.5893 239.816 96.1323 240.222 96.5803C240.642 97.0555 241.048 97.5578 241.332 98.1145C241.603 98.6575 241.847 99.2141 242.063 99.7844C242.28 100.368 242.551 100.938 242.767 101.509C242.97 102.052 243.133 102.622 243.268 103.192C243.417 103.83 243.363 104.495 243.512 105.133C243.593 105.459 244.04 105.364 244.067 105.052C244.121 104.4 243.918 103.749 243.837 103.097C243.756 102.486 243.661 101.889 243.539 101.278C243.471 100.938 243.471 100.585 243.363 100.26C243.268 99.9337 243.119 99.6079 242.997 99.2956C242.754 98.7118 242.483 98.1416 242.199 97.585C241.901 97.0012 241.657 96.3903 241.373 95.7929C241.102 95.2091 240.669 94.7068 240.222 94.2452C239.356 93.3084 238.232 92.521 237.203 91.7879C236.973 91.6385 236.702 92.0187 236.905 92.2087Z" fill="#1D2E43"/>
<path d="M233.886 87.7011C237.528 87.9455 240.994 90.0227 242.997 93.0638C245.177 96.3628 246.273 100.327 246.72 104.224C246.774 104.726 247.559 104.739 247.519 104.224C247.085 100.001 246.314 95.684 243.593 92.2899C242.388 90.7965 240.939 89.5204 239.261 88.5836C237.569 87.6332 235.822 87.2395 233.886 87.416C233.697 87.4296 233.697 87.6875 233.886 87.7011Z" fill="#1D2E43"/>
<path d="M241.576 90.7251C241.807 91.2817 242.294 91.689 242.7 92.1234C243.16 92.6122 243.607 93.1009 244.081 93.5761C245.069 94.5807 246.071 95.5854 247.059 96.5901C248.034 97.5675 248.995 98.545 249.97 99.5225C250.444 99.9977 250.917 100.473 251.378 100.948C251.824 101.396 252.312 101.993 252.935 102.197C253.219 102.292 253.517 101.993 253.422 101.708C253.219 101.125 252.677 100.677 252.244 100.242C251.77 99.7805 251.283 99.3053 250.809 98.8437C249.794 97.8662 248.778 96.8752 247.763 95.8977C246.775 94.9337 245.787 93.9834 244.798 93.0195C244.311 92.5579 243.824 92.1099 243.323 91.6483C242.863 91.2274 242.429 90.6979 241.834 90.4671C241.698 90.4128 241.522 90.5893 241.576 90.7251Z" fill="#1D2E43"/>
<path d="M220.023 96.8082C219.793 99.3878 220.023 102.049 220.105 104.642C220.186 107.262 220.308 109.869 220.362 112.489C220.362 112.72 220.7 112.706 220.714 112.489C220.903 109.828 221.039 107.167 220.984 104.492C220.917 101.94 220.863 99.2656 220.226 96.7947C220.172 96.6725 220.023 96.7132 220.023 96.8082Z" fill="#1D2E43"/>
<path d="M200.015 55.4133C200.421 59.1604 200.597 62.921 200.001 66.6681C199.392 70.5102 198.106 74.2166 196.549 77.7736C194.045 83.5164 190.904 90.5489 184.961 93.4407C184.325 93.753 184.88 94.744 185.516 94.4046C191.825 91.0377 194.992 84.426 197.713 78.113C200.665 71.2705 203.318 62.6359 200.272 55.3862C200.231 55.2368 199.988 55.2368 200.015 55.4133Z" fill="#1D2E43"/>
<path d="M215.284 70.0653C214.756 73.3916 214.702 76.7585 214.107 80.0847C213.484 83.5059 212.726 86.9272 211.562 90.1991C209.165 96.9465 205.551 103.232 200.962 108.717C200.474 109.301 201.314 110.129 201.787 109.545C206.295 103.993 209.842 97.7204 212.238 90.9729C213.47 87.511 214.526 83.9947 215.108 80.3562C215.636 77.03 216.124 73.4051 215.623 70.0518C215.596 69.9024 215.298 69.9024 215.284 70.0653Z" fill="#1D2E43"/>
<path d="M231.11 85.9034C231.205 90.818 230.582 95.8277 229.12 100.525C229.039 100.797 229.445 100.905 229.553 100.647C231.34 95.8956 232.085 90.9674 231.624 85.9034C231.584 85.5911 231.097 85.5775 231.11 85.9034Z" fill="#1D2E43"/>
<path d="M152.338 47.1197C156.67 46.6445 160.758 46.7803 164.901 48.3551C169.043 49.9436 172.238 52.7403 174.567 56.501C179.169 63.9001 181.457 72.7247 180.279 81.4C180.185 82.1195 181.227 82.4725 181.417 81.7122C183.596 72.5754 180.428 62.3931 175.216 54.8175C172.725 51.1926 169.382 48.5724 165.253 47.0518C161.245 45.572 156.25 45.0018 152.284 46.9025C152.189 46.9568 152.229 47.1333 152.338 47.1197Z" fill="#1D2E43"/>
<path d="M138.974 63.1208C147.124 62.442 156.763 62.6999 162.354 69.6782C165.197 73.2352 167.322 77.729 168.446 82.1413C169.001 84.3135 169.326 86.5129 169.204 88.753C169.136 90.002 168.947 91.2375 168.622 92.4457C168.364 93.4097 167.904 94.2786 167.891 95.2832C167.891 95.7041 168.405 95.8941 168.703 95.6226C170.192 94.2107 170.422 91.2646 170.585 89.3096C170.774 86.9881 170.625 84.5579 170.138 82.2771C169.15 77.5796 166.929 72.6378 163.856 68.9179C157.927 61.736 147.435 60.7178 138.88 62.5913C138.609 62.6592 138.663 63.148 138.974 63.1208Z" fill="#1D2E43"/>
<path d="M132.07 70.5968C140.152 71.0041 147.679 76.5025 152.227 82.9649C156.952 89.6716 159.267 98.632 157.778 106.764C157.642 107.484 158.766 107.796 158.874 107.063C159.619 102.474 159.754 97.9939 158.698 93.4322C157.697 89.115 155.801 85.0556 153.134 81.5122C150.684 78.281 147.679 75.4979 144.24 73.3528C140.653 71.1127 136.294 69.0627 132.002 70.0809C131.718 70.1624 131.799 70.5832 132.07 70.5968Z" fill="#1D2E43"/>
<path d="M116.73 88.043C118.923 87.6085 120.927 87.2148 123.188 87.3642C125.381 87.5135 127.574 87.8529 129.726 88.3417C133.815 89.2784 137.483 91.0569 140.326 94.2067C146.364 100.886 147.284 110.376 147.379 118.984C147.393 119.662 148.435 119.662 148.422 118.984C148.327 109.684 147.515 99.5014 140.624 92.5232C137.456 89.3192 133.381 87.6221 129.036 86.7261C125.178 85.9251 119.911 85.0426 116.541 87.7172C116.378 87.8529 116.568 88.0701 116.73 88.043Z" fill="#1D2E43"/>
<path d="M104.183 100.912C105.117 101.156 105.956 100.885 106.917 100.817C108.136 100.735 109.341 100.79 110.545 101.02C112.481 101.387 114.417 102.079 116.245 102.785C120.198 104.306 124.015 106.532 127.102 109.451C130.053 112.262 132.395 115.751 133.641 119.647C135.062 124.114 135.292 128.866 135.211 133.522C135.197 134.405 136.619 134.405 136.578 133.522C136.362 128.54 136.443 123.462 134.805 118.697C133.41 114.61 130.906 110.958 127.792 107.999C124.53 104.903 120.631 102.65 116.421 101.129C114.404 100.396 112.319 99.8122 110.18 99.6357C108.379 99.4863 105.577 99.4592 104.115 100.627C103.993 100.695 104.061 100.871 104.183 100.912Z" fill="#1D2E43"/>
<path d="M28.7101 145.134C28.0332 145.908 27.8166 146.926 27.5052 147.89C27.0991 149.153 26.7606 150.443 26.3951 151.732C25.6505 154.393 24.9195 157.054 24.2291 159.715C23.5522 162.295 22.8483 164.874 22.388 167.494C21.9954 169.735 21.4945 172.558 22.2391 174.758C22.3609 175.124 22.8618 175.043 22.8889 174.663C23.0107 173.359 22.8347 172.029 22.9295 170.712C23.0243 169.436 23.2273 168.16 23.4845 166.911C23.999 164.399 24.7029 161.915 25.3798 159.444C26.0296 157.054 26.7065 154.678 27.4104 152.303C27.7624 151.121 28.1279 149.94 28.4799 148.746C28.7913 147.673 29.2922 146.438 29.1568 145.311C29.1162 145.121 28.8725 144.958 28.7101 145.134Z" fill="#1D2E43"/>
<path d="M36.0889 140.721C39.7034 140.097 43.0066 139.187 46.743 139.581C50.4658 139.974 54.0804 141.278 57.2347 143.287C60.1588 145.161 62.7039 147.591 64.8293 150.32C67.0494 153.171 68.4303 156.415 70.3391 159.429C70.8264 160.19 72.0719 159.714 71.8147 158.805C70.8264 155.289 68.4167 151.962 66.1289 149.166C63.7056 146.22 60.8086 143.64 57.5054 141.726C54.2158 139.825 50.52 138.617 46.7295 138.25C43.1962 137.911 38.8777 138.182 35.9535 140.382C35.7911 140.517 35.8858 140.748 36.0889 140.721Z" fill="#1D2E43"/>
<path d="M23.0646 164.519C24.5672 163.921 25.8262 162.631 27.1935 161.763C28.9399 160.649 30.8352 159.753 32.7846 159.074C36.6563 157.744 40.7988 157.391 44.8466 157.975C53.0639 159.156 59.7109 163.5 66.3849 168.116C67.1701 168.659 68.1313 167.424 67.4002 166.786C61.1459 161.355 52.7796 157.065 44.5081 156.237C40.3386 155.816 36.0742 156.346 32.1618 157.866C30.3749 158.559 28.6691 159.427 27.0852 160.486C25.5961 161.477 23.6873 162.699 22.9563 164.383C22.9292 164.437 22.9833 164.546 23.0646 164.519Z" fill="#1D2E43"/>
<path d="M18.6792 182.997C18.5979 184.925 18.6115 186.839 18.7198 188.767C18.7739 189.703 18.8416 190.654 18.9364 191.591C18.977 192.066 19.0311 192.527 19.0718 193.003C19.1124 193.41 19.0853 193.776 19.3967 194.075C19.532 194.211 19.7486 194.17 19.8434 194.021C20.0871 193.641 19.9517 193.22 19.9111 192.799C19.8705 192.364 19.8299 191.93 19.7893 191.496C19.708 190.559 19.6403 189.608 19.5727 188.672C19.4644 186.785 19.3696 184.897 19.2884 183.01C19.2748 182.603 18.7062 182.603 18.6792 182.997Z" fill="#1D2E43"/>
<path d="M19.476 183.612C20.735 182.282 21.6014 180.666 22.9281 179.376C24.3496 177.978 26.0418 176.892 27.8423 176.064C31.9848 174.163 36.6553 173.742 41.1362 173.498C49.4618 173.036 58.2478 173.321 65.531 177.883C66.5328 178.507 67.4669 176.919 66.4651 176.294C58.4914 171.298 48.7308 171.081 39.6335 171.828C35.0037 172.208 30.252 172.914 26.1095 175.168C23.1853 176.756 19.1647 179.811 19.0293 183.463C19.0428 183.653 19.3271 183.775 19.476 183.612Z" fill="#1D2E43"/>
<path d="M21.7782 200.901C20.2214 198.661 19.7476 196.177 20.6004 193.529C21.4398 190.963 23.4975 189.253 25.7447 187.895C30.0361 185.302 35.4647 184.175 40.4195 183.768C50.505 182.926 60.8207 185.56 69.2681 191.14C70.1075 191.697 70.8791 190.352 70.0533 189.796C62.567 184.786 53.7947 182.152 44.8057 182.125C40.2706 182.112 35.7084 182.763 31.3628 184.121C27.5588 185.316 23.7005 187.026 21.3585 190.407C19.2467 193.475 18.272 198.417 21.2773 201.281C21.521 201.526 21.9948 201.214 21.7782 200.901Z" fill="#1D2E43"/>
<path d="M20.2614 180.191C17.9058 182.445 18.5962 186.341 18.7316 189.26C18.8128 190.984 18.8264 192.695 19.0701 194.406C19.2054 195.369 19.5574 196.293 19.6657 197.257C19.7334 197.813 19.6793 198.302 20.0583 198.75C20.126 198.831 20.2749 198.791 20.302 198.682C20.4103 198.085 20.1801 197.501 20.1666 196.89C20.1531 196.062 20.3426 195.247 20.3291 194.406C20.302 192.804 20.0854 191.215 19.95 189.613C19.6793 186.463 19.6251 183.436 20.6404 180.408C20.6946 180.191 20.4103 180.055 20.2614 180.191Z" fill="#1D2E43"/>
<path d="M140.668 59.4878C139.666 57.3971 136.62 56.5146 134.522 56.2431C131.151 55.7951 127.699 55.7136 124.301 55.3063C121.268 54.9533 118.209 54.9397 115.285 55.9037C113.119 56.6096 110.113 58.008 109.057 60.1802C108.99 60.316 109.098 60.5332 109.274 60.4653C110.371 60.0309 111.291 59.2163 112.334 58.6461C113.471 58.0352 114.662 57.4785 115.88 57.0984C118.629 56.2159 121.471 56.2431 124.314 56.501C127.157 56.7726 129.987 57.1798 132.843 57.3971C134.346 57.5193 135.794 57.7501 137.189 58.3474C138.272 58.809 139.219 59.5829 140.343 59.9494C140.6 60.0173 140.776 59.705 140.668 59.4878Z" fill="#1D2E43"/>
<path d="M127.779 56.8936C129.242 58.2105 130.907 59.2966 132.315 60.6678C132.951 61.2923 133.628 61.9983 134.061 62.7857C134.508 63.5867 134.833 64.442 135.076 65.3245C135.361 66.3291 136.917 65.7182 136.403 64.7679C135.956 63.9261 135.415 63.1387 134.819 62.3784C134.223 61.6317 133.682 60.8714 133.005 60.2062C131.556 58.7671 129.851 57.5317 128.118 56.4455C127.861 56.2691 127.536 56.6763 127.779 56.8936Z" fill="#1D2E43"/>
<path d="M92.1478 78.7486C96.4798 77.6625 100.731 77.9205 104.941 79.346C106.985 80.0248 108.921 81.043 110.627 82.3463C111.561 83.0523 112.4 83.8669 113.212 84.7086C114.052 85.5775 114.823 86.6636 115.866 87.2746C116.339 87.5461 116.908 86.9895 116.624 86.5143C115.974 85.4282 114.891 84.505 114.011 83.5954C113.185 82.7401 112.319 81.9391 111.385 81.2195C109.544 79.8211 107.486 78.735 105.306 77.9883C101.083 76.5357 96.1414 76.6443 91.9853 78.2191C91.6604 78.3277 91.7823 78.8436 92.1478 78.7486Z" fill="#1D2E43"/>
<path d="M70.9622 102.392C72.8845 102.976 74.9693 102.976 76.9458 103.369C79.0577 103.804 81.1831 104.469 83.1054 105.433C84.9466 106.356 86.6658 107.537 88.3445 108.732C89.2244 109.357 90.0908 110.022 90.9166 110.728C91.6612 111.352 92.3652 112.316 93.2586 112.696C93.6377 112.859 94.2334 112.588 94.0574 112.085C93.7189 111.149 92.8254 110.443 92.135 109.777C91.3363 109.004 90.5105 108.284 89.6306 107.605C87.7759 106.166 85.7723 105.107 83.6334 104.17C81.6434 103.302 79.6127 102.528 77.4873 102.066C75.4161 101.605 73.0064 101.184 70.9622 101.917C70.7321 101.985 70.705 102.324 70.9622 102.392Z" fill="#1D2E43"/>
<path d="M58.0046 117.102C62.296 116.64 66.5197 117.034 70.5675 118.527C72.5439 119.26 74.4392 120.156 76.2126 121.324C77.9996 122.505 79.9896 123.89 81.3569 125.56C81.6548 125.913 82.1963 125.397 81.8714 125.044C80.3416 123.388 78.9878 121.799 77.0926 120.509C75.2244 119.247 73.1802 118.188 71.0413 117.468C66.8852 116.07 62.2012 115.717 57.9504 116.762C57.7609 116.803 57.8015 117.115 58.0046 117.102Z" fill="#1D2E43"/>
<path d="M81.358 124.706C79.0837 126.498 77.3238 128.765 76.0919 131.386C75.4556 132.743 75.0495 134.196 74.6433 135.635C74.1966 137.21 73.628 138.785 73.249 140.373C73.1948 140.59 73.4791 140.699 73.6009 140.523C74.3997 139.341 74.8329 137.889 75.2796 136.545C75.7805 135.038 76.2949 133.558 76.9041 132.092C78.0007 129.458 79.7199 127.082 81.7371 125.086C81.9943 124.828 81.6152 124.489 81.358 124.706Z" fill="#1D2E43"/>
<path d="M44.1405 131.739C47.024 131.617 49.6909 131.372 52.5609 131.942C55.0789 132.431 57.5427 133.246 59.8712 134.359C64.4063 136.531 68.1292 139.912 71.3782 143.727C71.7708 144.188 72.556 143.577 72.2311 143.075C69.2663 138.581 64.7989 135.242 59.9254 133.029C57.5563 131.942 55.0518 131.141 52.4797 130.693C49.7857 130.218 46.4148 129.757 44.0864 131.522C43.9781 131.576 44.0051 131.752 44.1405 131.739Z" fill="#1D2E43"/>
<path d="M21.1037 201.444C20.9548 207.038 21.2661 212.672 21.4286 218.265C21.6046 223.981 21.7535 229.71 21.8753 235.426C21.9972 241.033 22.119 246.64 22.2138 252.247C22.2679 255.057 22.3085 257.854 22.3492 260.664C22.3627 262.008 22.3898 263.352 22.4033 264.696C22.4168 266.054 22.2409 267.547 22.6605 268.837C22.7688 269.176 23.2562 269.19 23.3645 268.837C23.7435 267.629 23.5675 266.285 23.554 265.036C23.5405 263.583 23.5269 262.117 23.5134 260.664C23.4863 257.976 23.4592 255.274 23.4186 252.586C23.3374 246.871 23.2426 241.141 23.1208 235.426C22.8771 224.144 23.026 212.685 21.9295 201.444C21.8753 200.928 21.1172 200.901 21.1037 201.444Z" fill="#1D2E43"/>
<path d="M21.779 201.82C21.8196 197.327 24.1346 192.996 28.2229 190.986C32.4737 188.896 37.8346 188.38 42.5051 188.312C51.9544 188.176 61.3089 191 69.5668 195.48C70.2166 195.833 70.7852 194.856 70.1489 194.489C61.0516 189.425 50.6141 186.818 40.1902 187.552C35.6415 187.877 30.1317 188.543 26.3277 191.271C22.9839 193.661 21.0209 197.72 21.3187 201.82C21.3594 202.105 21.779 202.119 21.779 201.82Z" fill="#1D2E43"/>
<path d="M22.1312 217.129C25.3126 214.834 28.4398 213.164 32.2438 212.119C36.3322 210.992 40.5559 210.368 44.7932 210.205C53.2001 209.879 61.7017 211.318 69.3775 214.807C70.1085 215.133 70.5553 214.088 69.8107 213.789C61.6881 210.558 52.9699 208.847 44.1976 209.309C40.0009 209.526 35.8042 210.205 31.7565 211.372C28.2502 212.377 24.2296 213.83 21.8334 216.735C21.6574 216.939 21.874 217.305 22.1312 217.129Z" fill="#1D2E43"/>
<path d="M23.2282 246.972C26.4096 244.678 29.3878 243.035 33.3273 242.451C37.4969 241.827 41.7477 241.447 45.9714 241.365C49.9921 241.284 54.0263 241.596 57.9387 242.587C61.7563 243.564 65.98 245.099 68.498 248.289C68.9718 248.873 69.8111 248.045 69.3238 247.461C66.8329 244.406 62.7851 242.831 59.1029 241.813C54.8385 240.632 50.3711 240.279 45.9579 240.374C41.4769 240.483 36.9012 240.944 32.488 241.759C28.9817 242.411 25.313 243.917 23.0928 246.85C23.0522 246.918 23.1605 247.026 23.2282 246.972Z" fill="#1D2E43"/>
<path d="M69.5138 231.456C69.0806 232.8 69.2701 234.362 69.3108 235.76C69.3378 237.389 69.3378 239.032 69.2972 240.661C69.2295 243.716 69.0671 246.77 68.9182 249.825C68.6203 255.799 67.9841 262.329 69.3108 268.221C69.4055 268.669 70.0824 268.56 70.0959 268.112C70.123 264.854 69.8387 261.596 69.8793 258.337C69.92 255.283 70.0689 252.228 70.2178 249.173C70.3667 246.119 70.5291 243.064 70.5833 240.009C70.6239 237.403 71.1113 233.805 69.9606 231.388C69.8523 231.212 69.568 231.28 69.5138 231.456Z" fill="#1D2E43"/>
<path d="M70.6091 233.878C73.8446 231.787 76.8093 229.547 80.4374 228.135C84.2144 226.669 88.2892 225.786 92.3505 226.058C96.4253 226.329 100.554 227.171 104.561 227.891C108.636 228.624 112.102 229.886 114.552 233.389C115.026 234.068 115.987 233.498 115.649 232.751C114.119 229.33 110.058 227.687 106.66 226.927C102.301 225.949 97.7385 225.257 93.3117 224.768C88.8443 224.279 84.4987 225.026 80.3562 226.75C76.7417 228.257 72.8293 230.429 70.3519 233.538C70.203 233.715 70.379 234.027 70.6091 233.878Z" fill="#1D2E43"/>
<path d="M114.606 232.008C114.593 235.986 114.809 239.923 115.066 243.874C115.188 245.856 115.31 247.838 115.31 249.821C115.31 251.626 114.985 253.649 115.418 255.414C115.5 255.767 115.987 255.726 116.095 255.414C116.65 253.69 116.434 251.626 116.447 249.821C116.474 247.757 116.542 245.693 116.515 243.643C116.474 239.665 116.095 235.783 115.202 231.913C115.12 231.587 114.606 231.669 114.606 232.008Z" fill="#1D2E43"/>
<path d="M132.177 141.975C137.24 141.187 142.181 139.626 147.123 138.282C151.969 136.965 156.802 135.648 161.621 134.263C171.368 131.467 181.116 128.629 190.836 125.751C210.073 120.063 229.242 114.116 248.37 108.034C259.201 104.585 270.031 101.096 280.834 97.5529C282.675 96.9556 281.876 94.0231 280.035 94.634C241.723 107.314 203.209 119.397 164.545 130.992C159.198 132.594 153.864 134.209 148.544 135.838C143.021 137.522 137.321 138.961 131.988 141.201C131.487 141.405 131.663 142.056 132.177 141.975Z" fill="#1D2E43"/>
<path d="M118.072 201.836C118.058 201.673 118.045 201.496 118.045 201.333C118.045 201.279 118.004 201.238 117.95 201.238C117.896 201.238 117.855 201.279 117.855 201.333C117.842 201.496 117.828 201.673 117.828 201.836C117.828 201.904 117.896 201.971 117.95 201.958C118.018 201.958 118.085 201.904 118.072 201.836Z" fill="#1D2E43"/>
<path d="M119.344 201.347C124.759 199.894 130.092 197.994 135.426 196.269C140.787 194.545 146.135 192.835 151.495 191.11C161.987 187.73 172.465 184.309 182.957 180.915C203.927 174.113 224.937 167.42 245.866 160.509C257.833 156.559 269.814 152.635 281.754 148.63C282.986 148.223 282.472 146.268 281.213 146.661C238.989 160.156 196.995 174.344 154.92 188.3C148.937 190.282 142.967 192.292 136.997 194.301C131.027 196.297 124.948 198.102 119.086 200.383C118.504 200.627 118.721 201.51 119.344 201.347Z" fill="#1D2E43"/>
<path d="M117.193 209.43C128.66 206.892 139.964 203.511 151.254 200.266C162.558 197.022 173.821 193.668 185.057 190.193C207.625 183.201 230.07 175.815 252.38 168.022C264.929 163.637 277.519 159.293 289.893 154.446C290.962 154.025 290.529 152.301 289.405 152.695C267.217 160.501 245.178 168.674 222.854 176.1C200.436 183.567 177.883 190.627 155.234 197.361C142.495 201.149 129.607 204.529 116.963 208.629C116.476 208.792 116.679 209.539 117.193 209.43Z" fill="#1D2E43"/>
<path d="M115.677 202.145C115.921 202.281 116.11 202.254 116.381 202.2C116.719 202.132 117.058 202.077 117.396 201.955C118.006 201.738 118.615 201.534 119.237 201.331C119.847 201.127 120.469 200.923 121.079 200.733C121.728 200.53 122.432 200.367 123.042 200.054C123.258 199.946 123.339 199.647 123.245 199.444C123.136 199.199 122.906 199.118 122.663 199.158C122.026 199.24 121.404 199.525 120.808 199.729C120.239 199.919 119.671 200.122 119.102 200.326C118.534 200.53 117.965 200.733 117.41 200.937C117.112 201.046 116.814 201.154 116.53 201.303C116.273 201.439 116.016 201.629 115.745 201.738C115.569 201.806 115.488 202.05 115.677 202.145Z" fill="#1D2E43"/>
<path d="M117.747 208.855C117.571 208.855 117.395 208.937 117.219 208.978C117.043 209.018 116.854 209.059 116.664 209.086C116.637 209.086 116.637 209.086 116.678 209.086C116.651 209.086 116.624 209.086 116.596 209.1C116.529 209.113 116.461 209.113 116.393 209.141C116.312 209.168 116.217 209.181 116.123 209.208C116.028 209.236 115.947 209.249 115.852 209.263C115.811 209.276 115.757 209.276 115.717 209.29C115.662 209.303 115.662 209.303 115.717 209.29C115.689 209.29 115.662 209.29 115.635 209.303C115.419 209.331 115.216 209.48 115.229 209.711C115.243 209.914 115.419 210.145 115.635 210.118C116.068 210.064 116.529 210.009 116.908 209.806C117.084 209.711 117.246 209.616 117.409 209.507C117.571 209.399 117.774 209.29 117.883 209.113C117.977 209.005 117.883 208.855 117.747 208.855Z" fill="#1D2E43"/>
<path d="M115.688 220.88C117.814 222.197 119.912 223.568 121.97 224.98C122.985 225.672 123.987 226.392 124.989 227.111C125.503 227.478 126.018 227.858 126.532 228.238C126.789 228.428 127.033 228.632 127.304 228.808C127.588 228.998 127.859 229.053 128.17 229.216C128.468 229.365 128.779 228.998 128.536 228.74C128.346 228.537 128.211 228.292 127.994 228.102C127.764 227.899 127.48 227.736 127.222 227.546C126.708 227.179 126.18 226.812 125.666 226.46C124.623 225.74 123.554 225.048 122.484 224.369C120.332 223.011 118.152 221.735 115.918 220.527C115.661 220.391 115.458 220.744 115.688 220.88Z" fill="#1D2E43"/>
<path d="M115.485 252.183C117.245 253.608 119.14 254.803 121.049 256.038C122.971 257.287 124.921 258.496 126.992 259.473C127.615 259.772 128.17 258.835 127.533 258.536C125.462 257.559 123.54 256.269 121.658 254.979C119.776 253.69 117.949 252.373 115.742 251.735C115.498 251.653 115.268 252.006 115.485 252.183Z" fill="#1D2E43"/>
<path d="M128.332 229.486C127.642 229.975 127.764 230.518 127.696 231.346C127.601 232.717 127.507 234.075 127.439 235.446C127.317 238.08 127.195 240.714 127.101 243.361C126.897 248.738 126.897 254.114 126.789 259.49C126.776 260.264 127.98 260.264 127.994 259.49C128.048 254.209 128.292 248.941 128.468 243.66C128.549 241.121 128.644 238.582 128.739 236.044C128.793 234.672 128.847 233.315 128.887 231.944C128.915 231.048 129.185 230.151 128.468 229.527C128.441 229.473 128.373 229.459 128.332 229.486Z" fill="#1D2E43"/>
<path d="M127.374 259.49C127.144 259.15 126.832 259.191 126.453 259.164C125.885 259.123 125.343 259.15 124.774 259.218C123.759 259.354 122.757 259.544 121.769 259.775C119.603 260.263 117.451 260.779 115.271 261.2C114.635 261.322 114.906 262.354 115.542 262.178C117.613 261.621 119.698 261.159 121.796 260.698C122.866 260.467 123.935 260.25 125.005 260.141C125.533 260.087 126.047 260.005 126.575 259.951C126.927 259.91 127.171 259.951 127.387 259.652C127.401 259.612 127.401 259.53 127.374 259.49Z" fill="#1D2E43"/>
<path d="M115.42 252.567C115.054 253.735 115.013 255.024 114.959 256.246C114.905 257.604 114.851 258.961 114.797 260.319C114.743 261.622 114.675 262.939 114.607 264.243C114.567 264.894 114.54 265.546 114.499 266.211C114.472 266.836 114.337 267.515 114.513 268.125C114.621 268.519 115.122 268.465 115.244 268.125C115.46 267.542 115.406 266.836 115.433 266.211C115.46 265.6 115.487 265.003 115.514 264.392C115.569 263.034 115.636 261.677 115.704 260.319C115.772 259.016 115.839 257.699 115.921 256.395C115.988 255.133 116.083 253.802 115.826 252.567C115.772 252.35 115.487 252.377 115.42 252.567Z" fill="#1D2E43"/>
<path d="M116.096 266.113C121.728 264.633 127.292 262.868 132.923 261.334C138.555 259.8 144.187 258.266 149.818 256.759C161.095 253.731 172.44 250.935 183.784 248.192C206.473 242.707 229.23 237.44 251.675 230.991C264.306 227.353 276.828 223.348 289.134 218.732C290.257 218.311 289.77 216.491 288.633 216.926C266.783 225.126 244.297 231.412 221.689 237.1C199.041 242.802 176.244 247.934 153.649 253.894C140.992 257.234 128.131 260.71 115.947 265.57C115.609 265.692 115.731 266.208 116.096 266.113Z" fill="#1D2E43"/>
<path d="M247.873 129.903C247.602 131.953 247.71 134.058 247.656 136.135C247.615 138.131 247.548 140.126 247.466 142.122C247.277 146.195 247.196 150.268 247.317 154.341C247.345 155.196 248.617 155.196 248.644 154.341C248.793 150.268 248.739 146.195 248.576 142.122C248.495 140.126 248.455 138.131 248.428 136.135C248.4 134.071 248.509 131.953 248.252 129.903C248.224 129.645 247.913 129.659 247.873 129.903Z" fill="#1D2E43"/>
<path d="M252.813 129.05C252.854 129.036 252.894 129.036 252.935 129.023C252.962 129.009 252.989 128.982 252.989 128.955C253.003 128.737 253.003 128.737 252.84 128.602C252.759 128.534 252.664 128.534 252.583 128.602C252.136 129.023 252.245 129.647 252.218 130.217C252.15 131.344 252.082 132.471 252.042 133.611C251.974 135.797 251.879 137.969 251.784 140.142C251.703 142.314 251.595 144.5 251.446 146.672C251.378 147.799 251.297 148.926 251.216 150.052C251.135 151.166 250.904 152.333 251.04 153.433C251.107 154.003 251.92 154.207 252.096 153.582C252.624 151.736 252.488 149.55 252.597 147.636C252.718 145.545 252.8 143.441 252.867 141.35C252.935 139.246 252.949 137.155 252.935 135.05C252.935 134.087 252.935 133.109 252.881 132.145C252.854 131.521 252.407 129.443 252.773 128.995C252.773 129.009 252.786 129.05 252.813 129.05Z" fill="#1D2E43"/>
<path d="M247.91 155.007C248.628 155.061 249.345 155.02 250.063 154.898C250.767 154.79 251.457 154.518 252.094 154.206C252.405 154.057 252.513 153.595 252.324 153.31C252.107 152.984 251.769 152.93 251.43 153.079C251.498 153.052 251.295 153.133 251.268 153.147C251.2 153.174 251.132 153.201 251.078 153.215C250.929 153.269 250.767 153.323 250.618 153.364C250.32 153.446 250.009 153.527 249.711 153.595C249.386 153.663 249.142 153.704 248.885 153.731C248.56 153.758 248.235 153.771 247.91 153.771C247.599 153.771 247.288 154.057 247.301 154.382C247.315 154.749 247.572 154.98 247.91 155.007Z" fill="#1D2E43"/>
<path d="M251.5 153.509C251.649 153.727 251.865 153.713 252.095 153.754C252.041 153.74 252.095 153.754 252.109 153.767C252.041 153.727 252.15 153.794 252.109 153.767C252.163 153.808 252.082 153.74 252.068 153.727C252.041 153.686 251.987 153.55 252.028 153.523C252.001 153.537 251.947 153.713 251.933 153.754C251.892 153.876 251.879 154.012 251.879 154.134C251.892 154.5 251.906 154.867 251.906 155.234C251.906 155.464 251.906 155.695 251.96 155.926C251.987 156.021 252.001 156.102 252.028 156.198C252.068 156.374 252.15 156.483 252.258 156.618C252.502 156.903 252.948 156.781 253.124 156.51C253.273 156.279 253.273 155.994 253.3 155.722C253.314 155.532 253.273 155.342 253.26 155.166C253.233 154.962 253.219 154.758 253.192 154.541C253.165 154.324 253.178 154.052 253.111 153.835C252.989 153.455 252.691 153.021 252.244 153.075C252.136 153.089 252.028 153.129 251.919 153.156C251.879 153.17 251.825 153.184 251.784 153.197C251.757 153.211 251.757 153.197 251.771 153.211C251.622 153.089 251.378 153.319 251.5 153.509Z" fill="#1D2E43"/>
<path d="M247.831 154.754C247.79 154.876 247.723 155.012 247.723 155.148C247.723 155.256 247.736 155.365 247.75 155.474C247.763 155.718 247.79 155.962 247.804 156.207C247.817 156.438 247.845 156.682 247.858 156.913C247.885 157.184 247.926 157.442 247.993 157.714C248.115 158.216 248.9 158.107 248.9 157.592C248.9 157.469 248.914 157.334 248.9 157.211C248.887 157.076 248.86 156.94 248.833 156.804C248.792 156.56 248.752 156.329 248.711 156.085C248.67 155.854 248.63 155.623 248.589 155.392C248.576 155.284 248.562 155.161 248.521 155.039C248.481 154.917 248.386 154.795 248.318 154.686C248.196 154.483 247.899 154.523 247.831 154.754Z" fill="#1D2E43"/>
<path d="M247.87 130.466C248.344 130.561 248.777 130.357 249.223 130.221C249.657 130.086 250.09 129.964 250.51 129.814C250.916 129.665 251.295 129.516 251.714 129.434C251.89 129.393 252.066 129.393 252.229 129.393C252.554 129.407 252.757 129.448 253.028 129.217C253.217 129.054 253.204 128.782 253.109 128.579C252.865 128.049 252.026 128.158 251.565 128.226C251.119 128.294 250.686 128.443 250.266 128.606C249.806 128.782 249.359 129.027 248.912 129.23C248.465 129.448 247.978 129.597 247.694 130.004C247.572 130.181 247.694 130.425 247.87 130.466Z" fill="#1D2E43"/>
<path d="M252.555 129.134C253.083 137.755 254.924 147.299 262.018 153.014C262.816 153.652 263.967 152.553 263.168 151.86C256.481 146.104 254.261 137.483 253.029 129.066C252.988 128.808 252.541 128.862 252.555 129.134Z" fill="#1D2E43"/>
<path d="M220.633 105.559C220.443 105.803 220.484 106.156 220.47 106.455C220.443 106.794 220.416 107.12 220.403 107.459C220.362 108.179 220.416 108.912 220.43 109.645C220.443 110.365 220.416 111.098 220.403 111.831C220.389 112.551 220.199 113.297 220.24 114.017C220.267 114.655 221.188 114.655 221.228 114.017C221.269 113.297 221.079 112.564 221.066 111.831C221.052 111.111 221.025 110.378 221.039 109.645C221.052 108.926 221.106 108.193 221.066 107.459C221.052 107.12 221.012 106.794 220.998 106.455C220.971 106.156 221.025 105.803 220.836 105.559C220.768 105.491 220.687 105.491 220.633 105.559Z" fill="#1D2E43"/>
<path d="M233.344 107.234H233.331C233.277 107.248 233.236 107.302 233.236 107.357C233.223 107.927 233.223 108.497 233.223 109.067C233.236 109.637 233.29 110.208 233.358 110.764C233.385 111.063 233.872 111.076 233.832 110.764C233.778 110.194 233.737 109.624 233.669 109.067C233.602 108.497 233.548 107.927 233.493 107.357C233.493 107.302 233.453 107.248 233.399 107.234C233.385 107.234 233.372 107.234 233.344 107.234Z" fill="#1D2E43"/>
<path d="M243.526 104.535C243.54 105.078 243.54 105.608 243.54 106.151C243.54 106.409 243.526 106.667 243.513 106.925C243.499 107.223 243.513 107.509 243.567 107.807C243.635 108.174 244.271 108.187 244.325 107.807C244.366 107.509 244.379 107.223 244.338 106.925C244.311 106.64 244.271 106.368 244.23 106.083C244.149 105.54 244.068 105.011 243.959 104.467C243.919 104.237 243.513 104.291 243.526 104.535Z" fill="#1D2E43"/>
<path d="M246.896 103.552C246.882 104.054 246.868 104.556 246.841 105.059C246.828 105.303 246.814 105.547 246.828 105.792C246.841 106.05 246.855 106.308 246.869 106.552C246.896 106.959 247.505 106.959 247.505 106.552C247.505 106.294 247.491 106.036 247.491 105.792C247.491 105.547 247.451 105.303 247.424 105.059C247.369 104.556 247.329 104.054 247.275 103.552C247.248 103.307 246.909 103.294 246.896 103.552Z" fill="#1D2E43"/>
<path d="M252.283 101.521C252.676 102.01 253.082 102.499 253.502 102.96C253.705 103.191 253.921 103.408 254.138 103.625C254.246 103.734 254.368 103.87 254.49 103.965C254.598 104.046 254.747 104.168 254.896 104.128C255.004 104.087 255.031 103.938 254.923 103.883C254.842 103.829 254.774 103.761 254.706 103.693C254.639 103.639 254.53 103.707 254.585 103.788C254.625 103.87 254.693 103.951 254.72 104.033C254.801 104.033 254.896 104.033 254.977 104.033C255.004 103.883 254.882 103.761 254.801 103.653C254.706 103.53 254.571 103.435 254.463 103.327C254.233 103.11 254.016 102.892 253.786 102.662C253.353 102.213 252.919 101.752 252.527 101.263C252.459 101.182 252.324 101.195 252.256 101.263C252.202 101.331 252.215 101.44 252.283 101.521Z" fill="#1D2E43"/>
<path d="M254.192 103.105C253.637 102.29 253.055 101.503 252.46 100.715C252.351 100.824 252.243 100.933 252.135 101.041C252.419 101.286 252.717 101.489 253.001 101.72C253.272 101.951 253.543 102.182 253.813 102.426C254.071 102.67 254.328 102.928 254.585 103.186C254.707 103.322 254.856 103.431 255.005 103.553C255.154 103.675 255.262 103.797 255.384 103.947C255.424 104.001 255.492 103.933 255.451 103.879C255.221 103.58 255.059 103.241 254.815 102.956C254.571 102.67 254.328 102.399 254.071 102.141C253.813 101.883 253.556 101.639 253.299 101.394C253.015 101.136 252.744 100.878 252.433 100.675C252.216 100.525 251.972 100.851 252.148 101.041C252.825 101.734 253.475 102.453 254.111 103.173C254.138 103.241 254.233 103.173 254.192 103.105Z" fill="#1D2E43"/>
<path d="M115.972 55.9663C109.501 57.2561 104.221 62.5373 99.8484 67.1804C94.7448 72.5974 89.8441 78.218 84.9571 83.825C75.0746 95.1477 65.3681 106.66 55.0119 117.562C49.9082 122.925 44.6421 128.138 39.1187 133.08C33.988 137.669 28.5864 142.163 25.0125 148.15C21.4927 154.028 19.8005 160.912 19.6787 167.74C19.6516 169.329 19.7058 170.931 19.8547 172.519C19.9359 173.361 20.0984 174.23 20.0848 175.072C20.0713 176.226 19.6245 176.823 18.88 177.624C16.6463 180.041 16.2808 182.837 16.4974 186.014C17.1472 195.124 17.9323 204.22 18.528 213.33C19.1237 222.372 19.4621 231.536 20.6669 240.523C20.8835 242.139 23.4828 241.718 23.4692 240.143C23.4151 232.215 22.5622 224.259 22.0072 216.344C21.4386 208.415 20.9106 200.487 20.3691 192.544C20.2473 190.644 20.139 188.743 20.0307 186.842C19.9359 185.213 19.7599 183.448 20.2608 181.873C20.694 180.489 21.8583 179.728 22.6028 178.534C23.4963 177.122 23.5505 175.506 23.4151 173.891C22.8059 167.048 23.2256 160.26 25.9331 153.838C28.6135 147.498 33.4194 142.692 38.4418 138.144C43.8027 133.297 49.0418 128.355 54.0778 123.156C64.1768 112.716 73.599 101.637 82.9264 90.5182C88.2332 84.2052 93.567 77.9057 99.0633 71.7556C101.608 68.9046 104.18 66.0536 106.983 63.4469C109.812 60.8267 113.021 58.6816 116.229 56.5637C116.554 56.36 116.351 55.8849 115.972 55.9663Z" fill="#1D2E43"/>
<path d="M20.5868 229.139C19.2736 242.824 20.0317 256.794 20.8304 270.492C20.9252 272.013 23.2672 272.04 23.213 270.492C22.6986 256.726 22.6715 242.824 21.1012 229.139C21.047 228.813 20.6138 228.813 20.5868 229.139Z" fill="#1D2E43"/>
<path d="M183.607 49.3549C182.429 44.9833 177.664 41.8744 173.684 40.2588C168.445 38.1137 162.935 37.5842 157.886 40.5031C153.026 43.3135 149.411 47.9294 145.715 52.0566C141.153 57.1749 136.578 62.2932 132.015 67.4115C122.959 77.5666 113.861 87.681 104.805 97.8361C100.297 102.9 95.7887 107.951 91.2672 113.014C86.9757 117.834 82.5354 122.559 78.596 127.691C71.1503 137.398 65.7082 150.377 69.9319 162.595C70.4599 164.116 72.8831 163.464 72.3551 161.93C68.7812 151.558 72.7206 140.452 78.6907 131.804C82.0887 126.876 86.2041 122.477 90.1842 118.011C94.3808 113.313 98.5639 108.602 102.761 103.905C111.14 94.4963 119.48 85.0608 127.859 75.6523C136.09 66.4068 144.091 56.8762 152.633 47.9158C156.843 43.5035 161.893 39.7429 168.323 40.8018C171.247 41.277 174.334 42.3088 176.96 43.68C179.587 45.0512 181.563 47.1284 183.336 49.4771C183.431 49.5857 183.648 49.5314 183.607 49.3549Z" fill="#1D2E43"/>
<path d="M140.559 58.8763C138.352 55.8623 133.587 55.6315 130.203 55.4415C125.6 55.1835 120.808 55.3736 116.327 56.514C112.171 57.5865 108.434 59.7452 105.118 62.4469C101.665 65.2436 99.0256 68.5291 96.3723 72.0589C96.1692 72.3305 96.5889 72.6156 96.819 72.4119C102.721 67.0764 108.448 60.967 116.313 58.7269C120.469 57.5458 124.706 57.3014 128.998 57.2607C130.839 57.2471 132.694 57.1928 134.521 57.4236C136.606 57.6816 138.339 58.5097 140.261 59.27C140.478 59.3515 140.694 59.0664 140.559 58.8763Z" fill="#1D2E43"/>
<path d="M70.5828 161.738C69.1072 163.965 66.6028 165.254 65.6281 167.834C64.5586 170.671 64.7346 174.255 64.8835 177.242C64.9647 178.763 65.1407 180.297 65.5739 181.763C66.0342 183.324 66.9412 184.546 67.6858 185.958C68.5522 187.587 68.3897 189.474 68.4303 191.267C68.4845 193.276 68.5251 195.299 68.5522 197.322C68.7823 212.88 68.2002 228.33 67.5504 243.875C67.3744 248.179 67.2796 252.496 67.415 256.8C67.5369 260.913 67.4962 265.584 68.85 269.521C69.1343 270.335 70.3121 270.2 70.3391 269.317C70.5151 265.624 69.8653 261.836 69.7841 258.13C69.7029 254.261 69.7976 250.405 69.9466 246.536C70.2444 238.865 70.7588 231.208 71.0296 223.538C71.2868 215.921 71.4628 208.305 71.4628 200.689C71.4628 196.887 71.4222 193.072 71.3003 189.257C71.2597 187.845 71.1514 186.474 70.5693 185.171C69.8789 183.637 68.8365 182.32 68.2544 180.731C67.591 178.885 67.3744 176.916 67.239 174.975C67.1307 173.264 66.9277 171.404 67.2661 169.707C67.6452 167.739 68.8771 166.721 70.109 165.295C70.9754 164.304 71.5981 163.354 71.4628 161.996C71.4492 161.494 70.8536 161.304 70.5828 161.738Z" fill="#1D2E43"/>
<path d="M83.0232 168.883C81.1956 168.883 79.3409 169.589 77.5946 170.091C76.6605 170.363 75.6858 170.539 74.7788 170.838C73.8853 171.123 73.0189 171.598 72.1931 172.033C70.7039 172.806 69.269 173.716 67.9964 174.802C66.8457 175.793 65.2754 177.056 65.1535 178.685C65.1264 179.052 65.5732 179.418 65.9116 179.269C67.2789 178.699 68.1995 177.259 69.3096 176.323C70.5415 175.291 71.8682 174.381 73.2761 173.607C73.9936 173.214 74.7652 172.901 75.4827 172.494C76.295 172.046 77.026 171.557 77.8789 171.177C79.5711 170.444 81.507 169.983 83.0367 168.951C83.0638 168.924 83.0502 168.883 83.0232 168.883Z" fill="#1D2E43"/>
<path d="M76.9449 174.671C75.4287 175.404 74.0343 176.246 72.7076 177.291C71.5028 178.241 70.325 179.287 69.7564 180.767C69.4721 181.5 69.3774 182.287 69.2962 183.061C69.1879 184.039 69.0254 184.989 68.9577 185.966C68.8088 187.908 68.6463 189.768 68.9171 191.709C69.0119 192.361 69.973 192.266 70.1355 191.709C70.6364 190.039 70.7311 188.356 70.8394 186.618C70.9477 184.975 70.7176 183.17 71.1508 181.568C71.5299 180.142 72.6806 179.07 73.7365 178.106C74.8736 177.06 76.0243 176.015 77.2292 175.037C77.4458 174.875 77.175 174.562 76.9449 174.671Z" fill="#1D2E43"/>
<path d="M20.9394 205.481C21.9682 205.169 21.8599 203.893 21.9818 203.024C22.1578 201.788 22.415 200.539 22.8617 199.372C23.9312 196.575 26.1514 194.729 28.6423 193.222C31.0249 191.783 33.57 190.669 36.291 190.018C38.9715 189.366 41.7873 189.447 44.4407 188.741C44.6167 188.701 44.6708 188.416 44.4948 188.334C41.7873 187.004 38.4029 187.438 35.5465 188.035C32.4057 188.701 29.3192 189.923 26.6522 191.728C23.9989 193.507 21.6975 195.652 20.8311 198.815C20.6415 199.426 19.5179 205.915 20.9394 205.481Z" fill="#1D2E43"/>
<path d="M19.302 194.199C20.0465 193.235 20.6287 192.149 21.4545 191.266C22.4292 190.234 23.634 189.379 24.8389 188.646C27.4516 187.057 30.3893 186.026 33.354 185.32C36.3323 184.614 39.3783 184.261 42.4242 184.003C45.416 183.758 48.5703 183.921 51.4673 183.093C51.7246 183.025 51.7246 182.645 51.4673 182.577C48.3402 181.64 44.8068 181.844 41.5849 181.953C38.1599 182.061 34.7213 182.523 31.4046 183.405C28.3451 184.22 25.2585 185.455 22.6593 187.288C20.6557 188.714 18.2596 191.157 18.3814 193.805C18.395 194.226 18.9906 194.592 19.302 194.199Z" fill="#1D2E43"/>
<path d="M21.5744 177.979C24.309 177.477 26.9759 176.241 29.6699 175.522C32.2015 174.857 34.733 174.218 37.3187 173.825C39.9856 173.417 42.666 172.956 45.36 172.956C48.1623 172.956 50.8157 173.282 53.6044 173.608C53.794 173.635 53.8616 173.322 53.6992 173.255C51.3572 172.182 48.5143 171.571 45.9557 171.313C43.0722 171.014 40.148 170.865 37.2781 171.232C34.4758 171.598 31.6735 172.128 28.9795 172.942C26.2855 173.757 23.1719 174.585 20.8434 176.201C19.9093 176.839 20.4779 178.169 21.5744 177.979Z" fill="#1D2E43"/>
<path d="M68.2668 194.683C66.6288 192.918 64.544 191.941 62.2832 191.194C59.332 190.203 56.2725 189.375 53.213 188.818C50.3295 188.302 47.3918 188.017 44.4812 187.868C41.53 187.719 38.3622 187.501 35.4517 188.167C34.7071 188.343 34.9508 189.348 35.6141 189.416C38.4435 189.714 41.327 189.429 44.1699 189.565C46.9451 189.701 49.7068 190.013 52.4549 190.42C55.0812 190.814 57.694 191.248 60.2932 191.859C62.9736 192.497 65.7895 193.203 67.9555 195.009C68.1721 195.186 68.4699 194.9 68.2668 194.683Z" fill="#1D2E43"/>
<path d="M22.9562 187.306C22.2928 187.441 21.6295 187.618 20.9797 187.822C20.3434 188.012 19.7613 188.31 19.1927 188.663C18.0826 189.342 16.8913 190.143 16.1467 191.216C15.3616 192.356 15.4834 193.931 16.6612 194.746C17.2568 195.153 18.0149 195.166 18.6377 194.813C19.2198 194.488 19.5988 193.877 20.005 193.361C20.5465 192.668 21.088 191.976 21.6295 191.284C21.9138 190.917 22.1574 190.51 22.4147 190.116C22.523 189.94 22.6583 189.777 22.7396 189.587C22.8343 189.342 22.8073 189.111 22.7531 188.867C22.7125 188.677 22.4959 188.514 22.3064 188.528C21.9544 188.555 21.7107 188.623 21.4535 188.881C21.2098 189.125 20.9797 189.396 20.7495 189.654C20.3028 190.143 19.9102 190.7 19.5176 191.229C19.125 191.759 18.7189 192.275 18.3263 192.804C18.2045 192.967 18.0826 193.13 17.9202 193.293C17.8796 193.334 17.8254 193.388 17.7306 193.415C17.7848 193.388 17.6494 193.429 17.663 193.429C17.7713 193.415 17.6494 193.429 17.6359 193.415C17.6494 193.415 17.6765 193.415 17.69 193.415C17.663 193.402 17.6359 193.402 17.6088 193.388C17.6223 193.402 17.7171 193.483 17.5817 193.361C17.5817 193.361 17.4734 193.279 17.5276 193.32C17.5953 193.374 17.4599 193.252 17.4464 193.239C17.4193 193.211 17.4057 193.184 17.3381 193.076C17.2974 192.994 17.2839 192.994 17.2568 192.858C17.2568 192.845 17.2433 192.709 17.2568 192.818C17.2568 192.777 17.2568 192.723 17.2568 192.682C17.2704 192.628 17.2839 192.546 17.311 192.465C17.3787 192.248 17.487 192.044 17.6223 191.84C18.2045 191.026 19.1115 190.36 19.9237 189.804C20.4382 189.451 20.9661 189.111 21.4806 188.758C22.0085 188.392 22.5636 188.08 23.1457 187.808C23.4435 187.659 23.2405 187.251 22.9562 187.306Z" fill="#1D2E43"/>
<path d="M18.0027 179.141C16.9197 179.154 16.4595 180.593 16.1616 181.421C15.7826 182.48 15.5795 183.621 15.5118 184.748C15.3358 187.327 15.945 189.866 16.5271 192.35C17.1093 192.106 17.6778 191.862 18.26 191.617C17.3259 189.73 16.6896 187.721 16.649 185.603C16.6354 184.639 15.2681 184.68 15.1869 185.603C14.9432 188.115 15.1463 190.613 15.6472 193.084C15.8909 194.292 17.8268 193.79 17.5154 192.568C16.9333 190.287 16.6761 187.952 16.649 185.603C16.1616 185.603 15.6743 185.603 15.1869 185.603C15.1192 188.006 15.5254 190.423 16.6219 192.581C17.1228 193.572 18.6119 192.866 18.3547 191.848C17.7997 189.635 17.2446 187.381 17.2176 185.087C17.204 184.069 17.3123 183.037 17.5831 182.06C17.8132 181.259 18.5849 180.213 18.2735 179.358C18.2329 179.236 18.1381 179.141 18.0027 179.141Z" fill="#1D2E43"/>
<path d="M189.767 48.8772C190.147 52.665 190.674 56.1949 190.295 60.0098C189.93 63.7976 188.915 67.5583 187.277 70.9931C185.625 74.4686 183.297 77.5233 180.792 80.4287C178.261 83.3611 175.864 86.4158 173.319 89.3483C162.489 101.852 151.429 114.152 140.883 126.914C134.981 134.055 128.875 141.088 123.311 148.514C122.54 149.546 124.286 150.917 125.112 149.899C130.568 143.179 135.698 136.2 141.208 129.521C146.704 122.841 152.295 116.243 157.941 109.686C163.45 103.291 169.041 97.0054 174.903 90.9232C177.733 88.0043 180.806 85.3704 183.432 82.2479C185.882 79.3425 188.17 76.2471 189.822 72.8123C191.609 69.0652 192.529 65.0331 192.637 60.8787C192.746 56.9144 192.069 52.2306 190.025 48.7957C189.971 48.6871 189.754 48.7279 189.767 48.8772Z" fill="#1D2E43"/>
<path d="M176.866 87.2762C177.557 88.6881 179.222 89.7878 180.346 90.8739C181.672 92.1773 183.026 93.4534 184.339 94.7568C186.979 97.3906 189.646 99.9701 192.259 102.631C194.858 105.278 197.43 107.953 200.043 110.587C201.342 111.904 202.615 113.506 204.064 114.633C204.727 115.148 205.444 115.311 205.972 116.031C206.582 116.859 206.906 117.864 206.961 118.882C207.001 119.52 208.017 119.493 207.949 118.882C207.786 117.579 207.258 116.655 206.554 115.569C206.054 114.795 205.783 113.872 205.187 113.153C204.564 112.392 203.779 111.7 203.089 110.994C200.205 108.034 197.281 105.088 194.357 102.156C191.595 99.3863 188.847 96.5624 185.91 93.9829C184.366 92.6253 182.81 91.2677 181.185 89.9915C179.94 89.014 178.505 87.507 176.961 87.1133C176.894 87.1133 176.839 87.2083 176.866 87.2762Z" fill="#1D2E43"/>
<path d="M205.878 113.072C206.419 114.185 207.8 113.764 208.761 113.452C209.655 113.167 210.521 112.746 211.36 112.298C213.066 111.388 214.636 110.234 215.936 108.809C217.127 107.505 218.522 105.74 218.819 103.948C218.982 102.998 219.347 102.183 219.686 101.287C220.024 100.337 220.295 99.3732 220.485 98.3821C220.525 98.1377 220.173 98.0427 220.119 98.2871C219.93 99.1288 219.686 99.957 219.375 100.772C219.05 101.627 218.725 102.631 218.021 103.242C216.748 104.356 215.746 105.768 214.555 106.976C213.364 108.171 212.064 109.325 210.67 110.261C209.979 110.723 209.262 111.13 208.531 111.497C208.111 111.701 207.719 111.931 207.285 112.108C206.771 112.325 206.311 112.447 205.932 112.882C205.85 112.922 205.85 112.99 205.878 113.072Z" fill="#1D2E43"/>
<path d="M70.5287 201.881C71.5441 201.691 72.4917 201.08 73.4258 200.646C74.2922 200.239 75.1451 199.791 76.0115 199.411C77.9609 198.569 79.978 197.931 82.0086 197.347C83.9851 196.763 85.9616 196.234 88.0058 195.962C89.0482 195.826 90.0906 195.745 91.133 195.636C92.2295 195.528 93.2855 195.297 94.3955 195.324C94.5715 195.324 94.6121 195.053 94.4362 195.012C93.3261 194.74 92.2701 194.306 91.133 194.129C90.1177 193.966 89.0888 193.899 88.0599 193.871C85.7856 193.817 83.4301 193.939 81.1828 194.387C78.9897 194.822 76.8373 195.636 74.8202 196.587C72.9384 197.483 70.5287 198.61 69.378 200.415C68.8907 201.203 69.7165 202.031 70.5287 201.881Z" fill="#1D2E43"/>
<path d="M69.7849 237.056C70.5295 236.554 71.0304 235.739 71.6667 235.101C72.3706 234.395 73.1287 233.784 73.9816 233.241C75.6196 232.196 77.4472 231.286 79.2071 230.458C81.4273 229.426 83.7016 228.408 86.0165 227.593C88.3585 226.765 90.8495 226.996 93.1915 226.127C93.3404 226.073 93.3268 225.856 93.1508 225.842C91.8106 225.788 90.5787 225.353 89.252 225.299C87.9659 225.258 86.7476 225.421 85.5156 225.815C82.9299 226.657 80.3849 227.648 77.7992 228.503C75.7279 229.182 73.8056 229.969 71.9916 231.232C70.3941 232.345 68.3229 234.001 68.0656 236.065C67.9573 236.92 69.1216 237.504 69.7849 237.056Z" fill="#1D2E43"/>
<path d="M109.542 176.052C110.814 178.129 112.222 179.894 112.994 182.27C113.887 185.026 113.955 187.986 114.023 190.85C114.158 197.014 114.212 203.178 114.253 209.328C114.321 221.913 114.212 234.512 113.914 247.097C113.738 254.17 113.752 261.257 113.63 268.331C113.603 269.58 115.498 269.566 115.566 268.331C116.256 255.175 116.568 242.06 116.622 228.878C116.676 215.804 116.69 202.675 116.202 189.615C116.094 186.71 115.783 183.723 114.632 181.021C113.725 178.903 112.019 176.419 109.61 175.957C109.555 175.971 109.515 176.011 109.542 176.052Z" fill="#1D2E43"/>
</g>
<defs>
<clipPath id="clip0_9394_14563">
<rect width="275.423" height="233.921" fill="white" transform="translate(15.0918 37.7266)"/>
</clipPath>
</defs>
</svg>
