<svg width="332" height="300" viewBox="0 0 332 300" fill="none" xmlns="http://www.w3.org/2000/svg">
<g clip-path="url(#clip0_9394_15321)">
<circle cx="133.189" cy="133.089" r="133.089" fill="#BADDFE"/>
<path fill-rule="evenodd" clip-rule="evenodd" d="M297.117 265.048L322.584 263.169V247.2L320.698 238.746L328.244 233.109L330.13 208.686L309.379 203.989L289.571 192.716L263.161 172.989L175.441 105.354L160.349 116.626L102.812 81.8694L67.9127 61.2031L59.4237 55.5668L36.7862 35.8398H33.9565L34.8997 61.2031L59.4237 95.0207L74.5153 114.748L37.7294 97.8388L3.77318 76.2331L1.88672 77.1725V97.8388L43.3888 141.99L86.7773 194.595L114.131 265.048H120.733L123.563 263.169H149.974L153.746 265.048H160.349H192.419H244.296L272.593 265.988L297.117 265.048Z" fill="#FDFDFD"/>
<g clip-path="url(#clip1_9394_15321)">
<path d="M33.5032 34.4957C31.7676 35.3635 32.1826 38.1555 32.2204 39.759C32.2958 42.0227 32.3524 44.2865 32.4279 46.5313C32.5599 51.1343 32.7297 55.7373 33.0127 60.3402C33.1636 63.0001 37.3138 63.019 37.1629 60.3402C36.8988 55.3977 36.5026 50.474 36.1065 45.5315C35.9178 43.098 35.748 40.6645 35.5217 38.2498C35.4273 37.2877 35.3142 35.9861 34.7105 35.156C34.5218 34.8919 33.9182 34.2882 33.5032 34.4957Z" fill="#1D2E43"/>
<path d="M34.8622 62.2203C35.164 63.1636 35.3149 64.2011 35.6734 65.1066C36.1073 66.2007 36.9939 67.2383 37.6541 68.2004C39.0501 70.2189 40.5027 72.2185 41.9364 74.2182C44.7095 78.1043 47.4826 81.9904 50.3311 85.8199C56.1226 93.611 61.9517 101.364 67.7997 109.118C79.4392 124.511 91.0598 139.942 103.058 155.053C109.924 163.712 116.64 172.597 124.016 180.841C125.393 182.369 128.11 180.331 126.902 178.615C121.356 170.692 115.188 163.165 109.283 155.506C103.435 147.903 97.4926 140.357 91.6257 132.755C79.6655 117.324 67.7997 101.798 56.066 86.1972C52.8024 81.8583 49.52 77.5572 46.1998 73.275C44.502 71.0867 42.823 68.8984 41.1252 66.7101C40.3706 65.748 39.6538 64.7293 38.8238 63.8238C37.9183 62.8429 36.7864 62.3335 35.7111 61.5601C35.2961 61.2771 34.7113 61.7676 34.8622 62.2203Z" fill="#1D2E43"/>
<path d="M125.563 180.765C124.469 181.708 124.903 183.18 124.978 184.5C125.072 186.349 125.431 188.047 125.827 189.839C126.714 193.782 127.695 197.687 128.77 201.573C130.826 209.062 133.071 216.495 135.486 223.871C137.9 231.247 140.485 238.566 143.22 245.829C144.597 249.451 146.012 253.073 147.465 256.676C148.219 258.544 148.974 260.392 149.766 262.241C150.521 263.996 151.087 266.127 152.615 267.335C153.992 268.448 155.878 267.731 156.01 265.92C156.161 263.996 155.029 262.09 154.294 260.317C153.501 258.393 152.671 256.469 151.879 254.526C150.408 250.922 148.974 247.319 147.597 243.697C144.654 236.019 141.919 228.285 139.353 220.475C136.844 212.816 134.486 205.1 132.335 197.328C131.26 193.48 130.411 189.443 129.034 185.689C128.751 184.934 126.94 179.577 125.563 180.765Z" fill="#1D2E43"/>
<path d="M35.4475 62.7378C36.5605 63.3603 37.881 63.681 39.0506 64.1715C40.1447 64.6431 41.2012 65.1902 42.2576 65.7184C44.6534 66.9257 46.9926 68.2085 49.3507 69.4913C51.6899 70.7929 54.0102 72.1323 56.3117 73.5283C58.5 74.8677 60.5939 76.4146 62.82 77.6785C64.2914 78.5274 66.1967 77.1126 65.7251 75.4525C65.3101 74.0376 64.1405 73.5094 62.952 72.8114C61.6315 72.038 60.311 71.3023 58.9905 70.5666C56.406 69.1328 53.7838 67.7746 51.1428 66.4729C48.5772 65.209 45.955 64.0205 43.314 62.8887C41.0314 61.9077 38.2772 60.4363 35.7116 60.889C34.8249 61.0399 34.7306 62.3416 35.4475 62.7378Z" fill="#1D2E43"/>
<path d="M62.6298 75.035C63.3844 78.4684 67.063 81.5622 69.3078 84.1277C71.9866 87.2027 74.6654 90.2776 77.3819 93.3148C83.0224 99.6155 88.6063 105.935 94.1525 112.311C105.037 124.819 115.941 137.288 126.581 150.022C129.58 153.606 132.542 157.209 135.522 160.831C138.503 164.453 141.484 168.603 145.068 171.64C146.03 172.452 147.445 171.452 146.841 170.282C145.011 166.792 142.201 163.51 139.748 160.435C137.107 157.134 134.447 153.851 131.787 150.588C126.543 144.155 121.261 137.76 115.922 131.402C105.018 118.461 93.9638 105.69 82.6262 93.1639C79.4947 89.6928 76.3255 86.2783 73.0996 82.8827C71.5339 81.2415 70.0058 79.5814 68.3835 77.9968C66.8932 76.5442 65.4217 74.8652 63.3844 74.2616C62.9127 74.1295 62.5355 74.5823 62.6298 75.035Z" fill="#1D2E43"/>
<path d="M163.894 266.408C165.517 263.993 165.932 260.673 166.441 257.862C166.988 254.863 167.365 251.844 167.724 248.807C168.516 241.978 169.704 235.357 171.383 228.679C171.949 226.415 172.459 223.321 174.402 221.774C177.571 219.265 180.42 225.491 181.834 227.471C183.702 230.094 185.588 232.697 187.626 235.187C190.003 238.111 192.625 240.846 194.945 243.865C196.492 245.864 199.322 243.733 197.718 241.714C192.587 235.281 188.267 228.339 182.551 222.359C180.74 220.473 178.59 218.643 175.798 218.982C173.44 219.284 171.93 220.982 170.95 223.038C169.572 225.925 169.082 229.282 168.384 232.376C167.573 235.998 166.912 239.62 166.479 243.299C166.026 247.091 165.781 250.92 165.384 254.712C165.158 256.881 164.856 259.07 164.422 261.22C164.083 262.918 163.536 264.54 163.441 266.276C163.441 266.54 163.781 266.597 163.894 266.408Z" fill="#1D2E43"/>
<path d="M144.823 169.678C146.578 173.224 149.256 176.243 151.671 179.355C154.256 182.657 156.859 185.939 159.481 189.203C164.631 195.617 169.857 201.936 175.308 208.086C186.288 220.48 197.701 232.516 209.227 244.363C210.208 245.363 211.717 243.853 210.755 242.835C199.493 230.856 188.646 218.556 177.912 206.105C172.648 199.993 167.329 193.957 162.065 187.863C159.33 184.713 156.632 181.525 153.935 178.356C151.256 175.205 148.766 171.753 145.54 169.131C145.144 168.791 144.578 169.187 144.823 169.678Z" fill="#1D2E43"/>
<path d="M33.5212 35.3695C36.7847 38.4256 40.5199 40.9723 43.859 43.9529C47.2357 46.9524 50.537 50.0462 53.9515 53.0079C57.3471 55.9319 60.8182 58.8559 64.6477 61.1951C68.7225 63.6853 73.0047 65.8735 77.1549 68.2316C95.0385 78.4185 112.281 89.775 130.051 100.188C140.031 106.036 150.18 111.601 160.197 117.412C161.065 117.921 161.838 116.6 160.97 116.072C152.142 110.715 143.483 105.093 134.635 99.7732C125.788 94.4534 116.865 89.2845 107.942 84.0967C99.019 78.909 90.1149 73.7023 81.1919 68.5146C72.8538 63.6664 64.9684 57.9127 57.5735 51.7063C53.7817 48.537 50.1409 45.198 46.3114 42.0665C42.6139 39.067 38.7844 35.7468 34.3135 34.0113C33.54 33.7095 32.9364 34.8413 33.5212 35.3695Z" fill="#1D2E43"/>
<path d="M65.893 64.8764C66.2515 66.0838 66.6099 67.31 66.9495 68.5173C67.157 69.2341 68.3077 68.8946 68.0625 68.2155C67.6097 67.0081 66.9872 65.8385 66.6665 64.5935C66.6099 64.386 66.3081 64.4425 66.3081 64.6501C66.2892 65.6687 66.2515 66.7063 66.2137 67.725C66.1949 68.0834 66.7608 68.0834 66.7608 67.725C66.7985 66.9704 66.7231 66.4045 66.4778 65.6687C66.3647 65.3292 65.893 65.4801 65.9496 65.8197C66.0817 66.3856 66.176 66.9515 66.2515 67.5363C66.2892 67.857 66.7231 67.725 66.7608 67.4609C66.874 66.5742 67.0249 65.6876 67.1758 64.801C66.7419 64.8576 66.3081 64.9142 65.893 64.9708C66.3835 66.0649 67.0438 66.8761 68.0059 67.6118C69.0434 68.423 70.4771 67.1025 69.4962 66.1215C68.8548 65.4801 68.2322 64.933 67.4965 64.386C67.1381 65.0085 66.7608 65.631 66.4024 66.2535C68.5718 67.3854 70.4771 69.0644 72.4956 70.4415C74.2689 71.6677 76.0799 72.8373 77.9098 73.988C81.5506 76.2706 85.1915 78.5721 88.8324 80.8547C96.5291 85.7029 104.188 90.5888 111.96 95.3238C119.619 100.002 127.259 104.756 134.786 109.661C138.559 112.113 142.313 114.566 146.086 116.999C149.425 119.15 153.33 122.451 157.33 122.979C158.292 123.111 158.952 121.791 158.443 121.055C157.198 119.225 155.405 118.282 153.557 117.131C151.708 115.981 149.878 114.83 148.011 113.736C144.275 111.547 140.54 109.34 136.805 107.152C128.938 102.53 121.166 97.7008 113.469 92.7771C105.943 87.9667 98.3401 83.2505 90.7754 78.4967C87.0025 76.1197 83.2484 73.7616 79.4755 71.3847C77.6457 70.234 75.8158 69.121 73.9482 68.0457C71.8165 66.8195 69.515 65.8385 67.5531 64.3671C66.5533 63.6314 65.4026 65.216 66.2515 66.0649C66.8929 66.6874 67.572 67.2156 68.2888 67.7438C68.6473 67.1402 68.9868 66.5365 69.3452 65.9329C68.4775 65.4235 67.7606 64.8198 67.0815 64.0841C66.5533 63.537 65.7798 64.1219 65.893 64.7632C66.0628 65.6687 66.2137 66.5742 66.3458 67.4986C66.5156 67.4609 66.6665 67.4043 66.8363 67.3666C66.7608 66.8195 66.6665 66.2724 66.591 65.7253C66.4212 65.7442 66.2326 65.7819 66.0628 65.8008C66.2515 66.4233 66.3458 67.0647 66.3269 67.725C66.5156 67.725 66.7042 67.725 66.874 67.725C66.8551 67.1779 66.6099 65.6687 66.6288 65.4424C66.5533 66.329 66.8929 67.6307 67.0438 68.5362C67.4211 68.4418 67.7795 68.3286 68.1568 68.2343C67.6852 67.0459 67.2136 65.8763 66.7419 64.6878C66.4778 64.2162 65.761 64.386 65.893 64.8764Z" fill="#1D2E43"/>
<path d="M65.8551 65.1337C66.7606 68.6425 68.7602 71.3778 70.9674 74.1887C73.5518 77.49 76.174 80.7724 78.815 84.036C84.0028 90.4499 89.3415 96.713 94.7745 102.919C100.302 109.239 105.999 115.408 111.564 121.671C117.11 127.896 122.751 134.046 128.523 140.064C135.201 147.006 141.823 153.986 148.671 160.758C148.991 161.079 149.463 160.588 149.18 160.249C138.295 147.893 126.806 136.083 115.563 124.048C104.395 112.069 94.0576 99.4295 83.7198 86.7336C80.8901 83.2437 78.0604 79.7349 75.2873 76.1883C72.3822 72.4909 68.9866 68.8689 66.6285 64.7941C66.3833 64.398 65.7419 64.6809 65.8551 65.1337Z" fill="#1D2E43"/>
<path d="M148.69 160.044C148.35 160.988 148.445 162.138 148.388 163.138C148.331 164.176 148.237 165.232 148.124 166.27C148.011 167.307 147.916 168.345 147.822 169.382C147.766 169.948 147.747 170.552 147.615 171.118C147.501 171.59 147.445 171.854 147.766 172.25C147.898 172.42 148.181 172.438 148.35 172.325C148.841 172.023 148.803 171.665 148.841 171.156C148.879 170.627 149.029 170.08 149.124 169.571C149.294 168.515 149.426 167.458 149.463 166.402C149.52 165.326 149.539 164.232 149.539 163.157C149.539 162.176 149.652 161.006 149.275 160.063C149.162 159.743 148.803 159.743 148.69 160.044Z" fill="#1D2E43"/>
<path d="M32.7291 58.4496C32.6537 59.1098 32.6159 59.7889 32.7102 60.4492C32.8234 61.1472 33.1441 61.8452 33.446 62.4677C34.0874 63.7882 34.9363 64.9578 35.8606 66.0708C36.8039 67.2027 37.7848 68.2591 38.6903 69.4287C39.1619 70.0324 39.6147 70.6361 40.0486 71.2775C40.4259 71.8434 40.69 72.6734 41.1993 73.1073C41.4634 73.3337 42.0293 73.296 42.0859 72.881C42.1803 72.2207 41.8784 71.6548 41.6143 71.0511C41.3314 70.3908 40.9918 69.7494 40.5768 69.1646C39.7279 67.9384 38.728 66.8254 37.7471 65.7124C36.8039 64.6371 35.8984 63.5053 35.1061 62.3168C34.7099 61.7131 34.3703 61.0906 34.1062 60.4303C33.8233 59.7512 33.446 59.1098 33.2385 58.393C33.163 58.0723 32.7668 58.1666 32.7291 58.4496Z" fill="#1D2E43"/>
<path d="M160.706 116.885C160.48 117.017 160.404 117.281 160.291 117.508C160.178 117.734 160.027 117.96 159.914 118.206C159.688 118.696 159.442 119.186 159.159 119.677C158.895 120.13 158.593 120.582 158.292 121.016C157.971 121.45 157.726 121.941 157.443 122.412C157.216 122.771 157.707 123.073 157.99 122.846C158.424 122.488 158.858 122.129 159.178 121.658C159.499 121.205 159.801 120.715 160.065 120.224C160.329 119.734 160.574 119.243 160.782 118.734C160.895 118.47 160.952 118.206 161.027 117.941C161.084 117.677 161.235 117.338 161.14 117.074C161.084 116.885 160.895 116.772 160.706 116.885Z" fill="#1D2E43"/>
<path d="M140.163 130.531C140.785 130.587 141.276 130.153 141.748 129.833C142.351 129.436 142.936 129.04 143.54 128.644C144.728 127.852 145.917 127.041 147.086 126.192C148.218 125.381 149.35 124.569 150.501 123.758C151.085 123.343 151.67 122.928 152.255 122.513C152.746 122.155 153.368 121.853 153.368 121.211C153.368 121.023 153.236 120.853 153.066 120.815C152.463 120.627 151.953 121.117 151.482 121.457C150.897 121.872 150.312 122.306 149.727 122.721C148.558 123.57 147.388 124.4 146.218 125.248C145.087 126.06 143.955 126.909 142.861 127.757C142.295 128.191 141.71 128.644 141.144 129.078C140.691 129.436 140.125 129.757 139.993 130.342C139.974 130.417 140.05 130.512 140.163 130.531Z" fill="#1D2E43"/>
<path d="M159.876 116.292C159.876 116.274 159.876 116.236 159.876 116.217C159.876 116.123 159.8 116.009 159.706 115.991C159.404 115.915 159.065 116.123 159.102 116.462C159.178 117.028 159.876 116.934 160.234 116.764C161.215 116.311 162.121 115.557 163.007 114.953C163.913 114.331 164.837 113.689 165.724 113.067C167.497 111.822 169.233 110.539 170.949 109.218C171.779 108.577 172.61 107.917 173.44 107.256C174.251 106.596 175.345 105.955 175.911 105.068C176.232 104.578 175.628 104.163 175.194 104.351C174.515 104.634 173.949 105.257 173.402 105.709C172.779 106.219 172.157 106.728 171.515 107.219C170.176 108.275 168.818 109.331 167.478 110.369C166.196 111.35 164.913 112.312 163.611 113.274C162.951 113.746 162.309 114.217 161.649 114.689C161.329 114.915 160.989 115.161 160.668 115.387C160.498 115.5 160.329 115.594 160.178 115.726C160.121 115.764 160.065 115.802 160.008 115.859C159.819 115.991 159.725 116.198 159.744 116.481C159.65 116.443 159.555 116.406 159.48 116.368C159.499 116.387 159.499 116.406 159.518 116.443C159.574 116.594 159.876 116.519 159.876 116.292Z" fill="#1D2E43"/>
<path d="M171.628 106.507C170.987 110.827 171.308 115.355 171.251 119.713C171.195 124.41 171.176 129.088 171.195 133.786C171.251 143.18 171.213 152.556 171.289 161.95C171.289 163.12 173.024 163.101 173.1 161.95C173.685 152.594 173.873 143.18 173.817 133.786C173.779 129.088 173.628 124.41 173.345 119.713C173.081 115.355 173.119 110.771 172.138 106.507C172.081 106.262 171.666 106.243 171.628 106.507Z" fill="#1D2E43"/>
<path d="M172.516 161.342C173.478 164.077 175.855 166.643 177.571 168.963C179.571 171.642 181.646 174.264 183.589 176.98C187.362 182.262 190.946 187.677 194.946 192.789C199.058 198.071 203.208 203.315 207.434 208.503C209.453 210.974 211.49 213.427 213.527 215.879C215.584 218.35 217.546 221.331 220.092 223.293C221.281 224.217 222.563 222.5 221.998 221.387C220.583 218.671 218.055 216.294 216.112 213.936C213.999 211.352 211.886 208.748 209.773 206.145C205.642 201.089 201.529 196.015 197.455 190.902C193.399 185.809 189.022 180.98 184.91 175.943C182.646 173.17 180.552 170.265 178.364 167.435C176.741 165.322 175.081 162.587 172.931 161.002C172.742 160.87 172.44 161.115 172.516 161.342Z" fill="#1D2E43"/>
<path d="M175.043 104.215C174.571 113.572 176.816 123.193 177.778 132.474C178.25 137.115 178.665 141.756 179.136 146.396C179.589 150.773 179.457 155.734 180.91 159.922C180.966 160.092 181.249 160.13 181.287 159.922C182.079 155.451 181.117 150.433 180.759 145.925C180.4 141.284 179.91 136.643 179.419 132.003C178.457 122.834 178.42 112.968 175.609 104.14C175.496 103.819 175.043 103.894 175.043 104.215Z" fill="#1D2E43"/>
<path d="M180.026 158.413C180.441 160.413 182.195 162.111 183.421 163.695C184.572 165.167 185.798 166.601 187.006 168.053C189.854 171.486 192.722 174.901 195.627 178.297C201.513 185.201 207.493 192.011 213.586 198.727C219.585 205.348 225.735 211.781 231.828 218.308C234.884 221.572 237.921 224.817 241.034 228.024C244.26 231.325 247.75 234.343 251.07 237.531C251.692 238.116 252.598 237.211 252.013 236.588C248.9 233.381 246.033 229.967 242.901 226.76C239.789 223.572 236.657 220.402 233.545 217.195C227.338 210.8 221.377 204.141 215.416 197.501C209.455 190.86 203.569 184.145 197.777 177.372C194.872 173.977 192.005 170.581 189.137 167.148C187.798 165.544 186.496 163.922 185.157 162.337C183.855 160.809 182.516 158.734 180.648 157.923C180.309 157.791 179.95 158.036 180.026 158.413Z" fill="#1D2E43"/>
<path d="M149.408 172.353C153.482 171.07 157.444 169.316 161.387 167.731C165.292 166.165 169.31 164.75 173.139 162.977C174.196 162.487 173.441 160.676 172.347 161.072C168.404 162.524 164.556 164.373 160.689 166.033C156.765 167.712 152.728 169.259 148.955 171.24C148.332 171.561 148.747 172.56 149.408 172.353Z" fill="#1D2E43"/>
<path d="M2.94354 75.0122C2.88695 75.031 2.84922 75.0688 2.79262 75.0876C2.60398 75.182 2.45306 75.3517 2.33987 75.5404C2.26442 75.6724 2.17009 75.8045 2.07577 75.9177C2.13236 75.8422 2.18896 75.7668 2.24555 75.7102C2.03804 75.9743 1.81167 76.2195 1.58529 76.4836C1.35892 76.7477 1.11368 76.9741 0.830708 77.1816C0.906166 77.125 0.981624 77.0496 1.07595 76.993C0.925031 77.1062 0.774114 77.2193 0.604333 77.3137C0.340229 77.4646 0.132719 77.7287 0.0572604 78.0305C-0.0181979 78.3135 0.0195313 78.6908 0.170448 78.9549C0.340229 79.219 0.585468 79.4265 0.887302 79.502C1.18913 79.5774 1.5287 79.5585 1.81167 79.3888C2.39647 79.0115 2.94354 78.5399 3.37742 77.9928C3.52834 77.8041 3.66039 77.6344 3.75472 77.408C3.84904 77.2005 3.94336 76.993 4.03768 76.7666C4.09428 76.6345 4.15087 76.4836 4.1886 76.3327C4.28292 76.0309 4.2452 75.7668 4.13201 75.4838C4.03768 75.2386 3.9245 75.0688 3.67926 74.9745C3.41515 74.8801 3.16991 74.899 2.94354 75.0122Z" fill="#1D2E43"/>
<path d="M2.14931 76.9356C1.77202 77.7279 1.52678 78.124 1.47019 79.0107C1.43246 79.935 1.357 80.8783 1.37586 81.8026C1.39473 83.5948 1.48905 85.3869 1.56451 87.1602C1.71543 90.8199 2.07385 94.4608 2.43228 98.0828C2.86616 97.7432 3.30005 97.4225 3.7528 97.0829C2.92276 96.8377 2.90389 94.7815 2.90389 93.8571C2.90389 92.1593 2.97935 90.4426 2.96049 88.7448C2.94162 85.2171 2.67752 81.6895 2.22477 78.1806C2.09272 77.1808 0.526958 77.1242 0.621281 78.1806C1.16835 84.9908 1.26268 91.9329 0.923114 98.743C0.828791 100.497 3.69621 100.516 3.65848 98.743C3.58302 95.3097 3.46983 91.8763 3.28119 88.443C3.09254 85.0096 2.62093 81.5951 2.22477 78.1806C1.69656 78.2561 1.16835 78.3316 0.640145 78.3882C1.26268 82.1422 1.48905 85.9906 1.54564 89.7824C1.56451 91.4424 1.45132 93.1025 1.50792 94.7437C1.54564 96.102 2.01726 97.1018 2.48887 98.328C2.88503 99.3467 4.58284 99.309 4.52625 98.045C4.37533 94.4042 4.31874 90.7633 4.09236 87.1225C3.96031 85.368 3.88485 83.5759 3.77166 81.8026C3.71507 80.9349 3.58302 80.086 3.4887 79.2371C3.37551 78.2372 3.14913 77.8222 2.65865 76.9544C2.54547 76.7469 2.24363 76.7281 2.14931 76.9356Z" fill="#1D2E43"/>
<path d="M1.99996 99.0449C12.3755 112.08 24.1092 124.097 35.2959 136.416C46.4449 148.696 57.4807 161.015 67.9882 173.862C74.157 181.408 80.3445 188.935 86.5321 196.48C87.4187 197.556 88.9468 196.009 88.0601 194.952C77.3262 181.974 66.5923 168.995 55.764 156.11C53.1041 152.941 50.6517 149.583 47.9729 146.433C45.2942 143.301 42.4833 140.283 39.7102 137.208C34.2018 131.058 28.7499 124.852 23.2226 118.721C16.7709 111.552 10.4136 104.289 3.50913 97.5546C2.49044 96.5736 1.16992 98.0073 1.99996 99.0449Z" fill="#1D2E43"/>
<path d="M3.433 98.5641C4.14985 99.281 5.22513 99.4508 6.16836 99.7715C7.39456 100.205 8.60189 100.639 9.82809 101.073C12.1107 101.865 14.3745 102.714 16.6193 103.62C21.3166 105.525 25.8818 107.732 30.3339 110.166C32.0128 111.09 33.522 108.393 31.8242 107.619C27.1835 105.487 22.4485 103.582 17.6192 101.884C15.1856 101.035 12.7332 100.243 10.2431 99.5074C9.07351 99.1678 7.92277 98.866 6.7343 98.6019C5.69675 98.3755 4.56487 97.9039 3.50846 98.168C3.35754 98.2434 3.31981 98.4509 3.433 98.5641Z" fill="#1D2E43"/>
<path d="M4.01657 99.8962C8.73271 101.971 13.562 103.782 18.297 105.839C20.5985 106.838 22.9 107.838 25.1638 108.913C26.2956 109.442 27.4275 109.989 28.5782 110.517C29.8422 111.102 31.1061 111.875 32.4455 112.215C33.9546 112.611 35.5204 110.479 34.1056 109.366C32.087 107.782 29.3894 106.838 27.0313 105.839C24.6355 104.839 22.2209 103.839 19.7685 102.971C14.7505 101.179 9.73253 99.6321 4.45045 98.7643C3.86565 98.7077 3.33745 99.5944 4.01657 99.8962Z" fill="#1D2E43"/>
<path d="M31.5411 108.827C32.1259 110.751 33.503 112.279 34.7292 113.826C36.0686 115.505 37.4457 117.165 38.8606 118.806C41.8789 122.277 45.067 125.616 48.2174 128.955C54.3861 135.483 60.668 141.878 66.799 148.442C79.0421 161.553 91.5304 174.306 105.283 185.851C107.113 187.379 109.716 184.889 107.943 183.191C95.0393 170.816 81.7775 158.761 69.1759 146.066C62.8374 139.689 56.9706 132.898 50.9339 126.239C47.8401 122.843 44.7652 119.391 41.5393 116.109C38.8417 113.373 35.8422 109.544 32.2202 108.129C31.8241 107.997 31.4279 108.45 31.5411 108.827Z" fill="#1D2E43"/>
<path d="M3.39327 76.4431C8.35466 81.1593 14.8252 84.4417 20.4846 88.2335C26.3515 92.1762 32.0297 96.4396 38.2927 99.7786C44.5746 103.136 51.0074 106.23 57.3271 109.513C60.4775 111.154 63.5524 112.946 66.7216 114.531C69.3249 115.832 72.4942 117.662 75.4371 117.851C76.0407 117.889 76.3237 117.077 75.9275 116.681C73.6638 114.474 70.0984 113.21 67.2687 111.833C64.3258 110.418 61.4018 108.984 58.5155 107.456C52.2148 104.099 46.0649 100.59 39.8962 96.9866C33.9161 93.5155 27.672 90.5161 21.6919 87.0073C15.693 83.4796 10.1091 78.7446 3.73284 75.9526C3.44987 75.8772 3.12917 76.1979 3.39327 76.4431Z" fill="#1D2E43"/>
<path d="M32.464 103.445C32.5772 102.106 32.4263 100.917 32.0113 99.6346C31.5397 99.7667 31.0681 99.8987 30.5776 100.031C30.7474 100.465 30.8983 100.917 31.0303 101.37C31.2567 100.974 31.4831 100.578 31.7095 100.182C31.6151 100.201 31.5397 100.201 31.4454 100.219C31.8226 100.37 32.2188 100.54 32.5961 100.691C32.5961 100.748 32.5961 100.823 32.615 100.88C32.3697 101.125 32.1245 101.37 31.8604 101.634C32.049 101.597 32.2188 101.559 32.4074 101.521C32.0679 101.427 31.7283 101.351 31.3888 101.257C34.6901 104.294 39.1987 106.445 43.0471 108.69C47.4425 111.236 51.8379 113.783 56.2523 116.292C64.9488 121.235 73.7397 126.007 82.4929 130.855C84.2473 131.818 85.813 129.12 84.0586 128.177C74.9659 123.31 66.0052 118.216 57.0446 113.123C52.6303 110.614 48.2348 108.067 43.8394 105.52C41.7077 104.275 39.576 103.068 37.4254 101.861C35.671 100.88 33.6902 99.3139 31.5774 99.5591C31.1058 99.6157 30.6908 99.861 30.5399 100.351C30.5021 100.465 30.4833 100.559 30.4455 100.672C30.3512 101.031 30.4455 101.483 30.7285 101.729C30.8228 101.804 30.8983 101.879 30.9926 101.955C31.351 102.257 31.8038 102.351 32.2188 102.106C32.2943 102.068 32.3697 102.03 32.4452 101.993C33.0488 101.653 33.0111 100.936 32.6338 100.465C32.3886 100.144 32.1622 99.8233 31.917 99.5026C31.351 98.7291 30.2569 99.3705 30.6342 100.257C31.1058 101.332 31.3133 102.332 31.3322 103.502C31.3699 104.162 32.4074 104.143 32.464 103.445Z" fill="#1D2E43"/>
<path d="M31.184 102.932C33.8062 106.403 37.2396 109.383 40.3334 112.44C43.446 115.514 46.6719 118.476 49.86 121.495C56.4437 127.739 62.8577 134.134 69.4037 140.416C82.4768 152.998 95.8141 165.279 108.944 177.824C109.755 178.598 110.962 177.371 110.17 176.598C97.0025 164.11 84.0803 151.414 70.8562 138.963C64.2536 132.738 57.5378 126.645 50.973 120.382C47.8037 117.363 44.6911 114.288 41.4652 111.327C38.2583 108.384 35.1079 105.101 31.5047 102.649C31.3161 102.517 31.052 102.743 31.184 102.932Z" fill="#1D2E43"/>
<path d="M108.622 185.593C108.924 185.348 108.981 184.914 109.094 184.555C109.245 184.103 109.32 183.65 109.415 183.197C109.565 182.329 109.735 181.48 109.886 180.613C110.037 179.745 110.207 178.896 110.358 178.028C110.49 177.33 110.792 176.274 109.848 176.01C109.622 175.934 109.377 176.01 109.207 176.179C108.773 176.595 108.981 177.462 109.679 177.33C109.886 177.293 110.056 177.01 109.98 176.821C109.98 176.802 109.962 176.802 109.962 176.783C109.943 176.896 109.924 177.028 109.924 177.142C109.66 177.387 109.433 177.368 109.245 177.085C109.245 177.16 109.226 177.217 109.226 177.293C109.207 177.5 109.169 177.708 109.132 177.896C109.075 178.236 109.037 178.594 108.981 178.934C108.867 179.726 108.754 180.499 108.641 181.292C108.528 182.046 108.434 182.801 108.32 183.556C108.264 183.933 108.264 184.272 108.264 184.65C108.264 184.97 108.207 185.31 108.396 185.593C108.434 185.65 108.547 185.668 108.622 185.593Z" fill="#1D2E43"/>
<path d="M106.038 185.689C106.83 185.765 107.698 185.293 108.452 185.067C109.226 184.822 109.999 184.614 110.773 184.369C112.376 183.86 113.961 183.312 115.583 182.841C117.205 182.369 118.828 181.935 120.469 181.539C121.261 181.351 122.054 181.162 122.846 180.992C123.714 180.803 124.619 180.653 125.223 179.936C125.732 179.332 125.487 178.596 124.789 178.313C123.94 177.955 123.016 178.257 122.167 178.502C121.393 178.728 120.601 178.974 119.828 179.219C118.168 179.747 116.526 180.313 114.885 180.936C113.3 181.539 111.697 182.124 110.15 182.841C109.414 183.18 108.698 183.558 107.981 183.916C107.283 184.275 106.339 184.576 105.849 185.218C105.679 185.388 105.774 185.652 106.038 185.689Z" fill="#1D2E43"/>
<path d="M127.071 211.714C127.147 212.393 127.713 212.978 128.184 213.449C128.713 213.959 129.222 214.468 129.769 214.958C130.825 215.939 131.957 216.845 133.033 217.769C133.636 218.298 134.353 219.165 135.24 218.882C135.749 218.713 136.013 218.165 135.862 217.656C135.73 217.203 135.353 216.92 134.995 216.637C133.882 215.732 132.769 214.808 131.637 213.902C130.958 213.355 130.26 212.865 129.562 212.355C129.241 212.11 128.92 211.902 128.562 211.695C128.203 211.506 127.864 211.299 127.43 211.318C127.279 211.336 127.053 211.487 127.071 211.714Z" fill="#1D2E43"/>
<path d="M105.49 183.236C104.735 184.5 104.867 186.009 104.754 187.462C104.622 189.103 104.49 190.744 104.377 192.367C104.113 196.045 103.962 199.743 103.867 203.421C103.679 210.609 103.396 217.966 104.018 225.134C104.132 226.342 105.867 226.379 105.924 225.134C106.263 217.909 105.943 210.646 106.037 203.421C106.093 199.875 106.169 196.328 106.207 192.763C106.225 190.989 106.244 189.216 106.263 187.443C106.282 186.009 106.546 184.538 105.961 183.217C105.867 183.047 105.584 183.085 105.49 183.236Z" fill="#1D2E43"/>
<path d="M105.094 225.79C105.339 225.865 105.546 225.922 105.81 225.884C106.037 225.846 106.263 225.828 106.49 225.79C106.942 225.733 107.357 225.658 107.791 225.526C108.659 225.262 109.508 224.998 110.376 224.733C110.847 224.583 111.206 224.054 111.036 223.564C110.885 223.111 110.376 222.715 109.866 222.904C108.999 223.224 108.15 223.526 107.282 223.847C106.81 224.017 106.376 224.243 105.942 224.488C105.754 224.601 105.546 224.696 105.358 224.809C105.15 224.941 105.037 225.111 104.905 225.299C104.773 225.488 104.905 225.733 105.094 225.79Z" fill="#1D2E43"/>
<path d="M109.585 224.715C110.604 225.3 111.396 223.847 111.811 223.168C112.453 222.112 113.094 221.036 113.754 219.98C114.377 218.942 114.981 217.905 115.584 216.848C115.886 216.301 116.188 215.754 116.49 215.226C116.829 214.622 117.358 213.962 117.282 213.245C117.188 212.359 116.377 211.83 115.547 212.245C114.924 212.566 114.717 213.189 114.415 213.774C114.151 214.302 113.868 214.811 113.604 215.339C113.094 216.32 112.604 217.301 112.132 218.301C111.66 219.301 111.189 220.301 110.717 221.282C110.283 222.168 109.925 223.13 109.378 223.942C109.189 224.168 109.321 224.564 109.585 224.715Z" fill="#1D2E43"/>
<path d="M116.621 213.797C120.205 213.986 123.94 213.797 127.392 212.835C127.996 212.666 128.354 212.024 128.204 211.42C128.034 210.76 127.411 210.515 126.789 210.609C125.091 210.892 123.393 211.251 121.695 211.496C120.016 211.741 118.318 211.949 116.621 212.081C115.527 212.194 115.508 213.741 116.621 213.797Z" fill="#1D2E43"/>
<path d="M105.433 204.701C109.263 204.531 113.036 203.89 116.771 203.003C118.601 202.569 120.412 202.079 122.223 201.588C124.09 201.079 126.146 200.739 127.901 199.947C128.693 199.589 128.316 198.155 127.448 198.268C125.656 198.476 123.864 199.174 122.128 199.645C120.317 200.155 118.506 200.664 116.676 201.117C112.979 202.06 109.225 202.89 105.414 203.248C104.509 203.343 104.49 204.757 105.433 204.701Z" fill="#1D2E43"/>
<path d="M86.1363 195.266C87.3437 201.378 90.3809 207.377 92.6823 213.15C95.0404 219.073 97.3608 224.997 99.7377 230.92C102.058 236.674 103.926 242.597 106.114 248.389C108.415 254.501 110.811 260.575 113.282 266.612C113.924 268.178 116.471 267.555 115.886 265.895C111.509 253.727 106.208 241.975 101.568 229.92C99.2661 223.978 96.8891 218.073 94.5311 212.15C92.2485 206.453 90.2865 200.076 86.9475 194.908C86.6834 194.493 86.042 194.776 86.1363 195.266Z" fill="#1D2E43"/>
<path d="M111.263 223.009C113.471 224.858 115.64 226.725 117.715 228.725C118.753 229.725 119.771 230.744 120.79 231.743C121.582 232.536 122.186 233.045 123.337 233.102C126.148 233.253 128.996 232.649 131.788 232.328C134.693 231.989 137.504 232.385 140.39 232.234C140.768 232.215 140.9 231.743 140.579 231.536C138.428 230.159 135.901 230.234 133.429 230.253C130.675 230.291 127.959 230.593 125.223 230.876C124.487 230.951 123.469 231.196 122.752 230.876C122.299 230.668 121.695 230.065 121.28 229.744C120.224 228.933 119.186 228.14 118.111 227.348C115.942 225.763 113.791 224.16 111.584 222.613C111.339 222.462 111.056 222.839 111.263 223.009Z" fill="#1D2E43"/>
<path d="M113.809 226.169C113.658 226.641 113.545 226.716 113.545 227.226C113.545 227.66 113.545 228.093 113.583 228.527C113.639 229.263 113.79 229.999 113.884 230.734C114.13 232.357 114.318 233.998 114.62 235.62C114.922 237.224 115.205 238.846 115.601 240.431C115.79 241.204 115.978 241.997 116.243 242.751C116.412 243.279 116.676 243.619 117.261 243.713C117.846 243.808 118.525 243.676 119.11 243.657C119.921 243.638 120.676 243.581 121.336 243.11C121.921 242.695 122.374 242.11 122.883 241.6C123.468 240.997 124.071 240.412 124.675 239.846C125.826 238.79 127.014 237.733 128.09 236.583C129.184 235.413 130.297 234.111 130.919 232.64C131.315 231.697 130.146 230.546 129.203 230.923C126.543 231.998 124.486 234.602 122.807 236.828C121.996 237.903 121.223 238.997 120.412 240.091C120.015 240.62 119.695 241.204 119.11 241.525C118.714 241.751 117.676 242.355 117.261 242.204C117.412 242.317 117.544 242.431 117.695 242.544C117.469 242.242 117.582 241.695 117.544 241.355C117.525 240.978 117.469 240.601 117.431 240.223C117.356 239.601 117.299 238.959 117.205 238.337C116.997 236.922 116.808 235.507 116.544 234.111C116.28 232.715 115.997 231.319 115.714 229.942C115.582 229.301 115.469 228.659 115.28 228.018C115.186 227.697 115.092 227.395 114.979 227.094C114.809 226.603 114.696 226.584 114.375 226.169C114.224 225.886 113.903 225.886 113.809 226.169Z" fill="#1D2E43"/>
<path d="M119.393 242.896C119.544 243.33 119.676 243.745 119.94 244.141C120.186 244.538 120.45 244.953 120.714 245.349C121.261 246.179 121.959 246.952 122.6 247.707C123.223 248.443 123.864 249.159 124.506 249.876C124.826 250.235 125.166 250.574 125.487 250.933C125.92 251.423 126.279 251.8 126.977 251.876C127.656 251.951 127.958 251.216 127.882 250.687C127.788 250.121 127.298 249.763 126.883 249.423C126.543 249.122 126.203 248.801 125.883 248.48C125.185 247.82 124.506 247.141 123.845 246.443C123.204 245.764 122.6 245.047 121.921 244.406C121.601 244.085 121.261 243.783 120.94 243.462C120.582 243.123 120.205 242.859 119.79 242.595C119.601 242.481 119.318 242.689 119.393 242.896Z" fill="#1D2E43"/>
<path d="M126.506 251.428C127.11 251.805 127.789 251.749 128.487 251.749C129.242 251.749 129.996 251.749 130.751 251.73C132.392 251.73 134.033 251.598 135.675 251.522C138.957 251.352 142.239 251.277 145.541 251.352C146.88 251.39 146.88 249.277 145.541 249.277C142.183 249.277 138.844 249.485 135.486 249.749C133.901 249.881 132.317 249.975 130.732 250.202C129.921 250.315 129.129 250.428 128.317 250.541C127.638 250.636 126.997 250.692 126.469 251.145C126.374 251.239 126.412 251.371 126.506 251.428Z" fill="#1D2E43"/>
<path d="M126.299 250.168C125.903 251.451 125.393 252.734 125.054 254.036C124.733 255.3 124.412 256.564 124.11 257.827C123.488 260.412 122.979 263.015 122.488 265.619C122.262 266.807 124.092 267.335 124.318 266.128C124.827 263.525 125.356 260.921 125.865 258.318C126.11 257.035 126.355 255.752 126.619 254.488C126.884 253.149 127.016 251.791 127.261 250.451C127.393 249.791 126.506 249.527 126.299 250.168Z" fill="#1D2E43"/>
<path d="M114.659 267.012C115.018 267.068 115.414 267.163 115.772 267.163C116.112 267.163 116.452 267.106 116.791 267.068C117.527 266.993 118.244 266.917 118.979 266.842C119.715 266.766 120.432 266.672 121.168 266.578C121.866 266.483 122.715 266.502 123.356 266.182C123.846 265.936 123.771 265.031 123.186 264.937C122.469 264.842 121.677 265.069 120.979 265.182C120.281 265.295 119.583 265.389 118.885 265.502C118.187 265.597 117.489 265.691 116.791 265.785C116.452 265.823 116.112 265.861 115.772 265.899C115.376 265.955 115.037 266.125 114.659 266.257C114.358 266.389 114.263 266.936 114.659 267.012Z" fill="#1D2E43"/>
<path d="M153.651 266.707C153.783 266.801 153.859 266.952 154.01 267.046C154.161 267.14 154.331 267.235 154.5 267.291C154.896 267.442 155.387 267.518 155.802 267.555C156.594 267.631 157.424 267.631 158.217 267.574C159.084 267.518 159.952 267.348 160.801 267.216C161.216 267.14 161.631 267.084 162.046 266.989C162.537 266.895 162.876 266.669 163.291 266.386C164.008 265.895 164.027 264.594 163.027 264.386C162.48 264.273 162.046 264.179 161.48 264.273C161.065 264.348 160.65 264.443 160.254 264.518C159.481 264.669 158.726 264.782 157.953 264.914C157.236 265.046 156.538 265.197 155.821 265.311C155.406 265.367 154.915 265.461 154.519 265.594C154.198 265.707 153.934 265.971 153.689 266.103C153.406 266.235 153.444 266.556 153.651 266.707Z" fill="#1D2E43"/>
<path d="M123.469 265.068C128.148 265.389 132.883 264.879 137.561 264.898C139.919 264.898 142.259 264.898 144.617 264.955C145.711 264.992 146.786 265.03 147.88 265.087C149.012 265.143 150.276 265.407 151.37 265.03C152.03 264.804 152.276 263.823 151.578 263.446C150.597 262.936 149.521 262.993 148.427 262.936C147.163 262.861 145.899 262.804 144.635 262.766C142.277 262.691 139.919 262.616 137.58 262.672C132.883 262.785 127.903 262.804 123.337 263.993C122.696 264.144 122.866 265.011 123.469 265.068Z" fill="#1D2E43"/>
<path d="M76.5512 78.4237C81.3051 83.0455 85.9458 87.8748 91.2278 91.9118C94.1518 94.1567 97.2834 96.1186 100.132 98.439C102.867 100.665 105.471 103.061 108.225 105.268C110.696 107.249 113.016 109.437 115.639 111.229C117.393 112.436 119.204 113.417 120.845 114.795C122.071 115.832 123.26 116.907 124.524 117.888C129.862 122.02 135.107 126.245 141.049 129.433C141.219 129.528 141.37 129.283 141.2 129.169C135.616 125.208 130.428 120.68 125.033 116.474C123.882 115.587 122.694 114.776 121.524 113.927C119.789 112.663 118.412 111.135 116.827 109.701C114.299 107.419 111.432 105.532 108.715 103.476C106.018 101.42 103.169 99.552 100.471 97.4769C97.8682 95.4772 95.529 93.1758 93.02 91.0629C87.7379 86.592 82.0219 82.7248 76.8153 78.1784C76.6267 78.0275 76.3814 78.2539 76.5512 78.4237Z" fill="#1D2E43"/>
<path d="M89.4752 94.7783C95.9457 102.607 103.586 108.757 111.641 114.888C120.47 121.623 129.43 128.452 137.353 136.243C137.863 136.752 138.674 135.941 138.127 135.469C129.94 128.187 122.035 120.698 113.433 113.926C105.472 107.663 96.8701 101.758 89.9091 94.3444C89.6261 94.0425 89.23 94.4764 89.4752 94.7783Z" fill="#1D2E43"/>
<path d="M139.919 129.082C139.881 129.251 139.919 129.421 139.919 129.591C139.919 129.779 139.919 129.987 139.919 130.176C139.9 130.534 139.862 130.911 139.881 131.27C139.9 131.628 139.9 132.006 139.881 132.383C139.881 132.59 139.862 132.779 139.844 132.986C139.825 133.194 139.768 133.383 139.787 133.59C139.825 133.911 140.013 134.175 140.353 134.213C140.674 134.25 140.957 134.062 141.051 133.76C141.164 133.383 141.108 132.892 141.089 132.477C141.07 132.043 141.013 131.609 140.957 131.194C140.9 130.798 140.73 130.44 140.56 130.062C140.428 129.761 140.277 129.308 140.032 129.082C139.995 129.025 139.919 129.025 139.919 129.082Z" fill="#1D2E43"/>
<path d="M137.429 136.737C138.164 136.774 138.938 136.567 139.56 136.171C139.881 135.963 140.183 135.718 140.409 135.435C140.541 135.284 140.673 135.114 140.768 134.944C140.881 134.756 140.937 134.529 140.994 134.322C141.07 134.02 140.919 133.718 140.636 133.586C140.372 133.473 139.994 133.567 139.862 133.831C139.806 133.963 139.711 134.096 139.636 134.228C139.56 134.36 139.485 134.511 139.409 134.624C139.391 134.643 139.372 134.68 139.353 134.699C139.259 134.831 139.447 134.605 139.334 134.718C139.277 134.775 139.24 134.831 139.183 134.888C139.07 135.001 138.957 135.095 138.843 135.209C138.787 135.265 138.957 135.133 138.843 135.209C138.806 135.227 138.787 135.246 138.749 135.265C138.693 135.303 138.617 135.341 138.561 135.378C138.485 135.416 138.41 135.454 138.353 135.491C138.334 135.491 138.221 135.548 138.296 135.51C138.372 135.473 138.24 135.529 138.24 135.529C138.108 135.586 137.957 135.624 137.825 135.661C137.787 135.68 137.73 135.68 137.693 135.68C137.674 135.68 137.561 135.699 137.636 135.699C137.712 135.699 137.561 135.699 137.58 135.699C137.542 135.699 137.485 135.699 137.448 135.699C137.202 135.718 136.957 135.906 136.957 136.189C136.957 136.529 137.146 136.718 137.429 136.737Z" fill="#1D2E43"/>
<path d="M122.827 133.347C123.638 133.554 124.619 133.366 125.449 133.29C126.336 133.196 127.222 133.007 128.109 132.875C129.014 132.743 129.939 132.63 130.863 132.592C131.335 132.554 131.806 132.554 132.278 132.554C132.731 132.554 133.165 132.63 133.561 132.403C133.938 132.177 133.9 131.687 133.561 131.441C133.183 131.177 132.712 131.234 132.278 131.253C131.806 131.253 131.335 131.29 130.863 131.328C129.939 131.404 129.014 131.517 128.09 131.668C127.166 131.819 126.204 131.951 125.298 132.177C124.487 132.385 123.468 132.535 122.77 133.026C122.638 133.083 122.657 133.309 122.827 133.347Z" fill="#1D2E43"/>
<path d="M133.409 143.576C139.842 139.992 146.294 136.596 152.934 133.427C159.537 130.276 166.139 127.032 172.138 122.825C172.818 122.353 172.157 121.24 171.497 121.712C159.556 130.276 144.898 134.408 133.334 143.481C133.259 143.519 133.334 143.614 133.409 143.576Z" fill="#1D2E43"/>
<path d="M138.089 148.751C139.56 148.487 140.956 147.77 142.352 147.26C143.465 146.845 144.616 146.487 145.71 146.015C148.521 144.827 150.898 142.959 153.652 141.695C156.651 140.318 159.651 138.979 162.631 137.564C165.706 136.111 168.951 134.885 171.856 133.093C172.648 132.603 172.139 131.169 171.196 131.508C168.008 132.659 165.065 134.376 162.028 135.866C158.972 137.357 155.934 138.885 152.916 140.431C150.219 141.809 147.879 143.733 145.087 144.978C143.522 145.676 141.975 145.978 140.333 146.43C139.258 146.732 138.277 147.223 137.636 148.166C137.428 148.468 137.787 148.807 138.089 148.751Z" fill="#1D2E43"/>
<path d="M86.0224 155.07C88.5502 154.787 91.0215 154.014 93.4173 153.184C95.8508 152.335 98.2089 151.297 100.397 149.958C101.208 149.467 100.492 148.298 99.6615 148.694C97.4166 149.75 95.1717 150.807 92.8702 151.712C90.5688 152.618 88.2107 153.24 85.8715 154.032C85.3621 154.221 85.3999 155.127 86.0224 155.07Z" fill="#1D2E43"/>
<path d="M93.7388 161.922C94.267 161.998 94.7763 161.734 95.2857 161.564C95.8893 161.356 96.4553 161.111 97.0212 160.866C98.2474 160.319 99.4547 159.79 100.681 159.243C101.907 158.696 103.114 158.168 104.341 157.621C105.322 157.187 106.227 156.791 106.887 155.923C107.378 155.263 106.265 154.603 105.774 155.282C105.171 156.093 103.926 156.47 103.039 156.885C101.945 157.395 100.851 157.904 99.7566 158.413C98.6624 158.923 97.5683 159.432 96.4741 159.941C95.9459 160.187 95.4366 160.432 94.9272 160.734C94.4745 160.998 93.9086 161.186 93.6256 161.658C93.5501 161.734 93.6067 161.903 93.7388 161.922Z" fill="#1D2E43"/>
<path d="M97.6243 166.336C98.7562 166.222 99.7937 165.77 100.831 165.317C101.925 164.864 103.038 164.393 104.114 163.883C105.17 163.393 106.208 162.827 107.245 162.28C107.755 161.997 108.283 161.733 108.792 161.431C109.245 161.167 109.471 160.865 109.547 160.337C109.547 160.261 109.49 160.167 109.433 160.129C108.453 159.676 107.49 160.525 106.623 160.959C105.585 161.487 104.529 161.997 103.472 162.525C102.416 163.034 101.378 163.563 100.322 164.072C99.3032 164.544 98.2468 164.977 97.3602 165.675C97.1149 165.883 97.3224 166.373 97.6243 166.336Z" fill="#1D2E43"/>
<path d="M173.459 104.669C183.194 113.97 194.097 122.044 204.605 130.457C215.15 138.89 225.733 147.284 236.316 155.679C246.522 163.772 256.633 171.978 266.915 179.996C275.762 186.881 284.798 193.786 294.532 199.351C305.474 205.614 317.189 210.217 329.734 211.858C331.79 212.122 332.299 208.519 330.224 208.217C307.926 204.859 288.609 191.993 271.084 178.505C250.427 162.584 230.091 146.209 209.547 130.137C197.983 121.1 186.665 111.479 174.365 103.481C173.667 103.028 172.856 104.085 173.459 104.669Z" fill="#1D2E43"/>
<path d="M216.773 217.152C216.923 218.303 217.527 219.095 218.169 220.057C218.885 221.152 219.678 222.208 220.451 223.264C222.055 225.434 223.639 227.603 225.318 229.716C228.657 233.904 231.808 238.3 235.279 242.374C236.524 243.827 239.07 241.903 237.957 240.318C234.883 235.96 231.336 231.867 227.978 227.735C226.318 225.679 224.564 223.717 222.79 221.755C221.904 220.774 221.036 219.793 220.093 218.869C219.225 218.02 218.489 217.133 217.32 216.756C217.056 216.662 216.735 216.888 216.773 217.152Z" fill="#1D2E43"/>
<path d="M250.446 238.168C253.691 238.489 257.067 238.055 260.331 238.225C263.651 238.394 266.971 238.753 270.292 238.979C276.838 239.451 283.384 239.432 289.93 239.564C296.476 239.696 303.022 239.13 309.511 238.357C315.849 237.602 322.603 236.866 328.696 234.886C329.715 234.546 329.621 232.754 328.432 232.886C321.811 233.659 315.265 235.244 308.624 236.055C301.965 236.885 295.268 237.3 288.571 237.772C281.931 238.243 275.102 237.772 268.481 237.244C265.311 236.998 262.161 236.621 258.973 236.583C256.162 236.546 252.917 236.489 250.314 237.715C250.088 237.828 250.238 238.149 250.446 238.168Z" fill="#1D2E43"/>
<path d="M167.781 246.526C173.383 245.432 179.25 245.79 184.947 245.677C190.682 245.564 196.398 245.262 202.114 245.073C213.546 244.677 224.997 244.074 236.41 243.281C238.957 243.093 238.957 239.093 236.41 239.301C224.676 240.282 212.961 241.508 201.19 242.263C195.474 242.621 189.739 242.753 184.023 242.847C178.326 242.942 172.78 242.923 167.29 244.753C166.139 245.111 166.611 246.752 167.781 246.526Z" fill="#1D2E43"/>
<path d="M167.044 251.048C172.628 250.709 178.231 250.633 183.796 250.256C189.248 249.879 194.662 249.935 200.133 249.765C211.037 249.426 221.978 249.407 232.863 248.898C254.802 247.879 276.685 246.049 298.568 244.314C304.114 243.88 309.717 243.653 315.207 242.804C319.791 242.106 324.507 240.541 327.752 237.088C329.035 235.73 327.28 233.146 325.658 234.372C318.244 240.012 307.868 239.428 299.021 240.107C288.363 240.937 277.685 241.691 267.027 242.616C245.54 244.465 223.997 246.049 202.434 246.804C196.511 247.011 190.625 247.596 184.683 247.804C178.703 248.011 172.723 248.86 166.818 249.765C166.158 249.898 166.328 251.086 167.044 251.048Z" fill="#1D2E43"/>
<path d="M293.665 250.728C293.42 251.218 293.42 251.69 293.382 252.218C293.326 252.878 293.269 253.52 293.212 254.18C293.156 254.784 293.156 255.406 293.156 256.029C293.137 256.651 293.08 257.312 293.231 257.934C293.326 257.689 293.439 257.444 293.533 257.198C292.967 257.444 292.213 257.519 291.609 257.576C291.005 257.632 290.402 257.67 289.779 257.708C288.609 257.783 287.459 257.802 286.308 257.821C285.365 257.84 284.063 257.746 283.818 258.934C283.705 259.462 283.837 260.085 283.893 260.632C283.95 261.236 284.007 261.858 284.044 262.462C284.063 262.745 284.233 263.065 284.554 263.122C284.686 263.141 284.799 263.16 284.912 263.122C285.195 263.028 285.421 262.764 285.421 262.462C285.421 261.933 285.421 261.386 285.402 260.858C285.402 260.632 285.402 260.405 285.402 260.179C285.402 260.009 285.478 259.651 285.402 259.5C285.44 259.255 285.384 259.274 285.214 259.557C285.346 259.557 285.478 259.575 285.629 259.575C285.855 259.575 286.1 259.594 286.327 259.594C286.817 259.575 287.327 259.481 287.817 259.406C288.798 259.236 289.779 259.028 290.76 258.802C291.76 258.576 292.854 258.293 293.873 258.406C294.156 258.444 294.439 258.179 294.495 257.934C294.646 257.349 294.59 256.746 294.571 256.142C294.552 255.482 294.571 254.84 294.514 254.18C294.457 253.558 294.401 252.954 294.363 252.331C294.307 251.765 294.325 251.237 294.061 250.728C293.967 250.596 293.722 250.596 293.665 250.728Z" fill="#1D2E43"/>
<path d="M166.573 255.68C186.89 255.303 207.226 253.963 227.524 253.001C247.69 252.058 267.856 251.172 288.004 250.209C299.417 249.662 310.83 249.115 322.224 248.587C323.356 248.53 323.356 246.757 322.224 246.814C281.741 248.7 241.257 250.624 200.793 252.643C189.38 253.209 177.967 253.548 166.573 254.397C165.761 254.473 165.742 255.699 166.573 255.68Z" fill="#1D2E43"/>
<path d="M292.929 249.599C292.872 250.033 292.74 250.505 292.778 250.939C292.797 251.354 292.835 251.769 292.854 252.184C292.872 252.637 292.835 253.127 292.929 253.58C292.967 253.787 293.023 254.014 293.08 254.221C293.155 254.542 293.25 254.768 293.533 254.976C293.797 255.164 294.136 255.051 294.363 254.863C294.627 254.636 294.627 254.316 294.665 253.995C294.683 253.768 294.74 253.542 294.74 253.316C294.74 252.844 294.627 252.354 294.551 251.882C294.495 251.467 294.438 251.014 294.344 250.599C294.231 250.165 293.986 249.731 293.797 249.335C293.703 249.147 293.457 249.071 293.269 249.128C293.061 249.222 292.967 249.392 292.929 249.599Z" fill="#1D2E43"/>
<path d="M210.718 253.302C210.586 254.226 210.416 255.132 210.435 256.075C210.454 257.056 210.435 258.037 210.51 259.018C210.586 259.961 210.643 260.905 210.718 261.867C210.793 262.848 210.737 263.923 211.058 264.866C211.359 265.753 212.869 265.941 213.057 264.866C213.227 263.904 213.095 262.942 213.019 261.961C212.944 260.98 212.887 259.999 212.812 259.018C212.737 258.075 212.604 257.132 212.472 256.17C212.34 255.17 212.076 254.245 211.793 253.283C211.642 252.831 210.793 252.736 210.718 253.302Z" fill="#1D2E43"/>
<path d="M164.311 266.705C185.194 267.95 206.285 266.761 227.205 266.723C237.392 266.705 247.579 266.573 257.766 267.063C267.915 267.553 277.857 267.893 288.006 267.082C293.835 266.61 299.645 266.063 305.474 265.686C311.304 265.309 317.133 265.478 322.943 265.177C323.698 265.139 323.962 263.931 323.132 263.781C313.341 262.083 302.852 263.781 293.062 264.648C282.78 265.554 272.631 265.78 262.312 265.327C241.542 264.441 220.754 264.837 199.984 264.875C188.099 264.894 176.177 264.686 164.311 265.516C163.575 265.61 163.556 266.667 164.311 266.705Z" fill="#1D2E43"/>
<path d="M284.007 261.746C283.894 262.161 283.856 262.519 283.837 262.953C283.837 263.368 283.799 263.783 283.837 264.198C283.875 264.594 283.913 264.99 283.95 265.387C283.988 265.82 283.95 266.405 284.214 266.783C284.422 267.066 284.761 267.198 285.082 267.009C285.365 266.839 285.497 266.424 285.309 266.141C285.252 266.066 285.158 265.934 285.139 265.877C285.12 265.802 285.12 265.632 285.12 265.519C285.101 265.292 285.082 265.047 285.082 264.821C285.063 264.292 285.044 263.764 284.988 263.236C284.931 262.727 284.912 262.236 284.856 261.727C284.837 261.482 284.799 261.236 284.761 261.01C284.724 260.746 284.724 260.463 284.573 260.255C284.422 260.048 284.026 260.029 283.969 260.331C283.894 260.784 284.139 261.312 284.233 261.765C284.346 262.255 284.441 262.746 284.478 263.255C284.516 263.745 284.535 264.236 284.554 264.707C284.554 264.953 284.554 265.198 284.516 265.443C284.497 265.556 284.478 265.67 284.46 265.783C284.441 265.915 284.422 265.896 284.328 266.009C284.667 266.273 284.988 266.518 285.327 266.783C285.535 266.311 285.422 265.877 285.365 265.387C285.309 264.972 285.271 264.557 285.214 264.142C285.12 263.311 284.912 262.425 284.516 261.67C284.422 261.444 284.063 261.519 284.007 261.746Z" fill="#1D2E43"/>
<path d="M182.967 254.889C183.005 256.624 183.043 258.379 183.081 260.114C183.099 260.963 183.118 261.831 183.156 262.68C183.194 263.566 183.118 264.566 183.345 265.434C183.59 266.415 185.25 266.509 185.439 265.434C185.59 264.547 185.457 263.585 185.42 262.68C185.382 261.831 185.344 260.963 185.288 260.114C185.175 258.379 185.061 256.624 184.967 254.889C184.873 253.625 182.93 253.606 182.967 254.889Z" fill="#1D2E43"/>
<path d="M167.762 255.456C167.932 257.871 168.121 260.267 168.423 262.663C168.498 263.247 168.574 263.851 168.63 264.436C168.668 264.794 168.63 265.36 168.913 265.643C169.385 266.115 170.007 265.341 169.46 265.039C169.366 264.983 169.253 265.002 169.158 265.077C169.14 265.096 169.14 265.096 169.121 265.115C168.97 265.266 169.102 265.473 169.272 265.492C169.291 265.492 169.309 265.492 169.309 265.492C169.234 265.436 169.158 265.379 169.083 265.322C169.14 265.247 169.215 265.172 169.272 265.096C169.347 265.134 169.441 265.172 169.517 265.19C169.347 265.002 169.366 264.285 169.347 264.04C169.29 263.606 169.234 263.191 169.196 262.757C169.102 261.927 169.008 261.116 168.894 260.286C168.687 258.644 168.347 257.022 168.083 255.4C168.083 255.211 167.744 255.249 167.762 255.456Z" fill="#1D2E43"/>
<path d="M133.544 256.543C133.129 256.996 133.318 257.731 133.336 258.279C133.374 258.939 133.355 259.618 133.431 260.278C133.487 260.92 133.544 261.58 133.563 262.221C133.6 262.806 133.45 263.862 133.959 264.277C134.242 264.504 134.581 264.523 134.864 264.277C135.393 263.844 135.185 262.768 135.147 262.146C135.11 261.504 135.072 260.844 135.015 260.203C134.94 259.542 134.789 258.882 134.657 258.222C134.544 257.675 134.487 256.769 133.921 256.486C133.789 256.43 133.638 256.43 133.544 256.543Z" fill="#1D2E43"/>
<path d="M145.333 257.515C145.408 258.515 145.389 259.514 145.502 260.514C145.559 261.005 145.578 261.495 145.634 261.986C145.691 262.57 145.993 263.042 146.276 263.551C146.464 263.872 146.955 263.891 147.162 263.551C147.445 263.061 147.728 262.552 147.766 261.986C147.804 261.476 147.766 260.948 147.747 260.439C147.728 259.364 147.502 258.288 147.295 257.232C147.2 256.741 146.653 256.458 146.2 256.515C145.748 256.609 145.314 257.024 145.333 257.515Z" fill="#1D2E43"/>
<path d="M125.751 257.432C129.6 257.526 133.448 257.507 137.296 257.734C139.145 257.847 140.994 257.922 142.824 258.073C144.748 258.224 146.861 258.394 148.785 258.168C149.464 258.092 149.596 257.243 148.936 256.998C147.2 256.338 145.125 256.017 143.276 255.828C141.371 255.64 139.447 255.47 137.523 255.395C133.599 255.244 129.656 255.187 125.751 255.545C124.563 255.659 124.525 257.413 125.751 257.432Z" fill="#1D2E43"/>
</g>
</g>
<defs>
<clipPath id="clip0_9394_15321">
<rect width="331.858" height="300" fill="white"/>
</clipPath>
<clipPath id="clip1_9394_15321">
<rect width="331.545" height="233.921" fill="white" transform="translate(0 33.9531)"/>
</clipPath>
</defs>
</svg>
