<svg width="942" height="121" viewBox="0 0 942 121" fill="none" xmlns="http://www.w3.org/2000/svg">
<path d="M0 2.01535H14.5726V118.286H0V2.01535ZM96.1172 2.01535H110.69V118.286H96.1172V2.01535ZM7.44133 53.4846H104.024V66.3519H7.44133V53.4846Z" fill="#1D2E43"/>
<path d="M150.614 89.451V77.0488H232.469V89.451H150.614ZM200.688 2.01535L257.893 118.286H242.081L188.286 6.97624H196.037L142.088 118.286H126.275L183.48 2.01535H200.688Z" fill="#1D2E43"/>
<path d="M429.73 73.4831C428.696 82.6815 425.441 90.8463 419.963 97.9775C414.485 105.005 407.302 110.483 398.414 114.41C389.629 118.338 379.552 120.302 368.184 120.302C355.368 120.302 344.103 117.769 334.388 112.705C324.776 107.641 317.283 100.613 311.909 91.6214C306.534 82.5264 303.847 72.0362 303.847 60.1508C303.847 48.1619 306.534 37.6717 311.909 28.6801C317.283 19.6885 324.776 12.6606 334.388 7.59635C344.103 2.53212 355.368 0 368.184 0C379.552 0 389.629 1.96368 398.414 5.89105C407.302 9.81842 414.485 15.2961 419.963 22.324C425.441 29.2486 428.696 37.3617 429.73 46.6633H415.002C413.762 39.8421 411.075 33.9511 406.941 28.9902C402.806 23.9259 397.432 20.0503 390.818 17.3631C384.203 14.5726 376.607 13.1774 368.029 13.1774C358.003 13.1774 349.27 15.0894 341.829 18.9134C334.491 22.7374 328.807 28.1634 324.776 35.1913C320.745 42.2192 318.73 50.539 318.73 60.1508C318.73 69.6591 320.745 77.9273 324.776 84.9552C328.807 91.9831 334.491 97.4608 341.829 101.388C349.27 105.212 358.003 107.124 368.029 107.124C376.607 107.124 384.203 105.781 390.818 103.093C397.432 100.303 402.806 96.4272 406.941 91.4664C411.075 86.4021 413.762 80.4077 415.002 73.4831H429.73Z" fill="#1D2E43"/>
<path d="M516.753 60.1508L518.459 56.4301C527.864 56.5334 535.46 57.9804 541.248 60.7709C547.036 63.458 551.273 67.127 553.96 71.7778C556.647 76.3253 557.991 81.3896 557.991 86.9706C557.991 93.0683 556.492 98.4943 553.495 103.248C550.601 107.899 546.312 111.568 540.628 114.255C534.943 116.943 527.915 118.286 519.544 118.286H446.216L455.362 58.6005L446.216 2.01535H516.909C527.657 2.01535 535.874 4.54747 541.558 9.61172C547.346 14.5726 550.24 21.3938 550.24 30.0754C550.24 34.6229 549.103 39.1187 546.829 43.5628C544.658 47.9036 541.145 51.6242 536.287 54.7248C531.429 57.722 524.918 59.5306 516.753 60.1508ZM461.098 113.48L455.517 106.194H518.769C526.417 106.194 532.36 104.489 536.597 101.078C540.938 97.5641 543.108 92.5516 543.108 86.0404C543.108 79.1158 540.576 73.7932 535.512 70.0725C530.448 66.3519 522.955 64.4915 513.033 64.4915H462.804V52.7094H512.258C518.872 52.7094 524.35 50.9008 528.691 47.2835C533.135 43.6661 535.357 38.3952 535.357 31.4706C535.357 26.4064 533.548 22.2723 529.931 19.0684C526.417 15.7611 521.198 14.1075 514.273 14.1075H455.517L461.098 6.82122L469.47 58.6005L461.098 113.48Z" fill="#1D2E43"/>
<path d="M664.972 57.9804V69.4524H612.573L612.418 69.2974C604.563 69.2974 597.69 67.9021 591.799 65.1116C585.908 62.2178 581.257 58.2904 577.846 53.3295C574.539 48.2653 572.886 42.3742 572.886 35.6564C572.886 29.0419 574.539 23.2025 577.846 18.1382C581.257 13.074 585.908 9.14663 591.799 6.35613C597.69 3.46228 604.563 2.01535 612.418 2.01535H675.049V118.286H660.476V6.97624L666.987 13.4874H613.503C605.441 13.4874 599.085 15.5028 594.434 19.5335C589.784 23.5642 587.458 28.9385 587.458 35.6564C587.458 42.4776 589.784 47.9036 594.434 51.9343C599.085 55.965 605.441 57.9804 613.503 57.9804H664.972ZM635.982 63.8714L588.698 118.286H570.715L618.309 63.8714H635.982Z" fill="#1D2E43"/>
<path d="M750.513 120.302C739.455 120.302 729.791 118.648 721.523 115.341C713.358 112.033 706.899 107.434 702.145 101.543C697.494 95.5488 694.859 88.5725 694.238 80.6144H708.811C709.948 89.3993 714.082 96.2206 721.213 101.078C728.448 105.832 738.215 108.209 750.513 108.209C762.502 108.209 771.856 106.297 778.573 102.473C785.395 98.546 788.805 92.7066 788.805 84.9552C788.805 78.444 786.067 73.5865 780.589 70.3826C775.111 67.0753 766.43 65.4217 754.544 65.4217H730.36V54.2597H754.079C761.107 54.2597 766.946 53.3812 771.597 51.6242C776.248 49.7639 779.71 47.2835 781.984 44.1829C784.361 40.979 785.55 37.465 785.55 33.641C785.55 28.9902 784.103 25.0628 781.209 21.8589C778.315 18.655 774.284 16.2262 769.117 14.5726C763.949 12.919 757.955 12.0922 751.134 12.0922C739.868 12.0922 730.773 14.4176 723.849 19.0684C716.924 23.6159 712.79 29.972 711.446 38.1368H696.874C697.701 30.9022 700.388 24.391 704.935 18.6033C709.483 12.8156 715.736 8.26814 723.694 4.96089C731.652 1.65363 741.005 0 751.754 0C761.779 0 770.409 1.34357 777.643 4.03072C784.878 6.71787 790.459 10.4902 794.386 15.3477C798.417 20.1019 800.432 25.5796 800.432 31.7807C800.432 37.2583 798.831 42.2192 795.627 46.6633C792.423 51.1075 787.668 54.6214 781.364 57.2052C775.163 59.789 767.515 61.0809 758.42 61.0809V58.2904C767.722 57.9804 775.731 58.8589 782.449 60.9259C789.27 62.9929 794.49 66.1452 798.107 70.3826C801.828 74.5167 803.688 79.5809 803.688 85.5753C803.688 92.6032 801.621 98.701 797.487 103.869C793.353 109.036 787.307 113.067 779.349 115.961C771.494 118.855 761.882 120.302 750.513 120.302Z" fill="#1D2E43"/>
<path d="M825.704 118.286V2.01535H839.967V112.395L833.611 111.775L922.287 2.01535H941.2V118.286H926.938V7.44133L933.294 8.06144L844.308 118.286H825.704Z" fill="#1D2E43"/>
</svg>
