<svg width="80" height="95" viewBox="0 0 80 95" fill="none" xmlns="http://www.w3.org/2000/svg">
<path d="M40.0002 -4.57764e-05C17.9089 -4.57764e-05 0.000244141 17.9085 0.000244141 39.9999C0.000244141 54.1775 7.37628 66.6323 18.5002 73.7363C18.5002 73.7363 39.4759 85.9539 40.0002 94.1487C40.2832 85.5172 61.5002 73.7363 61.5002 73.7363C72.6242 66.6323 80.0002 54.1775 80.0002 39.9999C80.0002 17.9085 62.0916 -4.57764e-05 40.0002 -4.57764e-05Z" fill="#FF7F6A"/>
<path d="M38.3149 15.3024C36.0868 16.262 23.0366 22.3618 22.7745 22.5708C22.5966 22.7133 22.3532 23.0173 22.2315 23.2454L22.0255 23.6634V51.0838H18V55.0743H62V51.0838H57.9745L57.9277 31.7489L57.6749 31.3024C57.497 30.9983 57.2911 30.8083 57.0196 30.6753C56.28 30.3237 44.1472 24.9556 44.0817 24.9556C44.0536 24.9556 44.0162 30.8653 44.0068 38.0862L43.9787 51.2264L41.994 51.2549L40 51.2739V33.5066C40 21.4971 39.9719 15.6634 39.9064 15.5399C39.7847 15.3214 39.3353 15.0743 39.0451 15.0743C38.9234 15.0838 38.5957 15.1789 38.3149 15.3024Z" fill="#F6F6F6"/>
</svg>
