<svg width="739" height="373" viewBox="0 0 739 373" fill="none" xmlns="http://www.w3.org/2000/svg">
<path d="M262.8 3.65202V199.296H229.994V14.0864L240.669 14.6081L149.801 199.296H113.089L22.2206 14.8689L32.8956 14.3472V199.296H0.0893555V3.65202H52.6836L140.167 184.427H122.983L210.206 3.65202H262.8Z" fill="#F6F6F6"/>
<path d="M497.705 114.256C497.532 126.429 495.189 137.907 490.675 148.689C486.162 159.298 479.74 168.688 471.408 176.862C463.077 185.036 452.922 191.47 440.945 196.165C429.142 200.687 415.603 202.948 400.328 202.948C384.88 202.948 370.559 200.6 357.367 195.905C344.175 191.209 332.632 184.514 322.739 175.819C313.018 166.949 305.467 156.254 300.087 143.733C294.706 131.212 292.015 117.125 292.015 101.474C292.015 85.8224 294.706 71.7361 300.087 59.2149C305.641 46.6937 313.365 36.0854 323.259 27.3901C333.153 18.521 344.783 11.7386 358.148 7.04318C371.514 2.34773 386.181 0 402.151 0C422.112 0 439.557 3.30421 454.484 9.91263C469.586 16.3471 481.736 25.2163 490.936 36.5202C500.135 47.824 505.777 60.78 507.86 75.3881H472.97C471.061 66.1711 466.895 58.1714 460.473 51.3891C454.224 44.6068 446.153 39.3896 436.259 35.7376C426.365 32.0856 414.909 30.2596 401.89 30.2596C386.615 30.2596 373.337 33.129 362.054 38.8679C350.945 44.4329 342.266 52.5195 336.017 63.1277C329.942 73.736 326.904 86.518 326.904 101.474C326.904 116.43 330.029 129.299 336.278 140.081C342.7 150.863 351.726 159.124 363.356 164.862C374.986 170.601 388.698 173.471 404.494 173.471C419.769 173.471 433.134 170.862 444.59 165.645C456.047 160.428 465.073 153.211 471.669 143.994C478.265 134.603 481.823 123.734 482.344 111.387L497.705 114.256ZM411.263 129.125V103.039H509.943V199.296H484.427L480.261 118.169L488.332 129.125H411.263Z" fill="#F6F6F6"/>
<path d="M528.881 105.648H562.729V114.256C562.729 132.516 566.982 146.776 575.487 157.037C583.992 167.123 597.792 172.167 616.886 172.167C635.979 172.167 649.779 167.21 658.284 157.298C666.963 147.385 671.302 133.733 671.302 116.343V3.65202H705.671V117.647C705.671 136.429 701.939 152.167 694.475 164.862C687.011 177.558 676.596 187.122 663.231 193.557C649.865 199.818 634.417 202.948 616.886 202.948C599.528 202.948 584.166 199.731 570.801 193.296C557.609 186.862 547.281 177.21 539.817 164.341C532.527 151.472 528.881 135.472 528.881 116.343V105.648Z" fill="#F6F6F6"/>
<path d="M255.878 458.609C234.527 458.609 216.128 454.435 200.68 446.088C185.231 437.566 173.341 425.741 165.009 410.611C156.678 395.307 152.512 377.482 152.512 357.135C152.512 336.788 156.678 319.05 165.009 303.92C173.341 288.616 185.231 276.791 200.68 268.443C216.128 259.922 234.527 255.661 255.878 255.661C277.228 255.661 295.54 259.922 310.815 268.443C326.263 276.791 338.154 288.616 346.485 303.92C354.817 319.05 358.983 336.788 358.983 357.135C358.983 377.482 354.817 395.307 346.485 410.611C338.154 425.741 326.263 437.566 310.815 446.088C295.54 454.435 277.228 458.609 255.878 458.609ZM255.878 430.175C277.575 430.175 294.412 423.828 306.389 411.133C318.366 398.264 324.354 380.264 324.354 357.135C324.354 334.006 318.366 316.093 306.389 303.398C294.412 290.529 277.575 284.095 255.878 284.095C234.18 284.095 217.256 290.529 205.106 303.398C193.129 316.093 187.141 334.006 187.141 357.135C187.141 380.264 193.129 398.264 205.106 411.133C217.256 423.828 234.18 430.175 255.878 430.175Z" fill="#F6F6F6"/>
<path d="M483.967 458.609C462.616 458.609 444.217 454.435 428.769 446.088C413.32 437.566 401.43 425.741 393.098 410.611C384.767 395.307 380.601 377.482 380.601 357.135C380.601 336.788 384.767 319.05 393.098 303.92C401.43 288.616 413.32 276.791 428.769 268.443C444.217 259.922 462.616 255.661 483.967 255.661C505.317 255.661 523.629 259.922 538.904 268.443C554.353 276.791 566.243 288.616 574.574 303.92C582.906 319.05 587.072 336.788 587.072 357.135C587.072 377.482 582.906 395.307 574.574 410.611C566.243 425.741 554.353 437.566 538.904 446.088C523.629 454.435 505.317 458.609 483.967 458.609ZM483.967 430.175C505.664 430.175 522.501 423.828 534.478 411.133C546.455 398.264 552.443 380.264 552.443 357.135C552.443 334.006 546.455 316.093 534.478 303.398C522.501 290.529 505.664 284.095 483.967 284.095C462.269 284.095 445.345 290.529 433.195 303.398C421.218 316.093 415.23 334.006 415.23 357.135C415.23 380.264 421.218 398.264 433.195 411.133C445.345 423.828 462.269 430.175 483.967 430.175Z" fill="#F6F6F6"/>
<path d="M710.474 257.463V453.107H676.105V267.897L694.852 284.592L613.096 298.939V271.549L684.697 257.463H710.474Z" fill="#F6F6F6"/>
<path d="M605.213 425.353H774.5V454.957H605.213V425.353Z" fill="#F6F6F6"/>
<path d="M40.1999 420.336L121.7 256H87.9784L8 420.336H40.1999Z" fill="#F6F6F6"/>
</svg>
