<svg width="479" height="422" viewBox="0 0 479 422" fill="none" xmlns="http://www.w3.org/2000/svg">
<mask id="mask0_9553_6154" style="mask-type:alpha" maskUnits="userSpaceOnUse" x="0" y="0" width="479" height="422">
<rect width="479" height="421.466" rx="32.1117" fill="#D9D9D9"/>
</mask>
<g mask="url(#mask0_9553_6154)">
<rect width="797.218" height="746.486" rx="32.1117" transform="matrix(-1 0 0 1 771.852 -204.137)" fill="black"/>
</g>
<path d="M75.011 196.344L65.2406 214.028L55.6342 196.344H43.4961V224.656H51.4907V204.482L62.5234 224.656H67.9007L79.0262 204.482V224.656H86.9851V196.344H75.011Z" fill="white"/>
<path d="M109.671 203.112L114.898 213.133H104.55L109.671 203.112ZM104.55 196.344L89.8447 224.656H98.8164L101.441 219.937H117.851L120.454 224.656H129.483L115.048 196.344H104.55Z" fill="white"/>
<path d="M154.016 196.344C158.288 196.344 161.19 197.008 162.738 198.342C164.278 199.677 165.056 202.101 165.056 205.63C165.056 208.075 164.714 209.894 164.022 211.084C163.337 212.275 162.182 213.076 160.563 213.48C161.982 213.833 163.052 214.461 163.765 215.363C164.478 216.265 164.835 217.426 164.835 218.862V224.663H156.605V220.348C156.605 219.237 156.355 218.465 155.856 218.047C155.357 217.628 154.373 217.419 152.896 217.419H140.63V224.663H132.378V196.344H154.016ZM153.709 203.4H140.63V210.319H153.709C154.808 210.319 155.578 210.052 156.013 209.511C156.455 208.97 156.676 207.996 156.676 206.589C156.676 205.478 156.441 204.663 155.97 204.158C155.499 203.653 154.743 203.4 153.709 203.4Z" fill="white"/>
<path d="M192.876 196.344L182.093 206.856H178.641V196.344H170.426V224.656H178.641V213.949H182.093L194.288 224.656H205.721L189.239 210.319L203.802 196.344H192.876Z" fill="white"/>
<path d="M207.946 215.239L216.069 215.217V215.729C216.069 216.79 216.311 217.512 216.81 217.887C217.303 218.262 218.344 218.449 219.92 218.449H230.247C231.259 218.449 231.987 218.269 232.415 217.908C232.85 217.548 233.064 216.949 233.064 216.112C233.064 215.26 232.814 214.654 232.315 214.286C231.816 213.918 230.739 213.673 229.084 213.543L216.169 213.24C212.938 213.139 210.749 212.497 209.607 211.299C208.466 210.109 207.896 207.937 207.896 204.799C207.896 203.175 208.046 201.84 208.345 200.787C208.645 199.734 209.13 198.86 209.793 198.161C210.577 197.374 211.604 196.819 212.867 196.487C214.136 196.155 216.197 195.996 219.057 195.996H231.616C234.725 195.996 236.965 196.595 238.334 197.785C239.703 198.976 240.388 200.91 240.388 203.586C240.388 203.767 240.381 203.954 240.381 204.156C240.374 204.358 240.352 204.69 240.317 205.145H232.393V205.029C232.393 204.091 232.165 203.384 231.716 202.915C231.266 202.446 230.582 202.208 229.683 202.208H220.205C218.622 202.208 217.581 202.374 217.074 202.706C216.568 203.038 216.311 203.615 216.311 204.438C216.311 205.246 216.539 205.837 216.996 206.198C217.452 206.559 218.301 206.79 219.528 206.891L233.064 207.122C236.152 207.208 238.327 207.937 239.582 209.308C240.844 210.679 241.472 213.017 241.472 216.321C241.472 218.284 241.236 219.806 240.78 220.881C240.316 221.956 239.532 222.88 238.434 223.637C237.706 224.121 236.729 224.467 235.481 224.676C234.24 224.885 232.443 224.986 230.09 224.986H219.128C214.628 224.986 211.619 224.46 210.1 223.399C208.58 222.346 207.817 220.369 207.817 217.475C207.817 217.309 207.825 217.035 207.846 216.646C207.882 216.271 207.91 215.802 207.946 215.239Z" fill="white"/>
<path d="M257.946 196.352H271.446C278.485 196.352 280.946 198.841 280.946 205.811V215.154C280.946 222.124 278.485 224.649 271.446 224.649H257.946V196.352ZM270.954 221.85C276.146 221.85 277.722 220.565 277.722 215.19V206.049C277.722 200.522 276.296 199.158 270.954 199.158H261.027V221.85H270.954Z" fill="white"/>
<path d="M295.773 196.352H292.656V224.649H295.773V196.352Z" fill="white"/>
<path d="M317.389 196.004H320.926C327.701 196.004 331.003 198.226 331.003 203.32V204.525H327.808V204.179C327.808 199.9 325.733 198.962 320.733 198.962H318.273C315.499 198.962 313.538 199.041 312.004 200.362C310.621 201.567 310.542 203.435 310.542 206.473V214.525C310.542 217.563 310.621 219.431 312.004 220.636C313.58 222 315.542 222.036 318.273 222.036H320.733C323.237 222.036 325.005 222 326.425 220.788C327.694 219.698 327.808 217.945 327.808 215.182V213.428H320.035V210.55H330.996V215.297C330.996 222.577 328.379 224.987 320.919 224.987H317.382C309.922 224.987 307.304 222.577 307.304 215.297V205.694C307.312 198.414 309.929 196.004 317.389 196.004Z" fill="white"/>
<path d="M345.595 196.352H342.478V224.649H345.595V196.352Z" fill="white"/>
<path d="M354.409 196.352V199.353H363.295V224.649H366.412V199.353H375.334V196.352H354.409Z" fill="white"/>
<path d="M393.569 199.353H394.568L400.145 214.606H388.035L393.569 199.353ZM391.537 196.352L381.189 224.649H384.384L387.001 217.405H401.157L403.81 224.649H407.005L396.615 196.352H391.537Z" fill="white"/>
<path d="M416.619 196.352V224.649H435.511V221.691H419.664V196.352H416.619Z" fill="white"/>
</svg>
