<svg width="358" height="315" viewBox="0 0 358 315" fill="none" xmlns="http://www.w3.org/2000/svg">
<mask id="mask0_9371_13456" style="mask-type:alpha" maskUnits="userSpaceOnUse" x="0" y="0" width="358" height="315">
<rect width="358" height="315" rx="16" fill="#D9D9D9"/>
</mask>
<g mask="url(#mask0_9371_13456)">
<rect width="595.833" height="557.917" transform="matrix(-1 0 0 1 576.875 -152.57)" fill="#B0244A"/>
</g>
<path d="M27.5383 168.375H21.2422V146.676H30.7963L38.3631 160.229L46.0521 146.676H55.4759V168.375H49.2123V152.911L40.4482 168.375H36.221L27.5383 152.911V168.375Z" fill="#F6F6F6"/>
<path d="M64.7859 168.375H57.7241L69.2983 146.676H77.5574L88.9197 168.375H81.8172L79.7647 164.763H66.8466L64.7859 168.375ZM69.2983 159.539H77.4433L73.3301 151.86L69.2983 159.539Z" fill="#F6F6F6"/>
<path d="M108.224 146.676C111.579 146.676 113.868 147.189 115.082 148.208C116.295 149.228 116.906 151.089 116.906 153.786C116.906 155.663 116.637 157.052 116.092 157.967C115.554 158.881 114.642 159.491 113.371 159.804C114.495 160.077 115.334 160.558 115.888 161.249C116.45 161.939 116.727 162.829 116.727 163.929V168.375H110.252V165.068C110.252 164.21 110.056 163.624 109.657 163.303C109.266 162.982 108.484 162.821 107.328 162.821H97.6757V168.375H91.1841V146.676H108.224ZM107.979 152.084H97.6838V157.389H107.979C108.843 157.389 109.445 157.18 109.796 156.771C110.146 156.362 110.317 155.615 110.317 154.532C110.317 153.673 110.129 153.055 109.763 152.67C109.388 152.277 108.794 152.084 107.979 152.084Z" fill="#F6F6F6"/>
<path d="M127.6 154.733H130.321L138.808 146.676H147.409L135.941 157.389L148.908 168.375H139.908L130.313 160.173H127.592V168.375H121.125V146.676H127.592V154.733H127.6Z" fill="#F6F6F6"/>
<path d="M150.659 161.16L157.053 161.143V161.537C157.053 162.355 157.248 162.901 157.639 163.19C158.03 163.479 158.845 163.623 160.091 163.623H168.22C169.018 163.623 169.588 163.487 169.93 163.206C170.272 162.933 170.443 162.468 170.443 161.826C170.443 161.176 170.248 160.71 169.849 160.429C169.458 160.148 168.611 159.956 167.308 159.86L157.143 159.627C154.601 159.547 152.883 159.057 151.979 158.142C151.083 157.227 150.635 155.566 150.635 153.159C150.635 151.915 150.757 150.888 150.993 150.085C151.229 149.283 151.612 148.609 152.133 148.071C152.752 147.469 153.559 147.044 154.552 146.787C155.546 146.539 157.175 146.41 159.423 146.41H169.303C171.755 146.41 173.514 146.868 174.589 147.782C175.664 148.697 176.202 150.174 176.202 152.228C176.202 152.364 176.202 152.509 176.194 152.661C176.186 152.814 176.169 153.071 176.145 153.416H169.906V153.327C169.906 152.605 169.727 152.068 169.368 151.706C169.01 151.345 168.48 151.169 167.764 151.169H160.303C159.057 151.169 158.242 151.297 157.843 151.546C157.444 151.795 157.248 152.244 157.248 152.87C157.248 153.496 157.428 153.937 157.786 154.218C158.144 154.491 158.812 154.676 159.782 154.748L170.427 154.924C172.854 154.989 174.565 155.55 175.559 156.602C176.552 157.653 177.049 159.442 177.049 161.978C177.049 163.487 176.87 164.65 176.503 165.477C176.137 166.303 175.526 167.01 174.663 167.587C174.092 167.956 173.319 168.221 172.341 168.382C171.364 168.542 169.947 168.623 168.098 168.623H159.472C155.929 168.623 153.567 168.213 152.37 167.403C151.172 166.592 150.578 165.076 150.578 162.861C150.578 162.732 150.586 162.524 150.602 162.227C150.618 161.93 150.635 161.585 150.659 161.16Z" fill="#F6F6F6"/>
<path d="M208.554 154.499V154.443C208.554 153.44 208.261 152.757 207.675 152.388C207.088 152.019 205.761 151.835 203.692 151.835H199.921C197.705 151.835 196.288 152.107 195.669 152.653C195.05 153.199 194.732 154.346 194.732 156.104V159.121C194.732 160.686 195.083 161.761 195.783 162.339C196.483 162.917 197.868 163.214 199.937 163.214H203.684C205.541 163.214 206.828 163.037 207.528 162.7C208.229 162.355 208.579 161.761 208.579 160.919C208.579 160.798 208.563 160.606 208.522 160.333C208.522 160.301 208.522 160.277 208.522 160.261H200.906V155.871H215.258V162.997C215.258 165.035 214.517 166.488 213.042 167.346C211.568 168.205 208.994 168.638 205.337 168.638H198.137C195.93 168.638 194.292 168.518 193.242 168.277C192.191 168.036 191.295 167.619 190.562 167.041C189.707 166.351 189.088 165.501 188.697 164.498C188.306 163.495 188.11 162.219 188.11 160.686V154.772C188.11 151.666 188.827 149.491 190.269 148.264C191.71 147.036 194.317 146.418 198.104 146.418H205.337C207.675 146.418 209.393 146.522 210.501 146.739C211.609 146.956 212.489 147.309 213.124 147.814C213.792 148.336 214.28 149.042 214.598 149.933C214.916 150.824 215.079 151.939 215.079 153.279C215.079 153.6 215.079 153.849 215.071 154.025C215.062 154.202 215.062 154.362 215.046 154.507H208.554V154.499Z" fill="#F6F6F6"/>
<path d="M236.304 146.676C239.66 146.676 241.949 147.189 243.162 148.208C244.376 149.228 244.987 151.089 244.987 153.786C244.987 155.663 244.718 157.052 244.172 157.967C243.635 158.881 242.723 159.491 241.452 159.804C242.576 160.077 243.415 160.558 243.969 161.249C244.531 161.939 244.808 162.829 244.808 163.929V168.375H238.332V165.068C238.332 164.21 238.137 163.624 237.746 163.303C237.355 162.982 236.573 162.821 235.416 162.821H225.765V168.375H219.273V146.676H236.304ZM236.06 152.084H225.765V157.389H236.06C236.923 157.389 237.526 157.18 237.876 156.771C238.218 156.362 238.398 155.615 238.398 154.532C238.398 153.673 238.21 153.055 237.844 152.67C237.469 152.277 236.874 152.084 236.06 152.084Z" fill="#F6F6F6"/>
<path d="M259.184 168.63C256.708 168.63 254.892 168.518 253.743 168.285C252.595 168.061 251.658 167.667 250.941 167.114C250.127 166.496 249.532 165.677 249.174 164.674C248.815 163.671 248.636 162.339 248.636 160.678V154.764C248.636 152.95 248.815 151.506 249.174 150.454C249.532 149.395 250.127 148.553 250.941 147.935C251.65 147.389 252.603 147.004 253.784 146.771C254.965 146.538 256.757 146.418 259.16 146.418H266.775C269.186 146.418 270.986 146.538 272.175 146.771C273.365 147.004 274.309 147.397 275.018 147.935C275.808 148.545 276.378 149.379 276.745 150.438C277.111 151.498 277.291 152.854 277.291 154.507V160.557C277.291 162.227 277.111 163.583 276.745 164.626C276.378 165.669 275.8 166.504 275.018 167.122C274.309 167.675 273.365 168.069 272.2 168.293C271.035 168.518 269.227 168.638 266.775 168.638H259.184V168.63ZM260.935 163.214H265.049C267.337 163.214 268.852 162.917 269.602 162.331C270.351 161.745 270.726 160.654 270.726 159.057V155.983C270.726 154.386 270.351 153.303 269.602 152.709C268.852 152.124 267.329 151.827 265.049 151.827H260.903C258.565 151.827 257.034 152.124 256.309 152.717C255.584 153.311 255.217 154.435 255.217 156.096V159.113C255.217 160.678 255.6 161.753 256.366 162.331C257.132 162.925 258.655 163.214 260.935 163.214Z" fill="#F6F6F6"/>
<path d="M281.151 146.676H287.619V159.539C287.619 161.008 287.944 161.987 288.596 162.492C289.248 162.99 290.665 163.239 292.848 163.239H296.521C298.337 163.239 299.551 162.974 300.162 162.444C300.781 161.915 301.09 160.944 301.09 159.539V146.676H307.566V161.594C307.566 164.146 306.898 165.959 305.554 167.026C304.21 168.094 301.889 168.631 298.582 168.631H291.349C287.464 168.631 284.8 168.118 283.342 167.099C281.884 166.079 281.16 164.242 281.16 161.594V146.676H281.151Z" fill="#F6F6F6"/>
<path d="M328.099 146.676C329.541 146.676 330.689 146.748 331.553 146.884C332.408 147.029 333.141 147.254 333.736 147.575C334.811 148.144 335.585 149.003 336.073 150.134C336.554 151.266 336.798 152.831 336.798 154.821C336.798 157.79 336.318 159.892 335.348 161.12C334.379 162.348 332.742 162.966 330.437 162.966H318.333V168.375H311.842V146.676H328.099ZM327.871 152.084H318.333V157.581H327.871C328.735 157.581 329.337 157.365 329.688 156.931C330.038 156.498 330.209 155.728 330.209 154.62C330.209 153.738 330.022 153.096 329.655 152.686C329.28 152.285 328.686 152.084 327.871 152.084Z" fill="#F6F6F6"/>
</svg>
