<svg width="479" height="422" viewBox="0 0 479 422" fill="none" xmlns="http://www.w3.org/2000/svg">
<g clip-path="url(#clip0_11133_7056)">
<rect y="0.234375" width="479" height="421" rx="32" fill="white"/>
<g filter="url(#filter0_f_11133_7056)">
<path d="M-179.888 -220.301C-197.623 -220.301 -212 -205.924 -212 -188.189L-212 519.587C-212 537.322 -197.623 551.699 -179.888 551.699L435.888 551.699C453.623 551.699 468 537.322 468 519.588L468 -188.189C468 -205.924 453.623 -220.301 435.888 -220.301L-179.888 -220.301Z" fill="#FFD5CB"/>
</g>
<g filter="url(#filter1_f_11133_7056)">
<circle cx="-89.9999" cy="538.699" r="399" transform="rotate(-90 -89.9999 538.699)" fill="#FF7F6A"/>
</g>
<g filter="url(#filter2_f_11133_7056)">
<ellipse cx="310.5" cy="86.6993" rx="313" ry="313.5" transform="rotate(-90 310.5 86.6993)" fill="#FF8DA9"/>
</g>
<g filter="url(#filter3_f_11133_7056)">
<circle cx="396" cy="-58.3007" r="399" transform="rotate(-90 396 -58.3007)" fill="#6E5CA1"/>
</g>
<g filter="url(#filter4_f_11133_7056)">
<path d="M557 -428.301C749.747 -428.301 906 -272.048 906 -79.3007C906 113.447 749.747 269.699 557 269.699C364.253 269.699 208 113.447 208 -79.3008C208 -272.048 364.253 -428.301 557 -428.301Z" fill="#71A1FF" fill-opacity="0.88"/>
</g>
<g filter="url(#filter5_f_11133_7056)">
<path d="M-263.5 241.699C-83.1789 241.699 63.0001 387.878 63 568.199C63 748.52 -83.179 894.699 -263.5 894.699C-443.821 894.699 -590 748.52 -590 568.199C-590 387.878 -443.821 241.699 -263.5 241.699Z" fill="#FFBD98"/>
</g>
<g filter="url(#filter6_f_11133_7056)">
<path d="M-376.5 253.699C-196.179 253.699 -49.9999 399.878 -50 580.199C-50 760.52 -196.179 906.699 -376.5 906.699C-556.821 906.699 -703 760.52 -703 580.199C-703 399.878 -556.821 253.699 -376.5 253.699Z" fill="#FFBD98"/>
</g>
</g>
<path d="M36.846 223.517H28.4219V194.484H41.2052L51.3295 212.619L61.6172 194.484H74.2262V223.517H65.8456V202.827L54.1194 223.517H48.4633L36.846 202.827V223.517Z" fill="#F6F6F6"/>
<path d="M86.6829 223.517H77.2344L92.7204 194.484H103.771L118.974 223.517H109.471L106.724 218.685H89.4401L86.6829 223.517ZM92.7204 211.696H103.618L98.1149 201.42L92.7204 211.696Z" fill="#F6F6F6"/>
<path d="M144.803 194.484C149.293 194.484 152.355 195.172 153.979 196.535C155.602 197.899 156.42 200.39 156.42 203.997C156.42 206.51 156.06 208.367 155.33 209.591C154.611 210.815 153.39 211.631 151.69 212.05C153.194 212.415 154.316 213.059 155.058 213.983C155.81 214.906 156.18 216.098 156.18 217.569V223.517H147.516V219.093C147.516 217.945 147.255 217.161 146.721 216.731C146.197 216.302 145.151 216.087 143.604 216.087H130.69V223.517H122.004V194.484H144.803ZM144.476 201.721H130.701V208.818H144.476C145.631 208.818 146.437 208.539 146.906 207.991C147.374 207.444 147.603 206.445 147.603 204.996C147.603 203.847 147.353 203.02 146.862 202.505C146.361 201.979 145.565 201.721 144.476 201.721Z" fill="#F6F6F6"/>
<path d="M170.728 205.264H174.368L185.724 194.484H197.232L181.888 208.818L199.238 223.517H187.195L174.357 212.544H170.717V223.517H162.064V194.484H170.717V205.264H170.728Z" fill="#F6F6F6"/>
<path d="M201.58 213.863L210.135 213.842V214.368C210.135 215.463 210.396 216.193 210.919 216.58C211.442 216.966 212.532 217.16 214.2 217.16H225.076C226.144 217.16 226.907 216.977 227.364 216.601C227.822 216.236 228.051 215.614 228.051 214.755C228.051 213.885 227.789 213.262 227.255 212.886C226.732 212.511 225.599 212.253 223.855 212.124L210.254 211.813C206.854 211.705 204.555 211.05 203.345 209.826C202.146 208.602 201.547 206.38 201.547 203.159C201.547 201.494 201.71 200.12 202.027 199.046C202.343 197.973 202.855 197.071 203.552 196.351C204.38 195.546 205.459 194.977 206.789 194.634C208.118 194.301 210.298 194.129 213.306 194.129H226.525C229.806 194.129 232.159 194.741 233.598 195.965C235.037 197.189 235.756 199.165 235.756 201.913C235.756 202.096 235.756 202.289 235.745 202.493C235.734 202.697 235.712 203.041 235.68 203.502H227.332V203.384C227.332 202.418 227.092 201.698 226.612 201.215C226.133 200.732 225.425 200.496 224.465 200.496H214.483C212.816 200.496 211.726 200.668 211.192 201.001C210.658 201.333 210.396 201.935 210.396 202.772C210.396 203.61 210.636 204.2 211.115 204.576C211.595 204.941 212.489 205.188 213.785 205.285L228.029 205.521C231.277 205.607 233.565 206.358 234.895 207.765C236.224 209.171 236.889 211.566 236.889 214.959C236.889 216.977 236.649 218.534 236.159 219.64C235.669 220.746 234.851 221.691 233.696 222.464C232.933 222.958 231.898 223.312 230.59 223.527C229.282 223.741 227.386 223.849 224.912 223.849H213.371C208.631 223.849 205.47 223.301 203.868 222.217C202.266 221.132 201.471 219.103 201.471 216.14C201.471 215.968 201.482 215.689 201.503 215.291C201.525 214.894 201.547 214.432 201.58 213.863Z" fill="#F6F6F6"/>
<path d="M279.043 204.953V204.878C279.043 203.535 278.651 202.623 277.866 202.129C277.082 201.635 275.305 201.388 272.537 201.388H267.492C264.527 201.388 262.631 201.753 261.803 202.483C260.975 203.213 260.55 204.749 260.55 207.1V211.137C260.55 213.231 261.018 214.67 261.955 215.443C262.893 216.216 264.745 216.613 267.513 216.613H272.526C275.011 216.613 276.733 216.377 277.67 215.926C278.608 215.464 279.076 214.67 279.076 213.542C279.076 213.381 279.054 213.124 279 212.758C279 212.716 279 212.683 279 212.662H268.81V206.789H288.013V216.323C288.013 219.05 287.021 220.994 285.048 222.143C283.076 223.291 279.632 223.871 274.739 223.871H265.105C262.152 223.871 259.961 223.71 258.555 223.388C257.149 223.066 255.951 222.508 254.97 221.735C253.825 220.811 252.997 219.673 252.474 218.331C251.951 216.989 251.689 215.282 251.689 213.231V205.318C251.689 201.163 252.648 198.253 254.577 196.61C256.506 194.967 259.994 194.141 265.061 194.141H274.739C277.866 194.141 280.166 194.28 281.648 194.57C283.13 194.86 284.307 195.332 285.157 196.009C286.051 196.707 286.705 197.652 287.13 198.843C287.555 200.035 287.773 201.528 287.773 203.321C287.773 203.75 287.773 204.083 287.762 204.319C287.751 204.555 287.751 204.77 287.729 204.963H279.043V204.953Z" fill="#F6F6F6"/>
<path d="M316.172 194.484C320.662 194.484 323.725 195.172 325.349 196.535C326.972 197.899 327.79 200.39 327.79 203.997C327.79 206.51 327.43 208.367 326.7 209.591C325.981 210.815 324.76 211.631 323.06 212.05C324.564 212.415 325.686 213.059 326.428 213.983C327.179 214.906 327.55 216.098 327.55 217.569V223.517H318.886V219.093C318.886 217.945 318.625 217.161 318.101 216.731C317.578 216.302 316.532 216.087 314.985 216.087H302.07V223.517H293.385V194.484H316.172ZM315.846 201.721H302.07V208.818H315.846C317.001 208.818 317.807 208.539 318.276 207.991C318.734 207.444 318.973 206.445 318.973 204.996C318.973 203.847 318.723 203.02 318.232 202.505C317.731 201.979 316.935 201.721 315.846 201.721Z" fill="#F6F6F6"/>
<path d="M346.785 223.86C343.472 223.86 341.042 223.71 339.505 223.399C337.968 223.098 336.715 222.572 335.756 221.831C334.666 221.004 333.871 219.909 333.391 218.567C332.912 217.225 332.672 215.443 332.672 213.22V205.307C332.672 202.88 332.912 200.948 333.391 199.541C333.871 198.124 334.666 196.997 335.756 196.17C336.704 195.44 337.979 194.924 339.559 194.613C341.14 194.302 343.537 194.141 346.752 194.141H356.942C360.168 194.141 362.576 194.302 364.167 194.613C365.758 194.924 367.022 195.451 367.97 196.17C369.028 196.986 369.79 198.103 370.281 199.52C370.771 200.937 371.011 202.752 371.011 204.963V213.059C371.011 215.292 370.771 217.107 370.281 218.503C369.79 219.899 369.017 221.015 367.97 221.842C367.022 222.583 365.758 223.109 364.2 223.41C362.641 223.71 360.222 223.871 356.942 223.871H346.785V223.86ZM349.128 216.613H354.631C357.694 216.613 359.721 216.216 360.723 215.432C361.726 214.648 362.227 213.188 362.227 211.051V206.939C362.227 204.802 361.726 203.353 360.723 202.558C359.721 201.775 357.683 201.377 354.631 201.377H349.084C345.957 201.377 343.908 201.775 342.938 202.569C341.968 203.364 341.477 204.867 341.477 207.089V211.126C341.477 213.22 341.99 214.659 343.014 215.432C344.038 216.227 346.076 216.613 349.128 216.613Z" fill="#F6F6F6"/>
<path d="M376.178 194.484H384.831V211.696C384.831 213.661 385.267 214.97 386.139 215.647C387.01 216.313 388.907 216.645 391.827 216.645H396.742C399.173 216.645 400.796 216.291 401.614 215.582C402.442 214.874 402.856 213.575 402.856 211.696V194.484H411.52V214.444C411.52 217.859 410.626 220.285 408.828 221.713C407.03 223.141 403.924 223.861 399.499 223.861H389.822C384.624 223.861 381.06 223.174 379.109 221.81C377.159 220.446 376.189 217.988 376.189 214.444V194.484H376.178Z" fill="#F6F6F6"/>
<path d="M438.993 194.484C440.922 194.484 442.458 194.581 443.613 194.764C444.758 194.957 445.739 195.257 446.534 195.687C447.973 196.449 449.008 197.598 449.662 199.112C450.305 200.626 450.632 202.72 450.632 205.382C450.632 209.355 449.989 212.168 448.692 213.811C447.395 215.454 445.205 216.28 442.12 216.28H425.926V223.517H417.24V194.484H438.993ZM438.688 201.721H425.926V209.076H438.688C439.843 209.076 440.649 208.786 441.118 208.206C441.586 207.626 441.815 206.596 441.815 205.114C441.815 203.933 441.565 203.074 441.074 202.526C440.573 201.99 439.777 201.721 438.688 201.721Z" fill="#F6F6F6"/>
<defs>
<filter id="filter0_f_11133_7056" x="-612" y="-620.301" width="1480" height="1572" filterUnits="userSpaceOnUse" color-interpolation-filters="sRGB">
<feFlood flood-opacity="0" result="BackgroundImageFix"/>
<feBlend mode="normal" in="SourceGraphic" in2="BackgroundImageFix" result="shape"/>
<feGaussianBlur stdDeviation="200" result="effect1_foregroundBlur_11133_7056"/>
</filter>
<filter id="filter1_f_11133_7056" x="-874.1" y="-245.401" width="1568.2" height="1568.2" filterUnits="userSpaceOnUse" color-interpolation-filters="sRGB">
<feFlood flood-opacity="0" result="BackgroundImageFix"/>
<feBlend mode="normal" in="SourceGraphic" in2="BackgroundImageFix" result="shape"/>
<feGaussianBlur stdDeviation="192.55" result="effect1_foregroundBlur_11133_7056"/>
</filter>
<filter id="filter2_f_11133_7056" x="-103" y="-326.301" width="827" height="826" filterUnits="userSpaceOnUse" color-interpolation-filters="sRGB">
<feFlood flood-opacity="0" result="BackgroundImageFix"/>
<feBlend mode="normal" in="SourceGraphic" in2="BackgroundImageFix" result="shape"/>
<feGaussianBlur stdDeviation="50" result="effect1_foregroundBlur_11133_7056"/>
</filter>
<filter id="filter3_f_11133_7056" x="-403" y="-857.301" width="1598" height="1598" filterUnits="userSpaceOnUse" color-interpolation-filters="sRGB">
<feFlood flood-opacity="0" result="BackgroundImageFix"/>
<feBlend mode="normal" in="SourceGraphic" in2="BackgroundImageFix" result="shape"/>
<feGaussianBlur stdDeviation="200" result="effect1_foregroundBlur_11133_7056"/>
</filter>
<filter id="filter4_f_11133_7056" x="-61.9" y="-698.201" width="1237.8" height="1237.8" filterUnits="userSpaceOnUse" color-interpolation-filters="sRGB">
<feFlood flood-opacity="0" result="BackgroundImageFix"/>
<feBlend mode="normal" in="SourceGraphic" in2="BackgroundImageFix" result="shape"/>
<feGaussianBlur stdDeviation="134.95" result="effect1_foregroundBlur_11133_7056"/>
</filter>
<filter id="filter5_f_11133_7056" x="-890" y="-58.3008" width="1253" height="1253" filterUnits="userSpaceOnUse" color-interpolation-filters="sRGB">
<feFlood flood-opacity="0" result="BackgroundImageFix"/>
<feBlend mode="normal" in="SourceGraphic" in2="BackgroundImageFix" result="shape"/>
<feGaussianBlur stdDeviation="150" result="effect1_foregroundBlur_11133_7056"/>
</filter>
<filter id="filter6_f_11133_7056" x="-815.7" y="140.999" width="878.4" height="878.4" filterUnits="userSpaceOnUse" color-interpolation-filters="sRGB">
<feFlood flood-opacity="0" result="BackgroundImageFix"/>
<feBlend mode="normal" in="SourceGraphic" in2="BackgroundImageFix" result="shape"/>
<feGaussianBlur stdDeviation="56.35" result="effect1_foregroundBlur_11133_7056"/>
</filter>
<clipPath id="clip0_11133_7056">
<rect y="0.234375" width="479" height="421" rx="32" fill="white"/>
</clipPath>
</defs>
</svg>
