<svg width="479" height="422" viewBox="0 0 479 422" fill="none" xmlns="http://www.w3.org/2000/svg">
<mask id="mask0_11133_7094" style="mask-type:alpha" maskUnits="userSpaceOnUse" x="0" y="0" width="479" height="422">
<rect width="479" height="421.466" rx="32.1117" fill="#D9D9D9"/>
</mask>
<g mask="url(#mask0_11133_7094)">
<rect width="479" height="421" rx="32.1117" transform="matrix(-1 0 0 1 479 0)" fill="url(#paint0_linear_11133_7094)"/>
</g>
<path d="M36.846 225.283H28.4219V196.25H41.2052L51.3295 214.385L61.6172 196.25H74.2262V225.283H65.8456V204.593L54.1194 225.283H48.4633L36.846 204.593V225.283Z" fill="#F6F6F6"/>
<path d="M86.6829 225.283H77.2344L92.7204 196.25H103.771L118.974 225.283H109.471L106.724 220.451H89.4401L86.6829 225.283ZM92.7204 213.461H103.618L98.1149 203.186L92.7204 213.461Z" fill="#F6F6F6"/>
<path d="M144.803 196.25C149.293 196.25 152.355 196.937 153.979 198.301C155.602 199.664 156.42 202.155 156.42 205.763C156.42 208.275 156.06 210.133 155.33 211.357C154.611 212.581 153.39 213.397 151.69 213.816C153.194 214.181 154.316 214.825 155.058 215.748C155.81 216.672 156.18 217.863 156.18 219.334V225.283H147.516V220.859C147.516 219.71 147.255 218.926 146.721 218.497C146.197 218.067 145.151 217.853 143.604 217.853H130.69V225.283H122.004V196.25H144.803ZM144.476 203.487H130.701V210.584H144.476C145.631 210.584 146.437 210.305 146.906 209.757C147.374 209.209 147.603 208.211 147.603 206.761C147.603 205.613 147.353 204.786 146.862 204.27C146.361 203.744 145.565 203.487 144.476 203.487Z" fill="#F6F6F6"/>
<path d="M170.728 207.03H174.368L185.724 196.25H197.232L181.888 210.584L199.238 225.283H187.195L174.357 214.31H170.717V225.283H162.064V196.25H170.717V207.03H170.728Z" fill="#F6F6F6"/>
<path d="M201.58 215.629L210.135 215.608V216.134C210.135 217.229 210.396 217.959 210.919 218.345C211.442 218.732 212.532 218.925 214.2 218.925H225.076C226.144 218.925 226.907 218.743 227.364 218.367C227.822 218.002 228.051 217.379 228.051 216.52C228.051 215.651 227.789 215.028 227.255 214.652C226.732 214.276 225.599 214.018 223.855 213.89L210.254 213.578C206.854 213.471 204.555 212.816 203.345 211.592C202.146 210.368 201.547 208.145 201.547 204.924C201.547 203.26 201.71 201.886 202.027 200.812C202.343 199.738 202.855 198.836 203.552 198.117C204.38 197.312 205.459 196.743 206.789 196.399C208.118 196.066 210.298 195.895 213.306 195.895H226.525C229.806 195.895 232.159 196.507 233.598 197.731C235.037 198.955 235.756 200.93 235.756 203.679C235.756 203.861 235.756 204.055 235.745 204.259C235.734 204.463 235.712 204.806 235.68 205.268H227.332V205.15C227.332 204.183 227.092 203.464 226.612 202.981C226.133 202.498 225.425 202.262 224.465 202.262H214.483C212.816 202.262 211.726 202.433 211.192 202.766C210.658 203.099 210.396 203.7 210.396 204.538C210.396 205.375 210.636 205.966 211.115 206.342C211.595 206.707 212.489 206.954 213.785 207.05L228.029 207.286C231.277 207.372 233.565 208.124 234.895 209.53C236.224 210.937 236.889 213.331 236.889 216.724C236.889 218.743 236.649 220.3 236.159 221.406C235.669 222.511 234.851 223.456 233.696 224.229C232.933 224.723 231.898 225.078 230.59 225.292C229.282 225.507 227.386 225.614 224.912 225.614H213.371C208.631 225.614 205.47 225.067 203.868 223.982C202.266 222.898 201.471 220.869 201.471 217.905C201.471 217.733 201.482 217.454 201.503 217.057C201.525 216.66 201.547 216.198 201.58 215.629Z" fill="#F6F6F6"/>
<path d="M279.043 206.718V206.643C279.043 205.301 278.651 204.388 277.866 203.895C277.082 203.401 275.305 203.154 272.537 203.154H267.492C264.527 203.154 262.631 203.519 261.803 204.249C260.975 204.979 260.55 206.514 260.55 208.866V212.903C260.55 214.997 261.018 216.435 261.955 217.208C262.893 217.981 264.745 218.379 267.513 218.379H272.526C275.011 218.379 276.733 218.142 277.67 217.692C278.608 217.23 279.076 216.435 279.076 215.308C279.076 215.147 279.054 214.889 279 214.524C279 214.481 279 214.449 279 214.427H268.81V208.554H288.013V218.089C288.013 220.816 287.021 222.759 285.048 223.908C283.076 225.057 279.632 225.637 274.739 225.637H265.105C262.152 225.637 259.961 225.476 258.555 225.154C257.149 224.832 255.951 224.273 254.97 223.5C253.825 222.577 252.997 221.439 252.474 220.097C251.951 218.754 251.689 217.047 251.689 214.997V207.083C251.689 202.928 252.648 200.018 254.577 198.376C256.506 196.733 259.994 195.906 265.061 195.906H274.739C277.866 195.906 280.166 196.046 281.648 196.336C283.13 196.626 284.307 197.098 285.157 197.774C286.051 198.472 286.705 199.417 287.13 200.609C287.555 201.801 287.773 203.293 287.773 205.086C287.773 205.516 287.773 205.849 287.762 206.085C287.751 206.321 287.751 206.536 287.729 206.729H279.043V206.718Z" fill="#F6F6F6"/>
<path d="M316.172 196.25C320.662 196.25 323.725 196.937 325.349 198.301C326.972 199.664 327.79 202.155 327.79 205.763C327.79 208.275 327.43 210.133 326.7 211.357C325.981 212.581 324.76 213.397 323.06 213.816C324.564 214.181 325.686 214.825 326.428 215.748C327.179 216.672 327.55 217.863 327.55 219.334V225.283H318.886V220.859C318.886 219.71 318.625 218.926 318.101 218.497C317.578 218.067 316.532 217.853 314.985 217.853H302.07V225.283H293.385V196.25H316.172ZM315.846 203.487H302.07V210.584H315.846C317.001 210.584 317.807 210.305 318.276 209.757C318.734 209.209 318.973 208.211 318.973 206.761C318.973 205.613 318.723 204.786 318.232 204.27C317.731 203.744 316.935 203.487 315.846 203.487Z" fill="#F6F6F6"/>
<path d="M346.785 225.626C343.472 225.626 341.042 225.476 339.505 225.164C337.968 224.864 336.715 224.338 335.756 223.597C334.666 222.77 333.871 221.675 333.391 220.333C332.912 218.991 332.672 217.208 332.672 214.986V207.073C332.672 204.646 332.912 202.713 333.391 201.307C333.871 199.89 334.666 198.762 335.756 197.936C336.704 197.205 337.979 196.69 339.559 196.379C341.14 196.067 343.537 195.906 346.752 195.906H356.942C360.168 195.906 362.576 196.067 364.167 196.379C365.758 196.69 367.022 197.216 367.97 197.936C369.028 198.752 369.79 199.868 370.281 201.285C370.771 202.703 371.011 204.517 371.011 206.729V214.825C371.011 217.058 370.771 218.873 370.281 220.268C369.79 221.664 369.017 222.781 367.97 223.608C367.022 224.348 365.758 224.875 364.2 225.175C362.641 225.476 360.222 225.637 356.942 225.637H346.785V225.626ZM349.128 218.379H354.631C357.694 218.379 359.721 217.981 360.723 217.198C361.726 216.414 362.227 214.954 362.227 212.817V208.705C362.227 206.568 361.726 205.119 360.723 204.324C359.721 203.54 357.683 203.143 354.631 203.143H349.084C345.957 203.143 343.908 203.54 342.938 204.335C341.968 205.129 341.477 206.632 341.477 208.855V212.892C341.477 214.986 341.99 216.425 343.014 217.198C344.038 217.992 346.076 218.379 349.128 218.379Z" fill="#F6F6F6"/>
<path d="M376.178 196.25H384.831V213.461C384.831 215.426 385.267 216.736 386.139 217.413C387.01 218.078 388.907 218.411 391.827 218.411H396.742C399.173 218.411 400.796 218.057 401.614 217.348C402.442 216.639 402.856 215.34 402.856 213.461V196.25H411.52V216.21C411.52 219.624 410.626 222.051 408.828 223.479C407.03 224.907 403.924 225.626 399.499 225.626H389.822C384.624 225.626 381.06 224.939 379.109 223.576C377.159 222.212 376.189 219.753 376.189 216.21V196.25H376.178Z" fill="#F6F6F6"/>
<path d="M438.993 196.25C440.922 196.25 442.458 196.347 443.613 196.529C444.758 196.722 445.739 197.023 446.534 197.453C447.973 198.215 449.008 199.364 449.662 200.878C450.305 202.392 450.632 204.485 450.632 207.148C450.632 211.121 449.989 213.934 448.692 215.577C447.395 217.219 445.205 218.046 442.12 218.046H425.926V225.283H417.24V196.25H438.993ZM438.688 203.487H425.926V210.842H438.688C439.843 210.842 440.649 210.552 441.118 209.972C441.586 209.392 441.815 208.361 441.815 206.88C441.815 205.699 441.565 204.84 441.074 204.292C440.573 203.755 439.777 203.487 438.688 203.487Z" fill="#F6F6F6"/>
<defs>
<linearGradient id="paint0_linear_11133_7094" x1="479" y1="-1.6242e-05" x2="-4.66552e-06" y2="421" gradientUnits="userSpaceOnUse">
<stop stop-color="#6E5CA1"/>
<stop offset="0.163775" stop-color="#5C5799" stop-opacity="0.95"/>
<stop offset="0.289824" stop-color="#5564A3"/>
<stop offset="0.410601" stop-color="#516AA8" stop-opacity="0.996778"/>
<stop offset="0.558518" stop-color="#4C72AF"/>
<stop offset="0.697049" stop-color="#4380BA" stop-opacity="0.98"/>
<stop offset="0.832668" stop-color="#5393D0" stop-opacity="0.95"/>
<stop offset="1" stop-color="#75BBFD"/>
</linearGradient>
</defs>
</svg>
